<svg xmlns="http://www.w3.org/2000/svg" width="54.969" height="53.45" viewBox="0 0 54.969 53.45">
  <g id="Raggruppa_506" data-name="Raggruppa 506" transform="translate(-720 -1414.296)">
    <g id="noun-megaphone-5196277" transform="translate(720 1414.296)">
      <path id="Tracciato_71" data-name="Tracciato 71" d="M157.592,106.719a4.66,4.66,0,0,0,4.648-4.654V69.681a4.651,4.651,0,0,0-6.731-4.161l-16.175,8.091h-11.9a4.939,4.939,0,0,0-4.933,4.933V93.2a4.939,4.939,0,0,0,4.933,4.933h.9l2.3,16.116h0a4.956,4.956,0,0,0,4.882,4.228h5.581a4.936,4.936,0,0,0,4.885-5.638l-1.754-12.256,11.276,5.638h0a4.626,4.626,0,0,0,2.091.5ZM157.4,69.3a.392.392,0,0,1,.411.02.4.4,0,0,1,.2.358v32.392a.4.4,0,0,1-.2.358.421.421,0,0,1-.411.02L143.12,95.3a2.074,2.074,0,0,0-1.173-.7V77.03ZM126.725,93.2V78.544a.7.7,0,0,1,.7-.7h10.289V93.908H127.429a.708.708,0,0,1-.7-.705Zm14.9,20.812a.7.7,0,0,1-.533.243h-5.581a.708.708,0,0,1-.7-.6l-2.128-14.9h7l2.1,14.7a.708.708,0,0,1-.163.563Z" transform="translate(-122.496 -65.029)" fill="#fd7333"/>
      <path id="Tracciato_72" data-name="Tracciato 72" d="M479.994,220.06h-8.88a2.114,2.114,0,1,0,0,4.228h8.88a2.114,2.114,0,1,0,0-4.228Z" transform="translate(-427.139 -201.331)" fill="#fd7333"/>
      <path id="Tracciato_73" data-name="Tracciato 73" d="M460.615,103.266a2.1,2.1,0,0,0,1.173-.355l7.611-5.074a2.114,2.114,0,1,0-2.345-3.518l-7.611,5.074a2.114,2.114,0,0,0,1.173,3.874Z" transform="translate(-417.908 -90.456)" fill="#fd7333"/>
      <path id="Tracciato_74" data-name="Tracciato 74" d="M459.579,308.026l7.611,5.074a2.114,2.114,0,1,0,2.345-3.518l-7.611-5.074a2.114,2.114,0,0,0-2.345,3.518Z" transform="translate(-418.045 -275.275)" fill="#fd7333"/>
    </g>
  </g>
</svg>
