<svg xmlns="http://www.w3.org/2000/svg" width="46.846" height="55.45" viewBox="0 0 46.846 55.45">
  <g id="Raggruppa_507" data-name="Raggruppa 507" transform="translate(-2799.039 -3211)">
    <path id="Tracciato_75" data-name="Tracciato 75" d="M173.9,47.045a9.529,9.529,0,1,0-8.391-5.029l-10.047,6.7a9.52,9.52,0,1,0,0,12.032l10.047,6.7a9.555,9.555,0,1,0,1.021-1.525l-10.048-6.7a9.491,9.491,0,0,0,0-8.981l10.047-6.7a9.506,9.506,0,0,0,7.371,3.5Zm0,17.2a7.685,7.685,0,1,1-7.685,7.684A7.693,7.693,0,0,1,173.9,64.25Zm-25.808-1.835a7.685,7.685,0,1,1,7.685-7.685A7.694,7.694,0,0,1,148.089,62.414ZM173.9,29.84a7.685,7.685,0,1,1-7.685,7.685A7.694,7.694,0,0,1,173.9,29.84Z" transform="translate(2661.469 3183.995)" fill="#fd7333" stroke="#fd7333" stroke-width="2"/>
  </g>
</svg>
