<?xml version="1.0" encoding="UTF-8"?><svg id="Livello_2" xmlns="http://www.w3.org/2000/svg" viewBox="0 0 619.01 112.08"><defs><style>.cls-1{fill:#fff;}</style></defs><g id="Livello_2-2"><g><g><path class="cls-1" d="M0,103.13c7.25,0,10.41-.91,10.41-6.49V15.44c0-5.58-3.17-6.49-10.41-6.49v-3.4H38.97v3.4h-4.68c-7.25,0-10.41,.91-10.41,6.49V101.39h26.93c8.23,0,13.73-6.34,15.84-21.73h4.3l-2.94,26.87H0v-3.4Z"/><path class="cls-1" d="M110.95,8.95c-7.25,0-10.41,.91-10.41,6.49v57.88c0,14.04,4.98,29.96,22.57,29.96,16.15,0,24.15-13.51,24.15-28.53V15.44c0-5.58-4.3-6.49-11.55-6.49v-3.4h26.72v3.4c-7.25,0-10.57,.91-10.57,6.49v59.02c0,19.7-11.17,33.96-31.02,33.96-24,0-33.76-16-33.76-36.68V15.44c0-5.58-3.17-6.49-10.41-6.49v-3.4h34.29v3.4Z"/><path class="cls-1" d="M179.41,106.53v-3.4c7.25,0,10.41-.91,10.41-6.49V15.44c0-5.58-3.17-6.49-10.41-6.49v-3.4h34.15v3.4c-7.25,0-10.41,.91-10.41,6.49V96.64c0,5.58,3.17,6.49,10.41,6.49v3.4h-34.15Z"/><path class="cls-1" d="M291.78,34.68h-4.3c0-18.26-8.75-26.56-22.11-26.56-10.64,0-18.87,8.68-18.87,19.55,0,7.7,4.38,13.66,12.07,16.68l14.64,5.74c14.41,5.66,25.36,12.98,25.36,28.45,0,19.92-14.41,29.89-32.98,29.89-12,0-20.98-3.62-29.74-9.13v-28.07h4c0,22.26,9.36,32.22,26.64,32.22,11.7,0,19.47-8.3,19.47-20.15,0-9.74-4.75-15.55-16-19.92l-15.7-6.11c-11.47-4.45-19.02-13.13-19.02-24.83,0-17.81,14.26-28.75,30.49-28.75,8.38,0,17.58,2.49,26.04,7.85v23.17Z"/><path class="cls-1" d="M374.94,34.68h-4.3c0-18.26-8.75-26.56-22.11-26.56-10.64,0-18.87,8.68-18.87,19.55,0,7.7,4.38,13.66,12.07,16.68l14.64,5.74c14.41,5.66,25.36,12.98,25.36,28.45,0,19.92-14.41,29.89-32.98,29.89-12,0-20.98-3.62-29.73-9.13v-28.07h4c0,22.26,9.36,32.22,26.64,32.22,11.7,0,19.47-8.3,19.47-20.15,0-9.74-4.75-15.55-16-19.92l-15.7-6.11c-11.47-4.45-19.02-13.13-19.02-24.83,0-17.81,14.26-28.75,30.49-28.75,8.38,0,17.58,2.49,26.04,7.85v23.17Z"/></g><g><rect class="cls-1" x="504.34" width="112.08" height="5.61"/><rect class="cls-1" x="504.34" y="11.21" width="112.08" height="5.61"/><rect class="cls-1" x="535.15" y="22.42" width="50.46" height="5.61"/><rect class="cls-1" x="540.76" y="33.62" width="5.61" height="78.46"/><rect class="cls-1" x="551.97" y="33.62" width="5.61" height="78.46"/><rect class="cls-1" x="563.18" y="33.62" width="5.61" height="78.46"/><rect class="cls-1" x="574.39" y="33.62" width="5.61" height="78.46"/><path class="cls-1" d="M535.16,112.08V53.65c.07-8.22,.1-13.24-1.06-16.55-2.32-7.4-9.23-12.57-16.79-12.57-1.37,0-2.76,.18-4.11,.53-4.16,1.1-7.83,4.05-9.81,7.89-1.86,3.6-2.13,7.6-.76,11.26,1.69,4.53,6.14,7.71,11.07,7.9h.38c3.98,0,7.23-2.1,8.91-5.76,.99-2.14,1.07-4.71,.22-6.88,0-.02-.84-2.53-3.99-4.84l-.04-.03-.04,.04-3.69,3.69-.05,.05,.07,.04c1.14,.68,2.53,1.88,2.72,3.7,.11,1.08-.26,1.89-.27,1.89-.78,1.69-2.04,2.51-3.86,2.51h-.18c-2.71-.1-5.07-1.78-6.01-4.27-.81-2.17-.64-4.55,.48-6.71,1.28-2.47,3.62-4.37,6.27-5.06,.88-.24,1.79-.36,2.71-.36,5.14,0,9.86,3.6,11.47,8.75,.87,2.44,.8,6.82,.77,14.78v58.43h5.61Z"/><path class="cls-1" d="M585.6,112.08V53.65c-.07-8.22-.1-13.24,1.06-16.55,2.32-7.4,9.23-12.57,16.79-12.57,1.37,0,2.76,.18,4.11,.53,4.16,1.1,7.83,4.05,9.81,7.89,1.86,3.6,2.13,7.6,.76,11.26-1.69,4.53-6.14,7.71-11.07,7.9h-.38c-3.98,0-7.23-2.1-8.91-5.76-.99-2.14-1.07-4.71-.22-6.88,0-.02,.84-2.53,3.99-4.84l.04-.03,.04,.04,3.69,3.69,.05,.05-.07,.04c-1.14,.68-2.53,1.88-2.72,3.7-.11,1.08,.26,1.89,.27,1.89,.78,1.69,2.04,2.51,3.86,2.51h.18c2.71-.1,5.07-1.78,6.01-4.27,.81-2.17,.64-4.55-.48-6.71-1.28-2.47-3.62-4.37-6.27-5.06-.88-.24-1.79-.36-2.71-.36-5.14,0-9.86,3.6-11.47,8.75-.87,2.44-.8,6.82-.77,14.78v58.43s-5.61,0-5.61,0Z"/></g></g></g></svg>