<?xml version="1.0" encoding="UTF-8"?><svg id="Livello_2" xmlns="http://www.w3.org/2000/svg" viewBox="0 0 117.26 112.08"><defs><style>.cls-1{fill:#fff;}</style></defs><g id="Livello_2-2"><g><rect class="cls-1" x="2.59" width="112.08" height="5.61"/><rect class="cls-1" x="2.59" y="11.21" width="112.08" height="5.61"/><rect class="cls-1" x="33.4" y="22.42" width="50.46" height="5.61"/><rect class="cls-1" x="39.01" y="33.62" width="5.61" height="78.46"/><rect class="cls-1" x="50.22" y="33.62" width="5.61" height="78.46"/><rect class="cls-1" x="61.43" y="33.62" width="5.61" height="78.46"/><rect class="cls-1" x="72.64" y="33.62" width="5.61" height="78.46"/><path class="cls-1" d="M33.41,112.08V53.65c.07-8.22,.1-13.24-1.06-16.55-2.32-7.4-9.23-12.57-16.79-12.57-1.37,0-2.76,.18-4.11,.53-4.16,1.1-7.83,4.05-9.81,7.89-1.86,3.6-2.13,7.6-.76,11.26,1.69,4.53,6.14,7.71,11.07,7.9h.38c3.98,0,7.23-2.1,8.91-5.76,.99-2.14,1.07-4.71,.22-6.88,0-.02-.84-2.53-3.99-4.84l-.04-.03-.04,.04-3.69,3.69-.05,.05,.07,.04c1.14,.68,2.53,1.88,2.72,3.7,.11,1.08-.26,1.89-.27,1.89-.78,1.69-2.04,2.51-3.86,2.51h-.18c-2.71-.1-5.07-1.78-6.01-4.27-.81-2.17-.64-4.55,.48-6.71,1.28-2.47,3.62-4.37,6.27-5.06,.88-.24,1.79-.36,2.71-.36,5.14,0,9.86,3.6,11.47,8.75,.87,2.44,.8,6.82,.77,14.78v58.43h5.61Z"/><path class="cls-1" d="M83.85,112.08V53.65c-.07-8.22-.1-13.24,1.06-16.55,2.32-7.4,9.23-12.57,16.79-12.57,1.37,0,2.76,.18,4.11,.53,4.16,1.1,7.83,4.05,9.81,7.89,1.86,3.6,2.13,7.6,.76,11.26-1.69,4.53-6.14,7.71-11.07,7.9h-.38c-3.98,0-7.23-2.1-8.91-5.76-.99-2.14-1.07-4.71-.22-6.88,0-.02,.84-2.53,3.99-4.84l.04-.03,.04,.04,3.69,3.69,.05,.05-.07,.04c-1.14,.68-2.53,1.88-2.72,3.7-.11,1.08,.26,1.89,.27,1.89,.78,1.69,2.04,2.51,3.86,2.51h.18c2.71-.1,5.07-1.78,6.01-4.27,.81-2.17,.64-4.55-.48-6.71-1.28-2.47-3.62-4.37-6.27-5.06-.88-.24-1.79-.36-2.71-.36-5.14,0-9.86,3.6-11.47,8.75-.87,2.44-.8,6.82-.77,14.78v58.43s-5.61,0-5.61,0Z"/></g></g></svg>