<svg xmlns="http://www.w3.org/2000/svg" width="54.657" height="54.655" viewBox="0 0 54.657 54.655">
  <g id="Raggruppa_512" data-name="Raggruppa 512" transform="translate(-3219.965 -3039.5)">
    <path id="Tracciato_76" data-name="Tracciato 76" d="M150.6,28H99.1a1.073,1.073,0,0,0,0,2.146h50.436V67.986H135.325a1.073,1.073,0,0,0,0,2.146H150.6a1.073,1.073,0,0,0,1.073-1.073V29.069A1.073,1.073,0,0,0,150.6,28Z" transform="translate(3122.445 3012.004)" fill="#fd7333" stroke="#fd7333" stroke-width="1"/>
    <path id="Tracciato_77" data-name="Tracciato 77" d="M134.564,106.707a6.872,6.872,0,1,0-2.013,4.851,6.864,6.864,0,0,0,2.013-4.851Zm-11.583,0a4.724,4.724,0,1,1,1.384,3.334,4.72,4.72,0,0,1-1.384-3.334Z" transform="translate(3102.062 2947.806)" fill="#fd7333" stroke="#fd7333" stroke-width="1"/>
    <path id="Tracciato_78" data-name="Tracciato 78" d="M98,256.786v22.432a1.073,1.073,0,0,0,1.073,1.073h16.442a1.073,1.073,0,0,0,1.073-1.073V260.7l5.914,3.918a3.834,3.834,0,0,0,5.1-.773l5.958-7.3h0a3.847,3.847,0,0,0-.847-5.636,3.941,3.941,0,0,0-5.187.861l-3.681,4.507-6.085-4.031a7.644,7.644,0,0,0-4.235-1.276h-9.72A5.815,5.815,0,0,0,98,256.786Zm2.146,0a3.667,3.667,0,0,1,3.663-3.663h9.72a5.506,5.506,0,0,1,3.049.919l6.895,4.568a1.073,1.073,0,0,0,1.424-.215l4.295-5.259a1.779,1.779,0,0,1,2.331-.435,1.7,1.7,0,0,1,.378,2.494l-5.958,7.3a1.7,1.7,0,0,1-2.256.342l-7.579-5.022a1.073,1.073,0,0,0-1.666.895v19.44h-14.3Z" transform="translate(3122.469 2813.364)" fill="#fd7333" stroke="#fd7333" stroke-width="1"/>
  </g>
</svg>
