<svg xmlns="http://www.w3.org/2000/svg" width="233.19" height="56.308" viewBox="0 0 233.19 56.308">
  <path id="Tracciato_85" data-name="Tracciato 85" d="M8.676-1.89V0H1.566L1.6-12.042H4.14L4.1-1.89Zm8.388.666V.09A2.748,2.748,0,0,1,16.272.2a2.537,2.537,0,0,1-1.251-.261,1.546,1.546,0,0,1-.675-.891,2.107,2.107,0,0,1-.972.855,3.284,3.284,0,0,1-1.422.315A2.275,2.275,0,0,1,10-.594,3.943,3.943,0,0,1,9.4-2.97V-7.632h2.286v4.176a2.431,2.431,0,0,0,.324,1.476.941.941,0,0,0,.738.4q1.4,0,1.4-3.2V-7.632h2.286v5.04a4.721,4.721,0,0,0,.081,1.071.413.413,0,0,0,.459.3Zm2.682-8.37a1.2,1.2,0,0,1-.891-.378,1.244,1.244,0,0,1-.369-.9,1.4,1.4,0,0,1,.369-.981,1.162,1.162,0,0,1,.891-.4,1.126,1.126,0,0,1,.855.4,1.4,1.4,0,0,1,.369.981,1.254,1.254,0,0,1-.369.891A1.148,1.148,0,0,1,19.746-9.594Zm-1.17,1.962h2.286V0H18.576ZM25.29.234A5.94,5.94,0,0,1,22.5-.4V-2.25a4.658,4.658,0,0,0,1.206.531,4.508,4.508,0,0,0,1.26.207q.954,0,.954-.5a.679.679,0,0,0-.306-.567,8.446,8.446,0,0,0-.99-.585q-.666-.342-1.1-.621a2.6,2.6,0,0,1-.747-.747,1.951,1.951,0,0,1-.315-1.116,1.968,1.968,0,0,1,.4-1.224,2.533,2.533,0,0,1,1.053-.8,3.487,3.487,0,0,1,1.377-.279,5.62,5.62,0,0,1,2.448.558V-5.76a4.721,4.721,0,0,0-1.053-.4,4.5,4.5,0,0,0-1.125-.162q-.864,0-.864.558a.71.71,0,0,0,.333.585,7.908,7.908,0,0,0,1.053.6,10.381,10.381,0,0,1,1.134.612,2.774,2.774,0,0,1,.774.747,1.84,1.84,0,0,1,.324,1.089,2.023,2.023,0,0,1-.882,1.71A3.518,3.518,0,0,1,25.29.234Zm6.57,0A5.94,5.94,0,0,1,29.07-.4V-2.25a4.658,4.658,0,0,0,1.206.531,4.508,4.508,0,0,0,1.26.207q.954,0,.954-.5a.679.679,0,0,0-.306-.567,8.446,8.446,0,0,0-.99-.585q-.666-.342-1.1-.621a2.6,2.6,0,0,1-.747-.747,1.951,1.951,0,0,1-.315-1.116,1.968,1.968,0,0,1,.4-1.224,2.533,2.533,0,0,1,1.053-.8,3.487,3.487,0,0,1,1.377-.279,5.62,5.62,0,0,1,2.448.558V-5.76a4.721,4.721,0,0,0-1.053-.4,4.5,4.5,0,0,0-1.125-.162q-.864,0-.864.558a.71.71,0,0,0,.333.585,7.908,7.908,0,0,0,1.053.6,10.381,10.381,0,0,1,1.134.612,2.774,2.774,0,0,1,.774.747,1.84,1.84,0,0,1,.324,1.089A2.023,2.023,0,0,1,34-.414,3.518,3.518,0,0,1,31.86.234ZM6.408,20.2a5.087,5.087,0,0,1-2.925-.8A4.861,4.861,0,0,1,1.719,17.21a8.134,8.134,0,0,1-.585-3.186,8.64,8.64,0,0,1,.558-3.2A4.916,4.916,0,0,1,3.42,8.579a4.916,4.916,0,0,1,2.934-.837A6.769,6.769,0,0,1,7.7,7.886a5.485,5.485,0,0,1,1.215.378V9.452A4.794,4.794,0,0,0,7.722,9,5.406,5.406,0,0,0,6.444,8.84a3.539,3.539,0,0,0-2.79,1.206A5.88,5.88,0,0,0,2.592,13.97a5.835,5.835,0,0,0,1.071,3.942A3.612,3.612,0,0,0,6.48,19.1a4.969,4.969,0,0,0,1.251-.171,5.668,5.668,0,0,0,1.179-.441v1.188a6.714,6.714,0,0,1-1.206.369A6.117,6.117,0,0,1,6.408,20.2Zm7.452-8.154a2.539,2.539,0,0,1,2.277,1.224,5.385,5.385,0,0,1,.729,3.114h-4.95a3.069,3.069,0,0,0,.819,2.106,2.567,2.567,0,0,0,1.881.738,4.1,4.1,0,0,0,.963-.1,4.225,4.225,0,0,0,.819-.3l-.018.972a4.055,4.055,0,0,1-1.962.432,3.58,3.58,0,0,1-2.745-1.107,4.265,4.265,0,0,1-1.035-3.033,5.225,5.225,0,0,1,.4-2.088,3.359,3.359,0,0,1,1.125-1.44A2.846,2.846,0,0,1,13.86,12.044Zm.018.954a1.6,1.6,0,0,0-1.314.666,3.584,3.584,0,0,0-.63,1.926h3.69a3.637,3.637,0,0,0-.5-1.881A1.42,1.42,0,0,0,13.878,13Zm5.04-.63h1.26v1.188a2.588,2.588,0,0,1,1.017-1.107,2.8,2.8,0,0,1,1.467-.4,2.3,2.3,0,0,1,1.872.774,3.648,3.648,0,0,1,.648,2.376V20h-1.26V15.464a2.9,2.9,0,0,0-.459-1.845,1.486,1.486,0,0,0-1.2-.549,1.656,1.656,0,0,0-1.053.378,2.528,2.528,0,0,0-.756,1.089,4.544,4.544,0,0,0-.279,1.665V20h-1.26Zm11.79,7.614a2.668,2.668,0,0,1-1.062.216,1.687,1.687,0,0,1-1.233-.432,1.738,1.738,0,0,1-.441-1.3V13.16h-.99v-.792h.99V10.082h1.26v2.286h1.386v.792H29.232v4.932a1.788,1.788,0,0,0,.162.891.663.663,0,0,0,.612.261,2.42,2.42,0,0,0,.648-.108Zm1.908-7.614h1.26v1.026a2.238,2.238,0,0,1,.819-.954,2.163,2.163,0,0,1,1.2-.342,2.6,2.6,0,0,1,.81.108v1.062a2.568,2.568,0,0,0-.81-.144,1.7,1.7,0,0,0-1.5.765,3.994,3.994,0,0,0-.513,2.223V20h-1.26Zm8.406,7.866a3.074,3.074,0,0,1-1.746-.5A3.322,3.322,0,0,1,38.1,18.29a5.291,5.291,0,0,1-.423-2.2,5.042,5.042,0,0,1,.432-2.151,3.3,3.3,0,0,1,1.2-1.422,3.232,3.232,0,0,1,3.438,0,3.364,3.364,0,0,1,1.206,1.422,4.954,4.954,0,0,1,.441,2.151,5.291,5.291,0,0,1-.423,2.2,3.3,3.3,0,0,1-1.188,1.44A3.117,3.117,0,0,1,41.022,20.234Zm.018-.954a1.666,1.666,0,0,0,1.422-.819,4.194,4.194,0,0,0,.558-2.367,3.99,3.99,0,0,0-.558-2.3A1.674,1.674,0,0,0,41.04,13a1.711,1.711,0,0,0-1.449.8,3.941,3.941,0,0,0-.567,2.3,4.142,4.142,0,0,0,.567,2.367A1.7,1.7,0,0,0,41.04,19.28Zm11.628.954a2.544,2.544,0,0,1-1.548-.5A3.37,3.37,0,0,1,50.04,18.3a5.389,5.389,0,0,1-.4-2.133,5.748,5.748,0,0,1,.351-2.034A3.568,3.568,0,0,1,51.03,12.62a2.485,2.485,0,0,1,1.656-.576,2.693,2.693,0,0,1,1.341.36,2.331,2.331,0,0,1,.963,1.008V7.958h1.26v10.17a2.584,2.584,0,0,0,.108.882.407.407,0,0,0,.414.27.985.985,0,0,0,.216-.036v.81a2.168,2.168,0,0,1-.738.144,1.139,1.139,0,0,1-.828-.315,1.514,1.514,0,0,1-.4-.945V18.65a2.9,2.9,0,0,1-1.017,1.188A2.448,2.448,0,0,1,52.668,20.234Zm.288-1.044a1.6,1.6,0,0,0,1.026-.378,2.619,2.619,0,0,0,.756-1.116,4.739,4.739,0,0,0,.288-1.728,3.857,3.857,0,0,0-.288-1.557,2.422,2.422,0,0,0-.747-1,1.637,1.637,0,0,0-1-.342,1.676,1.676,0,0,0-1.476.918,4.148,4.148,0,0,0-.558,2.2,4.349,4.349,0,0,0,.27,1.6,2.415,2.415,0,0,0,.729,1.044A1.585,1.585,0,0,0,52.956,19.19Zm6.66-9.54a.713.713,0,0,1-.531-.234.756.756,0,0,1-.225-.54.863.863,0,0,1,.225-.594.691.691,0,0,1,.531-.252.674.674,0,0,1,.513.252.863.863,0,0,1,.225.594.756.756,0,0,1-.225.54A.694.694,0,0,1,59.616,9.65Zm-.63,2.718h1.26V20h-1.26Zm8.082-4.41h2.664a5.172,5.172,0,0,1,3.186.819,2.809,2.809,0,0,1,1.062,2.367,3.068,3.068,0,0,1-.774,2.124A3.77,3.77,0,0,1,71.19,14.42L74.97,20H73.35L69.8,14.6H68.436V20H67.068Zm2.772,5.67a2.887,2.887,0,0,0,1.989-.648,2.2,2.2,0,0,0,.729-1.728q0-2.322-2.79-2.322H68.436v4.7ZM77.526,9.65A.713.713,0,0,1,77,9.416a.756.756,0,0,1-.225-.54A.863.863,0,0,1,77,8.282a.691.691,0,0,1,.531-.252.674.674,0,0,1,.513.252.863.863,0,0,1,.225.594.756.756,0,0,1-.225.54A.694.694,0,0,1,77.526,9.65Zm-.63,2.718h1.26V20H76.9Zm7.146,7.866a3.94,3.94,0,0,1-1.953-.477,3.334,3.334,0,0,1-1.341-1.4,4.731,4.731,0,0,1-.486-2.223,4.648,4.648,0,0,1,.486-2.187,3.488,3.488,0,0,1,1.3-1.413,3.432,3.432,0,0,1,1.8-.486,5.016,5.016,0,0,1,1.962.378v.99a4.5,4.5,0,0,0-1.656-.342,2.307,2.307,0,0,0-1.845.837,3.4,3.4,0,0,0-.711,2.277,3.144,3.144,0,0,0,.738,2.241,2.525,2.525,0,0,0,1.926.783,5.222,5.222,0,0,0,1.692-.288v1.008a4.087,4.087,0,0,1-.891.225A6.749,6.749,0,0,1,84.042,20.234Zm6.462-8.19a2.539,2.539,0,0,1,2.277,1.224,5.385,5.385,0,0,1,.729,3.114H88.56a3.069,3.069,0,0,0,.819,2.106,2.567,2.567,0,0,0,1.881.738,4.1,4.1,0,0,0,.963-.1,4.225,4.225,0,0,0,.819-.3l-.018.972a4.055,4.055,0,0,1-1.962.432,3.58,3.58,0,0,1-2.745-1.107,4.265,4.265,0,0,1-1.035-3.033,5.225,5.225,0,0,1,.4-2.088,3.359,3.359,0,0,1,1.125-1.44A2.846,2.846,0,0,1,90.5,12.044Zm.018.954a1.6,1.6,0,0,0-1.314.666,3.584,3.584,0,0,0-.63,1.926h3.69a3.637,3.637,0,0,0-.495-1.881A1.42,1.42,0,0,0,90.522,13Zm5.04-.63h1.26v1.026a2.238,2.238,0,0,1,.819-.954,2.163,2.163,0,0,1,1.2-.342,2.6,2.6,0,0,1,.81.108v1.062a2.568,2.568,0,0,0-.81-.144,1.7,1.7,0,0,0-1.5.765,3.994,3.994,0,0,0-.513,2.223V20h-1.26Zm8.8,7.866a3.94,3.94,0,0,1-1.953-.477,3.334,3.334,0,0,1-1.341-1.4,4.731,4.731,0,0,1-.486-2.223,4.648,4.648,0,0,1,.486-2.187,3.488,3.488,0,0,1,1.3-1.413,3.432,3.432,0,0,1,1.8-.486,5.016,5.016,0,0,1,1.962.378v.99a4.5,4.5,0,0,0-1.656-.342,2.307,2.307,0,0,0-1.845.837,3.4,3.4,0,0,0-.711,2.277,3.144,3.144,0,0,0,.738,2.241,2.525,2.525,0,0,0,1.926.783,5.222,5.222,0,0,0,1.692-.288v1.008a4.087,4.087,0,0,1-.891.225A6.749,6.749,0,0,1,104.364,20.234Zm9.7-.954a1.58,1.58,0,0,0,.234-.036v.81a2.168,2.168,0,0,1-.738.144,1.162,1.162,0,0,1-.846-.315,1.343,1.343,0,0,1-.342-.963,2.309,2.309,0,0,1-1.035,1,3.267,3.267,0,0,1-1.431.315,2.529,2.529,0,0,1-1.7-.576,1.931,1.931,0,0,1-.675-1.548,2.2,2.2,0,0,1,1.449-2.16,8.639,8.639,0,0,1,3.3-.666v-.522q0-1.71-1.836-1.71a3.716,3.716,0,0,0-1.161.2,5.105,5.105,0,0,0-1.143.54V12.764a5.1,5.1,0,0,1,2.592-.72,2.976,2.976,0,0,1,2.043.675,2.536,2.536,0,0,1,.765,2.007v3.4a2.584,2.584,0,0,0,.108.882A.407.407,0,0,0,114.066,19.28Zm-1.782-3.132a5.625,5.625,0,0,0-2.574.513,1.53,1.53,0,0,0-.918,1.4,1.114,1.114,0,0,0,.4.909,1.576,1.576,0,0,0,1.035.333,1.976,1.976,0,0,0,1.449-.6,2.226,2.226,0,0,0,.6-1.647Zm8.154-6.5a.713.713,0,0,1-.531-.234.756.756,0,0,1-.225-.54.863.863,0,0,1,.225-.594.691.691,0,0,1,.531-.252.674.674,0,0,1,.513.252.863.863,0,0,1,.225.594.756.756,0,0,1-.225.54A.694.694,0,0,1,120.438,9.65Zm-.63,2.718h1.26V20h-1.26Zm3.924,0h1.26v1.188a2.588,2.588,0,0,1,1.017-1.107,2.8,2.8,0,0,1,1.467-.4,2.3,2.3,0,0,1,1.872.774A3.648,3.648,0,0,1,130,15.194V20h-1.26V15.464a2.9,2.9,0,0,0-.459-1.845,1.486,1.486,0,0,0-1.2-.549,1.656,1.656,0,0,0-1.053.378,2.528,2.528,0,0,0-.756,1.089,4.544,4.544,0,0,0-.279,1.665V20h-1.26ZM4.338,40.234A7.8,7.8,0,0,1,.9,39.478V38.236a7.1,7.1,0,0,0,3.42.864,2.885,2.885,0,0,0,1.791-.513,1.872,1.872,0,0,0,.675-1.593,1.669,1.669,0,0,0-.333-1.035,3.329,3.329,0,0,0-.819-.765q-.486-.324-1.368-.792a15.834,15.834,0,0,1-1.638-.954,3.908,3.908,0,0,1-1.062-1.089A2.769,2.769,0,0,1,1.134,30.8,2.9,2.9,0,0,1,1.6,29.137a2.968,2.968,0,0,1,1.26-1.053,4.214,4.214,0,0,1,1.764-.36,6.418,6.418,0,0,1,2.844.63v1.152a5,5,0,0,0-1.3-.531,5.755,5.755,0,0,0-1.449-.189,2.541,2.541,0,0,0-1.593.477A1.632,1.632,0,0,0,2.5,30.64a1.851,1.851,0,0,0,.342,1.107,3.332,3.332,0,0,0,.846.819q.5.342,1.4.828a18.145,18.145,0,0,1,1.647.99,3.915,3.915,0,0,1,1.053,1.1,3.027,3.027,0,0,1-.054,3.2A3.281,3.281,0,0,1,6.363,39.82,4.752,4.752,0,0,1,4.338,40.234Zm8.892-.252a2.668,2.668,0,0,1-1.062.216,1.687,1.687,0,0,1-1.233-.432,1.738,1.738,0,0,1-.441-1.3V33.16H9.5v-.792h.99V30.082h1.26v2.286H13.14v.792H11.754v4.932a1.788,1.788,0,0,0,.162.891.663.663,0,0,0,.612.261,2.42,2.42,0,0,0,.648-.108Zm1.908-7.614H16.4v1.026a2.238,2.238,0,0,1,.819-.954,2.163,2.163,0,0,1,1.2-.342,2.594,2.594,0,0,1,.81.108v1.062a2.568,2.568,0,0,0-.81-.144,1.7,1.7,0,0,0-1.5.765,3.994,3.994,0,0,0-.513,2.223V40h-1.26ZM26.244,39.28a1.58,1.58,0,0,0,.234-.036v.81a2.168,2.168,0,0,1-.738.144,1.162,1.162,0,0,1-.846-.315,1.343,1.343,0,0,1-.342-.963,2.309,2.309,0,0,1-1.035,1,3.267,3.267,0,0,1-1.431.315,2.529,2.529,0,0,1-1.7-.576,1.931,1.931,0,0,1-.675-1.548,2.2,2.2,0,0,1,1.449-2.16,8.639,8.639,0,0,1,3.3-.666v-.522q0-1.71-1.836-1.71a3.716,3.716,0,0,0-1.161.2,5.105,5.105,0,0,0-1.143.54V32.764a5.1,5.1,0,0,1,2.592-.72,2.976,2.976,0,0,1,2.043.675,2.536,2.536,0,0,1,.765,2.007v3.4a2.584,2.584,0,0,0,.108.882A.407.407,0,0,0,26.244,39.28Zm-1.782-3.132a5.625,5.625,0,0,0-2.574.513,1.53,1.53,0,0,0-.918,1.4,1.114,1.114,0,0,0,.405.909,1.576,1.576,0,0,0,1.035.333,1.976,1.976,0,0,0,1.449-.6,2.226,2.226,0,0,0,.6-1.647Zm6.876,3.834a2.668,2.668,0,0,1-1.062.216,1.687,1.687,0,0,1-1.233-.432,1.738,1.738,0,0,1-.441-1.3V33.16h-.99v-.792h.99V30.082h1.26v2.286h1.386v.792H29.862v4.932a1.788,1.788,0,0,0,.162.891.663.663,0,0,0,.612.261,2.42,2.42,0,0,0,.648-.108Zm4.554-7.938a2.539,2.539,0,0,1,2.277,1.224,5.385,5.385,0,0,1,.729,3.114h-4.95a3.069,3.069,0,0,0,.819,2.106,2.567,2.567,0,0,0,1.881.738,4.1,4.1,0,0,0,.963-.1,4.225,4.225,0,0,0,.819-.3l-.018.972a4.055,4.055,0,0,1-1.962.432A3.58,3.58,0,0,1,33.7,39.127a4.265,4.265,0,0,1-1.035-3.033,5.225,5.225,0,0,1,.4-2.088,3.359,3.359,0,0,1,1.125-1.44A2.845,2.845,0,0,1,35.892,32.044ZM35.91,33a1.6,1.6,0,0,0-1.314.666,3.584,3.584,0,0,0-.63,1.926h3.69a3.637,3.637,0,0,0-.495-1.881A1.42,1.42,0,0,0,35.91,33ZM43.65,44.05a5.337,5.337,0,0,1-2.3-.468V42.52a4.874,4.874,0,0,0,2.106.45,2.569,2.569,0,0,0,1.71-.531,2.411,2.411,0,0,0,.63-1.917V39.028a2.359,2.359,0,0,1-.927.936,2.508,2.508,0,0,1-1.233.324,2.572,2.572,0,0,1-1.665-.558,3.414,3.414,0,0,1-1.044-1.476,5.6,5.6,0,0,1-.351-2.016,5.007,5.007,0,0,1,.459-2.2,3.48,3.48,0,0,1,1.287-1.476,3.534,3.534,0,0,1,1.926-.522,5.56,5.56,0,0,1,1.782.324h1.026v8.226A3.294,3.294,0,0,1,46.1,43.24,3.651,3.651,0,0,1,43.65,44.05Zm.288-4.806a1.57,1.57,0,0,0,.927-.315,2.158,2.158,0,0,0,.7-.891,3.245,3.245,0,0,0,.261-1.35V33.394a2.5,2.5,0,0,0-1.476-.4,2.156,2.156,0,0,0-1.809.855,3.867,3.867,0,0,0-.657,2.4,3.933,3.933,0,0,0,.54,2.124A1.692,1.692,0,0,0,43.938,39.244Zm6.408-9.594a.713.713,0,0,1-.531-.234.756.756,0,0,1-.225-.54.863.863,0,0,1,.225-.594.691.691,0,0,1,.531-.252.674.674,0,0,1,.513.252.863.863,0,0,1,.225.594.756.756,0,0,1-.225.54A.694.694,0,0,1,50.346,29.65Zm-.63,2.718h1.26V40h-1.26Zm7.146,7.866a3.94,3.94,0,0,1-1.953-.477,3.334,3.334,0,0,1-1.341-1.4,4.731,4.731,0,0,1-.486-2.223,4.648,4.648,0,0,1,.486-2.187,3.488,3.488,0,0,1,1.3-1.413,3.432,3.432,0,0,1,1.8-.486,5.016,5.016,0,0,1,1.962.378v.99a4.5,4.5,0,0,0-1.656-.342,2.307,2.307,0,0,0-1.845.837,3.4,3.4,0,0,0-.711,2.277,3.144,3.144,0,0,0,.738,2.241,2.525,2.525,0,0,0,1.926.783,5.222,5.222,0,0,0,1.692-.288v1.008a4.087,4.087,0,0,1-.891.225A6.749,6.749,0,0,1,56.862,40.234ZM69.354,40.2a5.087,5.087,0,0,1-2.925-.8,4.861,4.861,0,0,1-1.764-2.187,8.134,8.134,0,0,1-.585-3.186,8.64,8.64,0,0,1,.558-3.2A4.694,4.694,0,0,1,69.3,27.742a6.769,6.769,0,0,1,1.341.144,5.485,5.485,0,0,1,1.215.378v1.188A4.794,4.794,0,0,0,70.668,29a5.406,5.406,0,0,0-1.278-.162,3.539,3.539,0,0,0-2.79,1.206,5.88,5.88,0,0,0-1.062,3.924,5.835,5.835,0,0,0,1.071,3.942A3.612,3.612,0,0,0,69.426,39.1a4.969,4.969,0,0,0,1.251-.171,5.668,5.668,0,0,0,1.179-.441v1.188a6.714,6.714,0,0,1-1.206.369A6.117,6.117,0,0,1,69.354,40.2Zm4.806-12.24h1.26v5.49a2.652,2.652,0,0,1,1.017-1.026,2.786,2.786,0,0,1,1.413-.378,2.38,2.38,0,0,1,1.908.774,3.577,3.577,0,0,1,.666,2.376V40h-1.26V35.284q0-2.214-1.584-2.214a1.879,1.879,0,0,0-1.548.792A3.416,3.416,0,0,0,75.42,36v4H74.16ZM88.884,39.28a1.581,1.581,0,0,0,.234-.036v.81a2.168,2.168,0,0,1-.738.144,1.162,1.162,0,0,1-.846-.315,1.343,1.343,0,0,1-.342-.963,2.309,2.309,0,0,1-1.035,1,3.267,3.267,0,0,1-1.431.315,2.529,2.529,0,0,1-1.7-.576,1.931,1.931,0,0,1-.675-1.548A2.2,2.2,0,0,1,83.8,35.95a8.639,8.639,0,0,1,3.3-.666v-.522q0-1.71-1.836-1.71a3.716,3.716,0,0,0-1.161.2,5.105,5.105,0,0,0-1.143.54V32.764a5.1,5.1,0,0,1,2.592-.72,2.976,2.976,0,0,1,2.043.675,2.536,2.536,0,0,1,.765,2.007v3.4a2.584,2.584,0,0,0,.108.882A.407.407,0,0,0,88.884,39.28ZM87.1,36.148a5.625,5.625,0,0,0-2.574.513,1.53,1.53,0,0,0-.918,1.4,1.114,1.114,0,0,0,.4.909,1.576,1.576,0,0,0,1.035.333,1.976,1.976,0,0,0,1.449-.6,2.226,2.226,0,0,0,.6-1.647Zm3.924-3.78h1.26v1.188A2.588,2.588,0,0,1,93.3,32.449a2.8,2.8,0,0,1,1.467-.405,2.3,2.3,0,0,1,1.872.774,3.648,3.648,0,0,1,.648,2.376V40H96.03V35.464a2.9,2.9,0,0,0-.459-1.845,1.486,1.486,0,0,0-1.2-.549,1.656,1.656,0,0,0-1.053.378,2.528,2.528,0,0,0-.756,1.089,4.544,4.544,0,0,0-.279,1.665V40h-1.26ZM102.42,44.05a5.337,5.337,0,0,1-2.3-.468V42.52a4.874,4.874,0,0,0,2.106.45,2.569,2.569,0,0,0,1.71-.531,2.411,2.411,0,0,0,.63-1.917V39.028a2.358,2.358,0,0,1-.927.936,2.508,2.508,0,0,1-1.233.324,2.572,2.572,0,0,1-1.665-.558,3.414,3.414,0,0,1-1.044-1.476,5.6,5.6,0,0,1-.351-2.016,5.007,5.007,0,0,1,.459-2.2,3.48,3.48,0,0,1,1.287-1.476,3.534,3.534,0,0,1,1.926-.522,5.56,5.56,0,0,1,1.782.324h1.026v8.226a3.294,3.294,0,0,1-.954,2.646A3.651,3.651,0,0,1,102.42,44.05Zm.288-4.806a1.57,1.57,0,0,0,.927-.315,2.158,2.158,0,0,0,.7-.891,3.245,3.245,0,0,0,.261-1.35V33.394a2.5,2.5,0,0,0-1.476-.4,2.156,2.156,0,0,0-1.809.855,3.867,3.867,0,0,0-.657,2.4,3.933,3.933,0,0,0,.54,2.124A1.692,1.692,0,0,0,102.708,39.244Zm8.424-7.2a2.539,2.539,0,0,1,2.277,1.224,5.385,5.385,0,0,1,.729,3.114h-4.95a3.069,3.069,0,0,0,.819,2.106,2.567,2.567,0,0,0,1.881.738,4.1,4.1,0,0,0,.963-.1,4.225,4.225,0,0,0,.819-.3l-.018.972a4.055,4.055,0,0,1-1.962.432,3.58,3.58,0,0,1-2.745-1.107,4.265,4.265,0,0,1-1.035-3.033,5.225,5.225,0,0,1,.4-2.088,3.359,3.359,0,0,1,1.125-1.44A2.845,2.845,0,0,1,111.132,32.044Zm.018.954a1.6,1.6,0,0,0-1.314.666,3.584,3.584,0,0,0-.63,1.926h3.69a3.637,3.637,0,0,0-.495-1.881A1.42,1.42,0,0,0,111.15,33Zm10.332-4.716a3.515,3.515,0,0,0-1.17,1,2.709,2.709,0,0,0-.558,1.413.521.521,0,0,1,.36-.09.7.7,0,0,1,.558.252.86.86,0,0,1,.216.576.849.849,0,0,1-.243.612.87.87,0,0,1-.657.252.9.9,0,0,1-.792-.4,1.475,1.475,0,0,1-.27-.846,3.24,3.24,0,0,1,.675-2.007,3.934,3.934,0,0,1,1.611-1.287Zm3.06,0a3.515,3.515,0,0,0-1.17,1,2.709,2.709,0,0,0-.558,1.413.521.521,0,0,1,.36-.09.7.7,0,0,1,.558.252.86.86,0,0,1,.216.576.849.849,0,0,1-.243.612.87.87,0,0,1-.657.252.9.9,0,0,1-.792-.4,1.475,1.475,0,0,1-.27-.846,3.24,3.24,0,0,1,.675-2.007,3.934,3.934,0,0,1,1.611-1.287Zm3.51.648v4.284h3.8v.972h-3.8V40h-1.386V27.958h6.3v.972Zm5.976,3.438h1.26v1.026a2.239,2.239,0,0,1,.819-.954,2.163,2.163,0,0,1,1.2-.342,2.6,2.6,0,0,1,.81.108v1.062a2.568,2.568,0,0,0-.81-.144,1.7,1.7,0,0,0-1.5.765,3.994,3.994,0,0,0-.513,2.223V40h-1.26Zm11.106,6.912a1.58,1.58,0,0,0,.234-.036v.81a2.168,2.168,0,0,1-.738.144,1.162,1.162,0,0,1-.846-.315,1.343,1.343,0,0,1-.342-.963,2.309,2.309,0,0,1-1.035,1,3.267,3.267,0,0,1-1.431.315,2.529,2.529,0,0,1-1.7-.576,1.931,1.931,0,0,1-.675-1.548,2.2,2.2,0,0,1,1.449-2.16,8.639,8.639,0,0,1,3.3-.666v-.522q0-1.71-1.836-1.71a3.716,3.716,0,0,0-1.161.2,5.105,5.105,0,0,0-1.143.54V32.764a5.1,5.1,0,0,1,2.592-.72,2.976,2.976,0,0,1,2.043.675,2.536,2.536,0,0,1,.765,2.007v3.4a2.584,2.584,0,0,0,.108.882A.407.407,0,0,0,145.134,39.28Zm-1.782-3.132a5.625,5.625,0,0,0-2.574.513,1.53,1.53,0,0,0-.918,1.4,1.114,1.114,0,0,0,.4.909,1.576,1.576,0,0,0,1.035.333,1.976,1.976,0,0,0,1.449-.6,2.225,2.225,0,0,0,.6-1.647Zm3.924-3.78h1.26v1.188a2.588,2.588,0,0,1,1.017-1.107,2.8,2.8,0,0,1,1.467-.405,2.3,2.3,0,0,1,1.872.774,3.648,3.648,0,0,1,.648,2.376V40h-1.26V35.464a2.9,2.9,0,0,0-.459-1.845,1.486,1.486,0,0,0-1.2-.549,1.656,1.656,0,0,0-1.053.378,2.528,2.528,0,0,0-.756,1.089,4.544,4.544,0,0,0-.279,1.665V40h-1.26Zm12.06,7.866a3.94,3.94,0,0,1-1.953-.477,3.334,3.334,0,0,1-1.341-1.4,4.732,4.732,0,0,1-.486-2.223,4.648,4.648,0,0,1,.486-2.187,3.488,3.488,0,0,1,1.3-1.413,3.432,3.432,0,0,1,1.8-.486,5.016,5.016,0,0,1,1.962.378v.99a4.5,4.5,0,0,0-1.656-.342,2.307,2.307,0,0,0-1.845.837,3.4,3.4,0,0,0-.711,2.277,3.144,3.144,0,0,0,.738,2.241,2.525,2.525,0,0,0,1.926.783,5.222,5.222,0,0,0,1.692-.288v1.008a4.087,4.087,0,0,1-.891.225A6.749,6.749,0,0,1,159.336,40.234Zm6.642,0a3.074,3.074,0,0,1-1.746-.5,3.322,3.322,0,0,1-1.179-1.44,5.291,5.291,0,0,1-.423-2.2,5.042,5.042,0,0,1,.432-2.151,3.3,3.3,0,0,1,1.2-1.422,3.232,3.232,0,0,1,3.438,0,3.364,3.364,0,0,1,1.206,1.422,4.954,4.954,0,0,1,.441,2.151,5.291,5.291,0,0,1-.423,2.2,3.3,3.3,0,0,1-1.188,1.44A3.117,3.117,0,0,1,165.978,40.234ZM166,39.28a1.666,1.666,0,0,0,1.422-.819,4.194,4.194,0,0,0,.558-2.367,3.99,3.99,0,0,0-.558-2.3A1.674,1.674,0,0,0,166,33a1.711,1.711,0,0,0-1.449.8,3.941,3.941,0,0,0-.567,2.3,4.142,4.142,0,0,0,.567,2.367A1.7,1.7,0,0,0,166,39.28ZM177.03,28.93v4.284h3.8v.972h-3.8V40h-1.386V27.958h6.3v.972Zm8.8,11.3a3.074,3.074,0,0,1-1.746-.5,3.322,3.322,0,0,1-1.179-1.44,5.291,5.291,0,0,1-.423-2.2,5.042,5.042,0,0,1,.432-2.151,3.3,3.3,0,0,1,1.2-1.422,3.232,3.232,0,0,1,3.438,0,3.364,3.364,0,0,1,1.206,1.422,4.954,4.954,0,0,1,.441,2.151,5.291,5.291,0,0,1-.423,2.2,3.3,3.3,0,0,1-1.188,1.44A3.117,3.117,0,0,1,185.832,40.234Zm.018-.954a1.666,1.666,0,0,0,1.422-.819,4.194,4.194,0,0,0,.558-2.367,3.99,3.99,0,0,0-.558-2.3,1.674,1.674,0,0,0-1.422-.8,1.711,1.711,0,0,0-1.449.8,3.941,3.941,0,0,0-.567,2.3,4.142,4.142,0,0,0,.567,2.367A1.7,1.7,0,0,0,185.85,39.28Zm5.49-6.912h1.26v1.188a2.588,2.588,0,0,1,1.017-1.107,2.8,2.8,0,0,1,1.467-.405,2.3,2.3,0,0,1,1.872.774,3.648,3.648,0,0,1,.648,2.376V40h-1.26V35.464a2.9,2.9,0,0,0-.459-1.845,1.486,1.486,0,0,0-1.2-.549,1.656,1.656,0,0,0-1.053.378,2.528,2.528,0,0,0-.756,1.089A4.544,4.544,0,0,0,192.6,36.2V40h-1.26Zm11.79,7.614a2.668,2.668,0,0,1-1.062.216,1.687,1.687,0,0,1-1.233-.432,1.738,1.738,0,0,1-.441-1.3V33.16h-.99v-.792h.99V30.082h1.26v2.286h1.386v.792h-1.386v4.932a1.788,1.788,0,0,0,.162.891.663.663,0,0,0,.612.261,2.42,2.42,0,0,0,.648-.108Zm7.794-.7a1.58,1.58,0,0,0,.234-.036v.81a2.168,2.168,0,0,1-.738.144,1.162,1.162,0,0,1-.846-.315,1.343,1.343,0,0,1-.342-.963,2.309,2.309,0,0,1-1.035,1,3.267,3.267,0,0,1-1.431.315,2.529,2.529,0,0,1-1.7-.576,1.931,1.931,0,0,1-.675-1.548,2.2,2.2,0,0,1,1.449-2.16,8.639,8.639,0,0,1,3.3-.666v-.522q0-1.71-1.836-1.71a3.716,3.716,0,0,0-1.161.2,5.105,5.105,0,0,0-1.143.54V32.764a5.1,5.1,0,0,1,2.592-.72,2.976,2.976,0,0,1,2.043.675,2.536,2.536,0,0,1,.765,2.007v3.4a2.584,2.584,0,0,0,.108.882A.407.407,0,0,0,210.924,39.28Zm-1.782-3.132a5.625,5.625,0,0,0-2.574.513,1.53,1.53,0,0,0-.918,1.4,1.114,1.114,0,0,0,.4.909,1.576,1.576,0,0,0,1.035.333,1.976,1.976,0,0,0,1.449-.6,2.226,2.226,0,0,0,.6-1.647Zm3.924-3.78h1.26v1.188a2.588,2.588,0,0,1,1.017-1.107,2.8,2.8,0,0,1,1.467-.405,2.3,2.3,0,0,1,1.872.774,3.648,3.648,0,0,1,.648,2.376V40h-1.26V35.464a2.9,2.9,0,0,0-.459-1.845,1.486,1.486,0,0,0-1.2-.549,1.656,1.656,0,0,0-1.053.378,2.528,2.528,0,0,0-.756,1.089,4.544,4.544,0,0,0-.279,1.665V40h-1.26ZM227.79,39.28a1.58,1.58,0,0,0,.234-.036v.81a2.168,2.168,0,0,1-.738.144,1.162,1.162,0,0,1-.846-.315,1.343,1.343,0,0,1-.342-.963,2.309,2.309,0,0,1-1.035,1,3.267,3.267,0,0,1-1.431.315,2.529,2.529,0,0,1-1.7-.576,1.931,1.931,0,0,1-.675-1.548,2.2,2.2,0,0,1,1.449-2.16,8.639,8.639,0,0,1,3.3-.666v-.522q0-1.71-1.836-1.71a3.716,3.716,0,0,0-1.161.2,5.105,5.105,0,0,0-1.143.54V32.764a5.1,5.1,0,0,1,2.592-.72,2.976,2.976,0,0,1,2.043.675,2.536,2.536,0,0,1,.765,2.007v3.4a2.584,2.584,0,0,0,.108.882A.407.407,0,0,0,227.79,39.28Zm-1.782-3.132a5.625,5.625,0,0,0-2.574.513,1.53,1.53,0,0,0-.918,1.4,1.114,1.114,0,0,0,.4.909,1.576,1.576,0,0,0,1.035.333,1.976,1.976,0,0,0,1.449-.6,2.225,2.225,0,0,0,.6-1.647Zm5.526-4.338a3.515,3.515,0,0,0,1.17-1,2.709,2.709,0,0,0,.558-1.413.521.521,0,0,1-.36.09.7.7,0,0,1-.558-.252.86.86,0,0,1-.216-.576.849.849,0,0,1,.243-.612.87.87,0,0,1,.657-.252.9.9,0,0,1,.792.4,1.475,1.475,0,0,1,.27.846,3.24,3.24,0,0,1-.675,2.007,3.934,3.934,0,0,1-1.611,1.287Zm-3.06,0a3.515,3.515,0,0,0,1.17-1A2.709,2.709,0,0,0,230.2,29.4a.521.521,0,0,1-.36.09.7.7,0,0,1-.558-.252.86.86,0,0,1-.216-.576.849.849,0,0,1,.243-.612.87.87,0,0,1,.657-.252.9.9,0,0,1,.792.4,1.475,1.475,0,0,1,.27.846,3.24,3.24,0,0,1-.675,2.007,3.934,3.934,0,0,1-1.611,1.287Z" transform="translate(-0.9 12.258)" fill="#121212"/>
</svg>
