<svg data-name="Livello 1" xmlns="http://www.w3.org/2000/svg" width="292" height="52.859"><path data-name="Tracciato 6708" d="M0 48.627c3.412 0 4.9-.429 4.9-3.058V7.272c0-2.629-1.488-3.058-4.9-3.058V2.61h18.384v1.6h-2.219c-3.412 0-4.978.429-4.978 3.058v40.538h12.7c3.878 0 6.47-2.983 7.458-10.236h2.219l-1.4 12.66H0z" fill="#fff"/><path data-name="Tracciato 6709" d="M52.318 4.214c-3.412 0-4.9.429-4.9 3.058v27.3c0 6.619 2.349 14.133 10.628 14.133 7.626 0 11.392-6.377 11.392-13.443V7.272c0-2.629-2.032-3.058-5.444-3.058V2.61h12.6v1.6c-3.431 0-4.978.429-4.978 3.058v27.841c0 9.323-5.277 16.016-14.636 16.016-11.318 0-15.923-7.551-15.923-17.3V7.272c0-2.629-1.492-3.058-4.9-3.058V2.61h16.161z" fill="#fff"/><path data-name="Tracciato 6710" d="M84.612 50.23v-1.6c3.412 0 4.9-.429 4.9-3.058v-38.3c0-2.629-1.492-3.058-4.9-3.058V2.61h16.072v1.6c-3.412 0-4.9.429-4.9 3.058v38.3c0 2.629 1.492 3.058 4.9 3.058v1.6z" fill="#fff"/><path data-name="Tracciato 6711" d="M137.583 16.352h-2.014c0-8.614-4.139-12.53-10.441-12.53a8.987 8.987 0 00-8.894 9.323 8.2 8.2 0 005.705 7.85l6.9 2.7c6.787 2.685 11.952 6.134 11.952 13.425 0 9.323-6.787 14.1-15.55 14.1a25.078 25.078 0 01-14.021-4.307V33.561h1.865c0 10.5 4.419 15.2 12.567 15.2a8.875 8.875 0 009.173-9.509c0-4.587-2.237-7.328-7.458-9.323l-7.458-2.871c-5.407-2.107-8.968-6.19-8.968-11.709 0-8.409 6.731-13.555 14.375-13.555a23.157 23.157 0 0112.269 3.729z" fill="#fff"/><path data-name="Tracciato 6712" d="M176.813 16.352h-2.033c0-8.614-4.121-12.53-10.423-12.53a8.987 8.987 0 00-8.894 9.323 8.185 8.185 0 005.687 7.85l6.9 2.7c6.806 2.685 11.97 6.134 11.97 13.425 0 9.323-6.806 14.1-15.55 14.1a25.078 25.078 0 01-14.04-4.307V33.561h1.865c0 10.5 4.4 15.2 12.548 15.2a8.894 8.894 0 009.192-9.509c0-4.587-2.237-7.328-7.458-9.323l-7.458-2.871c-5.407-2.107-8.968-6.19-8.968-11.709 0-8.409 6.731-13.555 14.375-13.555a23.269 23.269 0 0112.287 3.729z" fill="#fff"/><path data-name="Rettangolo 403" fill="#fff" d="M237.838 0h52.859v2.648h-52.859z"/><path data-name="Rettangolo 404" fill="#fff" d="M237.838 5.277h52.859v2.648h-52.859z"/><path data-name="Rettangolo 405" fill="#fff" d="M252.363 10.572h23.791v2.648h-23.791z"/><path data-name="Rettangolo 406" fill="#fff" d="M255.011 15.848h2.648V52.84h-2.648z"/><path data-name="Rettangolo 407" fill="#fff" d="M260.287 15.848h2.648V52.84h-2.648z"/><path data-name="Rettangolo 408" fill="#fff" d="M265.582 15.848h2.648V52.84h-2.648z"/><path data-name="Rettangolo 409" fill="#fff" d="M270.859 15.848h2.648V52.84h-2.648z"/><path data-name="Tracciato 6713" d="M252.363 52.859V25.637a28.844 28.844 0 00-.522-8.129 8.428 8.428 0 00-7.924-5.929 7.812 7.812 0 00-1.865.261 7.458 7.458 0 00-4.624 3.729 6.489 6.489 0 00-.354 5.314 5.836 5.836 0 005.221 3.729h.186a4.475 4.475 0 004.2-2.722 4.251 4.251 0 00.112-3.244 5.593 5.593 0 00-1.865-2.275l-1.757 1.729a2.387 2.387 0 011.268 1.734 1.865 1.865 0 01-1.865 2.088 3.17 3.17 0 01-2.853-2.014 3.86 3.86 0 01.242-3.17 4.643 4.643 0 012.946-2.387 4.867 4.867 0 011.287-.168 5.8 5.8 0 015.404 4.127 26.626 26.626 0 01.373 6.973v27.576z" fill="#fff"/><path data-name="Tracciato 6714" d="M278.8 52.859V25.3a27.2 27.2 0 01.392-6.973 5.8 5.8 0 015.407-4.121 4.829 4.829 0 011.268.168 4.68 4.68 0 012.927 2.405 3.86 3.86 0 01.224 3.17 3.132 3.132 0 01-2.834 2.014 1.864 1.864 0 01-1.865-1.193 2.013 2.013 0 01-.131-.895 2.4 2.4 0 011.286-1.734l-1.734-1.734a5.165 5.165 0 00-1.865 2.275 4.251 4.251 0 00.112 3.244 4.456 4.456 0 004.2 2.722h.186a5.836 5.836 0 005.221-3.729 6.488 6.488 0 00-.354-5.314 7.458 7.458 0 00-4.643-3.729 7.588 7.588 0 00-1.865-.261 8.409 8.409 0 00-7.906 5.929 28.136 28.136 0 00-.522 8.129v27.186z" fill="#fff"/></svg>