<svg id="Raggruppa_2" data-name="Raggruppa 2" xmlns="http://www.w3.org/2000/svg" width="182" height="32.953" viewBox="0 0 182 32.953">
  <g id="Raggruppa_200" data-name="Raggruppa 200" transform="translate(0 1.061)">
    <path id="Tracciato_47" data-name="Tracciato 47" d="M0,32.257c2.131,0,3.063-.265,3.063-1.907V6.478c0-1.641-.914-1.911-3.063-1.911v-1H11.458v1H10.087c-2.131,0-3.063.265-3.063,1.911V31.745h7.915c2.419,0,4.037-1.861,4.655-6.4h1.267L20,33.254H0Z" transform="translate(0 -2.998)" fill="#fff"/>
    <path id="Tracciato_48" data-name="Tracciato 48" d="M59.373,4.567c-2.126,0-3.063.265-3.063,1.911V23.492c0,4.115,1.463,8.811,6.635,8.811,4.751,0,7.1-3.973,7.1-8.39V6.478c0-1.646-1.267-1.911-3.393-1.911v-1h7.855v1c-2.131,0-3.109.27-3.109,1.911V23.826c0,5.789-3.283,9.986-9.117,9.986-7.055,0-9.918-4.7-9.918-10.786V6.473c0-1.641-.914-1.907-3.064-1.907v-1H59.359Z" transform="translate(-26.758 -2.998)" fill="#fff"/>
    <path id="Tracciato_49" data-name="Tracciato 49" d="M115.35,33.254v-1c2.131,0,3.064-.265,3.064-1.907V6.473c0-1.641-.914-1.907-3.064-1.907v-1h10.059v1c-2.131,0-3.064.27-3.064,1.911V30.35c0,1.641.914,1.907,3.064,1.907v1Z" transform="translate(-62.608 -2.998)" fill="#fff"/>
    <path id="Tracciato_50" data-name="Tracciato 50" d="M167.871,11.456h-1.262c0-5.368-2.574-7.81-6.5-7.81a5.6,5.6,0,0,0-5.551,5.638.406.406,0,0,0,0,.105A5.12,5.12,0,0,0,158.1,14.3l4.3,1.687c4.239,1.664,7.453,3.813,7.453,8.363,0,5.857-4.234,8.784-9.693,8.784a15.587,15.587,0,0,1-8.742-2.684v-8.23h1.18c0,6.548,2.743,9.474,7.833,9.474,3.438,0,5.72-2.437,5.72-5.944,0-2.862-1.372-4.572-4.7-5.857l-4.618-1.8c-3.37-1.308-5.587-3.859-5.587-7.316,0-5.235,4.193-8.454,8.962-8.454a14.426,14.426,0,0,1,7.659,2.327Z" transform="translate(-82.093 -2.32)" fill="#fff"/>
    <path id="Tracciato_51" data-name="Tracciato 51" d="M221.368,11.461h-1.262c0-5.368-2.574-7.81-6.5-7.81a5.587,5.587,0,0,0-5.528,5.638v.105a5.12,5.12,0,0,0,3.548,4.906l4.307,1.687c4.234,1.664,7.453,3.813,7.453,8.363,0,5.857-4.239,8.784-9.694,8.784a15.576,15.576,0,0,1-8.742-2.684V22.22h1.175c0,6.548,2.743,9.474,7.832,9.474,3.438,0,5.725-2.437,5.725-5.944,0-2.862-1.4-4.572-4.7-5.857l-4.614-1.8c-3.374-1.312-5.592-3.864-5.592-7.316,0-5.235,4.193-8.45,8.962-8.45a14.435,14.435,0,0,1,7.654,2.286Z" transform="translate(-111.141 -2.325)" fill="#fff"/>
  </g>
  <g id="Raggruppa_208" data-name="Raggruppa 208" transform="translate(147.507)">
    <g id="Raggruppa_201" data-name="Raggruppa 201" transform="translate(0.761)">
      <rect id="Rettangolo_338" data-name="Rettangolo 338" width="32.949" height="1.651" fill="#fff"/>
    </g>
    <g id="Raggruppa_202" data-name="Raggruppa 202" transform="translate(0.761 3.297)">
      <rect id="Rettangolo_339" data-name="Rettangolo 339" width="32.949" height="1.651" fill="#fff"/>
    </g>
    <g id="Raggruppa_203" data-name="Raggruppa 203" transform="translate(9.819 6.593)">
      <rect id="Rettangolo_340" data-name="Rettangolo 340" width="14.833" height="1.651" fill="#fff"/>
    </g>
    <g id="Raggruppa_204" data-name="Raggruppa 204" transform="translate(11.47 9.886)">
      <rect id="Rettangolo_341" data-name="Rettangolo 341" width="1.651" height="23.063" fill="#fff"/>
    </g>
    <g id="Raggruppa_205" data-name="Raggruppa 205" transform="translate(14.767 9.886)">
      <rect id="Rettangolo_342" data-name="Rettangolo 342" width="1.651" height="23.063" fill="#fff"/>
    </g>
    <g id="Raggruppa_206" data-name="Raggruppa 206" transform="translate(18.063 9.886)">
      <rect id="Rettangolo_343" data-name="Rettangolo 343" width="1.651" height="23.063" fill="#fff"/>
    </g>
    <g id="Raggruppa_207" data-name="Raggruppa 207" transform="translate(21.355 9.886)">
      <rect id="Rettangolo_344" data-name="Rettangolo 344" width="1.651" height="23.063" fill="#fff"/>
    </g>
    <path id="Tracciato_52" data-name="Tracciato 52" d="M332.429,41.508V24.334a17.4,17.4,0,0,0-.315-4.865,5.254,5.254,0,0,0-4.938-3.7,4.883,4.883,0,0,0-1.207.155,4.618,4.618,0,0,0-2.885,2.323,4.028,4.028,0,0,0-.224,3.31,3.658,3.658,0,0,0,3.255,2.323h.11a2.8,2.8,0,0,0,2.62-1.692,2.624,2.624,0,0,0,.069-2.021,3.2,3.2,0,0,0-1.175-1.422h0l-1.084,1.084h0a1.532,1.532,0,0,1,.8,1.075,1.117,1.117,0,0,1-.078.558,1.157,1.157,0,0,1-1.134.736h-.055a1.952,1.952,0,0,1-1.765-1.253,2.4,2.4,0,0,1,.142-1.975,2.967,2.967,0,0,1,1.829-1.491,3.113,3.113,0,0,1,.8-.105,3.626,3.626,0,0,1,3.37,2.615,17.026,17.026,0,0,1,.224,4.344V41.513Z" transform="translate(-322.605 -8.559)" fill="#fff"/>
    <path id="Tracciato_53" data-name="Tracciato 53" d="M376.519,41.508V24.334a17.406,17.406,0,0,1,.316-4.865,5.249,5.249,0,0,1,4.934-3.7,4.883,4.883,0,0,1,1.207.155,4.618,4.618,0,0,1,2.908,2.323,4.047,4.047,0,0,1,.224,3.31,3.658,3.658,0,0,1-3.255,2.323h-.11a2.8,2.8,0,0,1-2.62-1.692,2.605,2.605,0,0,1-.064-2.021,3.2,3.2,0,0,1,1.17-1.422h0l1.088,1.084h0a1.532,1.532,0,0,0-.8,1.075,1.115,1.115,0,0,0,.078.558,1.161,1.161,0,0,0,1.134.736h.055a1.952,1.952,0,0,0,1.765-1.253,2.4,2.4,0,0,0-.142-1.975,2.967,2.967,0,0,0-1.829-1.491,3.113,3.113,0,0,0-.8-.105,3.612,3.612,0,0,0-3.384,2.6,16.727,16.727,0,0,0-.229,4.344V41.513Z" transform="translate(-351.867 -8.559)" fill="#fff"/>
  </g>
</svg>
