<svg xmlns="http://www.w3.org/2000/svg" width="68.226" height="61.76" viewBox="0 0 68.226 61.76">
  <g id="Raggruppa_505" data-name="Raggruppa 505" transform="translate(-1567.471 -2793)">
    <path id="Tracciato_63" data-name="Tracciato 63" d="M135.277,94.926V97.3H100.591V68.569a14.452,14.452,0,0,0,7.756-3.447h19.821a1.9,1.9,0,0,0,1.867-1.867,1.854,1.854,0,0,0-1.867-1.867H111.507a15.212,15.212,0,0,0,1.939-5.673h21.832v20.4l3.662-4.094V55a2.881,2.881,0,0,0-2.872-2.872H113.374A14.742,14.742,0,1,0,96.929,68.569V98.085a2.881,2.881,0,0,0,2.872,2.872H136a2.881,2.881,0,0,0,2.872-2.872V91.334L136.5,93.92a2.388,2.388,0,0,1-1.22,1.006ZM87.664,53.991A11.131,11.131,0,1,1,98.8,65.123,11.141,11.141,0,0,1,87.664,53.991Z" transform="translate(1483.469 2753.803)" fill="#fd7333"/>
    <path id="Tracciato_64" data-name="Tracciato 64" d="M256.108,284.856h20.467a1.854,1.854,0,0,0,1.867-1.867,1.811,1.811,0,0,0-1.867-1.867H256.108a1.867,1.867,0,1,0,0,3.734Z" transform="translate(1335.061 2542.903)" fill="#fd7333"/>
    <path id="Tracciato_65" data-name="Tracciato 65" d="M278.443,352.425a1.854,1.854,0,0,0-1.867-1.867H256.109a1.867,1.867,0,1,0,0,3.734h20.467a1.952,1.952,0,0,0,1.867-1.867Z" transform="translate(1335.06 2482.372)" fill="#fd7333"/>
    <path id="Tracciato_66" data-name="Tracciato 66" d="M254.237,421.765a1.854,1.854,0,0,0,1.867,1.867H273.77l.646-3.662H256.1a1.752,1.752,0,0,0-1.867,1.8Z" transform="translate(1335.065 2421.865)" fill="#fd7333"/>
    <path id="Tracciato_67" data-name="Tracciato 67" d="M458.92,306.811l10.926-12.193,5.188,4.648L464.108,311.46Z" transform="translate(1156.63 2531.137)" fill="#fd7333"/>
    <path id="Tracciato_68" data-name="Tracciato 68" d="M429.727,411.377l4.381-1.221a1.161,1.161,0,0,0,.5-.287l1.292-1.436-5.171-4.668L429.44,405.2a1.793,1.793,0,0,0-.287.5l-.79,4.523a1.074,1.074,0,0,0,1.365,1.149Z" transform="translate(1183.274 2435.987)" fill="#fd7333"/>
    <path id="Tracciato_69" data-name="Tracciato 69" d="M563.891,262.978l-3.591-3.232a1.111,1.111,0,0,0-1.508.072l-2.155,2.442,5.171,4.668,2.155-2.442a1.041,1.041,0,0,0-.072-1.508Z" transform="translate(1071.444 2561.764)" fill="#fd7333"/>
    <path id="Tracciato_70" data-name="Tracciato 70" d="M160.018,119.414a1.831,1.831,0,0,0-2.729-2.442l-4.452,5.1-2.155-2.155A1.828,1.828,0,0,0,148.1,122.5l3.519,3.519a1.73,1.73,0,0,0,1.292.5h.072a1.535,1.535,0,0,0,1.292-.646Z" transform="translate(1428.063 2686.513)" fill="#fd7333"/>
  </g>
</svg>
