<?xml version="1.0" standalone="no"?>
<!DOCTYPE svg PUBLIC "-//W3C//DTD SVG 1.1//EN" "http://www.w3.org/Graphics/SVG/1.1/DTD/svg11.dtd" >
<svg xmlns="http://www.w3.org/2000/svg" xmlns:xlink="http://www.w3.org/1999/xlink" version="1.1">
<metadata>
Created by FontForge 20170731 at Mon Dec  3 18:29:42 2018
 By Aleksey,,,
Copyright \(c\) 2018 by Pace/RML Types. All rights reserved.
</metadata>
<defs>
<font id="LuissSans-Regular" horiz-adv-x="654" >
  <font-face 
    font-family="Luiss Sans"
    font-weight="400"
    font-stretch="normal"
    units-per-em="1000"
    panose-1="0 0 0 0 0 0 0 0 0 0"
    ascent="740"
    descent="-260"
    x-height="424"
    cap-height="669"
    bbox="-615 -244 1045 894"
    underline-thickness="50"
    underline-position="-150"
    unicode-range="U+000D-FB02"
  />
<missing-glyph horiz-adv-x="647" 
d="M88.5 13.5q-13.5 13.5 -13.5 32.5v578q0 19 13.5 32t32.5 13h406q19 0 32 -13t13 -32v-578q0 -19 -13 -32.5t-32 -13.5h-406q-19 0 -32.5 13.5zM493 618h-338l169 -248zM299 335l-173 256v-511zM522 590l-174 -255l174 -256v511zM492 51l-168 248l-169 -248h337z" />
    <glyph glyph-name="fi" unicode="fi" horiz-adv-x="479" 
d="M166 600q-17 -22 -17 -75v-101h95v-44h-95v-380h-70v351q0 18 -6 24.5t-22 6.5h-26v42h54v94q0 82 33 120t91 38q33 0 65 -12v-52q-27 10 -54 10q-31 0 -48 -22zM340.5 588q-12.5 13 -12.5 30q0 19 12.5 33t29.5 14q16 0 28.5 -14t12.5 -33q0 -17 -12.5 -30t-28.5 -13
q-17 0 -29.5 13zM335 424h70v-424h-70v424z" />
    <glyph glyph-name="fl" unicode="fl" horiz-adv-x="478" 
d="M166 600q-17 -22 -17 -75v-101h95v-44h-95v-380h-70v351q0 18 -6 24.5t-22 6.5h-26v42h54v94q0 82 33 120t91 38q33 0 65 -12v-52q-27 10 -54 10q-31 0 -48 -22zM353.5 14.5q-23.5 27.5 -23.5 95.5v559h70v-560q0 -43 9 -57.5t30 -15.5q5 0 8 1v-49q-8 -1 -27 -1
q-43 0 -66.5 27.5z" />
    <glyph glyph-name="f_f" unicode="ff" horiz-adv-x="501" 
d="M166 600q-17 -22 -17 -75v-101h95v-44h-95v-380h-70v351q0 18 -6 24.5t-22 6.5h-26v42h54v94q0 82 33 120t91 38q33 0 65 -12v-52q-27 10 -54 10q-31 0 -48 -22zM419 600q-17 -22 -17 -75v-101h95v-44h-95v-380h-70v351q0 18 -6 24.5t-22 6.5h-26v42h54v94q0 82 33 120
t91 38q33 0 65 -12v-52q-27 10 -54 10q-31 0 -48 -22z" />
    <glyph glyph-name="r_f.liga" unicode="rf" horiz-adv-x="558" 
d="M74 424h70v-57q16 34 45.5 53t66.5 19q27 0 45 -6v-59q-24 8 -45 8q-55 0 -83.5 -42.5t-28.5 -123.5v-216h-70v424zM476 600q-17 -22 -17 -75v-101h95v-44h-95v-380h-70v351q0 18 -6 24.5t-22 6.5h-26v42h54v94q0 82 33 120t91 38q33 0 65 -12v-52q-27 10 -54 10
q-31 0 -48 -22z" />
    <glyph glyph-name="r_t.liga" unicode="rt" horiz-adv-x="590" 
d="M74 424h70v-57q16 34 45.5 53t66.5 19q27 0 45 -6v-59q-24 8 -45 8q-55 0 -83.5 -42.5t-28.5 -123.5v-216h-70v424zM558 1q-28 -12 -59 -12q-44 0 -68.5 24t-24.5 72v295h-55v44h55v127h70v-127h77v-44h-77v-274q0 -35 9 -49.5t34 -14.5q15 0 36 6z" />
    <glyph glyph-name=".notdef" horiz-adv-x="647" 
d="M88.5 13.5q-13.5 13.5 -13.5 32.5v578q0 19 13.5 32t32.5 13h406q19 0 32 -13t13 -32v-578q0 -19 -13 -32.5t-32 -13.5h-406q-19 0 -32.5 13.5zM493 618h-338l169 -248zM299 335l-173 256v-511zM522 590l-174 -255l174 -256v511zM492 51l-168 248l-169 -248h337z" />
    <glyph glyph-name=".null" horiz-adv-x="0" 
 />
    <glyph glyph-name="nonmarkingreturn" unicode="&#xd;" horiz-adv-x="175" 
 />
    <glyph glyph-name="space" unicode=" " horiz-adv-x="200" 
 />
    <glyph glyph-name="exclam" unicode="!" horiz-adv-x="230" 
d="M91 214q0 65 -4.5 139.5t-9.5 137.5q-8 110 -8 134q0 22 12.5 38t33.5 16q22 0 34 -15.5t12 -38.5q0 -25 -8 -149q-11 -170 -13 -262v-20h-49v20zM82.5 -1q-13.5 14 -13.5 33t13.5 32.5t32.5 13.5t32.5 -13.5t13.5 -32.5t-13.5 -33t-32.5 -14t-32.5 14z" />
    <glyph glyph-name="quotedbl" unicode="&#x22;" horiz-adv-x="231" 
d="M27 669h64l-39 -245h-34zM147 669h64l-39 -245h-34z" />
    <glyph glyph-name="numbersign" unicode="#" horiz-adv-x="616" 
d="M189 213h-125l5 31h124l28 184h-125l4 31h126l27 181h34l-27 -181h142l27 181h34l-27 -181h116l-5 -31h-116l-28 -184h117l-4 -31h-117l-27 -181h-34l27 181h-142l-27 -181h-34zM369 244l28 184h-142l-28 -184h142z" />
    <glyph glyph-name="dollar" unicode="$" horiz-adv-x="507" 
d="M412 51q-45 -47 -120 -60v-161h-71v157q-94 5 -171 42v69q89 -48 190 -48q62 0 99.5 28.5t37.5 88.5q0 33 -18.5 57.5t-45.5 42.5t-76 44q-56 29 -91 53t-59 60.5t-24 86.5q0 72 44 116t114 53v170l71 -20v-149q63 -6 123 -34v-64q-32 19 -72.5 29.5t-80.5 10.5
q-54 0 -88.5 -26.5t-34.5 -76.5q0 -35 19 -61.5t47 -45.5t78 -46q57 -31 91.5 -55t58.5 -61t24 -88q0 -65 -45 -112z" />
    <glyph glyph-name="percent" unicode="%" horiz-adv-x="768" 
d="M606 704h45l-495 -749h-45zM78 345q-33 55 -33 142q0 84 34.5 136.5t99.5 52.5q66 0 101 -52.5t35 -141.5q0 -84 -34 -138t-102 -54t-101 55zM235.5 375q19.5 39 19.5 107q0 67 -18.5 108t-59.5 41q-37 0 -55.5 -41.5t-18.5 -111.5q0 -71 21 -106.5t53 -35.5
q39 0 58.5 39zM486 47q-33 55 -33 142q0 84 34.5 136.5t99.5 52.5q66 0 101 -52.5t35 -141.5q0 -84 -34 -138t-102 -54t-101 55zM643.5 77q19.5 39 19.5 107q0 67 -18.5 108t-59.5 41q-37 0 -55.5 -41.5t-18.5 -111.5q0 -71 21 -106.5t53 -35.5q39 0 58.5 39z" />
    <glyph glyph-name="ampersand" unicode="&#x26;" horiz-adv-x="582" 
d="M573 343q-5 -28 -19 -44t-36 -26q-30 -15 -70 -20q19 -32 19 -79q0 -59 -29 -100.5t-77.5 -63t-106.5 -21.5q-54 0 -102 20.5t-77.5 62t-29.5 99.5q0 60 34.5 106.5t94.5 58.5q-43 14 -72 55t-29 89q0 61 44 103.5t132 42.5q79 0 154 -36v-62q-72 38 -145 38
q-56 0 -85 -25t-29 -63q0 -49 36 -81.5t84 -33.5v-57q-32 0 -66 -17.5t-56.5 -47.5t-22.5 -66q0 -40 20.5 -68.5t53 -43.5t69.5 -15q55 0 95.5 34.5t40.5 97.5q0 36 -16 61q-30 -8 -55 -24q-45 -28 -56 -61l-28 58q6 14 23.5 30.5t34.5 27.5q25 16 47.5 21.5t52.5 8.5
q27 3 46 7t41 14q45 21 55 74z" />
    <glyph glyph-name="quotesingle" unicode="'" horiz-adv-x="111" 
d="M27 669h64l-39 -245h-34z" />
    <glyph glyph-name="parenleft" unicode="(" horiz-adv-x="238" 
d="M134 -149.5q-33 59.5 -63 159t-30 217.5t30 217.5t63 159t55 87.5l24 -14q-72 -106 -105 -217t-33 -233q0 -121 33 -232.5t105 -217.5l-24 -14q-22 28 -55 87.5z" />
    <glyph glyph-name="parenright" unicode=")" horiz-adv-x="238" 
d="M104 608.5q33 -59.5 63 -159t30 -217.5t-30 -217.5t-63 -159t-55 -87.5l-24 14q72 106 105 217t33 233q0 121 -33 232.5t-105 217.5l24 14q22 -28 55 -87.5z" />
    <glyph glyph-name="asterisk" unicode="*" horiz-adv-x="411" 
d="M106.5 401q-12.5 12 -12.5 29q0 15 9 29q7 10 14.5 14.5t19.5 9.5q16 8 28.5 16t26.5 24q-22 5 -34 5q-17 0 -34 -5q-4 -1 -9.5 -2t-13.5 -1q-19 0 -35 12t-16 31q0 18 12.5 31t30.5 13q17 0 27 -6.5t22 -20.5q11 -14 23 -24t32 -17q-3 36 -21 64q-7 13 -10 21.5t-3 19.5
q0 17 11 31t32 14t31.5 -14t10.5 -31q0 -12 -3.5 -20.5t-10.5 -20.5q-9 -15 -14 -28.5t-7 -35.5q21 7 33.5 17t24.5 25q11 13 21 19.5t26 6.5q18 0 30.5 -12.5t12.5 -31.5q0 -18 -15.5 -30.5t-35.5 -12.5q-8 0 -13.5 1t-9.5 2q-17 5 -34 5q-11 0 -34 -5q15 -17 27 -25
t28 -15q13 -6 20.5 -11t14.5 -14q9 -13 9 -28q0 -16 -12.5 -28.5t-29.5 -12.5q-10 0 -20 5.5t-16 13.5q-7 9 -9.5 18t-3.5 23q-2 18 -6 32.5t-15 32.5q-12 -19 -16 -33.5t-6 -32.5q-2 -24 -12 -40q-17 -19 -36 -19q-17 0 -29.5 12z" />
    <glyph glyph-name="plus" unicode="+" horiz-adv-x="526" 
d="M240 206h-195v47h195v194h48v-194h193v-47h-193v-195h-48v195z" />
    <glyph glyph-name="comma" unicode="," horiz-adv-x="181" 
d="M13 -144q38 20 65 55.5t31 78.5q-5 -5 -20 -5q-19 0 -31 14t-12 32q0 20 13.5 34t36.5 14q29 0 44 -22t15 -47q0 -62 -37.5 -111.5t-89.5 -71.5z" />
    <glyph glyph-name="hyphen" unicode="-" horiz-adv-x="301" 
d="M45 266h211v-63h-211v63z" />
    <glyph glyph-name="period" unicode="." horiz-adv-x="192" 
d="M63.5 4q-13.5 14 -13.5 33t13.5 32.5t32.5 13.5t32.5 -13.5t13.5 -32.5t-13.5 -33t-32.5 -14t-32.5 14z" />
    <glyph glyph-name="slash" unicode="/" horiz-adv-x="373" 
d="M316 704h35l-283 -749h-35z" />
    <glyph glyph-name="zero" unicode="0" horiz-adv-x="527" 
d="M110.5 77q-50.5 90 -50.5 230q0 142 51.5 230.5t151.5 88.5q99 0 151.5 -87t52.5 -233q0 -140 -51 -229.5t-153 -89.5t-152.5 90zM391 306q0 260 -130 260t-130 -260q0 -258 130 -258t130 258z" />
    <glyph glyph-name="one" unicode="1" horiz-adv-x="284" 
d="M115 555l-130 -7v43l203 28v-618h-73v554z" />
    <glyph glyph-name="two" unicode="2" horiz-adv-x="434" 
d="M25 66q109 107 163.5 167.5t83.5 113t29 105.5q0 59 -32.5 88.5t-84.5 29.5q-64 0 -137 -40v66q74 34 147 34q82 0 132 -47t50 -130q0 -60 -35.5 -124t-88.5 -123.5t-137 -142.5h279v-63h-369v66z" />
    <glyph glyph-name="three" unicode="3" horiz-adv-x="452" 
d="M33 22v70q35 -19 72 -29t69 -10q72 0 110.5 34t38.5 90t-44.5 91t-120.5 38h-7v57h7q59 1 99.5 33.5t40.5 82.5q0 38 -29 63t-85 25q-73 0 -145 -38v63q75 36 154 36q88 0 132 -42.5t44 -103.5q0 -48 -29 -90.5t-72 -55.5q60 -12 94.5 -57.5t34.5 -105.5
q1 -48 -22.5 -89.5t-71 -67t-115.5 -25.5q-77 0 -155 31z" />
    <glyph glyph-name="four" unicode="4" horiz-adv-x="498" 
d="M337 156l-307 1v35l168 425h73l-162 -402h228v221l71 27v-463h-71v156z" />
    <glyph glyph-name="five" unicode="5" horiz-adv-x="456" 
d="M50 17v70q80 -37 139 -37q51 0 85.5 21t51.5 54t17 70q0 59 -37.5 99.5t-110.5 40.5q-50 2 -112 -23l-29 19l32 285h310v-62l-248 1l-20 -175q46 12 85 12q59 0 105 -26t72 -70.5t26 -98.5q0 -64 -27 -111.5t-76.5 -73t-113.5 -25.5q-79 0 -149 30z" />
    <glyph glyph-name="six" unicode="6" horiz-adv-x="465" 
d="M93.5 59q-48.5 72 -48.5 184q0 98 35 184.5t103.5 144t166.5 69.5v-65q-90 -11 -151 -78t-74 -164q19 32 54.5 50.5t72.5 18.5q51 0 91.5 -26t63.5 -73t23 -108q0 -53 -22.5 -101.5t-65.5 -78t-101 -29.5q-99 0 -147.5 72zM305 67.5q27 22.5 40.5 58t13.5 74.5
q-1 63 -31 105.5t-87 42.5q-53 0 -87.5 -44t-34.5 -105q0 -38 14.5 -73.5t42 -58t65.5 -22.5q37 0 64 22.5z" />
    <glyph glyph-name="seven" unicode="7" horiz-adv-x="377" 
d="M274 553h-279l3 63h359v-34l-224 -581h-81z" />
    <glyph glyph-name="eight" unicode="8" horiz-adv-x="461" 
d="M91.5 32.5q-56.5 45.5 -56.5 126.5q0 61 38 106.5t100 68.5q-49 23 -79 62.5t-30 85.5t24.5 79t63.5 49.5t83 16.5q45 0 84 -16.5t63 -49.5t24 -79q0 -52 -31 -88.5t-87 -61.5q138 -60 138 -177q0 -48 -25 -86t-68.5 -60t-97.5 -22q-87 0 -143.5 45.5zM314 406
q25 27 25 68q0 47 -30 74t-74 27q-43 0 -70.5 -26.5t-27.5 -72.5q0 -38 28 -68.5t76 -48.5q48 20 73 47zM318 73.5q32 32.5 32 87.5q0 52 -36.5 87t-93.5 56q-51 -18 -81 -53t-30 -84q0 -58 36.5 -92t87.5 -34q53 0 85 32.5z" />
    <glyph glyph-name="nine" unicode="9" horiz-adv-x="467" 
d="M115 40q93 12 153.5 72.5t73.5 158.5q-18 -28 -54.5 -42.5t-76.5 -14.5q-50 0 -90.5 26.5t-63 73.5t-22.5 107q0 53 22.5 100.5t65.5 76.5t102 29q99 0 148 -71t49 -180q0 -100 -34.5 -188t-103.5 -146t-169 -67v65zM288 288.5q28 20.5 44 55t16 73.5q0 38 -14.5 73
t-42.5 57.5t-66 22.5q-56 0 -88 -46t-32 -107q0 -64 31 -106.5t89 -42.5q35 0 63 20.5z" />
    <glyph glyph-name="colon" unicode=":" horiz-adv-x="221" 
d="M78.5 4q-13.5 14 -13.5 33t13.5 32.5t32.5 13.5t32.5 -13.5t13.5 -32.5t-13.5 -33t-32.5 -14t-32.5 14zM77.5 350q-13.5 14 -13.5 33t13.5 32.5t32.5 13.5t32.5 -13.5t13.5 -32.5t-13.5 -33t-32.5 -14t-32.5 14z" />
    <glyph glyph-name="semicolon" unicode=";" horiz-adv-x="181" 
d="M65.5 351q-13.5 14 -13.5 33t13.5 32.5t32.5 13.5t32.5 -13.5t13.5 -32.5t-13.5 -33t-32.5 -14t-32.5 14zM13 -144q38 20 65 55.5t31 78.5q-5 -5 -20 -5q-19 0 -31 14t-12 32q0 20 13.5 34t36.5 14q29 0 44 -22t15 -47q0 -62 -37.5 -111.5t-89.5 -71.5z" />
    <glyph glyph-name="less" unicode="&#x3c;" horiz-adv-x="429" 
d="M62 202q-17 12 -17 28t17 28l294 203l28 -40l-276 -191l274 -192l-28 -41z" />
    <glyph glyph-name="equal" unicode="=" horiz-adv-x="506" 
d="M45 312h416v-46h-416v46zM45 192h416v-46h-416v46z" />
    <glyph glyph-name="greater" unicode="&#x3e;" horiz-adv-x="429" 
d="M47 38l274 192l-276 191l28 40l294 -203q17 -12 17 -28t-17 -28l-292 -205z" />
    <glyph glyph-name="question" unicode="?" horiz-adv-x="396" 
d="M121 208q0 47 12 82t28.5 58t43.5 53q33 36 49 63t16 67q0 43 -30.5 68t-75.5 25q-63 0 -128 -37v59q65 36 140 36q73 0 122.5 -38.5t49.5 -111.5q0 -50 -19 -83t-56 -72q-34 -35 -51 -56t-29 -52t-12 -75h-60v14zM125.5 -1q-13.5 14 -13.5 33t13.5 32.5t32.5 13.5
t32.5 -13.5t13.5 -32.5t-13.5 -33t-32.5 -14t-32.5 14z" />
    <glyph glyph-name="at" unicode="@" horiz-adv-x="776" 
d="M223.5 33.5q-75.5 46.5 -119.5 126t-44 172.5t44 172.5t119.5 126t164.5 46.5t164.5 -46.5t119.5 -126t44 -172.5q0 -97 -43.5 -160t-121.5 -63q-29 0 -47 17.5t-19 53.5q-21 -38 -57.5 -55.5t-79.5 -17.5q-57 0 -94.5 32t-37.5 86q0 85 80.5 120t183.5 37v29
q0 95 -102 95q-31 0 -64.5 -11t-63.5 -30v57q69 40 144 40q71 0 113.5 -37.5t42.5 -111.5v-198q0 -33 6 -48.5t21 -15.5q35 1 58.5 30.5t34 71t10.5 79.5q0 84 -39.5 155t-106.5 112.5t-146 41.5t-146 -41.5t-106 -112.5t-39 -155t39 -155t106 -112.5t146 -41.5v-36
q-89 0 -164.5 46.5zM446.5 192.5q33.5 33.5 33.5 91.5v50q-92 -1 -143 -28.5t-51 -77.5q0 -32 22.5 -50.5t57.5 -18.5q47 0 80.5 33.5z" />
    <glyph glyph-name="A" unicode="A" horiz-adv-x="578" 
d="M405 196h-236l-57 -196h-77l206 669h94l208 -669h-81zM389 249l-100 345h-4l-100 -345h204z" />
    <glyph glyph-name="B" unicode="B" horiz-adv-x="568" 
d="M105 669h146q232 0 232 -169q0 -50 -30.5 -88.5t-77.5 -56.5v-2q65 -13 103 -59.5t38 -113.5q0 -88 -59.5 -134t-173.5 -46h-178v669zM265 379q70 0 105 31.5t35 82.5q0 122 -147 122h-76v-236h83zM276 59q162 0 162 131q0 59 -42 97.5t-131 38.5h-83v-267h94z" />
    <glyph glyph-name="C" unicode="C" horiz-adv-x="549" 
d="M193.5 33.5q-65.5 44.5 -98 121.5t-32.5 177q0 99 31 177.5t96 125t163 46.5q35 0 74.5 -8t67.5 -21v-66q-29 16 -66 25t-71 9q-96 0 -155 -67t-59 -218q0 -153 59.5 -219t156.5 -66q33 0 69.5 9.5t65.5 24.5v-66q-28 -12 -67 -20.5t-72 -8.5q-97 0 -162.5 44.5z" />
    <glyph glyph-name="D" unicode="D" horiz-adv-x="630" 
d="M105 669h150q146 0 229 -85.5t83 -239.5q0 -164 -73 -254t-227 -90h-162v669zM250 59q125 0 180.5 69.5t55.5 206.5q0 280 -254 280h-50v-556h68z" />
    <glyph glyph-name="E" unicode="E" horiz-adv-x="521" 
d="M476 59v-59h-371v669h359v-54h-283v-236h211v-53h-211v-267h295z" />
    <glyph glyph-name="F" unicode="F" horiz-adv-x="480" 
d="M182 615v-238h211v-54h-211v-323h-77v669h350v-54h-273z" />
    <glyph glyph-name="G" unicode="G" horiz-adv-x="627" 
d="M194 30q-62 40 -96.5 118t-34.5 187q0 103 34.5 181.5t100 121.5t155.5 43q34 0 73.5 -8t67.5 -21v-66q-30 16 -67.5 25t-71.5 9q-94 0 -152 -67t-58 -216q0 -153 56 -220t143 -67q41 0 77 13.5t56 38.5v205h-113v53h188v-289q-40 -40 -97.5 -61t-116.5 -21
q-82 1 -144 41z" />
    <glyph glyph-name="H" unicode="H" horiz-adv-x="659" 
d="M554 669v-669h-76v323h-297v-323h-76v669h76v-293h297v293h76z" />
    <glyph glyph-name="I" unicode="I" horiz-adv-x="286" 
d="M105 669h76v-669h-76v669z" />
    <glyph glyph-name="J" unicode="J" horiz-adv-x="335" 
d="M0 2v64q41 -18 75 -18q42 0 61.5 25t19.5 85v511h77v-517q0 -84 -38.5 -124.5t-108.5 -40.5q-47 0 -86 15z" />
    <glyph glyph-name="K" unicode="K" horiz-adv-x="585" 
d="M553 0h-93l-278 346v-346h-77v669h77v-310l242 310h85l-246 -310z" />
    <glyph glyph-name="L" unicode="L" horiz-adv-x="481" 
d="M444 59v-59h-339v669h76v-610h263z" />
    <glyph glyph-name="M" unicode="M" horiz-adv-x="786" 
d="M681 669v-669h-73v600l-183 -601h-61l-190 594v-593h-69v669h116l175 -559l169 559h116z" />
    <glyph glyph-name="N" unicode="N" 
d="M105 669h85l290 -561v561h69v-669h-87l-288 553v-553h-69v669z" />
    <glyph glyph-name="O" unicode="O" 
d="M184.5 30q-60.5 43 -92.5 121.5t-32 183.5t32 183t92.5 121t142.5 43t142.5 -43t92.5 -121t32 -183t-32 -183.5t-92.5 -121.5t-142.5 -43t-142.5 43zM464.5 123.5q48.5 75.5 48.5 211.5t-48.5 211.5t-137.5 75.5t-137.5 -76t-48.5 -211t48.5 -211t137.5 -76t137.5 75.5z
" />
    <glyph glyph-name="P" unicode="P" horiz-adv-x="522" 
d="M431.5 617.5q57.5 -51.5 57.5 -141.5q0 -88 -66.5 -140t-183.5 -52h-58v-284h-76v669h155q114 0 171.5 -51.5zM365 373.5q45 36.5 45 102.5q0 67 -41 103t-123 36h-65v-278h48q91 0 136 36.5z" />
    <glyph glyph-name="Q" unicode="Q" 
d="M184.5 30q-60.5 43 -92.5 121.5t-32 183.5t32 183t92.5 121t142.5 43t142.5 -43t92.5 -121t32 -183t-32 -183.5t-92.5 -121.5t-142.5 -43t-142.5 43zM464.5 123.5q48.5 75.5 48.5 211.5t-48.5 211.5t-137.5 75.5t-137.5 -76t-48.5 -211t48.5 -211t137.5 -76t137.5 75.5z
M306 -54h246l-53 -58h-193v58z" />
    <glyph glyph-name="R" unicode="R" horiz-adv-x="577" 
d="M105 669h148q118 0 177 -45.5t59 -131.5q0 -70 -43 -118t-112 -64l210 -310h-90l-197 300h-76v-300h-76v669zM259 354q70 0 110.5 36t40.5 96q0 129 -155 129h-74v-261h78z" />
    <glyph glyph-name="S" unicode="S" horiz-adv-x="507" 
d="M50 29v69q89 -48 190 -48q62 0 99.5 28.5t37.5 88.5q0 33 -18.5 57.5t-45.5 42.5t-76 44q-56 29 -91 53t-59 60.5t-24 86.5q0 54 26 92.5t70 58.5t98 20q86 0 158 -35v-64q-32 19 -72.5 29.5t-80.5 10.5q-54 0 -88.5 -26.5t-34.5 -76.5q0 -35 19 -61.5t47 -45.5t78 -46
q57 -31 91.5 -55t58.5 -61t24 -88q0 -50 -27 -90t-76.5 -63t-112.5 -23q-104 0 -191 42z" />
    <glyph glyph-name="T" unicode="T" horiz-adv-x="496" 
d="M491 609h-206v-609h-76v609h-204v60h486v-60z" />
    <glyph glyph-name="U" unicode="U" horiz-adv-x="664" 
d="M158.5 52q-58.5 65 -58.5 189v428h76v-420q0 -97 38 -148t122 -51q82 0 119 50t37 144v425h72v-432q0 -123 -58.5 -186.5t-172.5 -63.5q-116 0 -174.5 65z" />
    <glyph glyph-name="V" unicode="V" horiz-adv-x="591" 
d="M556 669l-215 -670h-87l-219 670h80l181 -584h4l179 584h77z" />
    <glyph glyph-name="W" unicode="W" horiz-adv-x="905" 
d="M870 669l-197 -670h-87l-125 408l-137 -408h-84l-205 670h77l171 -578h7l139 421l-48 157h77l168 -576h6l161 576h77z" />
    <glyph glyph-name="X" unicode="X" horiz-adv-x="549" 
d="M444 0l-169 289l-176 -289h-79l219 351l-190 318h84l150 -255l156 255h78l-197 -317l209 -352h-85z" />
    <glyph glyph-name="Y" unicode="Y" horiz-adv-x="503" 
d="M290 244v-244h-76v241l-199 428h83l156 -346l157 346h77z" />
    <glyph glyph-name="Z" unicode="Z" horiz-adv-x="530" 
d="M30 39l362 574h-337v56h438v-38l-361 -572h360v-59h-462v39z" />
    <glyph glyph-name="bracketleft" unicode="[" horiz-adv-x="260" 
d="M105 682h125v-26h-94v-856h94v-26h-125v908z" />
    <glyph glyph-name="backslash" unicode="\" horiz-adv-x="373" 
d="M22 704h35l283 -749h-35z" />
    <glyph glyph-name="bracketright" unicode="]" horiz-adv-x="260" 
d="M30 -200h93v856h-93v26h125v-908h-125v26z" />
    <glyph glyph-name="asciicircum" unicode="^" horiz-adv-x="707" 
d="M118.5 13.5q-13.5 13.5 -13.5 32.5v578q0 19 13.5 32t32.5 13h406q19 0 32 -13t13 -32v-578q0 -19 -13 -32.5t-32 -13.5h-406q-19 0 -32.5 13.5zM523 618h-338l169 -248zM329 335l-173 256v-511zM552 590l-174 -255l174 -256v511zM522 51l-168 248l-169 -248h337z" />
    <glyph glyph-name="underscore" unicode="_" horiz-adv-x="443" 
d="M-3 -65h449v-34h-449v34z" />
    <glyph glyph-name="grave" unicode="`" horiz-adv-x="263" 
d="M45 598v88l173 -173h-49z" />
    <glyph glyph-name="a" unicode="a" horiz-adv-x="446" 
d="M414 42v-45q-22 -8 -41 -8q-29 0 -47 17.5t-19 53.5q-21 -38 -57.5 -55.5t-79.5 -17.5q-57 0 -94.5 32t-37.5 86q0 85 80.5 120t183.5 37v29q0 95 -102 95q-31 0 -64.5 -11t-63.5 -30v57q69 40 144 40q71 0 113.5 -37.5t42.5 -111.5v-189q0 -34 6 -49t23 -15q3 0 13 2z
M302 214q-92 -1 -143 -28.5t-51 -77.5q0 -32 22.5 -50.5t57.5 -18.5q47 0 80.5 33.5t33.5 91.5v50z" />
    <glyph glyph-name="b" unicode="b" horiz-adv-x="479" 
d="M131 0h-57v669h70v-303q19 37 52.5 56.5t70.5 19.5q51 0 88.5 -31.5t57 -84t19.5 -112.5q0 -106 -52.5 -168.5t-146.5 -62.5q-46 0 -102 17zM325.5 80.5q33.5 46.5 33.5 136.5q0 69 -30 118.5t-79 49.5q-28 0 -53 -19t-40 -53.5t-15 -80.5v-176q36 -22 85 -22
q65 0 98.5 46.5z" />
    <glyph glyph-name="c" unicode="c" horiz-adv-x="391" 
d="M144.5 13.5q-47.5 26.5 -74.5 78t-27 123.5q0 70 27 121.5t72 78.5t100 27q59 0 109 -21v-55q-48 19 -92 19q-63 0 -102.5 -46.5t-39.5 -126.5q0 -81 41 -124.5t107 -43.5q47 0 94 16v-56q-20 -8 -49.5 -12.5t-56.5 -4.5q-61 0 -108.5 26.5z" />
    <glyph glyph-name="d" unicode="d" horiz-adv-x="492" 
d="M129 15q-38 28 -60 79.5t-22 118.5q0 61 19.5 113t57.5 84t92 32q39 0 74.5 -20t53.5 -56v303h70v-565q0 -34 6 -49t23 -15q4 0 12 2v-45q-22 -8 -41 -8q-28 0 -46 17.5t-22 52.5v16q-22 -44 -56.5 -66t-74.5 -22q-48 0 -86 28zM288 66q26 21 42 62t16 96q0 50 -16 86.5
t-41.5 55.5t-55.5 19q-51 0 -82 -51t-31 -122q0 -51 15 -89t40.5 -58t55.5 -20q31 0 57 21z" />
    <glyph glyph-name="e" unicode="e" horiz-adv-x="428" 
d="M347.5 374q43.5 -68 40.5 -173h-275q4 -76 45.5 -117t104.5 -41q31 0 53.5 5.5t45.5 16.5l-1 -54q-44 -24 -109 -24q-95 0 -152.5 61.5t-57.5 168.5q0 65 22 116t62.5 80t94.5 29q83 0 126.5 -68zM149 352q-29 -37 -35 -107h205q-2 65 -27.5 104.5t-69.5 39.5t-73 -37z
" />
    <glyph glyph-name="f" unicode="f" horiz-adv-x="248" 
d="M166 600q-17 -22 -17 -75v-101h95v-44h-95v-380h-70v351q0 18 -6 24.5t-22 6.5h-26v42h54v94q0 82 33 120t91 38q33 0 65 -12v-52q-27 10 -54 10q-31 0 -48 -22z" />
    <glyph glyph-name="g" unicode="g" horiz-adv-x="479" 
d="M88 -199v59q53 -25 117 -25q60 0 95 29.5t35 106.5v83q-19 -34 -51.5 -52t-68.5 -18q-54 0 -92.5 31t-58 82t-19.5 112q0 69 25.5 122t71.5 82t107 29q46 0 99 -18h57v-457q0 -102 -53 -147t-136 -45q-73 0 -128 26zM283.5 59.5q24.5 17.5 39 49.5t14.5 75v183
q-31 22 -82 22q-64 0 -100.5 -47.5t-36.5 -133.5q0 -70 30 -118t84 -48q27 0 51.5 17.5z" />
    <glyph glyph-name="h" unicode="h" horiz-adv-x="491" 
d="M74 669h70v-305q20 36 56.5 57t78.5 21q69 0 106 -43t37 -132v-267h-70v262q0 123 -88 123q-52 0 -86 -44t-34 -119v-222h-70v669z" />
    <glyph glyph-name="i" unicode="i" horiz-adv-x="218" 
d="M79.5 588q-12.5 13 -12.5 30q0 19 12.5 33t29.5 14q16 0 28.5 -14t12.5 -33q0 -17 -12.5 -30t-28.5 -13q-17 0 -29.5 13zM74 424h70v-424h-70v424z" />
    <glyph glyph-name="j" unicode="j" horiz-adv-x="231" 
d="M85.5 588q-12.5 13 -12.5 30q0 19 12.5 33t29.5 14t29.5 -14t12.5 -33q0 -17 -12.5 -30t-29.5 -13t-29.5 13zM-31 -214v52q27 -9 52 -9q30 0 45 20.5t15 71.5v503h70v-496q0 -153 -119 -153q-33 0 -63 11z" />
    <glyph glyph-name="k" unicode="k" horiz-adv-x="425" 
d="M380 58q23 -19 43 -20v-51q-45 0 -79.5 22t-87.5 85l-112 131v-225h-70v669h70v-422l171 177h82l-181 -185l108 -124q33 -38 56 -57z" />
    <glyph glyph-name="l" unicode="l" horiz-adv-x="220" 
d="M95.5 14.5q-23.5 27.5 -23.5 95.5v559h70v-560q0 -43 9 -57.5t30 -15.5q5 0 8 1v-49q-8 -1 -27 -1q-43 0 -66.5 27.5z" />
    <glyph glyph-name="m" unicode="m" horiz-adv-x="727" 
d="M624 399q34 -43 34 -132v-267h-70v252q0 133 -84 133q-28 0 -51.5 -20.5t-37.5 -60t-14 -93.5v-211h-70v252q0 133 -84 133q-44 0 -73.5 -47t-29.5 -127v-211h-70v424h70v-66q15 39 49.5 61.5t75.5 22.5q46 0 78 -23.5t45 -70.5q17 47 54 70.5t79 23.5q65 0 99 -43z" />
    <glyph glyph-name="n" unicode="n" horiz-adv-x="491" 
d="M74 424h70v-66q19 39 56.5 61.5t81.5 22.5q68 0 104 -43t36 -132v-267h-70v252q0 72 -25.5 102.5t-66.5 30.5q-32 0 -58.5 -21t-42 -60.5t-15.5 -92.5v-211h-70v424z" />
    <glyph glyph-name="o" unicode="o" horiz-adv-x="463" 
d="M134 15q-42 28 -65.5 80t-23.5 122q0 68 24 119.5t66.5 79t95.5 27.5t95.5 -27.5t67 -79t24.5 -119.5q0 -70 -23.5 -122t-66 -80t-97.5 -28t-97 28zM311 85.5q31 45.5 31 131.5q0 83 -31 127.5t-79 44.5q-49 0 -80.5 -44.5t-31.5 -127.5q0 -86 31.5 -131.5t80.5 -45.5
q48 0 79 45.5z" />
    <glyph glyph-name="p" unicode="p" horiz-adv-x="487" 
d="M74 424h69v-66q20 41 55 62.5t74 21.5q49 0 87 -28t59.5 -79.5t21.5 -118.5q0 -60 -19.5 -112.5t-57.5 -84.5t-92 -32q-39 0 -73.5 20t-53.5 58v-276h-70v635zM336 94.5q31 49.5 31 118.5q0 52 -15 91t-40.5 60t-55.5 21t-56.5 -21.5t-42.5 -62.5t-16 -97q0 -49 16 -85
t41.5 -55t55.5 -19q51 0 82 49.5z" />
    <glyph glyph-name="q" unicode="q" horiz-adv-x="479" 
d="M335 54q-19 -35 -51.5 -52.5t-69.5 -17.5q-52 0 -90 31.5t-57.5 83t-19.5 111.5q0 105 54.5 168.5t146.5 63.5q46 0 99 -18h58v-635h-70v265zM283 59.5q24 17.5 38.5 49.5t14.5 75v183q-31 22 -82 22q-63 0 -98.5 -47t-35.5 -135q0 -68 31 -116.5t81 -48.5q27 0 51 17.5z
" />
    <glyph glyph-name="r" unicode="r" horiz-adv-x="310" 
d="M74 424h70v-57q16 34 45.5 53t66.5 19q27 0 45 -6v-59q-24 8 -45 8q-55 0 -83.5 -42.5t-28.5 -123.5v-216h-70v424z" />
    <glyph glyph-name="s" unicode="s" horiz-adv-x="364" 
d="M40 17v59q30 -15 66 -24.5t68 -9.5q38 0 60 16t22 45q0 28 -23 47.5t-71 44.5q-39 21 -63.5 37.5t-41.5 40.5t-17 57q0 52 44 82t102 30q65 0 116 -24v-53q-24 11 -53.5 18t-56.5 7q-34 0 -57.5 -15t-23.5 -43t22.5 -46.5t71.5 -44.5q41 -21 65.5 -37.5t42 -41
t17.5 -58.5q0 -51 -41 -84t-107 -33q-78 0 -142 30z" />
    <glyph glyph-name="t" unicode="t" horiz-adv-x="270" 
d="M238 1q-28 -12 -59 -12q-44 0 -68.5 24t-24.5 72v295h-55v44h55v127h70v-127h77v-44h-77v-274q0 -35 9 -49.5t34 -14.5q15 0 36 6z" />
    <glyph glyph-name="u" unicode="u" horiz-adv-x="488" 
d="M453 37v-45q-10 -3 -27 -3q-36 0 -56 17.5t-27 58.5q-19 -36 -57 -57t-81 -21q-66 0 -101 43t-35 130v264h70v-250q0 -70 24 -100t63 -30q49 0 81.5 45t32.5 127v208h70v-321q0 -35 8 -50.5t26 -15.5h9z" />
    <glyph glyph-name="v" unicode="v" horiz-adv-x="409" 
d="M396 424l-154 -424h-75l-154 424h74l119 -348l120 348h70z" />
    <glyph glyph-name="w" unicode="w" horiz-adv-x="632" 
d="M619 424l-132 -424h-75l-93 271l-98 -271h-74l-134 424h73l100 -347l101 289l-20 58h68l115 -349l99 349h70z" />
    <glyph glyph-name="x" unicode="x" horiz-adv-x="391" 
d="M303 0l-110 170l-110 -170h-73l149 223l-131 201h77l95 -145l93 145h73l-131 -198l146 -226h-78z" />
    <glyph glyph-name="y" unicode="y" horiz-adv-x="412" 
d="M397 424l-164 -515q-22 -66 -52.5 -100t-79.5 -34q-36 0 -69 13v54q32 -12 59 -12q30 0 50 21.5t33 65.5l25 83h-43l-142 424h72l124 -389l117 389h70z" />
    <glyph glyph-name="z" unicode="z" horiz-adv-x="386" 
d="M368 52v-52h-358v32l259 341h-238v51h335v-31l-260 -341h262z" />
    <glyph glyph-name="braceleft" unicode="{" horiz-adv-x="244" 
d="M135 -195q-31 30 -31 97v208q0 49 -18 76t-53 27v31q35 0 53 27t18 76v208q0 67 31 97t80 30h25v-31h-25q-35 0 -57.5 -22.5t-22.5 -73.5v-208q0 -43 -13 -73.5t-36 -44.5q23 -15 36 -46t13 -73v-208q0 -51 22.5 -73.5t57.5 -22.5h25v-31h-25q-49 0 -80 30z" />
    <glyph glyph-name="bar" unicode="|" horiz-adv-x="252" 
d="M105 669h42v-894h-42v894z" />
    <glyph glyph-name="braceright" unicode="}" horiz-adv-x="244" 
d="M4 -194h25q35 0 57.5 22.5t22.5 73.5v208q0 42 13 73t36 46q-23 14 -36 44.5t-13 73.5v208q0 51 -22.5 73.5t-57.5 22.5h-25v31h25q49 0 80 -30t31 -97v-208q0 -49 18 -76t53 -27v-31q-35 0 -53 -27t-18 -76v-208q0 -67 -31 -97t-80 -30h-25v31z" />
    <glyph glyph-name="asciitilde" unicode="~" horiz-adv-x="707" 
d="M118.5 13.5q-13.5 13.5 -13.5 32.5v578q0 19 13.5 32t32.5 13h406q19 0 32 -13t13 -32v-578q0 -19 -13 -32.5t-32 -13.5h-406q-19 0 -32.5 13.5zM523 618h-338l169 -248zM329 335l-173 256v-511zM552 590l-174 -255l174 -256v511zM522 51l-168 248l-169 -248h337z" />
    <glyph glyph-name="exclamdown" unicode="&#xa1;" horiz-adv-x="230" 
d="M147.5 665q13.5 -14 13.5 -33t-13.5 -32.5t-32.5 -13.5t-32.5 13.5t-13.5 32.5t13.5 33t32.5 14t32.5 -14zM139 450q0 -65 4.5 -139.5t9.5 -137.5q8 -110 8 -134q0 -22 -12.5 -38t-33.5 -16q-22 0 -34 15.5t-12 38.5q0 25 8 149q11 170 13 262v20h49v-20z" />
    <glyph glyph-name="cent" unicode="&#xa2;" horiz-adv-x="391" 
d="M359 4q-30 -12 -80 -16v-147h-65v149q-78 12 -124.5 70.5t-46.5 154.5q0 95 48.5 155t122.5 70v154l65 -20v-134q37 -4 72 -19v-55q-48 19 -92 19q-63 0 -102.5 -46.5t-39.5 -126.5q0 -81 41 -124.5t107 -43.5q47 0 94 16v-56z" />
    <glyph glyph-name="sterling" unicode="&#xa3;" horiz-adv-x="522" 
d="M485 59v-59h-339v310h-115v60h115v299h76v-299h180l-20 -60h-160v-251h263z" />
    <glyph glyph-name="yen" unicode="&#xa5;" horiz-adv-x="503" 
d="M314 296h130l-20 -60h-134v-236h-76v236h-141v60h115l-173 373h83l156 -346l157 346h77z" />
    <glyph glyph-name="brokenbar" unicode="&#xa6;" horiz-adv-x="252" 
d="M105 669h42v-420h-42v420zM105 195h42v-420h-42v420z" />
    <glyph glyph-name="section" unicode="&#xa7;" horiz-adv-x="507" 
d="M443 22q19 -32 19 -66q0 -64 -49.5 -106.5t-141.5 -42.5q-41 0 -87 11v64q49 -13 95 -13q51 0 77.5 21t26.5 53q0 27 -12 45t-49 38l-182 97q-54 28 -74.5 64t-20.5 80q0 41 20.5 78.5t56.5 62.5q-39 25 -58 57t-19 66q0 64 49.5 106.5t141.5 42.5q41 0 87 -11v-64
q-49 13 -95 13q-51 0 -77.5 -21t-26.5 -53q0 -27 12 -45t49 -38l182 -97q54 -28 74.5 -64t20.5 -80q0 -41 -20.5 -78.5t-56.5 -62.5q39 -25 58 -57zM132 232.5q13 -21.5 53 -43.5l146 -80q26 19 41.5 43.5t15.5 50.5q0 30 -13 51.5t-53 43.5l-146 80q-26 -19 -41.5 -43.5
t-15.5 -50.5q0 -30 13 -51.5z" />
    <glyph glyph-name="dieresis" unicode="&#xa8;" horiz-adv-x="343" 
d="M59 574.5q-14 14.5 -14 34.5t14 34.5t33 14.5t33 -14.5t14 -34.5t-14 -34.5t-33 -14.5t-33 14.5zM218 574.5q-14 14.5 -14 34.5t14 34.5t33 14.5t33 -14.5t14 -34.5t-14 -34.5t-33 -14.5t-33 14.5z" />
    <glyph glyph-name="copyright" unicode="&#xa9;" horiz-adv-x="809" 
d="M232 36.5q-79 46.5 -125.5 126t-46.5 172.5t46.5 172t125.5 125.5t172 46.5t172.5 -46.5t126 -125.5t46.5 -172t-46.5 -172.5t-126 -126t-172.5 -46.5t-172 46.5zM559.5 66.5q71.5 41.5 113 112.5t41.5 156q0 84 -41.5 155t-113 112.5t-155.5 41.5t-155 -41.5
t-112.5 -112.5t-41.5 -155q0 -85 41.5 -156t112.5 -112.5t155 -41.5t155.5 41.5zM313 144q-45 25 -71 73.5t-26 116.5q0 67 25.5 116.5t68.5 75.5t96 26q54 0 103 -20v-52q-47 18 -87 18q-60 0 -97.5 -44.5t-37.5 -120.5q0 -77 39 -118.5t102 -41.5q44 0 89 15v-53
q-20 -8 -47.5 -12t-53.5 -4q-58 0 -103 25z" />
    <glyph glyph-name="ordfeminine" unicode="&#xaa;" horiz-adv-x="315" 
d="M299 394v-37q-20 -6 -30 -6q-23 0 -41 11t-21 36q-12 -25 -37.5 -37t-56.5 -12q-39 0 -66.5 22.5t-27.5 62.5q0 61 56 86t129 26v21q0 29 -18 43t-48 14q-23 0 -48.5 -8.5t-49.5 -24.5v55q49 29 103 29q60 0 93 -26.5t33 -80.5v-131q0 -23 4.5 -34t16.5 -11q3 0 9 2z
M204 508q-64 -1 -89 -16.5t-25 -52.5q0 -20 11.5 -31t28.5 -11q28 0 51 23t23 63v25z" />
    <glyph glyph-name="guillemotleft" unicode="&#xab;" horiz-adv-x="382" 
d="M19 215l148 191l25 -19l-134 -172l145 -176l-26 -19zM142 215l148 191l25 -19l-135 -172l146 -176l-26 -19z" />
    <glyph glyph-name="logicalnot" unicode="&#xac;" horiz-adv-x="528" 
d="M436 331h-405v47h452v-172h-47v125z" />
    <glyph glyph-name="registered" unicode="&#xae;" horiz-adv-x="809" 
d="M232 36.5q-79 46.5 -125.5 126t-46.5 172.5t46.5 172t125.5 125.5t172 46.5t172.5 -46.5t126 -125.5t46.5 -172t-46.5 -172.5t-126 -126t-172.5 -46.5t-172 46.5zM559.5 66.5q71.5 41.5 113 112.5t41.5 156q0 84 -41.5 155t-113 112.5t-155.5 41.5t-155 -41.5
t-112.5 -112.5t-41.5 -155q0 -85 41.5 -156t112.5 -112.5t155 -41.5t155.5 41.5zM270 557h114q74 0 117 -30t43 -84q0 -46 -24 -75.5t-66 -41.5l135 -200h-87l-116 193h-47v-193h-69v431zM390 371q45 0 66.5 19.5t21.5 48.5q0 32 -24 50.5t-67 18.5h-48v-137h51z" />
    <glyph glyph-name="macron" unicode="&#xaf;" horiz-adv-x="319" 
d="M54 622h220l-9 -49h-220z" />
    <glyph glyph-name="degree" unicode="&#xb0;" horiz-adv-x="320" 
d="M91.5 426.5q-31.5 18.5 -50 50t-18.5 68.5t18.5 68.5t50 50t68.5 18.5t68.5 -18.5t50 -50t18.5 -68.5t-18.5 -68.5t-50 -50t-68.5 -18.5t-68.5 18.5zM229 476.5q28 28.5 28 68.5q0 41 -28 69t-69 28q-40 0 -68.5 -28t-28.5 -69q0 -40 28.5 -68.5t68.5 -28.5q41 0 69 28.5
z" />
    <glyph glyph-name="plusminus" unicode="&#xb1;" horiz-adv-x="506" 
d="M230 321h-185v48h185v185h48v-185h183v-48h-183l-1 -183h-47v183zM45 99h416v-46h-416v46z" />
    <glyph glyph-name="uni00B2" unicode="&#xb2;" horiz-adv-x="296" 
d="M23 336q99 84 137.5 131t38.5 92q0 32 -17.5 50t-45.5 18q-47 0 -98 -25v52q58 22 105 22q55 0 88.5 -28t33.5 -77q0 -54 -36.5 -108t-107.5 -115h155v-53h-253v41z" />
    <glyph glyph-name="uni00B3" unicode="&#xb3;" horiz-adv-x="291" 
d="M25 306v57q46 -24 96 -24q35 0 57.5 16t22.5 46q0 28 -23 48t-71 22h-4v47h4q37 0 57 17t20 39q0 24 -17.5 36.5t-45.5 12.5q-45 0 -93 -23v52q49 23 101 23q58 0 88 -26t30 -61q0 -33 -19 -58.5t-49 -32.5q40 -7 63.5 -35t23.5 -64q0 -48 -36.5 -79t-104.5 -31
q-46 0 -100 18z" />
    <glyph glyph-name="acute" unicode="&#xb4;" horiz-adv-x="263" 
d="M218 686v-88l-124 -85h-49z" />
    <glyph glyph-name="uni00B5" unicode="&#xb5;" horiz-adv-x="493" 
d="M458 37v-45q-10 -3 -27 -3q-36 0 -56 17.5t-27 58.5q-19 -36 -57 -57t-81 -21q-36 0 -66 14v-213h-70v636h70v-250q0 -70 24 -100t63 -30q49 0 81.5 45t32.5 127v208h70v-321q0 -35 8 -50.5t26 -15.5h9z" />
    <glyph glyph-name="paragraph" unicode="&#xb6;" horiz-adv-x="582" 
d="M295 -197q48 12 82.5 62t34.5 131v644h-58v-588q0 -77 -13 -120.5t-46 -68.5l3 361h-15q-66 0 -123 25t-92 75.5t-35 122.5t35 122t92 75t123 25h197v-612q0 -68 -9.5 -114t-39.5 -83.5t-90 -62.5q-28 -11 -46 -15v21z" />
    <glyph glyph-name="periodcentered" unicode="&#xb7;" horiz-adv-x="204" 
d="M65 178.5q-15 15.5 -15 38.5t15 39t37 16q21 0 36.5 -16t15.5 -39q0 -22 -15.5 -38t-36.5 -16q-22 0 -37 15.5z" />
    <glyph glyph-name="cedilla" unicode="&#xb8;" horiz-adv-x="245" 
d="M45 -181l17 28q25 -17 46 -17t32.5 12.5t11.5 30.5q0 17 -9.5 30.5t-28.5 13.5q-11 0 -29 -9l-19 25l63 67h31l-52 -54q11 3 22 3q22 0 46 -17t24 -57q0 -35 -25.5 -58t-62.5 -23q-34 0 -67 25z" />
    <glyph glyph-name="uni00B9" unicode="&#xb9;" horiz-adv-x="186" 
d="M91 625l-78 -3v33l143 17v-374h-65v327z" />
    <glyph glyph-name="ordmasculine" unicode="&#xba;" horiz-adv-x="340" 
d="M63.5 396q-40.5 44 -40.5 118q0 73 40.5 116.5t105.5 43.5q64 0 105.5 -43.5t42.5 -116.5q-1 -74 -41 -118t-106 -44t-106.5 44zM225 428q22 29 22 86q0 55 -22 83.5t-55 28.5q-35 0 -56.5 -28.5t-21.5 -83.5q0 -56 21 -85.5t55 -29.5q35 0 57 29z" />
    <glyph glyph-name="guillemotright" unicode="&#xbb;" horiz-adv-x="382" 
d="M56 39l145 176l-134 172l25 19l148 -191l-158 -195zM179 39l145 176l-135 172l25 19l149 -191l-159 -195z" />
    <glyph glyph-name="onequarter" unicode="&#xbc;" horiz-adv-x="611" 
d="M516 704h45l-496 -749h-45zM125 623l-78 -3v33l143 17v-374h-65v327zM493 91h-188v27l116 257h63l-109 -240h118v130l62 17v-282h-62v91z" />
    <glyph glyph-name="onehalf" unicode="&#xbd;" horiz-adv-x="656" 
d="M516 704h45l-496 -749h-45zM125 623l-78 -3v33l143 17v-374h-65v327zM363 41q72 63 107 98t54 65.5t19 60.5q0 33 -15 48t-48 15q-44 0 -95 -25v56q58 22 102 22q55 0 88.5 -28t33.5 -77q0 -55 -34.5 -108t-104.5 -112h155v-56h-262v41z" />
    <glyph glyph-name="threequarters" unicode="&#xbe;" horiz-adv-x="678" 
d="M586 704h45l-496 -749h-45zM40 307v59q46 -24 96 -24q36 0 58 15t22 45q0 28 -23 48t-71 22h-4v47h4q37 0 57 17t20 39q0 24 -17.5 35.5t-45.5 11.5q-45 0 -93 -23v54q49 23 101 23q58 0 88 -26t30 -61q0 -33 -19 -58.5t-49 -32.5q40 -7 63.5 -35t23.5 -64
q0 -48 -36.5 -79t-104.5 -31q-46 0 -100 18zM569 91h-188v27l116 257h63l-109 -240h118v130l62 17v-282h-62v91z" />
    <glyph glyph-name="questiondown" unicode="&#xbf;" horiz-adv-x="396" 
d="M270.5 668q13.5 -14 13.5 -33t-13.5 -32.5t-32.5 -13.5t-32.5 13.5t-13.5 32.5t13.5 33t32.5 14t32.5 -14zM275 459q0 -47 -12 -82t-28.5 -58t-43.5 -53q-33 -36 -49 -63t-16 -67q0 -43 30.5 -68t75.5 -25q63 0 128 37v-59q-65 -36 -140 -36q-73 0 -122.5 38.5
t-49.5 111.5q0 50 19 83t56 72q34 35 51 56t29 52t12 75h60v-14z" />
    <glyph glyph-name="Agrave" unicode="&#xc0;" horiz-adv-x="578" 
d="M405 196h-236l-57 -196h-77l206 669h94l208 -669h-81zM389 249l-100 345h-4l-100 -345h204zM181 798v88l174 -173h-49z" />
    <glyph glyph-name="Aacute" unicode="&#xc1;" horiz-adv-x="578" 
d="M405 196h-236l-57 -196h-77l206 669h94l208 -669h-81zM389 249l-100 345h-4l-100 -345h204zM398 886v-88l-125 -85h-49z" />
    <glyph glyph-name="Acircumflex" unicode="&#xc2;" horiz-adv-x="578" 
d="M405 196h-236l-57 -196h-77l206 669h94l208 -669h-81zM389 249l-100 345h-4l-100 -345h204zM269 859h39l124 -146h-49l-94 85l-95 -85h-49z" />
    <glyph glyph-name="Atilde" unicode="&#xc3;" horiz-adv-x="578" 
d="M405 196h-236l-57 -196h-77l206 669h94l208 -669h-81zM389 249l-100 345h-4l-100 -345h204zM139 769q14 33 38.5 53.5t58.5 20.5q19 0 35.5 -6.5t41.5 -19.5q18 -11 31 -16.5t27 -5.5q19 0 33 12.5t20 31.5l14 -31q-32 -66 -94 -66q-18 0 -33.5 5.5t-28 12t-16.5 8.5
q-36 21 -57 21q-20 0 -34 -13t-20 -34z" />
    <glyph glyph-name="Adieresis" unicode="&#xc4;" horiz-adv-x="578" 
d="M405 196h-236l-57 -196h-77l206 669h94l208 -669h-81zM389 249l-100 345h-4l-100 -345h204zM177 774.5q-14 14.5 -14 34.5t14 34.5t33 14.5t33 -14.5t14 -34.5t-14 -34.5t-33 -14.5t-33 14.5zM336 774.5q-14 14.5 -14 34.5t14 34.5t33 14.5t33 -14.5t14 -34.5t-14 -34.5
t-33 -14.5t-33 14.5z" />
    <glyph glyph-name="Aring" unicode="&#xc5;" horiz-adv-x="578" 
d="M405 196h-236l-57 -196h-77l206 669h94l208 -669h-81zM389 249l-100 345h-4l-100 -345h204zM224 743.5q-27 25.5 -27 62.5q0 36 27 62t65 26t65 -26t27 -62q0 -37 -27 -62.5t-65 -25.5t-65 25.5zM320.5 767q12.5 16 12.5 39t-12.5 39t-31.5 16t-31.5 -16t-12.5 -39
t12.5 -39t31.5 -16t31.5 16z" />
    <glyph glyph-name="AE" unicode="&#xc6;" horiz-adv-x="880" 
d="M835 59v-59h-371v196h-234l-118 -196h-77l411 669h377v-54h-283l1 -236h210v-53h-209l1 -267h292zM464 249v327h-4l-198 -327h202z" />
    <glyph glyph-name="Ccedilla" unicode="&#xc7;" horiz-adv-x="549" 
d="M203 553q-59 -67 -59 -218q0 -153 59.5 -219t156.5 -66q33 0 69.5 9.5t65.5 24.5v-66q-25 -11 -60.5 -19.5t-67.5 -9.5l-42 -43q10 3 22 3q22 0 46 -17t24 -57q0 -35 -25.5 -58t-62.5 -23q-34 0 -67 25l17 28q25 -17 46 -17t32.5 12.5t11.5 30.5q0 17 -9.5 30.5
t-28.5 13.5q-11 0 -29 -9l-19 25l53 57q-134 6 -203.5 100.5t-69.5 241.5q0 99 31 177.5t96 125t163 46.5q35 0 74.5 -8t67.5 -21v-66q-29 16 -66 25t-71 9q-96 0 -155 -67z" />
    <glyph glyph-name="Egrave" unicode="&#xc8;" horiz-adv-x="521" 
d="M476 59v-59h-371v669h359v-54h-283v-236h211v-53h-211v-267h295zM174 798v88l174 -173h-49z" />
    <glyph glyph-name="Eacute" unicode="&#xc9;" horiz-adv-x="521" 
d="M476 59v-59h-371v669h359v-54h-283v-236h211v-53h-211v-267h295zM391 886v-88l-125 -85h-49z" />
    <glyph glyph-name="Ecircumflex" unicode="&#xca;" horiz-adv-x="521" 
d="M476 59v-59h-371v669h359v-54h-283v-236h211v-53h-211v-267h295zM262 859h39l124 -146h-49l-94 85l-95 -85h-49z" />
    <glyph glyph-name="Edieresis" unicode="&#xcb;" horiz-adv-x="521" 
d="M476 59v-59h-371v669h359v-54h-283v-236h211v-53h-211v-267h295zM170 774.5q-14 14.5 -14 34.5t14 34.5t33 14.5t33 -14.5t14 -34.5t-14 -34.5t-33 -14.5t-33 14.5zM329 774.5q-14 14.5 -14 34.5t14 34.5t33 14.5t33 -14.5t14 -34.5t-14 -34.5t-33 -14.5t-33 14.5z" />
    <glyph glyph-name="Igrave" unicode="&#xcc;" horiz-adv-x="286" 
d="M105 669h76v-669h-76v669zM35 798v88l174 -173h-49z" />
    <glyph glyph-name="Iacute" unicode="&#xcd;" horiz-adv-x="286" 
d="M105 669h76v-669h-76v669zM252 886v-88l-125 -85h-49z" />
    <glyph glyph-name="Icircumflex" unicode="&#xce;" horiz-adv-x="286" 
d="M105 669h76v-669h-76v669zM123 859h39l124 -146h-49l-94 85l-95 -85h-49z" />
    <glyph glyph-name="Idieresis" unicode="&#xcf;" horiz-adv-x="286" 
d="M105 669h76v-669h-76v669zM31 774.5q-14 14.5 -14 34.5t14 34.5t33 14.5t33 -14.5t14 -34.5t-14 -34.5t-33 -14.5t-33 14.5zM190 774.5q-14 14.5 -14 34.5t14 34.5t33 14.5t33 -14.5t14 -34.5t-14 -34.5t-33 -14.5t-33 14.5z" />
    <glyph glyph-name="Eth" unicode="&#xd0;" horiz-adv-x="647" 
d="M88.5 13.5q-13.5 13.5 -13.5 32.5v578q0 19 13.5 32t32.5 13h406q19 0 32 -13t13 -32v-578q0 -19 -13 -32.5t-32 -13.5h-406q-19 0 -32.5 13.5zM493 618h-338l169 -248zM299 335l-173 256v-511zM522 590l-174 -255l174 -256v511zM492 51l-168 248l-169 -248h337z" />
    <glyph glyph-name="Ntilde" unicode="&#xd1;" 
d="M105 669h85l290 -561v561h69v-669h-87l-288 553v-553h-69v669zM183 769q14 33 38.5 53.5t58.5 20.5q19 0 35.5 -6.5t41.5 -19.5q18 -11 31 -16.5t27 -5.5q19 0 33 12.5t20 31.5l14 -31q-32 -66 -94 -66q-18 0 -33.5 5.5t-28 12t-16.5 8.5q-36 21 -57 21q-20 0 -34 -13
t-20 -34z" />
    <glyph glyph-name="Ograve" unicode="&#xd2;" 
d="M184.5 30q-60.5 43 -92.5 121.5t-32 183.5t32 183t92.5 121t142.5 43t142.5 -43t92.5 -121t32 -183t-32 -183.5t-92.5 -121.5t-142.5 -43t-142.5 43zM464.5 123.5q48.5 75.5 48.5 211.5t-48.5 211.5t-137.5 75.5t-137.5 -76t-48.5 -211t48.5 -211t137.5 -76t137.5 75.5z
M219 798v88l174 -173h-49z" />
    <glyph glyph-name="Oacute" unicode="&#xd3;" 
d="M184.5 30q-60.5 43 -92.5 121.5t-32 183.5t32 183t92.5 121t142.5 43t142.5 -43t92.5 -121t32 -183t-32 -183.5t-92.5 -121.5t-142.5 -43t-142.5 43zM464.5 123.5q48.5 75.5 48.5 211.5t-48.5 211.5t-137.5 75.5t-137.5 -76t-48.5 -211t48.5 -211t137.5 -76t137.5 75.5z
M436 886v-88l-125 -85h-49z" />
    <glyph glyph-name="Ocircumflex" unicode="&#xd4;" 
d="M184.5 30q-60.5 43 -92.5 121.5t-32 183.5t32 183t92.5 121t142.5 43t142.5 -43t92.5 -121t32 -183t-32 -183.5t-92.5 -121.5t-142.5 -43t-142.5 43zM464.5 123.5q48.5 75.5 48.5 211.5t-48.5 211.5t-137.5 75.5t-137.5 -76t-48.5 -211t48.5 -211t137.5 -76t137.5 75.5z
M307 859h39l124 -146h-49l-94 85l-95 -85h-49z" />
    <glyph glyph-name="Otilde" unicode="&#xd5;" 
d="M184.5 30q-60.5 43 -92.5 121.5t-32 183.5t32 183t92.5 121t142.5 43t142.5 -43t92.5 -121t32 -183t-32 -183.5t-92.5 -121.5t-142.5 -43t-142.5 43zM464.5 123.5q48.5 75.5 48.5 211.5t-48.5 211.5t-137.5 75.5t-137.5 -76t-48.5 -211t48.5 -211t137.5 -76t137.5 75.5z
M177 769q14 33 38.5 53.5t58.5 20.5q19 0 35.5 -6.5t41.5 -19.5q18 -11 31 -16.5t27 -5.5q19 0 33 12.5t20 31.5l14 -31q-32 -66 -94 -66q-18 0 -33.5 5.5t-28 12t-16.5 8.5q-36 21 -57 21q-20 0 -34 -13t-20 -34z" />
    <glyph glyph-name="Odieresis" unicode="&#xd6;" 
d="M184.5 30q-60.5 43 -92.5 121.5t-32 183.5t32 183t92.5 121t142.5 43t142.5 -43t92.5 -121t32 -183t-32 -183.5t-92.5 -121.5t-142.5 -43t-142.5 43zM464.5 123.5q48.5 75.5 48.5 211.5t-48.5 211.5t-137.5 75.5t-137.5 -76t-48.5 -211t48.5 -211t137.5 -76t137.5 75.5z
M215 774.5q-14 14.5 -14 34.5t14 34.5t33 14.5t33 -14.5t14 -34.5t-14 -34.5t-33 -14.5t-33 14.5zM374 774.5q-14 14.5 -14 34.5t14 34.5t33 14.5t33 -14.5t14 -34.5t-14 -34.5t-33 -14.5t-33 14.5z" />
    <glyph glyph-name="multiply" unicode="&#xd7;" horiz-adv-x="454" 
d="M45 81l148 148l-147 148l34 35l148 -149l148 147l33 -33l-147 -148l147 -148l-34 -34l-148 147l-148 -147z" />
    <glyph glyph-name="Oslash" unicode="&#xd8;" 
d="M612 642l-71 -82q53 -88 53 -225q0 -105 -32 -183.5t-92.5 -121.5t-142.5 -43q-62 0 -112.5 25.5t-85.5 72.5l-87 -100v43l71 82q-53 90 -53 225q0 105 32 183t92.5 121t142.5 43q63 0 113 -25t85 -72l87 100v-43zM166 171l310 357q-49 94 -149 94q-89 0 -137.5 -76
t-48.5 -211q0 -95 25 -164zM488 499l-309 -357q24 -46 61 -70t87 -24q89 0 137.5 75.5t48.5 211.5q0 95 -25 164z" />
    <glyph glyph-name="Ugrave" unicode="&#xd9;" horiz-adv-x="664" 
d="M158.5 52q-58.5 65 -58.5 189v428h76v-420q0 -97 38 -148t122 -51q82 0 119 50t37 144v425h72v-432q0 -123 -58.5 -186.5t-172.5 -63.5q-116 0 -174.5 65zM225 798v88l174 -173h-49z" />
    <glyph glyph-name="Uacute" unicode="&#xda;" horiz-adv-x="664" 
d="M158.5 52q-58.5 65 -58.5 189v428h76v-420q0 -97 38 -148t122 -51q82 0 119 50t37 144v425h72v-432q0 -123 -58.5 -186.5t-172.5 -63.5q-116 0 -174.5 65zM442 886v-88l-125 -85h-49z" />
    <glyph glyph-name="Ucircumflex" unicode="&#xdb;" horiz-adv-x="664" 
d="M158.5 52q-58.5 65 -58.5 189v428h76v-420q0 -97 38 -148t122 -51q82 0 119 50t37 144v425h72v-432q0 -123 -58.5 -186.5t-172.5 -63.5q-116 0 -174.5 65zM313 859h39l124 -146h-49l-94 85l-95 -85h-49z" />
    <glyph glyph-name="Udieresis" unicode="&#xdc;" horiz-adv-x="664" 
d="M158.5 52q-58.5 65 -58.5 189v428h76v-420q0 -97 38 -148t122 -51q82 0 119 50t37 144v425h72v-432q0 -123 -58.5 -186.5t-172.5 -63.5q-116 0 -174.5 65zM221 774.5q-14 14.5 -14 34.5t14 34.5t33 14.5t33 -14.5t14 -34.5t-14 -34.5t-33 -14.5t-33 14.5zM380 774.5
q-14 14.5 -14 34.5t14 34.5t33 14.5t33 -14.5t14 -34.5t-14 -34.5t-33 -14.5t-33 14.5z" />
    <glyph glyph-name="Yacute" unicode="&#xdd;" horiz-adv-x="503" 
d="M290 244v-244h-76v241l-199 428h83l156 -346l157 346h77zM365 886v-88l-125 -85h-49z" />
    <glyph glyph-name="Thorn" unicode="&#xde;" horiz-adv-x="647" 
d="M88.5 13.5q-13.5 13.5 -13.5 32.5v578q0 19 13.5 32t32.5 13h406q19 0 32 -13t13 -32v-578q0 -19 -13 -32.5t-32 -13.5h-406q-19 0 -32.5 13.5zM493 618h-338l169 -248zM299 335l-173 256v-511zM522 590l-174 -255l174 -256v511zM492 51l-168 248l-169 -248h337z" />
    <glyph glyph-name="germandbls" unicode="&#xdf;" horiz-adv-x="490" 
d="M244 -5q-32 7 -55 20v58q53 -33 102 -33q39 0 64 20t25 61q0 40 -23 67.5t-68 60.5q-43 32 -64.5 57t-21.5 60q0 31 15 51t44 44q27 23 40 40.5t13 42.5q0 39 -23 61t-56 22q-49 0 -70 -26t-21 -81v-520h-71v540q0 65 44 102t116 37q63 0 105 -34.5t42 -92.5
q0 -42 -18.5 -68.5t-51.5 -54.5q-21 -18 -30 -29t-9 -24q0 -18 12 -36t33 -33l54 -38q84 -60 84 -144q0 -66 -41.5 -101.5t-107.5 -35.5q-30 0 -62 7z" />
    <glyph glyph-name="agrave" unicode="&#xe0;" horiz-adv-x="446" 
d="M414 42v-45q-22 -8 -41 -8q-29 0 -47 17.5t-19 53.5q-21 -38 -57.5 -55.5t-79.5 -17.5q-57 0 -94.5 32t-37.5 86q0 85 80.5 120t183.5 37v29q0 95 -102 95q-31 0 -64.5 -11t-63.5 -30v57q69 40 144 40q71 0 113.5 -37.5t42.5 -111.5v-189q0 -34 6 -49t23 -15q3 0 13 2z
M302 214q-92 -1 -143 -28.5t-51 -77.5q0 -32 22.5 -50.5t57.5 -18.5q47 0 80.5 33.5t33.5 91.5v50zM112 598v88l173 -173h-49z" />
    <glyph glyph-name="aacute" unicode="&#xe1;" horiz-adv-x="446" 
d="M414 42v-45q-22 -8 -41 -8q-29 0 -47 17.5t-19 53.5q-21 -38 -57.5 -55.5t-79.5 -17.5q-57 0 -94.5 32t-37.5 86q0 85 80.5 120t183.5 37v29q0 95 -102 95q-31 0 -64.5 -11t-63.5 -30v57q69 40 144 40q71 0 113.5 -37.5t42.5 -111.5v-189q0 -34 6 -49t23 -15q3 0 13 2z
M302 214q-92 -1 -143 -28.5t-51 -77.5q0 -32 22.5 -50.5t57.5 -18.5q47 0 80.5 33.5t33.5 91.5v50zM303 686v-88l-124 -85h-49z" />
    <glyph glyph-name="acircumflex" unicode="&#xe2;" horiz-adv-x="446" 
d="M414 42v-45q-22 -8 -41 -8q-29 0 -47 17.5t-19 53.5q-21 -38 -57.5 -55.5t-79.5 -17.5q-57 0 -94.5 32t-37.5 86q0 85 80.5 120t183.5 37v29q0 95 -102 95q-31 0 -64.5 -11t-63.5 -30v57q69 40 144 40q71 0 113.5 -37.5t42.5 -111.5v-189q0 -34 6 -49t23 -15q3 0 13 2z
M302 214q-92 -1 -143 -28.5t-51 -77.5q0 -32 22.5 -50.5t57.5 -18.5q47 0 80.5 33.5t33.5 91.5v50zM193 659h38l125 -146h-49l-95 85l-94 -85h-49z" />
    <glyph glyph-name="atilde" unicode="&#xe3;" horiz-adv-x="446" 
d="M414 42v-45q-22 -8 -41 -8q-29 0 -47 17.5t-19 53.5q-21 -38 -57.5 -55.5t-79.5 -17.5q-57 0 -94.5 32t-37.5 86q0 85 80.5 120t183.5 37v29q0 95 -102 95q-31 0 -64.5 -11t-63.5 -30v57q69 40 144 40q71 0 113.5 -37.5t42.5 -111.5v-189q0 -34 6 -49t23 -15q3 0 13 2z
M302 214q-92 -1 -143 -28.5t-51 -77.5q0 -32 22.5 -50.5t57.5 -18.5q47 0 80.5 33.5t33.5 91.5v50zM73 569q31 74 96 74q19 0 35.5 -6.5t41.5 -19.5q18 -11 31.5 -16.5t27.5 -5.5q18 0 32 12.5t21 31.5l14 -31q-32 -66 -94 -66q-20 0 -38 7t-40 19q-19 10 -32 15.5t-26 5.5
q-19 0 -33.5 -13t-20.5 -34z" />
    <glyph glyph-name="adieresis" unicode="&#xe4;" horiz-adv-x="446" 
d="M414 42v-45q-22 -8 -41 -8q-29 0 -47 17.5t-19 53.5q-21 -38 -57.5 -55.5t-79.5 -17.5q-57 0 -94.5 32t-37.5 86q0 85 80.5 120t183.5 37v29q0 95 -102 95q-31 0 -64.5 -11t-63.5 -30v57q69 40 144 40q71 0 113.5 -37.5t42.5 -111.5v-189q0 -34 6 -49t23 -15q3 0 13 2z
M302 214q-92 -1 -143 -28.5t-51 -77.5q0 -32 22.5 -50.5t57.5 -18.5q47 0 80.5 33.5t33.5 91.5v50zM100 574.5q-14 14.5 -14 34.5t14 34.5t33 14.5t33 -14.5t14 -34.5t-14 -34.5t-33 -14.5t-33 14.5zM259 574.5q-14 14.5 -14 34.5t14 34.5t33 14.5t33 -14.5t14 -34.5
t-14 -34.5t-33 -14.5t-33 14.5z" />
    <glyph glyph-name="aring" unicode="&#xe5;" horiz-adv-x="446" 
d="M414 42v-45q-22 -8 -41 -8q-29 0 -47 17.5t-19 53.5q-21 -38 -57.5 -55.5t-79.5 -17.5q-57 0 -94.5 32t-37.5 86q0 85 80.5 120t183.5 37v29q0 95 -102 95q-31 0 -64.5 -11t-63.5 -30v57q69 40 144 40q71 0 113.5 -37.5t42.5 -111.5v-189q0 -34 6 -49t23 -15q3 0 13 2z
M302 214q-92 -1 -143 -28.5t-51 -77.5q0 -32 22.5 -50.5t57.5 -18.5q47 0 80.5 33.5t33.5 91.5v50zM146.5 543.5q-26.5 25.5 -26.5 62.5t26.5 62.5t65.5 25.5t66 -25.5t27 -62.5t-27 -62.5t-66 -25.5t-65.5 25.5zM243.5 570.5q12.5 14.5 12.5 35.5t-12.5 35.5t-31.5 14.5
t-31.5 -14.5t-12.5 -35.5t12.5 -35.5t31.5 -14.5t31.5 14.5z" />
    <glyph glyph-name="ae" unicode="&#xe6;" horiz-adv-x="686" 
d="M372 201v-14q7 -69 48.5 -106.5t100.5 -37.5q31 0 53.5 5.5t45.5 16.5l-1 -54q-44 -24 -109 -24q-56 0 -100 22t-72 64q-56 -86 -168 -86q-57 0 -94.5 32t-37.5 86q0 85 80.5 120t183.5 37v29q0 95 -102 95q-31 0 -64.5 -11t-63.5 -30v57q69 40 144 40q45 0 79.5 -15.5
t54.5 -46.5q49 62 129 62q83 0 126.5 -68t40.5 -173h-274zM407 352q-29 -37 -35 -107h205q-2 65 -27.5 104.5t-69.5 39.5t-73 -37zM302 180q-2 22 -2 34q-91 -1 -141.5 -28t-50.5 -78q0 -32 22.5 -50.5t57.5 -18.5q47 0 80.5 33.5t33.5 91.5v16z" />
    <glyph glyph-name="ccedilla" unicode="&#xe7;" horiz-adv-x="391" 
d="M259 -13l-40 -41q11 3 22 3q22 0 46 -17t24 -57q0 -35 -25.5 -58t-62.5 -23q-34 0 -67 25l17 28q25 -17 46 -17t32.5 12.5t11.5 30.5q0 17 -9.5 30.5t-28.5 13.5q-11 0 -29 -9l-19 25l52 55q-84 8 -135 67.5t-51 159.5q0 70 27 121.5t72 78.5t100 27q59 0 109 -21v-55
q-48 19 -92 19q-63 0 -102.5 -46.5t-39.5 -126.5q0 -81 41 -124.5t107 -43.5q47 0 94 16v-56q-37 -15 -100 -17z" />
    <glyph glyph-name="egrave" unicode="&#xe8;" horiz-adv-x="428" 
d="M347.5 374q43.5 -68 40.5 -173h-275q4 -76 45.5 -117t104.5 -41q31 0 53.5 5.5t45.5 16.5l-1 -54q-44 -24 -109 -24q-95 0 -152.5 61.5t-57.5 168.5q0 65 22 116t62.5 80t94.5 29q83 0 126.5 -68zM149 352q-29 -37 -35 -107h205q-2 65 -27.5 104.5t-69.5 39.5t-73 -37z
M114 598v88l173 -173h-49z" />
    <glyph glyph-name="eacute" unicode="&#xe9;" horiz-adv-x="428" 
d="M347.5 374q43.5 -68 40.5 -173h-275q4 -76 45.5 -117t104.5 -41q31 0 53.5 5.5t45.5 16.5l-1 -54q-44 -24 -109 -24q-95 0 -152.5 61.5t-57.5 168.5q0 65 22 116t62.5 80t94.5 29q83 0 126.5 -68zM149 352q-29 -37 -35 -107h205q-2 65 -27.5 104.5t-69.5 39.5t-73 -37z
M305 686v-88l-124 -85h-49z" />
    <glyph glyph-name="ecircumflex" unicode="&#xea;" horiz-adv-x="428" 
d="M347.5 374q43.5 -68 40.5 -173h-275q4 -76 45.5 -117t104.5 -41q31 0 53.5 5.5t45.5 16.5l-1 -54q-44 -24 -109 -24q-95 0 -152.5 61.5t-57.5 168.5q0 65 22 116t62.5 80t94.5 29q83 0 126.5 -68zM149 352q-29 -37 -35 -107h205q-2 65 -27.5 104.5t-69.5 39.5t-73 -37z
M195 659h38l125 -146h-49l-95 85l-94 -85h-49z" />
    <glyph glyph-name="edieresis" unicode="&#xeb;" horiz-adv-x="428" 
d="M347.5 374q43.5 -68 40.5 -173h-275q4 -76 45.5 -117t104.5 -41q31 0 53.5 5.5t45.5 16.5l-1 -54q-44 -24 -109 -24q-95 0 -152.5 61.5t-57.5 168.5q0 65 22 116t62.5 80t94.5 29q83 0 126.5 -68zM149 352q-29 -37 -35 -107h205q-2 65 -27.5 104.5t-69.5 39.5t-73 -37z
M102 574.5q-14 14.5 -14 34.5t14 34.5t33 14.5t33 -14.5t14 -34.5t-14 -34.5t-33 -14.5t-33 14.5zM261 574.5q-14 14.5 -14 34.5t14 34.5t33 14.5t33 -14.5t14 -34.5t-14 -34.5t-33 -14.5t-33 14.5z" />
    <glyph glyph-name="igrave" unicode="&#xec;" horiz-adv-x="240" 
d="M85 424h70v-424h-70v424zM20 598v88l173 -173h-49z" />
    <glyph glyph-name="iacute" unicode="&#xed;" horiz-adv-x="240" 
d="M85 424h70v-424h-70v424zM211 686v-88l-124 -85h-49z" />
    <glyph glyph-name="icircumflex" unicode="&#xee;" horiz-adv-x="240" 
d="M85 424h70v-424h-70v424zM101 659h38l125 -146h-49l-95 85l-94 -85h-49z" />
    <glyph glyph-name="idieresis" unicode="&#xef;" horiz-adv-x="240" 
d="M85 424h70v-424h-70v424zM8 574.5q-14 14.5 -14 34.5t14 34.5t33 14.5t33 -14.5t14 -34.5t-14 -34.5t-33 -14.5t-33 14.5zM167 574.5q-14 14.5 -14 34.5t14 34.5t33 14.5t33 -14.5t14 -34.5t-14 -34.5t-33 -14.5t-33 14.5z" />
    <glyph glyph-name="eth" unicode="&#xf0;" horiz-adv-x="647" 
d="M88.5 13.5q-13.5 13.5 -13.5 32.5v578q0 19 13.5 32t32.5 13h406q19 0 32 -13t13 -32v-578q0 -19 -13 -32.5t-32 -13.5h-406q-19 0 -32.5 13.5zM493 618h-338l169 -248zM299 335l-173 256v-511zM522 590l-174 -255l174 -256v511zM492 51l-168 248l-169 -248h337z" />
    <glyph glyph-name="ntilde" unicode="&#xf1;" horiz-adv-x="491" 
d="M74 424h70v-66q19 39 56.5 61.5t81.5 22.5q68 0 104 -43t36 -132v-267h-70v252q0 72 -25.5 102.5t-66.5 30.5q-32 0 -58.5 -21t-42 -60.5t-15.5 -92.5v-211h-70v424zM115 569q31 74 96 74q19 0 35.5 -6.5t41.5 -19.5q18 -11 31.5 -16.5t27.5 -5.5q18 0 32 12.5t21 31.5
l14 -31q-32 -66 -94 -66q-20 0 -38 7t-40 19q-19 10 -32 15.5t-26 5.5q-19 0 -33.5 -13t-20.5 -34z" />
    <glyph glyph-name="ograve" unicode="&#xf2;" horiz-adv-x="463" 
d="M134 15q-42 28 -65.5 80t-23.5 122q0 68 24 119.5t66.5 79t95.5 27.5t95.5 -27.5t67 -79t24.5 -119.5q0 -70 -23.5 -122t-66 -80t-97.5 -28t-97 28zM311 85.5q31 45.5 31 131.5q0 83 -31 127.5t-79 44.5q-49 0 -80.5 -44.5t-31.5 -127.5q0 -86 31.5 -131.5t80.5 -45.5
q48 0 79 45.5zM132 598v88l173 -173h-49z" />
    <glyph glyph-name="oacute" unicode="&#xf3;" horiz-adv-x="463" 
d="M134 15q-42 28 -65.5 80t-23.5 122q0 68 24 119.5t66.5 79t95.5 27.5t95.5 -27.5t67 -79t24.5 -119.5q0 -70 -23.5 -122t-66 -80t-97.5 -28t-97 28zM311 85.5q31 45.5 31 131.5q0 83 -31 127.5t-79 44.5q-49 0 -80.5 -44.5t-31.5 -127.5q0 -86 31.5 -131.5t80.5 -45.5
q48 0 79 45.5zM323 686v-88l-124 -85h-49z" />
    <glyph glyph-name="ocircumflex" unicode="&#xf4;" horiz-adv-x="463" 
d="M134 15q-42 28 -65.5 80t-23.5 122q0 68 24 119.5t66.5 79t95.5 27.5t95.5 -27.5t67 -79t24.5 -119.5q0 -70 -23.5 -122t-66 -80t-97.5 -28t-97 28zM311 85.5q31 45.5 31 131.5q0 83 -31 127.5t-79 44.5q-49 0 -80.5 -44.5t-31.5 -127.5q0 -86 31.5 -131.5t80.5 -45.5
q48 0 79 45.5zM213 659h38l125 -146h-49l-95 85l-94 -85h-49z" />
    <glyph glyph-name="otilde" unicode="&#xf5;" horiz-adv-x="463" 
d="M134 15q-42 28 -65.5 80t-23.5 122q0 68 24 119.5t66.5 79t95.5 27.5t95.5 -27.5t67 -79t24.5 -119.5q0 -70 -23.5 -122t-66 -80t-97.5 -28t-97 28zM311 85.5q31 45.5 31 131.5q0 83 -31 127.5t-79 44.5q-49 0 -80.5 -44.5t-31.5 -127.5q0 -86 31.5 -131.5t80.5 -45.5
q48 0 79 45.5zM93 569q31 74 96 74q19 0 35.5 -6.5t41.5 -19.5q18 -11 31.5 -16.5t27.5 -5.5q18 0 32 12.5t21 31.5l14 -31q-32 -66 -94 -66q-20 0 -38 7t-40 19q-19 10 -32 15.5t-26 5.5q-19 0 -33.5 -13t-20.5 -34z" />
    <glyph glyph-name="odieresis" unicode="&#xf6;" horiz-adv-x="463" 
d="M134 15q-42 28 -65.5 80t-23.5 122q0 68 24 119.5t66.5 79t95.5 27.5t95.5 -27.5t67 -79t24.5 -119.5q0 -70 -23.5 -122t-66 -80t-97.5 -28t-97 28zM311 85.5q31 45.5 31 131.5q0 83 -31 127.5t-79 44.5q-49 0 -80.5 -44.5t-31.5 -127.5q0 -86 31.5 -131.5t80.5 -45.5
q48 0 79 45.5zM120 574.5q-14 14.5 -14 34.5t14 34.5t33 14.5t33 -14.5t14 -34.5t-14 -34.5t-33 -14.5t-33 14.5zM279 574.5q-14 14.5 -14 34.5t14 34.5t33 14.5t33 -14.5t14 -34.5t-14 -34.5t-33 -14.5t-33 14.5z" />
    <glyph glyph-name="divide" unicode="&#xf7;" horiz-adv-x="506" 
d="M219 302q-15 15 -15 35t14.5 34.5t34.5 14.5t34.5 -14.5t14.5 -34.5t-14.5 -35t-34.5 -15q-19 0 -34 15zM45 252h416v-46h-416v46zM219 87.5q-15 14.5 -15 34.5t14.5 34.5t34.5 14.5t34.5 -14.5t14.5 -34.5t-14.5 -34.5t-34.5 -14.5q-19 0 -34 14.5z" />
    <glyph glyph-name="oslash" unicode="&#xf8;" horiz-adv-x="463" 
d="M421 400l-39 -43q36 -56 36 -140q0 -70 -23.5 -122t-66 -80t-97.5 -28q-82 0 -133 60l-59 -65v43l42 46q-36 58 -36 146q0 68 24 119.5t66.5 79t95.5 27.5q40 0 74.5 -16t59.5 -46l56 61v-42zM132 127l187 204q-15 29 -37.5 43.5t-49.5 14.5q-49 0 -80.5 -44.5
t-31.5 -127.5q0 -52 12 -90zM331 301l-186 -204q15 -28 37.5 -42.5t49.5 -14.5q48 0 79 45.5t31 131.5q0 48 -11 84z" />
    <glyph glyph-name="ugrave" unicode="&#xf9;" horiz-adv-x="488" 
d="M453 37v-45q-10 -3 -27 -3q-36 0 -56 17.5t-27 58.5q-19 -36 -57 -57t-81 -21q-66 0 -101 43t-35 130v264h70v-250q0 -70 24 -100t63 -30q49 0 81.5 45t32.5 127v208h70v-321q0 -35 8 -50.5t26 -15.5h9zM141 598v88l173 -173h-49z" />
    <glyph glyph-name="uacute" unicode="&#xfa;" horiz-adv-x="488" 
d="M453 37v-45q-10 -3 -27 -3q-36 0 -56 17.5t-27 58.5q-19 -36 -57 -57t-81 -21q-66 0 -101 43t-35 130v264h70v-250q0 -70 24 -100t63 -30q49 0 81.5 45t32.5 127v208h70v-321q0 -35 8 -50.5t26 -15.5h9zM332 686v-88l-124 -85h-49z" />
    <glyph glyph-name="ucircumflex" unicode="&#xfb;" horiz-adv-x="488" 
d="M453 37v-45q-10 -3 -27 -3q-36 0 -56 17.5t-27 58.5q-19 -36 -57 -57t-81 -21q-66 0 -101 43t-35 130v264h70v-250q0 -70 24 -100t63 -30q49 0 81.5 45t32.5 127v208h70v-321q0 -35 8 -50.5t26 -15.5h9zM222 659h38l125 -146h-49l-95 85l-94 -85h-49z" />
    <glyph glyph-name="udieresis" unicode="&#xfc;" horiz-adv-x="488" 
d="M453 37v-45q-10 -3 -27 -3q-36 0 -56 17.5t-27 58.5q-19 -36 -57 -57t-81 -21q-66 0 -101 43t-35 130v264h70v-250q0 -70 24 -100t63 -30q49 0 81.5 45t32.5 127v208h70v-321q0 -35 8 -50.5t26 -15.5h9zM129 574.5q-14 14.5 -14 34.5t14 34.5t33 14.5t33 -14.5t14 -34.5
t-14 -34.5t-33 -14.5t-33 14.5zM288 574.5q-14 14.5 -14 34.5t14 34.5t33 14.5t33 -14.5t14 -34.5t-14 -34.5t-33 -14.5t-33 14.5z" />
    <glyph glyph-name="yacute" unicode="&#xfd;" horiz-adv-x="412" 
d="M397 424l-164 -515q-22 -66 -52.5 -100t-79.5 -34q-36 0 -69 13v54q32 -12 59 -12q30 0 50 21.5t33 65.5l25 83h-43l-142 424h72l124 -389l117 389h70zM298 686v-88l-124 -85h-49z" />
    <glyph glyph-name="thorn" unicode="&#xfe;" horiz-adv-x="647" 
d="M88.5 13.5q-13.5 13.5 -13.5 32.5v578q0 19 13.5 32t32.5 13h406q19 0 32 -13t13 -32v-578q0 -19 -13 -32.5t-32 -13.5h-406q-19 0 -32.5 13.5zM493 618h-338l169 -248zM299 335l-173 256v-511zM522 590l-174 -255l174 -256v511zM492 51l-168 248l-169 -248h337z" />
    <glyph glyph-name="ydieresis" unicode="&#xff;" horiz-adv-x="412" 
d="M397 424l-164 -515q-22 -66 -52.5 -100t-79.5 -34q-36 0 -69 13v54q32 -12 59 -12q30 0 50 21.5t33 65.5l25 83h-43l-142 424h72l124 -389l117 389h70zM95 574.5q-14 14.5 -14 34.5t14 34.5t33 14.5t33 -14.5t14 -34.5t-14 -34.5t-33 -14.5t-33 14.5zM254 574.5
q-14 14.5 -14 34.5t14 34.5t33 14.5t33 -14.5t14 -34.5t-14 -34.5t-33 -14.5t-33 14.5z" />
    <glyph glyph-name="Amacron" unicode="&#x100;" horiz-adv-x="578" 
d="M405 196h-236l-57 -196h-77l206 669h94l208 -669h-81zM389 249l-100 345h-4l-100 -345h204zM174 844h240l-11 -53h-240z" />
    <glyph glyph-name="amacron" unicode="&#x101;" horiz-adv-x="446" 
d="M414 42v-45q-22 -8 -41 -8q-29 0 -47 17.5t-19 53.5q-21 -38 -57.5 -55.5t-79.5 -17.5q-57 0 -94.5 32t-37.5 86q0 85 80.5 120t183.5 37v29q0 95 -102 95q-31 0 -64.5 -11t-63.5 -30v57q69 40 144 40q71 0 113.5 -37.5t42.5 -111.5v-189q0 -34 6 -49t23 -15q3 0 13 2z
M302 214q-92 -1 -143 -28.5t-51 -77.5q0 -32 22.5 -50.5t57.5 -18.5q47 0 80.5 33.5t33.5 91.5v50zM106 622h220l-9 -49h-220z" />
    <glyph glyph-name="Abreve" unicode="&#x102;" horiz-adv-x="578" 
d="M405 196h-236l-57 -196h-77l206 669h94l208 -669h-81zM389 249l-100 345h-4l-100 -345h204zM193 760.5q-34 37.5 -43 77.5l31 14q15 -33 43 -55.5t65 -22.5t65.5 22.5t44.5 55.5l29 -14q-9 -40 -43 -77.5t-96 -37.5t-96 37.5z" />
    <glyph glyph-name="abreve" unicode="&#x103;" horiz-adv-x="446" 
d="M414 42v-45q-22 -8 -41 -8q-29 0 -47 17.5t-19 53.5q-21 -38 -57.5 -55.5t-79.5 -17.5q-57 0 -94.5 32t-37.5 86q0 85 80.5 120t183.5 37v29q0 95 -102 95q-31 0 -64.5 -11t-63.5 -30v57q69 40 144 40q71 0 113.5 -37.5t42.5 -111.5v-189q0 -34 6 -49t23 -15q3 0 13 2z
M302 214q-92 -1 -143 -28.5t-51 -77.5q0 -32 22.5 -50.5t57.5 -18.5q47 0 80.5 33.5t33.5 91.5v50zM116 560.5q-34 37.5 -43 77.5l31 14q15 -33 43 -55.5t65 -22.5t65.5 22.5t44.5 55.5l29 -14q-9 -40 -43 -77.5t-96 -37.5t-96 37.5z" />
    <glyph glyph-name="Aogonek" unicode="&#x104;" horiz-adv-x="578" 
d="M405 196h-236l-57 -196h-77l206 669h94l208 -669h-81zM389 249l-100 345h-4l-100 -345h204zM442.5 -151.5q-18.5 22.5 -18.5 52.5q0 35 23.5 61t60.5 38h35q-38 -10 -56.5 -27t-18.5 -45q0 -20 12 -36t32 -20l-23 -52q-28 6 -46.5 28.5z" />
    <glyph glyph-name="aogonek" unicode="&#x105;" horiz-adv-x="446" 
d="M347 -35.5q-11 -14.5 -11 -36.5q0 -20 12 -36t32 -20l-23 -52q-28 6 -46.5 28.5t-18.5 52.5q0 29 17 52.5t45 37.5q-44 12 -47 69q-21 -38 -57.5 -55.5t-79.5 -17.5q-57 0 -94.5 32t-37.5 86q0 85 80.5 120t183.5 37v29q0 95 -102 95q-31 0 -64.5 -11t-63.5 -30v57
q69 40 144 40q71 0 113.5 -37.5t42.5 -111.5v-189q0 -34 6 -49t23 -15q3 0 13 2v-45q-20 -7 -34 -8q-22 -10 -33 -24.5zM302 214q-92 -1 -143 -28.5t-51 -77.5q0 -32 22.5 -50.5t57.5 -18.5q47 0 80.5 33.5t33.5 91.5v50z" />
    <glyph glyph-name="Cacute" unicode="&#x106;" horiz-adv-x="549" 
d="M193.5 33.5q-65.5 44.5 -98 121.5t-32.5 177q0 99 31 177.5t96 125t163 46.5q35 0 74.5 -8t67.5 -21v-66q-29 16 -66 25t-71 9q-96 0 -155 -67t-59 -218q0 -153 59.5 -219t156.5 -66q33 0 69.5 9.5t65.5 24.5v-66q-28 -12 -67 -20.5t-72 -8.5q-97 0 -162.5 44.5zM433 886
v-88l-125 -85h-49z" />
    <glyph glyph-name="cacute" unicode="&#x107;" horiz-adv-x="391" 
d="M144.5 13.5q-47.5 26.5 -74.5 78t-27 123.5q0 70 27 121.5t72 78.5t100 27q59 0 109 -21v-55q-48 19 -92 19q-63 0 -102.5 -46.5t-39.5 -126.5q0 -81 41 -124.5t107 -43.5q47 0 94 16v-56q-20 -8 -49.5 -12.5t-56.5 -4.5q-61 0 -108.5 26.5zM313 686v-88l-124 -85h-49z
" />
    <glyph glyph-name="Ccircumflex" unicode="&#x108;" horiz-adv-x="549" 
d="M193.5 33.5q-65.5 44.5 -98 121.5t-32.5 177q0 99 31 177.5t96 125t163 46.5q35 0 74.5 -8t67.5 -21v-66q-29 16 -66 25t-71 9q-96 0 -155 -67t-59 -218q0 -153 59.5 -219t156.5 -66q33 0 69.5 9.5t65.5 24.5v-66q-28 -12 -67 -20.5t-72 -8.5q-97 0 -162.5 44.5zM304 859
h39l124 -146h-49l-94 85l-95 -85h-49z" />
    <glyph glyph-name="ccircumflex" unicode="&#x109;" horiz-adv-x="391" 
d="M144.5 13.5q-47.5 26.5 -74.5 78t-27 123.5q0 70 27 121.5t72 78.5t100 27q59 0 109 -21v-55q-48 19 -92 19q-63 0 -102.5 -46.5t-39.5 -126.5q0 -81 41 -124.5t107 -43.5q47 0 94 16v-56q-20 -8 -49.5 -12.5t-56.5 -4.5q-61 0 -108.5 26.5zM203 659h38l125 -146h-49
l-95 85l-94 -85h-49z" />
    <glyph glyph-name="Cdotaccent" unicode="&#x10a;" horiz-adv-x="549" 
d="M193.5 33.5q-65.5 44.5 -98 121.5t-32.5 177q0 99 31 177.5t96 125t163 46.5q35 0 74.5 -8t67.5 -21v-66q-29 16 -66 25t-71 9q-96 0 -155 -67t-59 -218q0 -153 59.5 -219t156.5 -66q33 0 69.5 9.5t65.5 24.5v-66q-28 -12 -67 -20.5t-72 -8.5q-97 0 -162.5 44.5zM289 762
q-15 15 -15 37t15 36.5t35 14.5q21 0 35.5 -14.5t14.5 -36.5t-15 -37t-35 -15t-35 15z" />
    <glyph glyph-name="cdotaccent" unicode="&#x10b;" horiz-adv-x="391" 
d="M144.5 13.5q-47.5 26.5 -74.5 78t-27 123.5q0 70 27 121.5t72 78.5t100 27q59 0 109 -21v-55q-48 19 -92 19q-63 0 -102.5 -46.5t-39.5 -126.5q0 -81 41 -124.5t107 -43.5q47 0 94 16v-56q-20 -8 -49.5 -12.5t-56.5 -4.5q-61 0 -108.5 26.5zM188 564.5q-14 14.5 -14 34.5
t14 34.5t34 14.5q19 0 33 -14.5t14 -34.5t-14 -34.5t-33 -14.5q-20 0 -34 14.5z" />
    <glyph glyph-name="Ccaron" unicode="&#x10c;" horiz-adv-x="549" 
d="M193.5 33.5q-65.5 44.5 -98 121.5t-32.5 177q0 99 31 177.5t96 125t163 46.5q35 0 74.5 -8t67.5 -21v-66q-29 16 -66 25t-71 9q-96 0 -155 -67t-59 -218q0 -153 59.5 -219t156.5 -66q33 0 69.5 9.5t65.5 24.5v-66q-28 -12 -67 -20.5t-72 -8.5q-97 0 -162.5 44.5zM180 859
h49l95 -85l94 85h49l-124 -146h-39z" />
    <glyph glyph-name="ccaron" unicode="&#x10d;" horiz-adv-x="391" 
d="M144.5 13.5q-47.5 26.5 -74.5 78t-27 123.5q0 70 27 121.5t72 78.5t100 27q59 0 109 -21v-55q-48 19 -92 19q-63 0 -102.5 -46.5t-39.5 -126.5q0 -81 41 -124.5t107 -43.5q47 0 94 16v-56q-20 -8 -49.5 -12.5t-56.5 -4.5q-61 0 -108.5 26.5zM79 659h49l94 -85l95 85h49
l-125 -146h-38z" />
    <glyph glyph-name="Dcaron" unicode="&#x10e;" horiz-adv-x="630" 
d="M105 669h150q146 0 229 -85.5t83 -239.5q0 -164 -73 -254t-227 -90h-162v669zM250 59q125 0 180.5 69.5t55.5 206.5q0 280 -254 280h-50v-556h68zM111 859h49l95 -85l94 85h49l-124 -146h-39z" />
    <glyph glyph-name="dcaron" unicode="&#x10f;" horiz-adv-x="505" 
d="M129 15q-38 28 -60 79.5t-22 118.5q0 61 19.5 113t57.5 84t92 32q39 0 74.5 -20t53.5 -56v303h70v-565q0 -34 6 -49t23 -15q4 0 12 2v-45q-22 -8 -41 -8q-28 0 -46 17.5t-22 52.5v16q-22 -44 -56.5 -66t-74.5 -22q-48 0 -86 28zM288 66q26 21 42 62t16 96q0 50 -16 86.5
t-41.5 55.5t-55.5 19q-51 0 -82 -51t-31 -122q0 -51 15 -89t40.5 -58t55.5 -20q31 0 57 21zM497 669h64l-37 -217h-34z" />
    <glyph glyph-name="Dcroat" unicode="&#x110;" horiz-adv-x="647" 
d="M88.5 13.5q-13.5 13.5 -13.5 32.5v578q0 19 13.5 32t32.5 13h406q19 0 32 -13t13 -32v-578q0 -19 -13 -32.5t-32 -13.5h-406q-19 0 -32.5 13.5zM493 618h-338l169 -248zM299 335l-173 256v-511zM522 590l-174 -255l174 -256v511zM492 51l-168 248l-169 -248h337z" />
    <glyph glyph-name="dcroat" unicode="&#x111;" horiz-adv-x="492" 
d="M414 530v-426q0 -34 6 -49t23 -15q4 0 12 2v-45q-22 -8 -41 -8q-28 0 -46 17.5t-22 52.5v16q-22 -44 -56.5 -66t-74.5 -22q-48 0 -86 28t-60 79.5t-22 118.5q0 61 19.5 113t57.5 84t92 32q39 0 74.5 -20t53.5 -56v164h-89v31h89v108h70v-108h101l-31 -31h-70zM288 66
q26 21 42 62t16 96q0 50 -16 86.5t-41.5 55.5t-55.5 19q-51 0 -82 -51t-31 -122q0 -51 15 -89t40.5 -58t55.5 -20q31 0 57 21z" />
    <glyph glyph-name="Emacron" unicode="&#x112;" horiz-adv-x="521" 
d="M476 59v-59h-371v669h359v-54h-283v-236h211v-53h-211v-267h295zM167 844h240l-11 -53h-240z" />
    <glyph glyph-name="emacron" unicode="&#x113;" horiz-adv-x="428" 
d="M347.5 374q43.5 -68 40.5 -173h-275q4 -76 45.5 -117t104.5 -41q31 0 53.5 5.5t45.5 16.5l-1 -54q-44 -24 -109 -24q-95 0 -152.5 61.5t-57.5 168.5q0 65 22 116t62.5 80t94.5 29q83 0 126.5 -68zM149 352q-29 -37 -35 -107h205q-2 65 -27.5 104.5t-69.5 39.5t-73 -37z
M108 622h220l-9 -49h-220z" />
    <glyph glyph-name="Ebreve" unicode="&#x114;" horiz-adv-x="521" 
d="M476 59v-59h-371v669h359v-54h-283v-236h211v-53h-211v-267h295zM186 760.5q-34 37.5 -43 77.5l31 14q15 -33 43 -55.5t65 -22.5t65.5 22.5t44.5 55.5l29 -14q-9 -40 -43 -77.5t-96 -37.5t-96 37.5z" />
    <glyph glyph-name="ebreve" unicode="&#x115;" horiz-adv-x="428" 
d="M347.5 374q43.5 -68 40.5 -173h-275q4 -76 45.5 -117t104.5 -41q31 0 53.5 5.5t45.5 16.5l-1 -54q-44 -24 -109 -24q-95 0 -152.5 61.5t-57.5 168.5q0 65 22 116t62.5 80t94.5 29q83 0 126.5 -68zM149 352q-29 -37 -35 -107h205q-2 65 -27.5 104.5t-69.5 39.5t-73 -37z
M118 560.5q-34 37.5 -43 77.5l31 14q15 -33 43 -55.5t65 -22.5t65.5 22.5t44.5 55.5l29 -14q-9 -40 -43 -77.5t-96 -37.5t-96 37.5z" />
    <glyph glyph-name="Edotaccent" unicode="&#x116;" horiz-adv-x="521" 
d="M476 59v-59h-371v669h359v-54h-283v-236h211v-53h-211v-267h295zM247 762q-15 15 -15 37t15 36.5t35 14.5q21 0 35.5 -14.5t14.5 -36.5t-15 -37t-35 -15t-35 15z" />
    <glyph glyph-name="edotaccent" unicode="&#x117;" horiz-adv-x="428" 
d="M347.5 374q43.5 -68 40.5 -173h-275q4 -76 45.5 -117t104.5 -41q31 0 53.5 5.5t45.5 16.5l-1 -54q-44 -24 -109 -24q-95 0 -152.5 61.5t-57.5 168.5q0 65 22 116t62.5 80t94.5 29q83 0 126.5 -68zM149 352q-29 -37 -35 -107h205q-2 65 -27.5 104.5t-69.5 39.5t-73 -37z
M180 564.5q-14 14.5 -14 34.5t14 34.5t34 14.5q19 0 33 -14.5t14 -34.5t-14 -34.5t-33 -14.5q-20 0 -34 14.5z" />
    <glyph glyph-name="Eogonek" unicode="&#x118;" horiz-adv-x="521" 
d="M476 59v-59h-371v669h359v-54h-283v-236h211v-53h-211v-267h295zM375.5 -151.5q-18.5 22.5 -18.5 52.5q0 35 23.5 61t60.5 38h35q-38 -10 -56.5 -27t-18.5 -45q0 -20 12 -36t32 -20l-23 -52q-28 6 -46.5 28.5z" />
    <glyph glyph-name="eogonek" unicode="&#x119;" horiz-adv-x="428" 
d="M347.5 374q43.5 -68 40.5 -173h-275q4 -76 45.5 -117t104.5 -41q31 0 53.5 5.5t45.5 16.5l-1 -54q-41 -22 -101 -24q-39 -20 -39 -59q0 -20 12 -36t32 -20l-23 -52q-28 6 -46.5 28.5t-18.5 52.5q0 55 56 87q-87 6 -139 67t-52 162q0 65 22 116t62.5 80t94.5 29
q83 0 126.5 -68zM149 352q-29 -37 -35 -107h205q-2 65 -27.5 104.5t-69.5 39.5t-73 -37z" />
    <glyph glyph-name="Ecaron" unicode="&#x11a;" horiz-adv-x="521" 
d="M476 59v-59h-371v669h359v-54h-283v-236h211v-53h-211v-267h295zM138 859h49l95 -85l94 85h49l-124 -146h-39z" />
    <glyph glyph-name="ecaron" unicode="&#x11b;" horiz-adv-x="428" 
d="M347.5 374q43.5 -68 40.5 -173h-275q4 -76 45.5 -117t104.5 -41q31 0 53.5 5.5t45.5 16.5l-1 -54q-44 -24 -109 -24q-95 0 -152.5 61.5t-57.5 168.5q0 65 22 116t62.5 80t94.5 29q83 0 126.5 -68zM149 352q-29 -37 -35 -107h205q-2 65 -27.5 104.5t-69.5 39.5t-73 -37z
M71 659h49l94 -85l95 85h49l-125 -146h-38z" />
    <glyph glyph-name="Gcircumflex" unicode="&#x11c;" horiz-adv-x="627" 
d="M194 30q-62 40 -96.5 118t-34.5 187q0 103 34.5 181.5t100 121.5t155.5 43q34 0 73.5 -8t67.5 -21v-66q-30 16 -67.5 25t-71.5 9q-94 0 -152 -67t-58 -216q0 -153 56 -220t143 -67q41 0 77 13.5t56 38.5v205h-113v53h188v-289q-40 -40 -97.5 -61t-116.5 -21
q-82 1 -144 41zM291 859h39l124 -146h-49l-94 85l-95 -85h-49z" />
    <glyph glyph-name="gcircumflex" unicode="&#x11d;" horiz-adv-x="479" 
d="M88 -199v59q53 -25 117 -25q60 0 95 29.5t35 106.5v83q-19 -34 -51.5 -52t-68.5 -18q-54 0 -92.5 31t-58 82t-19.5 112q0 69 25.5 122t71.5 82t107 29q46 0 99 -18h57v-457q0 -102 -53 -147t-136 -45q-73 0 -128 26zM283.5 59.5q24.5 17.5 39 49.5t14.5 75v183
q-31 22 -82 22q-64 0 -100.5 -47.5t-36.5 -133.5q0 -70 30 -118t84 -48q27 0 51.5 17.5zM228 659h38l125 -146h-49l-95 85l-94 -85h-49z" />
    <glyph glyph-name="Gbreve" unicode="&#x11e;" horiz-adv-x="627" 
d="M194 30q-62 40 -96.5 118t-34.5 187q0 103 34.5 181.5t100 121.5t155.5 43q34 0 73.5 -8t67.5 -21v-66q-30 16 -67.5 25t-71.5 9q-94 0 -152 -67t-58 -216q0 -153 56 -220t143 -67q41 0 77 13.5t56 38.5v205h-113v53h188v-289q-40 -40 -97.5 -61t-116.5 -21
q-82 1 -144 41zM215 760.5q-34 37.5 -43 77.5l31 14q15 -33 43 -55.5t65 -22.5t65.5 22.5t44.5 55.5l29 -14q-9 -40 -43 -77.5t-96 -37.5t-96 37.5z" />
    <glyph glyph-name="gbreve" unicode="&#x11f;" horiz-adv-x="479" 
d="M88 -199v59q53 -25 117 -25q60 0 95 29.5t35 106.5v83q-19 -34 -51.5 -52t-68.5 -18q-54 0 -92.5 31t-58 82t-19.5 112q0 69 25.5 122t71.5 82t107 29q46 0 99 -18h57v-457q0 -102 -53 -147t-136 -45q-73 0 -128 26zM283.5 59.5q24.5 17.5 39 49.5t14.5 75v183
q-31 22 -82 22q-64 0 -100.5 -47.5t-36.5 -133.5q0 -70 30 -118t84 -48q27 0 51.5 17.5zM151 560.5q-34 37.5 -43 77.5l31 14q15 -33 43 -55.5t65 -22.5t65.5 22.5t44.5 55.5l29 -14q-9 -40 -43 -77.5t-96 -37.5t-96 37.5z" />
    <glyph glyph-name="Gdotaccent" unicode="&#x120;" horiz-adv-x="627" 
d="M194 30q-62 40 -96.5 118t-34.5 187q0 103 34.5 181.5t100 121.5t155.5 43q34 0 73.5 -8t67.5 -21v-66q-30 16 -67.5 25t-71.5 9q-94 0 -152 -67t-58 -216q0 -153 56 -220t143 -67q41 0 77 13.5t56 38.5v205h-113v53h188v-289q-40 -40 -97.5 -61t-116.5 -21
q-82 1 -144 41zM276 762q-15 15 -15 37t15 36.5t35 14.5q21 0 35.5 -14.5t14.5 -36.5t-15 -37t-35 -15t-35 15z" />
    <glyph glyph-name="gdotaccent" unicode="&#x121;" horiz-adv-x="479" 
d="M88 -199v59q53 -25 117 -25q60 0 95 29.5t35 106.5v83q-19 -34 -51.5 -52t-68.5 -18q-54 0 -92.5 31t-58 82t-19.5 112q0 69 25.5 122t71.5 82t107 29q46 0 99 -18h57v-457q0 -102 -53 -147t-136 -45q-73 0 -128 26zM283.5 59.5q24.5 17.5 39 49.5t14.5 75v183
q-31 22 -82 22q-64 0 -100.5 -47.5t-36.5 -133.5q0 -70 30 -118t84 -48q27 0 51.5 17.5zM213 564.5q-14 14.5 -14 34.5t14 34.5t34 14.5q19 0 33 -14.5t14 -34.5t-14 -34.5t-33 -14.5q-20 0 -34 14.5z" />
    <glyph glyph-name="uni0122" unicode="&#x122;" horiz-adv-x="627" 
d="M194 30q-62 40 -96.5 118t-34.5 187q0 103 34.5 181.5t100 121.5t155.5 43q34 0 73.5 -8t67.5 -21v-66q-30 16 -67.5 25t-71.5 9q-94 0 -152 -67t-58 -216q0 -153 56 -220t143 -67q41 0 77 13.5t56 38.5v205h-113v53h188v-289q-40 -40 -97.5 -61t-116.5 -21
q-82 1 -144 41zM289 -224q35 18 59.5 46t24.5 61q0 3 -2 13q-6 -16 -17 -23.5t-23 -7.5q-19 0 -32 14.5t-13 31.5q0 20 15.5 34t34.5 14q28 0 44.5 -21.5t16.5 -50.5q0 -42 -27.5 -76.5t-69.5 -54.5z" />
    <glyph glyph-name="uni0123" unicode="&#x123;" horiz-adv-x="479" 
d="M300 662q-35 -18 -59.5 -46t-24.5 -61q0 -3 2 -13q6 16 17 23.5t23 7.5q19 0 32 -14.5t13 -31.5q0 -20 -15.5 -34t-34.5 -14q-28 0 -44.5 21.5t-16.5 50.5q0 42 27.5 76.5t69.5 54.5zM88 -199v59q53 -25 117 -25q60 0 95 29.5t35 106.5v83q-19 -34 -51.5 -52t-68.5 -18
q-54 0 -92.5 31t-58 82t-19.5 112q0 69 25.5 122t71.5 82t107 29q46 0 99 -18h57v-457q0 -102 -53 -147t-136 -45q-73 0 -128 26zM283.5 59.5q24.5 17.5 39 49.5t14.5 75v183q-31 22 -82 22q-64 0 -100.5 -47.5t-36.5 -133.5q0 -70 30 -118t84 -48q27 0 51.5 17.5z" />
    <glyph glyph-name="Itilde" unicode="&#x128;" horiz-adv-x="286" 
d="M105 669h76v-669h-76v669zM-7 769q14 33 38.5 53.5t58.5 20.5q19 0 35.5 -6.5t41.5 -19.5q18 -11 31 -16.5t27 -5.5q19 0 33 12.5t20 31.5l14 -31q-32 -66 -94 -66q-18 0 -33.5 5.5t-28 12t-16.5 8.5q-36 21 -57 21q-20 0 -34 -13t-20 -34z" />
    <glyph glyph-name="itilde" unicode="&#x129;" horiz-adv-x="240" 
d="M85 424h70v-424h-70v424zM-19 569q31 74 96 74q19 0 35.5 -6.5t41.5 -19.5q18 -11 31.5 -16.5t27.5 -5.5q18 0 32 12.5t21 31.5l14 -31q-32 -66 -94 -66q-20 0 -38 7t-40 19q-19 10 -32 15.5t-26 5.5q-19 0 -33.5 -13t-20.5 -34z" />
    <glyph glyph-name="Imacron" unicode="&#x12a;" horiz-adv-x="286" 
d="M105 669h76v-669h-76v669zM28 844h240l-11 -53h-240z" />
    <glyph glyph-name="imacron" unicode="&#x12b;" horiz-adv-x="240" 
d="M85 424h70v-424h-70v424zM14 622h220l-9 -49h-220z" />
    <glyph glyph-name="Ibreve" unicode="&#x12c;" horiz-adv-x="286" 
d="M105 669h76v-669h-76v669zM47 760.5q-34 37.5 -43 77.5l31 14q15 -33 43 -55.5t65 -22.5t65.5 22.5t44.5 55.5l29 -14q-9 -40 -43 -77.5t-96 -37.5t-96 37.5z" />
    <glyph glyph-name="ibreve" unicode="&#x12d;" horiz-adv-x="240" 
d="M85 424h70v-424h-70v424zM24 560.5q-34 37.5 -43 77.5l31 14q15 -33 43 -55.5t65 -22.5t65.5 22.5t44.5 55.5l29 -14q-9 -40 -43 -77.5t-96 -37.5t-96 37.5z" />
    <glyph glyph-name="Iogonek" unicode="&#x12e;" horiz-adv-x="286" 
d="M105 669h76v-669h-76v669zM80.5 -151.5q-18.5 22.5 -18.5 52.5q0 35 23.5 61t60.5 38h35q-38 -10 -56.5 -27t-18.5 -45q0 -20 12 -36t32 -20l-23 -52q-28 6 -46.5 28.5z" />
    <glyph glyph-name="iogonek" unicode="&#x12f;" horiz-adv-x="240" 
d="M85 424h70v-424h-70v424zM86 564.5q-14 14.5 -14 34.5t14 34.5t34 14.5q19 0 33 -14.5t14 -34.5t-14 -34.5t-33 -14.5q-20 0 -34 14.5zM54.5 -151.5q-18.5 22.5 -18.5 52.5q0 35 23.5 61t60.5 38h35q-38 -10 -56.5 -27t-18.5 -45q0 -20 12 -36t32 -20l-23 -52
q-28 6 -46.5 28.5z" />
    <glyph glyph-name="uni0130" unicode="&#x130;" horiz-adv-x="286" 
d="M105 669h76v-669h-76v669zM108 762q-15 15 -15 37t15 36.5t35 14.5q21 0 35.5 -14.5t14.5 -36.5t-15 -37t-35 -15t-35 15z" />
    <glyph glyph-name="dotlessi" unicode="&#x131;" horiz-adv-x="240" 
d="M85 424h70v-424h-70v424z" />
    <glyph glyph-name="IJ" unicode="&#x132;" horiz-adv-x="621" 
d="M105 669h76v-669h-76v669zM286 2v64q41 -18 75 -18q42 0 61.5 25t19.5 85v511h77v-517q0 -84 -38.5 -124.5t-108.5 -40.5q-47 0 -86 15z" />
    <glyph glyph-name="ij" unicode="&#x133;" horiz-adv-x="449" 
d="M79.5 588q-12.5 13 -12.5 30q0 19 12.5 33t29.5 14q16 0 28.5 -14t12.5 -33q0 -17 -12.5 -30t-28.5 -13q-17 0 -29.5 13zM74 424h70v-424h-70v424zM303.5 588q-12.5 13 -12.5 30q0 19 12.5 33t29.5 14t29.5 -14t12.5 -33q0 -17 -12.5 -30t-29.5 -13t-29.5 13zM187 -214
v52q27 -9 52 -9q30 0 45 20.5t15 71.5v503h70v-496q0 -153 -119 -153q-33 0 -63 11z" />
    <glyph glyph-name="uni0136" unicode="&#x136;" horiz-adv-x="585" 
d="M553 0h-93l-278 346v-346h-77v669h77v-310l242 310h85l-246 -310zM249 -224q35 18 59.5 46t24.5 61q0 3 -2 13q-6 -16 -17 -23.5t-23 -7.5q-19 0 -32 14.5t-13 31.5q0 20 15.5 34t34.5 14q28 0 44.5 -21.5t16.5 -50.5q0 -42 -27.5 -76.5t-69.5 -54.5z" />
    <glyph glyph-name="uni0137" unicode="&#x137;" horiz-adv-x="425" 
d="M380 58q23 -19 43 -20v-51q-45 0 -79.5 22t-87.5 85l-112 131v-225h-70v669h70v-422l171 177h82l-181 -185l108 -124q33 -38 56 -57zM209 -224q35 18 59.5 46t24.5 61q0 3 -2 13q-6 -16 -17 -23.5t-23 -7.5q-19 0 -32 14.5t-13 31.5q0 20 15.5 34t34.5 14
q28 0 44.5 -21.5t16.5 -50.5q0 -42 -27.5 -76.5t-69.5 -54.5z" />
    <glyph glyph-name="Lacute" unicode="&#x139;" horiz-adv-x="481" 
d="M444 59v-59h-339v669h76v-610h263zM250 886v-88l-125 -85h-49z" />
    <glyph glyph-name="lacute" unicode="&#x13a;" horiz-adv-x="220" 
d="M95.5 14.5q-23.5 27.5 -23.5 95.5v559h70v-560q0 -43 9 -57.5t30 -15.5q5 0 8 1v-49q-8 -1 -27 -1q-43 0 -66.5 27.5zM214 886v-88l-125 -85h-49z" />
    <glyph glyph-name="uni013B" unicode="&#x13b;" horiz-adv-x="481" 
d="M444 59v-59h-339v669h76v-610h263zM214 -224q35 18 59.5 46t24.5 61q0 3 -2 13q-6 -16 -17 -23.5t-23 -7.5q-19 0 -32 14.5t-13 31.5q0 20 15.5 34t34.5 14q28 0 44.5 -21.5t16.5 -50.5q0 -42 -27.5 -76.5t-69.5 -54.5z" />
    <glyph glyph-name="uni013C" unicode="&#x13c;" horiz-adv-x="220" 
d="M95.5 14.5q-23.5 27.5 -23.5 95.5v559h70v-560q0 -43 9 -57.5t30 -15.5q5 0 8 1v-49q-8 -1 -27 -1q-43 0 -66.5 27.5zM97 -224q35 18 59.5 46t24.5 61q0 3 -2 13q-6 -16 -17 -23.5t-23 -7.5q-19 0 -32 14.5t-13 31.5q0 20 15.5 34t34.5 14q28 0 44.5 -21.5t16.5 -50.5
q0 -42 -27.5 -76.5t-69.5 -54.5z" />
    <glyph glyph-name="Ldot" unicode="&#x13f;" horiz-adv-x="501" 
d="M444 59v-59h-339v669h76v-610h263zM330 298.5q-15 15.5 -15 38.5t15 39t37 16q21 0 36.5 -16t15.5 -39q0 -22 -15.5 -38t-36.5 -16q-22 0 -37 15.5z" />
    <glyph glyph-name="ldot" unicode="&#x140;" horiz-adv-x="375" 
d="M95.5 14.5q-23.5 27.5 -23.5 95.5v559h70v-560q0 -43 9 -57.5t30 -15.5q5 0 8 1v-49q-8 -1 -27 -1q-43 0 -66.5 27.5zM241 232.5q-15 15.5 -15 38.5t15 39t37 16q21 0 36.5 -16t15.5 -39q0 -22 -15.5 -38t-36.5 -16q-22 0 -37 15.5z" />
    <glyph glyph-name="Lslash" unicode="&#x141;" horiz-adv-x="481" 
d="M444 59v-59h-339v271l-94 -96l-1 43l95 97v354h76v-277l91 93v-43l-91 -93v-290h263z" />
    <glyph glyph-name="lslash" unicode="&#x142;" horiz-adv-x="220" 
d="M142 323v-214q0 -43 9 -57.5t30 -15.5q5 0 8 1v-49q-8 -1 -27 -1q-43 0 -66.5 27.5t-23.5 95.5v142l-74 -75l-1 42l75 76v374h70v-303l74 75v-43z" />
    <glyph glyph-name="Nacute" unicode="&#x143;" 
d="M105 669h85l290 -561v561h69v-669h-87l-288 553v-553h-69v669zM442 886v-88l-125 -85h-49z" />
    <glyph glyph-name="nacute" unicode="&#x144;" horiz-adv-x="491" 
d="M74 424h70v-66q19 39 56.5 61.5t81.5 22.5q68 0 104 -43t36 -132v-267h-70v252q0 72 -25.5 102.5t-66.5 30.5q-32 0 -58.5 -21t-42 -60.5t-15.5 -92.5v-211h-70v424zM345 686v-88l-124 -85h-49z" />
    <glyph glyph-name="uni0145" unicode="&#x145;" 
d="M105 669h85l290 -561v561h69v-669h-87l-288 553v-553h-69v669zM265 -224q35 18 59.5 46t24.5 61q0 3 -2 13q-6 -16 -17 -23.5t-23 -7.5q-19 0 -32 14.5t-13 31.5q0 20 15.5 34t34.5 14q28 0 44.5 -21.5t16.5 -50.5q0 -42 -27.5 -76.5t-69.5 -54.5z" />
    <glyph glyph-name="uni0146" unicode="&#x146;" horiz-adv-x="491" 
d="M74 424h70v-66q19 39 56.5 61.5t81.5 22.5q68 0 104 -43t36 -132v-267h-70v252q0 72 -25.5 102.5t-66.5 30.5q-32 0 -58.5 -21t-42 -60.5t-15.5 -92.5v-211h-70v424zM193 -224q35 18 59.5 46t24.5 61q0 3 -2 13q-6 -16 -17 -23.5t-23 -7.5q-19 0 -32 14.5t-13 31.5
q0 20 15.5 34t34.5 14q28 0 44.5 -21.5t16.5 -50.5q0 -42 -27.5 -76.5t-69.5 -54.5z" />
    <glyph glyph-name="Ncaron" unicode="&#x147;" 
d="M105 669h85l290 -561v561h69v-669h-87l-288 553v-553h-69v669zM189 859h49l95 -85l94 85h49l-124 -146h-39z" />
    <glyph glyph-name="ncaron" unicode="&#x148;" horiz-adv-x="491" 
d="M74 424h70v-66q19 39 56.5 61.5t81.5 22.5q68 0 104 -43t36 -132v-267h-70v252q0 72 -25.5 102.5t-66.5 30.5q-32 0 -58.5 -21t-42 -60.5t-15.5 -92.5v-211h-70v424zM111 659h49l94 -85l95 85h49l-125 -146h-38z" />
    <glyph glyph-name="Omacron" unicode="&#x14c;" 
d="M184.5 30q-60.5 43 -92.5 121.5t-32 183.5t32 183t92.5 121t142.5 43t142.5 -43t92.5 -121t32 -183t-32 -183.5t-92.5 -121.5t-142.5 -43t-142.5 43zM464.5 123.5q48.5 75.5 48.5 211.5t-48.5 211.5t-137.5 75.5t-137.5 -76t-48.5 -211t48.5 -211t137.5 -76t137.5 75.5z
M212 844h240l-11 -53h-240z" />
    <glyph glyph-name="omacron" unicode="&#x14d;" horiz-adv-x="463" 
d="M134 15q-42 28 -65.5 80t-23.5 122q0 68 24 119.5t66.5 79t95.5 27.5t95.5 -27.5t67 -79t24.5 -119.5q0 -70 -23.5 -122t-66 -80t-97.5 -28t-97 28zM311 85.5q31 45.5 31 131.5q0 83 -31 127.5t-79 44.5q-49 0 -80.5 -44.5t-31.5 -127.5q0 -86 31.5 -131.5t80.5 -45.5
q48 0 79 45.5zM126 622h220l-9 -49h-220z" />
    <glyph glyph-name="Obreve" unicode="&#x14e;" 
d="M184.5 30q-60.5 43 -92.5 121.5t-32 183.5t32 183t92.5 121t142.5 43t142.5 -43t92.5 -121t32 -183t-32 -183.5t-92.5 -121.5t-142.5 -43t-142.5 43zM464.5 123.5q48.5 75.5 48.5 211.5t-48.5 211.5t-137.5 75.5t-137.5 -76t-48.5 -211t48.5 -211t137.5 -76t137.5 75.5z
M231 760.5q-34 37.5 -43 77.5l31 14q15 -33 43 -55.5t65 -22.5t65.5 22.5t44.5 55.5l29 -14q-9 -40 -43 -77.5t-96 -37.5t-96 37.5z" />
    <glyph glyph-name="obreve" unicode="&#x14f;" horiz-adv-x="463" 
d="M134 15q-42 28 -65.5 80t-23.5 122q0 68 24 119.5t66.5 79t95.5 27.5t95.5 -27.5t67 -79t24.5 -119.5q0 -70 -23.5 -122t-66 -80t-97.5 -28t-97 28zM311 85.5q31 45.5 31 131.5q0 83 -31 127.5t-79 44.5q-49 0 -80.5 -44.5t-31.5 -127.5q0 -86 31.5 -131.5t80.5 -45.5
q48 0 79 45.5zM136 560.5q-34 37.5 -43 77.5l31 14q15 -33 43 -55.5t65 -22.5t65.5 22.5t44.5 55.5l29 -14q-9 -40 -43 -77.5t-96 -37.5t-96 37.5z" />
    <glyph glyph-name="Ohungarumlaut" unicode="&#x150;" 
d="M184.5 30q-60.5 43 -92.5 121.5t-32 183.5t32 183t92.5 121t142.5 43t142.5 -43t92.5 -121t32 -183t-32 -183.5t-92.5 -121.5t-142.5 -43t-142.5 43zM464.5 123.5q48.5 75.5 48.5 211.5t-48.5 211.5t-137.5 75.5t-137.5 -76t-48.5 -211t48.5 -211t137.5 -76t137.5 75.5z
M395 886v-88l-124 -85h-49zM539 886v-88l-125 -85h-49z" />
    <glyph glyph-name="ohungarumlaut" unicode="&#x151;" horiz-adv-x="463" 
d="M134 15q-42 28 -65.5 80t-23.5 122q0 68 24 119.5t66.5 79t95.5 27.5t95.5 -27.5t67 -79t24.5 -119.5q0 -70 -23.5 -122t-66 -80t-97.5 -28t-97 28zM311 85.5q31 45.5 31 131.5q0 83 -31 127.5t-79 44.5q-49 0 -80.5 -44.5t-31.5 -127.5q0 -86 31.5 -131.5t80.5 -45.5
q48 0 79 45.5zM235 686v-88l-125 -85h-49zM378 686v-88l-124 -85h-49z" />
    <glyph glyph-name="OE" unicode="&#x152;" horiz-adv-x="892" 
d="M847 0h-437q-36 -13 -83 -13q-82 0 -142.5 43t-92.5 121.5t-32 183.5t32 183t92.5 121t142.5 43q46 0 84 -13h424v-54h-336q82 -81 93 -236h191v-53h-189q-1 -86 -24.5 -154.5t-66.5 -112.5h344v-59zM189.5 124q48.5 -76 137.5 -76t137.5 75.5t48.5 211.5t-48.5 211.5
t-137.5 75.5t-137.5 -76t-48.5 -211t48.5 -211z" />
    <glyph glyph-name="oe" unicode="&#x153;" horiz-adv-x="734" 
d="M653.5 374q43.5 -68 40.5 -173h-275q4 -76 45.5 -117t104.5 -41q31 0 53.5 5.5t45.5 16.5l-1 -54q-44 -24 -109 -24q-57 0 -101.5 23t-71.5 65q-25 -42 -65 -65t-89 -23q-55 0 -97 28t-65.5 80t-23.5 122q0 68 24 119.5t66.5 79t95.5 27.5q47 0 86.5 -22.5t64.5 -63.5
q24 41 61 63t84 22q83 0 126.5 -68zM311 85.5q31 45.5 31 131.5q0 83 -31 127.5t-79 44.5q-49 0 -80.5 -44.5t-31.5 -127.5q0 -86 31.5 -131.5t80.5 -45.5q48 0 79 45.5zM625 245q-2 65 -27.5 104.5t-69.5 39.5t-73 -37t-35 -107h205z" />
    <glyph glyph-name="Racute" unicode="&#x154;" horiz-adv-x="577" 
d="M105 669h148q118 0 177 -45.5t59 -131.5q0 -70 -43 -118t-112 -64l210 -310h-90l-197 300h-76v-300h-76v669zM259 354q70 0 110.5 36t40.5 96q0 129 -155 129h-74v-261h78zM384 886v-88l-125 -85h-49z" />
    <glyph glyph-name="racute" unicode="&#x155;" horiz-adv-x="310" 
d="M74 424h70v-57q16 34 45.5 53t66.5 19q27 0 45 -6v-59q-24 8 -45 8q-55 0 -83.5 -42.5t-28.5 -123.5v-216h-70v424zM275 686v-88l-124 -85h-49z" />
    <glyph glyph-name="uni0156" unicode="&#x156;" horiz-adv-x="577" 
d="M105 669h148q118 0 177 -45.5t59 -131.5q0 -70 -43 -118t-112 -64l210 -310h-90l-197 300h-76v-300h-76v669zM259 354q70 0 110.5 36t40.5 96q0 129 -155 129h-74v-261h78zM271 -224q35 18 59.5 46t24.5 61q0 3 -2 13q-6 -16 -17 -23.5t-23 -7.5q-19 0 -32 14.5t-13 31.5
q0 20 15.5 34t34.5 14q28 0 44.5 -21.5t16.5 -50.5q0 -42 -27.5 -76.5t-69.5 -54.5z" />
    <glyph glyph-name="uni0157" unicode="&#x157;" horiz-adv-x="310" 
d="M74 424h70v-57q16 34 45.5 53t66.5 19q27 0 45 -6v-59q-24 8 -45 8q-55 0 -83.5 -42.5t-28.5 -123.5v-216h-70v424zM60 -224q35 18 59.5 46t24.5 61q0 3 -2 13q-6 -16 -17 -23.5t-23 -7.5q-19 0 -32 14.5t-13 31.5q0 20 15.5 34t34.5 14q28 0 44.5 -21.5t16.5 -50.5
q0 -42 -27.5 -76.5t-69.5 -54.5z" />
    <glyph glyph-name="Rcaron" unicode="&#x158;" horiz-adv-x="577" 
d="M105 669h148q118 0 177 -45.5t59 -131.5q0 -70 -43 -118t-112 -64l210 -310h-90l-197 300h-76v-300h-76v669zM259 354q70 0 110.5 36t40.5 96q0 129 -155 129h-74v-261h78zM131 859h49l95 -85l94 85h49l-124 -146h-39z" />
    <glyph glyph-name="rcaron" unicode="&#x159;" horiz-adv-x="310" 
d="M74 424h70v-57q16 34 45.5 53t66.5 19q27 0 45 -6v-59q-24 8 -45 8q-55 0 -83.5 -42.5t-28.5 -123.5v-216h-70v424zM41 659h49l94 -85l95 85h49l-125 -146h-38z" />
    <glyph glyph-name="Sacute" unicode="&#x15a;" horiz-adv-x="507" 
d="M50 29v69q89 -48 190 -48q62 0 99.5 28.5t37.5 88.5q0 33 -18.5 57.5t-45.5 42.5t-76 44q-56 29 -91 53t-59 60.5t-24 86.5q0 54 26 92.5t70 58.5t98 20q86 0 158 -35v-64q-32 19 -72.5 29.5t-80.5 10.5q-54 0 -88.5 -26.5t-34.5 -76.5q0 -35 19 -61.5t47 -45.5t78 -46
q57 -31 91.5 -55t58.5 -61t24 -88q0 -50 -27 -90t-76.5 -63t-112.5 -23q-104 0 -191 42zM365 886v-88l-125 -85h-49z" />
    <glyph glyph-name="sacute" unicode="&#x15b;" horiz-adv-x="364" 
d="M40 17v59q30 -15 66 -24.5t68 -9.5q38 0 60 16t22 45q0 28 -23 47.5t-71 44.5q-39 21 -63.5 37.5t-41.5 40.5t-17 57q0 52 44 82t102 30q65 0 116 -24v-53q-24 11 -53.5 18t-56.5 7q-34 0 -57.5 -15t-23.5 -43t22.5 -46.5t71.5 -44.5q41 -21 65.5 -37.5t42 -41
t17.5 -58.5q0 -51 -41 -84t-107 -33q-78 0 -142 30zM271 686v-88l-124 -85h-49z" />
    <glyph glyph-name="Scedilla" unicode="&#x15e;" horiz-adv-x="507" 
d="M404 42.5q-53 -48.5 -140 -54.5l-40 -42q11 3 22 3q22 0 46 -17t24 -57q0 -35 -25.5 -58t-62.5 -23q-34 0 -67 25l17 28q25 -17 46 -17t32.5 12.5t11.5 30.5q0 17 -9.5 30.5t-28.5 13.5q-11 0 -29 -9l-19 25l51 54q-101 2 -183 42v69q89 -48 190 -48q62 0 99.5 28.5
t37.5 88.5q0 33 -18.5 57.5t-45.5 42.5t-76 44q-56 29 -91 53t-59 60.5t-24 86.5q0 54 26 92.5t70 58.5t98 20q86 0 158 -35v-64q-32 19 -72.5 29.5t-80.5 10.5q-54 0 -88.5 -26.5t-34.5 -76.5q0 -35 19 -61.5t47 -45.5t78 -46q57 -31 91.5 -55t58.5 -61t24 -88
q0 -72 -53 -120.5z" />
    <glyph glyph-name="scedilla" unicode="&#x15f;" horiz-adv-x="364" 
d="M293 23.5q-37 -32.5 -97 -36.5l-40 -41q11 3 22 3q22 0 46 -17t24 -57q0 -35 -25.5 -58t-62.5 -23q-34 0 -67 25l17 28q25 -17 46 -17t32.5 12.5t11.5 30.5q0 17 -9.5 30.5t-28.5 13.5q-11 0 -29 -9l-19 25l51 54q-69 3 -125 30v59q30 -15 66 -24.5t68 -9.5q38 0 60 16
t22 45q0 28 -23 47.5t-71 44.5q-39 21 -63.5 37.5t-41.5 40.5t-17 57q0 52 44 82t102 30q65 0 116 -24v-53q-24 11 -53.5 18t-56.5 7q-34 0 -57.5 -15t-23.5 -43t22.5 -46.5t71.5 -44.5q41 -21 65.5 -37.5t42 -41t17.5 -58.5q0 -48 -37 -80.5z" />
    <glyph glyph-name="Scaron" unicode="&#x160;" horiz-adv-x="507" 
d="M50 29v69q89 -48 190 -48q62 0 99.5 28.5t37.5 88.5q0 33 -18.5 57.5t-45.5 42.5t-76 44q-56 29 -91 53t-59 60.5t-24 86.5q0 54 26 92.5t70 58.5t98 20q86 0 158 -35v-64q-32 19 -72.5 29.5t-80.5 10.5q-54 0 -88.5 -26.5t-34.5 -76.5q0 -35 19 -61.5t47 -45.5t78 -46
q57 -31 91.5 -55t58.5 -61t24 -88q0 -50 -27 -90t-76.5 -63t-112.5 -23q-104 0 -191 42zM112 859h49l95 -85l94 85h49l-124 -146h-39z" />
    <glyph glyph-name="scaron" unicode="&#x161;" horiz-adv-x="364" 
d="M40 17v59q30 -15 66 -24.5t68 -9.5q38 0 60 16t22 45q0 28 -23 47.5t-71 44.5q-39 21 -63.5 37.5t-41.5 40.5t-17 57q0 52 44 82t102 30q65 0 116 -24v-53q-24 11 -53.5 18t-56.5 7q-34 0 -57.5 -15t-23.5 -43t22.5 -46.5t71.5 -44.5q41 -21 65.5 -37.5t42 -41
t17.5 -58.5q0 -51 -41 -84t-107 -33q-78 0 -142 30zM37 659h49l94 -85l95 85h49l-125 -146h-38z" />
    <glyph glyph-name="uni0162" unicode="&#x162;" horiz-adv-x="496" 
d="M491 609h-206v-609h-76v609h-204v60h486v-60zM152 -181l17 28q25 -17 46 -17t32.5 12.5t11.5 30.5q0 17 -9.5 30.5t-28.5 13.5q-11 0 -29 -9l-19 25l63 67h31l-52 -54q11 3 22 3q22 0 46 -17t24 -57q0 -35 -25.5 -58t-62.5 -23q-34 0 -67 25z" />
    <glyph glyph-name="uni0163" unicode="&#x163;" horiz-adv-x="270" 
d="M219 -68q24 -17 24 -57q0 -35 -25.5 -58t-62.5 -23q-34 0 -67 25l17 28q25 -17 46 -17t32.5 12.5t11.5 30.5q0 17 -9.5 30.5t-28.5 13.5q-11 0 -29 -9l-19 25l54 57q-37 4 -57 28t-20 67v295h-55v44h55v127h70v-127h77v-44h-77v-274q0 -35 9 -49.5t34 -14.5q15 0 36 6
l3 -47q-22 -9 -45 -11l-42 -44q11 3 22 3q22 0 46 -17z" />
    <glyph glyph-name="Tcaron" unicode="&#x164;" horiz-adv-x="496" 
d="M491 609h-206v-609h-76v609h-204v60h486v-60zM103 859h49l95 -85l94 85h49l-124 -146h-39z" />
    <glyph glyph-name="tcaron" unicode="&#x165;" horiz-adv-x="270" 
d="M238 1q-28 -12 -59 -12q-44 0 -68.5 24t-24.5 72v295h-55v44h55v127h70v-127h77v-44h-77v-274q0 -35 9 -49.5t34 -14.5q15 0 36 6zM199 669h64l-37 -217h-34z" />
    <glyph glyph-name="Utilde" unicode="&#x168;" horiz-adv-x="664" 
d="M158.5 52q-58.5 65 -58.5 189v428h76v-420q0 -97 38 -148t122 -51q82 0 119 50t37 144v425h72v-432q0 -123 -58.5 -186.5t-172.5 -63.5q-116 0 -174.5 65zM183 769q14 33 38.5 53.5t58.5 20.5q19 0 35.5 -6.5t41.5 -19.5q18 -11 31 -16.5t27 -5.5q19 0 33 12.5t20 31.5
l14 -31q-32 -66 -94 -66q-18 0 -33.5 5.5t-28 12t-16.5 8.5q-36 21 -57 21q-20 0 -34 -13t-20 -34z" />
    <glyph glyph-name="utilde" unicode="&#x169;" horiz-adv-x="488" 
d="M453 37v-45q-10 -3 -27 -3q-36 0 -56 17.5t-27 58.5q-19 -36 -57 -57t-81 -21q-66 0 -101 43t-35 130v264h70v-250q0 -70 24 -100t63 -30q49 0 81.5 45t32.5 127v208h70v-321q0 -35 8 -50.5t26 -15.5h9zM102 569q31 74 96 74q19 0 35.5 -6.5t41.5 -19.5
q18 -11 31.5 -16.5t27.5 -5.5q18 0 32 12.5t21 31.5l14 -31q-32 -66 -94 -66q-20 0 -38 7t-40 19q-19 10 -32 15.5t-26 5.5q-19 0 -33.5 -13t-20.5 -34z" />
    <glyph glyph-name="Umacron" unicode="&#x16a;" horiz-adv-x="664" 
d="M158.5 52q-58.5 65 -58.5 189v428h76v-420q0 -97 38 -148t122 -51q82 0 119 50t37 144v425h72v-432q0 -123 -58.5 -186.5t-172.5 -63.5q-116 0 -174.5 65zM218 844h240l-11 -53h-240z" />
    <glyph glyph-name="umacron" unicode="&#x16b;" horiz-adv-x="488" 
d="M453 37v-45q-10 -3 -27 -3q-36 0 -56 17.5t-27 58.5q-19 -36 -57 -57t-81 -21q-66 0 -101 43t-35 130v264h70v-250q0 -70 24 -100t63 -30q49 0 81.5 45t32.5 127v208h70v-321q0 -35 8 -50.5t26 -15.5h9zM135 622h220l-9 -49h-220z" />
    <glyph glyph-name="Ubreve" unicode="&#x16c;" horiz-adv-x="664" 
d="M158.5 52q-58.5 65 -58.5 189v428h76v-420q0 -97 38 -148t122 -51q82 0 119 50t37 144v425h72v-432q0 -123 -58.5 -186.5t-172.5 -63.5q-116 0 -174.5 65zM237 760.5q-34 37.5 -43 77.5l31 14q15 -33 43 -55.5t65 -22.5t65.5 22.5t44.5 55.5l29 -14q-9 -40 -43 -77.5
t-96 -37.5t-96 37.5z" />
    <glyph glyph-name="ubreve" unicode="&#x16d;" horiz-adv-x="488" 
d="M453 37v-45q-10 -3 -27 -3q-36 0 -56 17.5t-27 58.5q-19 -36 -57 -57t-81 -21q-66 0 -101 43t-35 130v264h70v-250q0 -70 24 -100t63 -30q49 0 81.5 45t32.5 127v208h70v-321q0 -35 8 -50.5t26 -15.5h9zM145 560.5q-34 37.5 -43 77.5l31 14q15 -33 43 -55.5t65 -22.5
t65.5 22.5t44.5 55.5l29 -14q-9 -40 -43 -77.5t-96 -37.5t-96 37.5z" />
    <glyph glyph-name="Uring" unicode="&#x16e;" horiz-adv-x="664" 
d="M158.5 52q-58.5 65 -58.5 189v428h76v-420q0 -97 38 -148t122 -51q82 0 119 50t37 144v425h72v-432q0 -123 -58.5 -186.5t-172.5 -63.5q-116 0 -174.5 65zM268 743.5q-27 25.5 -27 62.5q0 36 27 62t65 26t65 -26t27 -62q0 -37 -27 -62.5t-65 -25.5t-65 25.5zM364.5 767
q12.5 16 12.5 39t-12.5 39t-31.5 16t-31.5 -16t-12.5 -39t12.5 -39t31.5 -16t31.5 16z" />
    <glyph glyph-name="uring" unicode="&#x16f;" horiz-adv-x="488" 
d="M453 37v-45q-10 -3 -27 -3q-36 0 -56 17.5t-27 58.5q-19 -36 -57 -57t-81 -21q-66 0 -101 43t-35 130v264h70v-250q0 -70 24 -100t63 -30q49 0 81.5 45t32.5 127v208h70v-321q0 -35 8 -50.5t26 -15.5h9zM175.5 543.5q-26.5 25.5 -26.5 62.5t26.5 62.5t65.5 25.5t66 -25.5
t27 -62.5t-27 -62.5t-66 -25.5t-65.5 25.5zM272.5 570.5q12.5 14.5 12.5 35.5t-12.5 35.5t-31.5 14.5t-31.5 -14.5t-12.5 -35.5t12.5 -35.5t31.5 -14.5t31.5 14.5z" />
    <glyph glyph-name="Uhungarumlaut" unicode="&#x170;" horiz-adv-x="664" 
d="M158.5 52q-58.5 65 -58.5 189v428h76v-420q0 -97 38 -148t122 -51q82 0 119 50t37 144v425h72v-432q0 -123 -58.5 -186.5t-172.5 -63.5q-116 0 -174.5 65zM401 886v-88l-124 -85h-49zM545 886v-88l-125 -85h-49z" />
    <glyph glyph-name="uhungarumlaut" unicode="&#x171;" horiz-adv-x="488" 
d="M453 37v-45q-10 -3 -27 -3q-36 0 -56 17.5t-27 58.5q-19 -36 -57 -57t-81 -21q-66 0 -101 43t-35 130v264h70v-250q0 -70 24 -100t63 -30q49 0 81.5 45t32.5 127v208h70v-321q0 -35 8 -50.5t26 -15.5h9zM244 686v-88l-125 -85h-49zM387 686v-88l-124 -85h-49z" />
    <glyph glyph-name="Uogonek" unicode="&#x172;" horiz-adv-x="664" 
d="M564 669v-432q0 -118 -54 -181.5t-159 -68.5q-40 -18 -40 -59q0 -20 12 -36t32 -20l-23 -52q-28 6 -46.5 28.5t-18.5 52.5q0 27 15 49.5t40 36.5q-110 3 -166 67.5t-56 186.5v428h76v-420q0 -97 38 -148t122 -51q82 0 119 50t37 144v425h72z" />
    <glyph glyph-name="uogonek" unicode="&#x173;" horiz-adv-x="488" 
d="M453 37v-45q-10 -3 -27 -3h-6q-22 -10 -32.5 -24.5t-10.5 -36.5q0 -20 12 -36t32 -20l-23 -52q-28 6 -46.5 28.5t-18.5 52.5t18 54t47 37q-23 6 -36.5 23.5t-18.5 49.5q-19 -36 -57 -57t-81 -21q-66 0 -101 43t-35 130v264h70v-250q0 -70 24 -100t63 -30q49 0 81.5 45
t32.5 127v208h70v-321q0 -35 8 -50.5t26 -15.5h9z" />
    <glyph glyph-name="Wcircumflex" unicode="&#x174;" horiz-adv-x="905" 
d="M870 669l-197 -670h-87l-125 408l-137 -408h-84l-205 670h77l171 -578h7l139 421l-48 157h77l168 -576h6l161 576h77zM416 859h39l124 -146h-49l-94 85l-95 -85h-49z" />
    <glyph glyph-name="wcircumflex" unicode="&#x175;" horiz-adv-x="632" 
d="M619 424l-132 -424h-75l-93 271l-98 -271h-74l-134 424h73l100 -347l101 289l-20 58h68l115 -349l99 349h70zM279 659h38l125 -146h-49l-95 85l-94 -85h-49z" />
    <glyph glyph-name="Ycircumflex" unicode="&#x176;" horiz-adv-x="503" 
d="M290 244v-244h-76v241l-199 428h83l156 -346l157 346h77zM236 859h39l124 -146h-49l-94 85l-95 -85h-49z" />
    <glyph glyph-name="ycircumflex" unicode="&#x177;" horiz-adv-x="412" 
d="M397 424l-164 -515q-22 -66 -52.5 -100t-79.5 -34q-36 0 -69 13v54q32 -12 59 -12q30 0 50 21.5t33 65.5l25 83h-43l-142 424h72l124 -389l117 389h70zM188 659h38l125 -146h-49l-95 85l-94 -85h-49z" />
    <glyph glyph-name="Ydieresis" unicode="&#x178;" horiz-adv-x="503" 
d="M290 244v-244h-76v241l-199 428h83l156 -346l157 346h77zM144 774.5q-14 14.5 -14 34.5t14 34.5t33 14.5t33 -14.5t14 -34.5t-14 -34.5t-33 -14.5t-33 14.5zM303 774.5q-14 14.5 -14 34.5t14 34.5t33 14.5t33 -14.5t14 -34.5t-14 -34.5t-33 -14.5t-33 14.5z" />
    <glyph glyph-name="Zacute" unicode="&#x179;" horiz-adv-x="530" 
d="M30 39l362 574h-337v56h438v-38l-361 -572h360v-59h-462v39zM375 886v-88l-125 -85h-49z" />
    <glyph glyph-name="zacute" unicode="&#x17a;" horiz-adv-x="386" 
d="M368 52v-52h-358v32l259 341h-238v51h335v-31l-260 -341h262zM283 686v-88l-124 -85h-49z" />
    <glyph glyph-name="Zdotaccent" unicode="&#x17b;" horiz-adv-x="530" 
d="M30 39l362 574h-337v56h438v-38l-361 -572h360v-59h-462v39zM231 762q-15 15 -15 37t15 36.5t35 14.5q21 0 35.5 -14.5t14.5 -36.5t-15 -37t-35 -15t-35 15z" />
    <glyph glyph-name="zdotaccent" unicode="&#x17c;" horiz-adv-x="386" 
d="M368 52v-52h-358v32l259 341h-238v51h335v-31l-260 -341h262zM158 564.5q-14 14.5 -14 34.5t14 34.5t34 14.5q19 0 33 -14.5t14 -34.5t-14 -34.5t-33 -14.5q-20 0 -34 14.5z" />
    <glyph glyph-name="Zcaron" unicode="&#x17d;" horiz-adv-x="530" 
d="M30 39l362 574h-337v56h438v-38l-361 -572h360v-59h-462v39zM122 859h49l95 -85l94 85h49l-124 -146h-39z" />
    <glyph glyph-name="zcaron" unicode="&#x17e;" horiz-adv-x="386" 
d="M368 52v-52h-358v32l259 341h-238v51h335v-31l-260 -341h262zM49 659h49l94 -85l95 85h49l-125 -146h-38z" />
    <glyph glyph-name="florin" unicode="&#x192;" horiz-adv-x="707" 
d="M118.5 13.5q-13.5 13.5 -13.5 32.5v578q0 19 13.5 32t32.5 13h406q19 0 32 -13t13 -32v-578q0 -19 -13 -32.5t-32 -13.5h-406q-19 0 -32.5 13.5zM523 618h-338l169 -248zM329 335l-173 256v-511zM552 590l-174 -255l174 -256v511zM522 51l-168 248l-169 -248h337z" />
    <glyph glyph-name="AEacute" unicode="&#x1fc;" horiz-adv-x="860" 
d="M835 59v-59h-371v196h-234l-118 -196h-77l411 669h377v-54h-283l1 -236h210v-53h-209l1 -267h292zM464 249v327h-4l-198 -327h202zM656 886v-88l-125 -85h-49z" />
    <glyph glyph-name="aeacute" unicode="&#x1fd;" horiz-adv-x="672" 
d="M372 201v-14q7 -69 48.5 -106.5t100.5 -37.5q31 0 53.5 5.5t45.5 16.5l-1 -54q-44 -24 -109 -24q-56 0 -100 22t-72 64q-56 -86 -168 -86q-57 0 -94.5 32t-37.5 86q0 85 80.5 120t183.5 37v29q0 95 -102 95q-31 0 -64.5 -11t-63.5 -30v57q69 40 144 40q45 0 79.5 -15.5
t54.5 -46.5q49 62 129 62q83 0 126.5 -68t40.5 -173h-274zM407 352q-29 -37 -35 -107h205q-2 65 -27.5 104.5t-69.5 39.5t-73 -37zM302 180q-2 22 -2 34q-91 -1 -141.5 -28t-50.5 -78q0 -32 22.5 -50.5t57.5 -18.5q47 0 80.5 33.5t33.5 91.5v16zM466 686v-88l-124 -85h-49z
" />
    <glyph glyph-name="uni0218" unicode="&#x218;" horiz-adv-x="507" 
d="M50 29v69q89 -48 190 -48q62 0 99.5 28.5t37.5 88.5q0 33 -18.5 57.5t-45.5 42.5t-76 44q-56 29 -91 53t-59 60.5t-24 86.5q0 54 26 92.5t70 58.5t98 20q86 0 158 -35v-64q-32 19 -72.5 29.5t-80.5 10.5q-54 0 -88.5 -26.5t-34.5 -76.5q0 -35 19 -61.5t47 -45.5t78 -46
q57 -31 91.5 -55t58.5 -61t24 -88q0 -50 -27 -90t-76.5 -63t-112.5 -23q-104 0 -191 42zM204 -224q35 18 59.5 46t24.5 61q0 3 -2 13q-6 -16 -17 -23.5t-23 -7.5q-19 0 -32 14.5t-13 31.5q0 20 15.5 34t34.5 14q28 0 44.5 -21.5t16.5 -50.5q0 -42 -27.5 -76.5t-69.5 -54.5z
" />
    <glyph glyph-name="uni0219" unicode="&#x219;" horiz-adv-x="364" 
d="M40 17v59q30 -15 66 -24.5t68 -9.5q38 0 60 16t22 45q0 28 -23 47.5t-71 44.5q-39 21 -63.5 37.5t-41.5 40.5t-17 57q0 52 44 82t102 30q65 0 116 -24v-53q-24 11 -53.5 18t-56.5 7q-34 0 -57.5 -15t-23.5 -43t22.5 -46.5t71.5 -44.5q41 -21 65.5 -37.5t42 -41
t17.5 -58.5q0 -51 -41 -84t-107 -33q-78 0 -142 30zM136 -224q35 18 59.5 46t24.5 61q0 3 -2 13q-6 -16 -17 -23.5t-23 -7.5q-19 0 -32 14.5t-13 31.5q0 20 15.5 34t34.5 14q28 0 44.5 -21.5t16.5 -50.5q0 -42 -27.5 -76.5t-69.5 -54.5z" />
    <glyph glyph-name="uni021A" unicode="&#x21a;" horiz-adv-x="496" 
d="M491 609h-206v-609h-76v609h-204v60h486v-60zM195 -224q35 18 59.5 46t24.5 61q0 3 -2 13q-6 -16 -17 -23.5t-23 -7.5q-19 0 -32 14.5t-13 31.5q0 20 15.5 34t34.5 14q28 0 44.5 -21.5t16.5 -50.5q0 -42 -27.5 -76.5t-69.5 -54.5z" />
    <glyph glyph-name="uni021B" unicode="&#x21b;" horiz-adv-x="270" 
d="M238 1q-28 -12 -59 -12q-44 0 -68.5 24t-24.5 72v295h-55v44h55v127h70v-127h77v-44h-77v-274q0 -35 9 -49.5t34 -14.5q15 0 36 6zM131 -224q35 18 59.5 46t24.5 61q0 3 -2 13q-6 -16 -17 -23.5t-23 -7.5q-19 0 -32 14.5t-13 31.5q0 20 15.5 34t34.5 14q28 0 44.5 -21.5
t16.5 -50.5q0 -42 -27.5 -76.5t-69.5 -54.5z" />
    <glyph glyph-name="circumflex" unicode="&#x2c6;" horiz-adv-x="377" 
d="M169 659h38l125 -146h-49l-95 85l-94 -85h-49z" />
    <glyph glyph-name="caron" unicode="&#x2c7;" horiz-adv-x="377" 
d="M45 659h49l94 -85l95 85h49l-125 -146h-38z" />
    <glyph glyph-name="breve" unicode="&#x2d8;" horiz-adv-x="368" 
d="M88 560.5q-34 37.5 -43 77.5l31 14q15 -33 43 -55.5t65 -22.5t65.5 22.5t44.5 55.5l29 -14q-9 -40 -43 -77.5t-96 -37.5t-96 37.5z" />
    <glyph glyph-name="dotaccent" unicode="&#x2d9;" horiz-adv-x="185" 
d="M59 564.5q-14 14.5 -14 34.5t14 34.5t34 14.5q19 0 33 -14.5t14 -34.5t-14 -34.5t-33 -14.5q-20 0 -34 14.5z" />
    <glyph glyph-name="ring" unicode="&#x2da;" horiz-adv-x="275" 
d="M71.5 543.5q-26.5 25.5 -26.5 62.5t26.5 62.5t65.5 25.5t66 -25.5t27 -62.5t-27 -62.5t-66 -25.5t-65.5 25.5zM168.5 570.5q12.5 14.5 12.5 35.5t-12.5 35.5t-31.5 14.5t-31.5 -14.5t-12.5 -35.5t12.5 -35.5t31.5 -14.5t31.5 14.5z" />
    <glyph glyph-name="ogonek" unicode="&#x2db;" horiz-adv-x="209" 
d="M63.5 -151.5q-18.5 22.5 -18.5 52.5q0 35 23.5 61t60.5 38h35q-38 -10 -56.5 -27t-18.5 -45q0 -20 12 -36t32 -20l-23 -52q-28 6 -46.5 28.5z" />
    <glyph glyph-name="tilde" unicode="&#x2dc;" horiz-adv-x="389" 
d="M45 569q31 74 96 74q19 0 35.5 -6.5t41.5 -19.5q18 -11 31.5 -16.5t27.5 -5.5q18 0 32 12.5t21 31.5l14 -31q-32 -66 -94 -66q-20 0 -38 7t-40 19q-19 10 -32 15.5t-26 5.5q-19 0 -33.5 -13t-20.5 -34z" />
    <glyph glyph-name="hungarumlaut" unicode="&#x2dd;" horiz-adv-x="407" 
d="M219 686v-88l-125 -85h-49zM362 686v-88l-124 -85h-49z" />
    <glyph glyph-name="uni0326" unicode="&#x326;" horiz-adv-x="0" 
d="M-153 -224q35 18 59.5 46t24.5 61q0 3 -2 13q-6 -16 -17 -23.5t-23 -7.5q-19 0 -32 14.5t-13 31.5q0 20 15.5 34t34.5 14q28 0 44.5 -21.5t16.5 -50.5q0 -42 -27.5 -76.5t-69.5 -54.5z" />
    <glyph glyph-name="uni0335" unicode="&#x335;" horiz-adv-x="0" 
d="M-305 565h260l-31 -31h-229v31z" />
    <glyph glyph-name="uni0337" unicode="&#x337;" horiz-adv-x="0" 
d="M-264 219l219 222v-43l-218 -221z" />
    <glyph glyph-name="uni0338" unicode="&#x338;" horiz-adv-x="0" 
d="M-427 25l382 417v-42l-382 -418v43z" />
    <glyph glyph-name="uni03A9" unicode="&#x3a9;" horiz-adv-x="729" 
d="M60 66h161v2q-151 153 -151 318q0 145 80 221t214 76t214.5 -76t80.5 -221q0 -165 -151 -318v-2h161v-66h-248v68q160 166 160 322q0 73 -29 124.5t-78 78t-110 26.5t-109.5 -26.5t-77 -78t-28.5 -124.5q0 -157 159 -322v-68h-248v66z" />
    <glyph glyph-name="uni03A9" unicode="&#x3c9;" horiz-adv-x="729" 
d="M60 66h161v2q-151 153 -151 318q0 145 80 221t214 76t214.5 -76t80.5 -221q0 -165 -151 -318v-2h161v-66h-248v68q160 166 160 322q0 73 -29 124.5t-78 78t-110 26.5t-109.5 -26.5t-77 -78t-28.5 -124.5q0 -157 159 -322v-68h-248v66z" />
    <glyph glyph-name="uni03BC" unicode="&#x3bc;" horiz-adv-x="493" 
d="M458 37v-45q-10 -3 -27 -3q-36 0 -56 17.5t-27 58.5q-19 -36 -57 -57t-81 -21q-36 0 -66 14v-213h-70v636h70v-250q0 -70 24 -100t63 -30q49 0 81.5 45t32.5 127v208h70v-321q0 -35 8 -50.5t26 -15.5h9z" />
    <glyph glyph-name="pi" unicode="&#x3c0;" horiz-adv-x="547" 
d="M421 366v-257q0 -43 9.5 -58t29.5 -15q5 0 8 1v-49q-8 -1 -27 -1q-43 0 -66.5 27.5t-23.5 95.5v256h-150v-366h-70v366h-100v58h484v-58h-94z" />
    <glyph glyph-name="Wgrave" unicode="&#x1e80;" horiz-adv-x="905" 
d="M870 669l-197 -670h-87l-125 408l-137 -408h-84l-205 670h77l171 -578h7l139 421l-48 157h77l168 -576h6l161 576h77zM328 798v88l174 -173h-49z" />
    <glyph glyph-name="wgrave" unicode="&#x1e81;" horiz-adv-x="632" 
d="M619 424l-132 -424h-75l-93 271l-98 -271h-74l-134 424h73l100 -347l101 289l-20 58h68l115 -349l99 349h70zM198 598v88l173 -173h-49z" />
    <glyph glyph-name="Wacute" unicode="&#x1e82;" horiz-adv-x="905" 
d="M870 669l-197 -670h-87l-125 408l-137 -408h-84l-205 670h77l171 -578h7l139 421l-48 157h77l168 -576h6l161 576h77zM545 886v-88l-125 -85h-49z" />
    <glyph glyph-name="wacute" unicode="&#x1e83;" horiz-adv-x="632" 
d="M619 424l-132 -424h-75l-93 271l-98 -271h-74l-134 424h73l100 -347l101 289l-20 58h68l115 -349l99 349h70zM389 686v-88l-124 -85h-49z" />
    <glyph glyph-name="Wdieresis" unicode="&#x1e84;" horiz-adv-x="905" 
d="M870 669l-197 -670h-87l-125 408l-137 -408h-84l-205 670h77l171 -578h7l139 421l-48 157h77l168 -576h6l161 576h77zM324 774.5q-14 14.5 -14 34.5t14 34.5t33 14.5t33 -14.5t14 -34.5t-14 -34.5t-33 -14.5t-33 14.5zM483 774.5q-14 14.5 -14 34.5t14 34.5t33 14.5
t33 -14.5t14 -34.5t-14 -34.5t-33 -14.5t-33 14.5z" />
    <glyph glyph-name="wdieresis" unicode="&#x1e85;" horiz-adv-x="632" 
d="M619 424l-132 -424h-75l-93 271l-98 -271h-74l-134 424h73l100 -347l101 289l-20 58h68l115 -349l99 349h70zM186 574.5q-14 14.5 -14 34.5t14 34.5t33 14.5t33 -14.5t14 -34.5t-14 -34.5t-33 -14.5t-33 14.5zM345 574.5q-14 14.5 -14 34.5t14 34.5t33 14.5t33 -14.5
t14 -34.5t-14 -34.5t-33 -14.5t-33 14.5z" />
    <glyph glyph-name="uni1E9E" unicode="&#x1e9e;" horiz-adv-x="650" 
d="M385 -5q-32 7 -55 20v58q53 -33 102 -33q39 0 64 20t25 61q0 40 -23 67.5t-68 60.5q-43 32 -64.5 57t-21.5 60q0 31 15 51t44 44q27 23 40 40.5t13 42.5q0 41 -33.5 62t-95.5 21q-74 0 -112.5 -33t-38.5 -94v-500h-71v520q0 74 59 116.5t161 42.5q52 0 97 -15.5t72.5 -44
t27.5 -67.5q0 -42 -18.5 -68.5t-51.5 -54.5q-21 -18 -30 -29t-9 -24q0 -18 12 -36t33 -33l54 -38q84 -60 84 -144q0 -66 -41.5 -101.5t-107.5 -35.5q-30 0 -62 7z" />
    <glyph glyph-name="Ygrave" unicode="&#x1ef2;" horiz-adv-x="503" 
d="M290 244v-244h-76v241l-199 428h83l156 -346l157 346h77zM148 798v88l174 -173h-49z" />
    <glyph glyph-name="ygrave" unicode="&#x1ef3;" horiz-adv-x="412" 
d="M397 424l-164 -515q-22 -66 -52.5 -100t-79.5 -34q-36 0 -69 13v54q32 -12 59 -12q30 0 50 21.5t33 65.5l25 83h-43l-142 424h72l124 -389l117 389h70zM107 598v88l173 -173h-49z" />
    <glyph glyph-name="uni2009" unicode="&#x2009;" horiz-adv-x="75" 
 />
    <glyph glyph-name="endash" unicode="&#x2013;" horiz-adv-x="431" 
d="M45 261h341v-48h-341v48z" />
    <glyph glyph-name="emdash" unicode="&#x2014;" horiz-adv-x="586" 
d="M45 261h496v-48h-496v48z" />
    <glyph glyph-name="quoteleft" unicode="&#x2018;" horiz-adv-x="181" 
d="M168 651q-38 -20 -65 -55.5t-31 -78.5q5 5 20 5q19 0 31 -14t12 -32q0 -20 -13.5 -34t-36.5 -14q-29 0 -44 22t-15 47q0 62 37.5 111.5t89.5 71.5z" />
    <glyph glyph-name="quoteright" unicode="&#x2019;" horiz-adv-x="181" 
d="M13 457q38 20 65 55.5t31 78.5q-5 -5 -20 -5q-19 0 -31 14t-12 32q0 20 13.5 34t36.5 14q29 0 44 -22t15 -47q0 -62 -37.5 -111.5t-89.5 -71.5z" />
    <glyph glyph-name="quotesinglbase" unicode="&#x201a;" horiz-adv-x="181" 
d="M13 -144q38 20 65 55.5t31 78.5q-5 -5 -20 -5q-19 0 -31 14t-12 32q0 20 13.5 34t36.5 14q29 0 44 -22t15 -47q0 -62 -37.5 -111.5t-89.5 -71.5z" />
    <glyph glyph-name="quotedblleft" unicode="&#x201c;" horiz-adv-x="351" 
d="M168 651q-38 -20 -65 -55.5t-31 -78.5q5 5 20 5q19 0 31 -14t12 -32q0 -20 -13.5 -34t-36.5 -14q-29 0 -44 22t-15 47q0 62 37.5 111.5t89.5 71.5zM338 651q-38 -20 -65 -55.5t-31 -78.5q5 5 20 5q19 0 31 -14t12 -32q0 -20 -13.5 -34t-36.5 -14q-29 0 -44 22t-15 47
q0 62 37.5 111.5t89.5 71.5z" />
    <glyph glyph-name="quotedblright" unicode="&#x201d;" horiz-adv-x="351" 
d="M183 455q38 20 65 55.5t31 78.5q-5 -5 -20 -5q-19 0 -31 14t-12 32q0 20 13.5 34t36.5 14q29 0 44 -22t15 -47q0 -62 -37.5 -111.5t-89.5 -71.5zM13 455q38 20 65 55.5t31 78.5q-5 -5 -20 -5q-19 0 -31 14t-12 32q0 20 13.5 34t36.5 14q29 0 44 -22t15 -47
q0 -62 -37.5 -111.5t-89.5 -71.5z" />
    <glyph glyph-name="quotedblbase" unicode="&#x201e;" horiz-adv-x="355" 
d="M187 -144q38 20 65 55.5t31 78.5q-5 -5 -20 -5q-19 0 -31 14t-12 32q0 20 13.5 34t36.5 14q29 0 44 -22t15 -47q0 -62 -37.5 -111.5t-89.5 -71.5zM13 -144q38 20 65 55.5t31 78.5q-5 -5 -20 -5q-19 0 -31 14t-12 32q0 20 13.5 34t36.5 14q29 0 44 -22t15 -47
q0 -62 -37.5 -111.5t-89.5 -71.5z" />
    <glyph glyph-name="dagger" unicode="&#x2020;" horiz-adv-x="375" 
d="M155 420l-150 1v53l150 -1v196h70v-196h145v-53h-145v-420h-70v420z" />
    <glyph glyph-name="daggerdbl" unicode="&#x2021;" horiz-adv-x="494" 
d="M215 230h-151v53h151v137l-150 1v53l150 -1v196h70v-196h145v-53h-145v-137h145v-53h-145v-230h-70v230z" />
    <glyph glyph-name="bullet" unicode="&#x2022;" horiz-adv-x="300" 
d="M82.5 235q-27.5 29 -27.5 70t27.5 69.5t67.5 28.5q39 0 67 -28.5t28 -69.5t-28 -70t-67 -29q-40 0 -67.5 29z" />
    <glyph glyph-name="ellipsis" unicode="&#x2026;" horiz-adv-x="592" 
d="M263.5 4q-13.5 14 -13.5 33t13.5 32.5t32.5 13.5t32.5 -13.5t13.5 -32.5t-13.5 -33t-32.5 -14t-32.5 14zM463.5 4q-13.5 14 -13.5 33t13.5 32.5t32.5 13.5t32.5 -13.5t13.5 -32.5t-13.5 -33t-32.5 -14t-32.5 14zM63.5 4q-13.5 14 -13.5 33t13.5 32.5t32.5 13.5
t32.5 -13.5t13.5 -32.5t-13.5 -33t-32.5 -14t-32.5 14z" />
    <glyph glyph-name="perthousand" unicode="&#x2030;" horiz-adv-x="1090" 
d="M612 704h45l-495 -749h-45zM78 345q-33 55 -33 142q0 84 34.5 136.5t99.5 52.5q66 0 101 -52.5t35 -141.5q0 -84 -34 -138t-102 -54t-101 55zM234.5 376q19.5 39 19.5 106q0 66 -18.5 107t-58.5 41q-37 0 -55 -41.5t-18 -110.5q0 -71 20.5 -106t52.5 -35q38 0 57.5 39z
M492 47q-33 55 -33 142q0 84 34.5 136.5t99.5 52.5q66 0 101 -52.5t35 -141.5q0 -84 -34 -138t-102 -54t-101 55zM808 47q-33 55 -33 142q0 84 34.5 136.5t99.5 52.5q66 0 101 -52.5t35 -141.5q0 -84 -34 -138t-102 -54t-101 55zM649.5 77q19.5 39 19.5 107q0 67 -18.5 108
t-59.5 41q-37 0 -55.5 -41.5t-18.5 -111.5q0 -71 21 -106.5t53 -35.5q39 0 58.5 39zM965.5 77q19.5 39 19.5 107q0 67 -18.5 108t-59.5 41q-37 0 -55.5 -41.5t-18.5 -111.5q0 -71 21 -106.5t53 -35.5q39 0 58.5 39z" />
    <glyph glyph-name="guilsinglleft" unicode="&#x2039;" horiz-adv-x="259" 
d="M19 215l148 191l25 -19l-135 -172l146 -176l-26 -19z" />
    <glyph glyph-name="guilsinglright" unicode="&#x203a;" horiz-adv-x="259" 
d="M56 39l145 176l-134 172l25 19l148 -191l-158 -195z" />
    <glyph glyph-name="fraction" unicode="&#x2044;" horiz-adv-x="131" 
d="M296 704h45l-496 -749h-45z" />
    <glyph glyph-name="Euro" unicode="&#x20ac;" horiz-adv-x="549" 
d="M210 561q-58 -59 -65 -191h216l-20 -60h-197q6 -139 64.5 -199.5t151.5 -60.5q33 0 69.5 9.5t65.5 24.5v-66q-28 -12 -67 -20.5t-72 -8.5q-138 0 -212.5 88.5t-80.5 232.5h-73v60h74q9 138 81.5 224.5t207.5 86.5q35 0 74.5 -8t67.5 -21v-66q-29 16 -66 25t-71 9
q-90 0 -148 -59z" />
    <glyph glyph-name="trademark" unicode="&#x2122;" horiz-adv-x="694" 
d="M3 668h263v-38h-103v-297h-58v297h-102v38zM641 668v-335h-56v300l-89 -300h-35l-93 296v-296h-54v335h93l72 -239l70 239h92z" />
    <glyph glyph-name="uni2126" unicode="&#x2126;" horiz-adv-x="729" 
d="M60 66h161v2q-151 153 -151 318q0 145 80 221t214 76t214.5 -76t80.5 -221q0 -165 -151 -318v-2h161v-66h-248v68q160 166 160 322q0 73 -29 124.5t-78 78t-110 26.5t-109.5 -26.5t-77 -78t-28.5 -124.5q0 -157 159 -322v-68h-248v66z" />
    <glyph glyph-name="estimated" unicode="&#x212e;" horiz-adv-x="776" 
d="M214.5 33q-79.5 41 -127 118.5t-47.5 181.5t45 181t124 118.5t179 41.5q99 0 176.5 -38.5t123.5 -118.5t48 -199h-555v-197q41 -43 94.5 -67.5t112.5 -24.5q66 0 115.5 25t94.5 77h74q-21 -46 -70 -77.5t-107 -46.5t-107 -15q-94 0 -173.5 41zM601 353v175
q-30 56 -86.5 83t-126.5 27q-61 0 -108 -22.5t-99 -75.5v-187h420z" />
    <glyph glyph-name="arrowleft" unicode="&#x2190;" horiz-adv-x="651" 
d="M45 317l239 246l34 -33l-184 -190h472v-47h-472l184 -190l-34 -32z" />
    <glyph glyph-name="arrowup" unicode="&#x2191;" horiz-adv-x="583" 
d="M268 511l-190 -184l-33 34l247 239l246 -239l-29 -34l-194 184v-472h-47v472z" />
    <glyph glyph-name="arrowright" unicode="&#x2192;" horiz-adv-x="651" 
d="M333 103l185 190h-473v47h473l-185 190l34 33l239 -246l-239 -246z" />
    <glyph glyph-name="arrowdown" unicode="&#x2193;" horiz-adv-x="583" 
d="M45 275l33 34l190 -185v473h47v-473l194 185l29 -34l-246 -239z" />
    <glyph glyph-name="partialdiff" unicode="&#x2202;" horiz-adv-x="552" 
d="M148 17.5q-49 28.5 -76 80.5t-27 121q0 72 27 130t77 91.5t117 33.5q60 0 105 -28t66 -70q-1 60 -32 113.5t-86 89t-124 44.5v64q91 -11 162 -57t110.5 -121t39.5 -171q0 -183 -68 -266t-176 -83q-66 0 -115 28.5zM346 76q36 27 55.5 72t19.5 98q0 48 -22 86.5t-57.5 60
t-74.5 21.5q-72 0 -110 -53.5t-38 -141.5q0 -79 37 -124.5t108 -45.5q46 0 82 27z" />
    <glyph glyph-name="uni2206" unicode="&#x2206;" horiz-adv-x="684" 
d="M318 669h48l273 -669h-594zM541 61l-197 513l-205 -513h402z" />
    <glyph glyph-name="product" unicode="&#x220f;" horiz-adv-x="693" 
d="M105 669h483v-798h-78v745h-326v-745h-79v798z" />
    <glyph glyph-name="summation" unicode="&#x2211;" horiz-adv-x="502" 
d="M45 -49l230 367l-230 317v34h412v-56h-310l214 -295l-212 -343h308v-58h-412v34z" />
    <glyph glyph-name="minus" unicode="&#x2212;" horiz-adv-x="506" 
d="M45 252h416v-46h-416v46z" />
    <glyph glyph-name="radical" unicode="&#x221a;" horiz-adv-x="597" 
d="M116 175l-74 -36l-29 58l140 64l130 -302l209 710h70l-244 -821h-57z" />
    <glyph glyph-name="infinity" unicode="&#x221e;" horiz-adv-x="740" 
d="M126 88q-37 22 -59 59t-22 81t22 81t59 59t81 22q58 0 95 -30t68 -84q32 52 70.5 83t92.5 31q44 0 81 -22t59 -59t22 -81t-21.5 -81t-59 -59t-81.5 -22q-54 0 -92.5 30.5t-70.5 82.5q-32 -54 -68.5 -83.5t-94.5 -29.5q-44 0 -81 22zM282 143q29 29 61 85q-30 55 -60 84.5
t-76 29.5q-47 0 -80.5 -33.5t-33.5 -80.5t33.5 -80.5t80.5 -33.5q46 0 75 29zM614 147.5q33 33.5 33 80.5t-33.5 80.5t-80.5 33.5q-46 0 -76 -29.5t-60 -84.5q30 -55 60 -84.5t76 -29.5q48 0 81 33.5z" />
    <glyph glyph-name="integral" unicode="&#x222b;" horiz-adv-x="404" 
d="M213 -116.5q-35 34.5 -35 83.5v593q0 30 -20.5 53t-49.5 23q-30 0 -54 -24l-31 33q37 37 85 37q49 0 83.5 -34.5t34.5 -82.5v-594q0 -30 21 -53t50 -23q13 0 28 7t26 18l30 -34q-37 -37 -84 -37q-49 0 -84 34.5z" />
    <glyph glyph-name="approxequal" unicode="&#x2248;" 
d="M336 275l-36 17q-66 30 -107 30q-30 0 -57 -10t-60 -45l-31 31q35 42 72.5 56t74.5 14q29 0 57 -7.5t85 -32.5l41 -18q35 -15 51 -20t31 -5q28 0 56.5 17t63.5 55l31 -33q-40 -46 -76.5 -65.5t-77.5 -19.5t-118 36zM405 115.5q-28 7.5 -85 32.5l-41 18q-35 15 -51 20
t-31 5q-28 0 -56.5 -17t-63.5 -55l-31 33q40 46 76.5 65.5t77.5 19.5t118 -36l36 -17q66 -30 107 -30q30 0 57 10t60 45l31 -31q-35 -42 -72.5 -56t-74.5 -14q-29 0 -57 7.5z" />
    <glyph glyph-name="notequal" unicode="&#x2260;" horiz-adv-x="506" 
d="M70 82l64 64h-89v47h137l72 73h-209v46h256l100 99l33 -33l-65 -66h92v-46h-139l-74 -74h213v-46h-259l-98 -98z" />
    <glyph glyph-name="lessequal" unicode="&#x2264;" horiz-adv-x="427" 
d="M62 313q-17 11 -17 28q0 16 18 28l293 177l26 -42l-274 -163l273 -165l-26 -42zM46 99h330v-46h-330v46z" />
    <glyph glyph-name="greaterequal" unicode="&#x2265;" horiz-adv-x="427" 
d="M47 176l273 165l-275 163l26 42l294 -177q17 -11 17 -28t-17 -28l-292 -179zM51 99h331v-46h-331v46z" />
    <glyph glyph-name="lozenge" unicode="&#x25ca;" horiz-adv-x="561" 
d="M45 322v25l223 336h25l223 -336v-25l-223 -336h-25zM466 335l-185 282l-186 -282l186 -283z" />
    <glyph glyph-name="uniF8FF" unicode="&#xf8ff;" horiz-adv-x="713" 
d="M317 25q3 23 11 42.5t23 27.5q19 11 25 21t10 32q-35 26 -35 61q0 20 15.5 35.5t36.5 15.5q10 0 17.5 -4.5t7.5 -14.5q0 -3 -3 -7t-6 -4q-2 0 -7 4.5t-8 4.5q-8 0 -17.5 -6t-9.5 -24q0 -14 10 -27t24 -13q6 0 13.5 3t14.5 3q8 0 21 -8q16 -8 29.5 -12.5t31.5 -4.5
q14 0 20.5 8.5t12.5 26.5q2 4 5 12t7 14q3 4 9 9.5t10 11.5t4 13q0 9 -4 19t-12 10q-2 0 -5.5 -2.5t-3.5 -5.5t4.5 -8t4.5 -9t-3 -7t-7 -3q-3 0 -6 3q-5 5 -11.5 23.5t-10.5 33t-6 21.5q1 -4 -10 36q-15 47 -29.5 80t-30.5 33q-11 0 -24 -40t-32 -114q-46 -23 -90 -23
q-34 0 -46.5 40t-12.5 96h-5l-9 17q-30 12 -73 23.5t-81 11.5q-23 0 -31 -18t-11 -50q-1 -16 -14 -16q-15 0 -15 26q0 37 17.5 64t52.5 27q37 0 81.5 -11.5t100.5 -30.5q76 14 160 34.5t151 44.5q-64 37 -115 62.5t-66 25.5q-11 0 -16.5 -12.5t-6.5 -27.5q0 -6 -3.5 -9
t-8.5 -3q-6 0 -10 3.5t-4 9.5q0 30 14.5 50t34.5 20q18 0 82.5 -32.5t145.5 -79.5v-28l-6 -4l1 -43q0 -55 -19.5 -82t-55.5 -43l24 -54q19 -13 28 -24.5t9 -31.5q0 -14 -5 -23t-12.5 -16.5l-9.5 -9.5q33 -33 76 -53q14 -6 24.5 -17t13.5 -23q5 -27 5 -36l-1 -38l-19 8
l-11 -13v14q0 46 -20 66l-19 7l14 -19l-40 19l11 -38l-43 40l6 -58l-22 27l-12 -29l-14 37l-8 -45l-17 25l-16 -32l-13 39l-22 -38l-4 37l-26 -36l-4 24l-43 -23l9 33q-6 0 -14 -13q-7 -10 -12 -25t-9 -29q-3 -14 -5 -43l-15 14l-14 -17q0 34 2 62zM572.5 405.5
q10.5 10.5 16 30t5.5 57.5q0 15 -1 24q-40 0 -116 -29q7 -2 20 -17t24.5 -38.5t16.5 -50.5q24 13 34.5 23.5zM354.5 327q17.5 6 26.5 8q18 83 42 138q-46 -2 -142 -34v-30q0 -33 9 -60.5t33 -27.5q14 0 31.5 6z" />
    <glyph glyph-name="NULL" horiz-adv-x="0" 
 />
    <glyph glyph-name="f_f.dlig" horiz-adv-x="510" 
d="M149 424h95v-44h-95v-380h-70v351q0 18 -6 24.5t-22 6.5h-26v42h54v94q0 82 33 120t91 38q33 0 65 -12v-52q-27 10 -54 10q-31 0 -48 -22t-17 -75v-101zM428 600q-17 -22 -17 -75v-101h95v-44h-95v-380h-70v349q0 18 -6 24.5t-22 6.5h-65v44h93v94q0 82 33 120t91 38
q34 0 65 -12v-52q-27 10 -54 10q-31 0 -48 -22z" />
    <glyph glyph-name="f_t" horiz-adv-x="518" 
d="M166 600q-17 -22 -17 -75v-101h95v-44h-95v-380h-70v351q0 18 -6 24.5t-22 6.5h-26v42h54v94q0 82 33 120t91 38q33 0 65 -12v-52q-27 10 -54 10q-31 0 -48 -22zM486 1q-28 -12 -59 -12q-44 0 -68.5 24t-24.5 72v295h-55v44h55v127h70v-127h77v-44h-77v-274
q0 -35 9 -49.5t34 -14.5q15 0 36 6z" />
    <glyph glyph-name="r_f.dlig" horiz-adv-x="568" 
d="M486 600q-17 -22 -17 -75v-101h95v-44h-95v-380h-70v518q0 82 33 120t91 38q34 0 65 -12v-52q-27 10 -54 10q-31 0 -48 -22zM189.5 420q29.5 19 66.5 19q27 0 45 -6v-59q-24 8 -45 8q-55 0 -83.5 -42.5t-28.5 -123.5v-216h-70v424h70v-57q16 34 45.5 53z" />
    <glyph glyph-name="r_t.dlig" horiz-adv-x="582" 
d="M550 1q-28 -12 -59 -12q-44 0 -68.5 24t-24.5 72v466h70v-127h77v-44h-77v-274q0 -35 9 -49.5t34 -14.5q15 0 36 6zM189.5 420q29.5 19 66.5 19q27 0 45 -6v-59q-24 8 -45 8q-55 0 -83.5 -42.5t-28.5 -123.5v-216h-70v424h70v-57q16 34 45.5 53z" />
    <glyph glyph-name="t_t" horiz-adv-x="540" 
d="M238 1q-28 -12 -59 -12q-44 0 -68.5 24t-24.5 72v295h-55v44h55v127h70v-127h77v-44h-77v-274q0 -35 9 -49.5t34 -14.5q15 0 36 6zM508 1q-28 -12 -59 -12q-44 0 -68.5 24t-24.5 72v295h-55v44h55v127h70v-127h77v-44h-77v-274q0 -35 9 -49.5t34 -14.5q15 0 36 6z" />
    <glyph glyph-name="zero.lf" horiz-adv-x="572" 
d="M120 85q-55 98 -55 250q0 154 55.5 250.5t165.5 96.5q107 0 164 -94.5t57 -253.5q0 -152 -55.5 -249.5t-165.5 -97.5q-111 0 -166 98zM394 125q38 74 38 209q0 131 -36.5 207.5t-112.5 76.5q-72 0 -108 -74t-36 -210q0 -150 39.5 -216.5t104.5 -66.5q73 0 111 74z" />
    <glyph glyph-name="zero.tf" horiz-adv-x="475" 
d="M84.5 77q-50.5 90 -50.5 230q0 142 51.5 230.5t151.5 88.5q99 0 151.5 -87t52.5 -233q0 -140 -51 -229.5t-153 -89.5t-152.5 90zM365 306q0 260 -130 260t-130 -260q0 -258 130 -258t130 258z" />
    <glyph glyph-name="one.lf" horiz-adv-x="304" 
d="M131 604l-141 -7v43l213 31v-670h-72v603z" />
    <glyph glyph-name="one.tf" horiz-adv-x="475" 
d="M229 555l-130 -7v43l203 28v-618h-73v554z" />
    <glyph glyph-name="two.lf" horiz-adv-x="473" 
d="M30 72l17 17q118 116 173 175.5t85.5 114t30.5 109.5q0 66 -36 100t-92 34q-36 0 -77 -10t-80 -32v65q80 37 160 37q89 0 143.5 -51.5t54.5 -141.5q0 -65 -39.5 -134.5t-96 -132t-153.5 -158.5h308v-64h-398v72z" />
    <glyph glyph-name="two.tf" horiz-adv-x="475" 
d="M46 66q109 107 163.5 167.5t83.5 113t29 105.5q0 59 -32.5 88.5t-84.5 29.5q-64 0 -137 -40v66q74 34 147 34q82 0 132 -47t50 -130q0 -60 -35.5 -124t-88.5 -123.5t-137 -142.5h279v-63h-369v66z" />
    <glyph glyph-name="three.lf" horiz-adv-x="494" 
d="M38 25v70q38 -21 78.5 -32t74.5 -11q52 0 91.5 18.5t60.5 50.5t21 72q0 60 -53 98t-137 41h-8v62h8q42 0 79.5 16.5t60.5 45.5t23 64q0 27 -16 50.5t-47 38.5t-72 15q-75 0 -157 -43v62q81 39 167 39q96 0 143.5 -46t47.5 -112q0 -52 -31.5 -98t-78.5 -61
q66 -13 103.5 -62.5t37.5 -113.5q1 -52 -25 -97t-77.5 -73t-125.5 -28q-84 0 -168 34z" />
    <glyph glyph-name="three.tf" horiz-adv-x="475" 
d="M53 22v70q35 -19 72 -29t69 -10q72 0 110.5 34t38.5 90t-44.5 91t-120.5 38h-7v57h7q59 1 99.5 33.5t40.5 82.5q0 38 -29 63t-85 25q-73 0 -145 -38v63q75 36 154 36q88 0 132 -42.5t44 -103.5q0 -48 -29 -90.5t-72 -55.5q60 -12 94.5 -57.5t34.5 -105.5
q1 -48 -22.5 -89.5t-71 -67t-115.5 -25.5q-77 0 -155 31z" />
    <glyph glyph-name="four.lf" horiz-adv-x="538" 
d="M369 170l-334 1v38l184 461h73l-182 -443h259v247l74 29v-503h-74v170z" />
    <glyph glyph-name="four.tf" horiz-adv-x="475" 
d="M335 156l-307 1v35l168 425h73l-162 -402h228v221l71 27v-463h-71v156z" />
    <glyph glyph-name="five.lf" horiz-adv-x="498" 
d="M55 20v73q90 -41 151 -41q88 0 131 47t43 114q0 63 -42.5 107.5t-121.5 44.5q-59 2 -125 -25l-32 21l35 309h337v-63l-277 1l-22 -194q48 13 100 13q64 0 114.5 -28t78.5 -76.5t28 -107.5q0 -69 -29.5 -120.5t-83 -79.5t-123.5 -28q-85 0 -162 33z" />
    <glyph glyph-name="five.tf" horiz-adv-x="475" 
d="M57 17v70q80 -37 139 -37q51 0 85.5 21t51.5 54t17 70q0 59 -37.5 99.5t-110.5 40.5q-50 2 -112 -23l-29 19l32 285h310v-62l-248 1l-20 -175q46 12 85 12q59 0 105 -26t72 -70.5t26 -98.5q0 -64 -27 -111.5t-76.5 -73t-113.5 -25.5q-79 0 -149 30z" />
    <glyph glyph-name="six.lf" horiz-adv-x="509" 
d="M103 66q-53 79 -53 200q0 106 37.5 195.5t112 148t181.5 71.5v-62q-98 -12 -166 -81t-89 -174q22 35 64.5 55t84.5 20q56 0 100 -28t69 -79.5t25 -117.5q0 -58 -24.5 -110t-71 -84.5t-110.5 -32.5q-107 0 -160 79zM334 74.5q30 24.5 46 63.5t16 81q0 50 -20 86t-51 54.5
t-65 18.5q-35 0 -65.5 -19t-49.5 -56t-19 -88q0 -72 37 -118.5t100 -46.5q41 0 71 24.5z" />
    <glyph glyph-name="six.tf" horiz-adv-x="475" 
d="M95.5 59q-48.5 72 -48.5 184q0 98 35 184.5t103.5 144t166.5 69.5v-65q-90 -11 -151 -78t-74 -164q19 32 54.5 50.5t72.5 18.5q51 0 91.5 -26t63.5 -73t23 -108q0 -53 -22.5 -101.5t-65.5 -78t-101 -29.5q-99 0 -147.5 72zM307 67.5q27 22.5 40.5 58t13.5 74.5
q-1 63 -31 105.5t-87 42.5q-53 0 -87.5 -44t-34.5 -105q0 -38 14.5 -73.5t42 -58t65.5 -22.5q37 0 64 22.5z" />
    <glyph glyph-name="seven.lf" horiz-adv-x="418" 
d="M312 605h-312l3 65h390v-37l-243 -632h-82z" />
    <glyph glyph-name="seven.tf" horiz-adv-x="475" 
d="M331 553h-279l3 63h359v-34l-224 -581h-81z" />
    <glyph glyph-name="eight.lf" horiz-adv-x="505" 
d="M100.5 36.5q-60.5 49.5 -60.5 137.5q0 66 41 116t109 74q-53 26 -85.5 68.5t-32.5 91.5q0 48 25 84t67.5 55t92.5 19t92.5 -19t68 -55t25.5 -84q0 -57 -33.5 -95.5t-94.5 -66.5q150 -66 150 -192q0 -52 -27 -94t-74.5 -65.5t-106.5 -23.5q-96 0 -156.5 49.5zM343.5 443
q26.5 28 26.5 72q0 56 -30 85t-81 29q-49 0 -81.5 -29t-32.5 -82q0 -41 32.5 -73t86.5 -53q53 23 79.5 51zM349.5 79.5q38.5 34.5 38.5 96.5q0 57 -41 93t-106 60q-57 -20 -91.5 -57t-34.5 -89q0 -66 41.5 -102t99.5 -36q55 0 93.5 34.5z" />
    <glyph glyph-name="eight.tf" horiz-adv-x="475" 
d="M98.5 32.5q-56.5 45.5 -56.5 126.5q0 61 38 106.5t100 68.5q-49 23 -79 62.5t-30 85.5t24.5 79t63.5 49.5t83 16.5q45 0 84 -16.5t63 -49.5t24 -79q0 -52 -31 -88.5t-87 -61.5q138 -60 138 -177q0 -48 -25 -86t-68.5 -60t-97.5 -22q-87 0 -143.5 45.5zM321 406
q25 27 25 68q0 47 -30 74t-74 27q-43 0 -70.5 -26.5t-27.5 -72.5q0 -38 28 -68.5t76 -48.5q48 20 73 47zM325 73.5q32 32.5 32 87.5q0 52 -36.5 87t-93.5 56q-51 -18 -81 -53t-30 -84q0 -58 36.5 -92t87.5 -34q53 0 85 32.5z" />
    <glyph glyph-name="nine.lf" horiz-adv-x="511" 
d="M127 42q100 13 169 85.5t84 180.5q-21 -35 -63.5 -55t-85.5 -20q-55 0 -98.5 28.5t-68 79.5t-24.5 117q0 58 24.5 109t71.5 83t111 32q108 0 161 -77.5t53 -196.5q0 -108 -37.5 -203t-113 -157.5t-183.5 -72.5v67zM317 313.5q32 22.5 51 60t19 80.5q0 41 -17.5 80.5
t-49.5 64.5t-73 25t-72 -25t-47 -64.5t-16 -81.5q0 -68 35.5 -115t99.5 -47q38 0 70 22.5z" />
    <glyph glyph-name="nine.tf" horiz-adv-x="475" 
d="M118 40q93 12 153.5 72.5t73.5 158.5q-18 -28 -54.5 -42.5t-76.5 -14.5q-50 0 -90.5 26.5t-63 73.5t-22.5 107q0 53 22.5 100.5t65.5 76.5t102 29q99 0 148 -71t49 -180q0 -100 -34.5 -188t-103.5 -146t-169 -67v65zM291 288.5q28 20.5 44 55t16 73.5q0 38 -14.5 73
t-42.5 57.5t-66 22.5q-56 0 -88 -46t-32 -107q0 -64 31 -106.5t89 -42.5q35 0 63 20.5z" />
    <glyph glyph-name="zero.subs" horiz-adv-x="355" 
d="M68 -161.5q-36 64.5 -36 164.5q0 102 37 165t108 63t108.5 -62t37.5 -167q0 -100 -36.5 -164t-109.5 -64t-109 64.5zM238 -126q20 44 20 128q0 83 -18.5 129t-64.5 46q-80 0 -80 -175q0 -172 80 -172q43 0 63 44z" />
    <glyph glyph-name="one.subs" horiz-adv-x="199" 
d="M83 178l-89 -4v31l155 19v-442h-66v396z" />
    <glyph glyph-name="two.subs" horiz-adv-x="301" 
d="M18 -168q74 73 112 115.5t57 79t19 73.5q0 39 -19 58.5t-55 19.5q-48 0 -98 -28v58q53 24 105 24q59 0 94.5 -34t35.5 -93q0 -64 -41.5 -126.5t-122.5 -141.5h176v-55h-263v50z" />
    <glyph glyph-name="three.subs" horiz-adv-x="293" 
d="M12 -204v59q52 -28 101 -28q46 0 71.5 20t25.5 59q0 85 -109 89h-4v47h4q41 0 65.5 22.5t24.5 59.5q0 25 -19 40t-52 15q-50 0 -103 -28v54q53 26 109 26q62 0 94.5 -30t32.5 -71q0 -36 -21 -67.5t-52 -41.5q43 -8 68 -40.5t25 -75.5q0 -54 -39.5 -92.5t-113.5 -38.5
q-50 0 -108 22z" />
    <glyph glyph-name="four.subs" horiz-adv-x="348" 
d="M241 -112l-226 1v31l127 302h61l-119 -281h157v152l62 19v-330h-62v106z" />
    <glyph glyph-name="five.subs" horiz-adv-x="319" 
d="M29 -204v57q67 -25 103 -25q44 0 71 28.5t27 67.5q0 91 -94 91q-17 0 -34.5 -5t-45.5 -15l-26 26l24 203h226v-54l-170 1l-14 -115q15 6 26 7.5t27 1.5q67 0 106.5 -40t39.5 -100q0 -69 -43 -110t-113 -41q-54 0 -110 22z" />
    <glyph glyph-name="six.subs" horiz-adv-x="346" 
d="M69.5 -171q-37.5 53 -37.5 135q0 69 27 129.5t78 101.5t122 50v-53q-41 -3 -77 -30.5t-59 -64t-27 -65.5q13 21 39 31.5t55 10.5q55 0 90.5 -41.5t35.5 -106.5q0 -38 -16 -72.5t-46.5 -56t-72.5 -21.5q-74 0 -111.5 53zM236.5 -144.5q20.5 31.5 20.5 72.5q0 42 -20 70.5
t-60 28.5q-38 0 -59 -30t-21 -73q0 -38 23 -69t59 -31q37 0 57.5 31.5z" />
    <glyph glyph-name="seven.subs" horiz-adv-x="277" 
d="M197 169h-200l3 54h272v-26l-164 -414h-78z" />
    <glyph glyph-name="eight.subs" horiz-adv-x="328" 
d="M61.5 -193q-41.5 33 -41.5 91q0 44 27 75.5t74 47.5q-36 17 -57.5 45t-21.5 60q0 49 36 77t90 28q53 0 89.5 -28t36.5 -77q0 -36 -22 -62t-64 -44q45 -19 72.5 -48t27.5 -78q0 -52 -40 -86t-100 -34q-65 0 -106.5 33zM218 79.5q16 16.5 16 40.5q0 30 -19.5 47.5
t-45.5 17.5t-44.5 -17t-18.5 -47q0 -23 18 -41t48 -29q30 12 46 28.5zM218.5 -153.5q20.5 21.5 20.5 54.5q0 32 -23 54t-58 34q-32 -10 -51.5 -32t-19.5 -52q0 -35 23.5 -57.5t55.5 -22.5t52.5 21.5z" />
    <glyph glyph-name="nine.subs" horiz-adv-x="342" 
d="M89 -183q58 6 100 49t60 110q-12 -23 -36.5 -33t-53.5 -10q-57 0 -93 42t-36 109q0 38 16.5 71.5t48 54.5t74.5 21q71 0 106 -51t35 -128q0 -72 -24.5 -135.5t-74.5 -105t-122 -48.5v54zM225.5 10q22.5 30 22.5 70q0 38 -21.5 69.5t-57.5 31.5q-37 0 -57.5 -30.5
t-20.5 -69.5q0 -42 20 -71.5t58 -29.5q34 0 56.5 30z" />
    <glyph glyph-name="zero.dnom" horiz-adv-x="324" 
d="M60 48q-33 55 -33 142q0 84 34.5 136.5t99.5 52.5q66 0 101 -52.5t35 -141.5q0 -84 -34 -138t-102 -54t-101 55zM214.5 81q18.5 39 18.5 104q0 64 -17.5 105t-56.5 41q-35 0 -52.5 -41t-17.5 -109t20 -103.5t50 -35.5q37 0 55.5 39z" />
    <glyph glyph-name="one.dnom" horiz-adv-x="177" 
d="M67 325l-78 -3v33l143 17v-374h-65v327z" />
    <glyph glyph-name="two.dnom" horiz-adv-x="281" 
d="M13 40q99 84 137.5 131t38.5 92q0 32 -17.5 50t-45.5 18q-47 0 -98 -25v52q58 22 105 22q55 0 88.5 -28t33.5 -77q0 -54 -36.5 -108t-107.5 -115h155v-53h-253v41z" />
    <glyph glyph-name="three.dnom" horiz-adv-x="263" 
d="M7 8v59q47 -24 96 -24q36 0 58 15t22 45q0 28 -23 48t-71 22h-4v47h4q37 0 57 17t20 39q0 24 -17.5 35.5t-45.5 11.5q-45 0 -93 -23v54q49 23 101 23q58 0 88 -26t30 -61q0 -33 -19 -58.5t-49 -32.5q40 -7 63.5 -35t23.5 -64q0 -48 -36.5 -79t-104.5 -31q-46 0 -100 18z
" />
    <glyph glyph-name="four.dnom" horiz-adv-x="300" 
d="M198 90h-188v27l116 257h63l-109 -240h118v130l62 17v-282h-62v91z" />
    <glyph glyph-name="five.dnom" horiz-adv-x="279" 
d="M24 13v54q49 -21 90 -21t63 21t22 54t-20.5 51.5t-59.5 18.5q-27 0 -72 -16l-23 29l22 169h202v-50l-153 1l-12 -91q24 8 47 8q59 0 94.5 -33.5t35.5 -83.5q0 -57 -39.5 -93.5t-101.5 -36.5q-47 0 -95 19z" />
    <glyph glyph-name="six.dnom" horiz-adv-x="311" 
d="M61.5 33q-34.5 44 -34.5 113q0 60 24 111t71 84t113 41v-52q-38 -3 -69 -22.5t-50 -46.5t-24 -50q22 33 78 33q51 0 83.5 -35.5t32.5 -91.5q0 -32 -14.5 -61.5t-42.5 -48t-66 -18.5q-67 0 -101.5 44zM210.5 59q16.5 23 16.5 56q0 35 -17 59.5t-49 24.5q-33 0 -53 -24.5
t-20 -59.5q0 -33 19.5 -56t55.5 -23q31 0 47.5 23z" />
    <glyph glyph-name="seven.dnom" horiz-adv-x="228" 
d="M160 321h-168l2 51h234v-22l-139 -350h-78z" />
    <glyph glyph-name="eight.dnom" horiz-adv-x="294" 
d="M55 12q-40 28 -40 77q0 38 25 65.5t67 41.5q-32 15 -52 38.5t-20 49.5q0 43 34 67.5t83 24.5t81 -25t32 -69q0 -30 -20 -51t-57 -36q41 -16 66 -41t25 -67q0 -49 -38.5 -76t-91.5 -27q-54 0 -94 28zM195 249q13 14 13 35q0 24 -14.5 38t-41.5 14t-41.5 -13.5t-14.5 -38.5
q0 -20 15.5 -35t43.5 -24q27 10 40 24zM194.5 50q16.5 18 16.5 46q0 25 -20 42t-50 27q-26 -8 -43 -26t-17 -42q0 -29 19.5 -47t49.5 -18q28 0 44.5 18z" />
    <glyph glyph-name="nine.dnom" horiz-adv-x="308" 
d="M79 38q105 9 136 117q-11 -19 -26.5 -23.5t-46.5 -4.5q-52 0 -84.5 36t-32.5 92q0 51 33 88t91 37q67 0 99.5 -43.5t32.5 -111.5q0 -61 -21.5 -114.5t-66.5 -88.5t-114 -40v56zM200 195q18 24 18 58t-16.5 58t-48.5 24q-31 0 -49 -25t-18 -56q0 -34 17 -58.5t50 -24.5
q29 0 47 24z" />
    <glyph glyph-name="zero.numr" horiz-adv-x="324" 
d="M60 344q-33 55 -33 142q0 84 34.5 136.5t99.5 52.5q66 0 101 -52.5t35 -141.5q0 -84 -34 -138t-102 -54t-101 55zM214.5 377q18.5 39 18.5 104q0 64 -17.5 105t-56.5 41q-35 0 -52.5 -41t-17.5 -109t20 -103.5t50 -35.5q37 0 55.5 39z" />
    <glyph glyph-name="one.numr" horiz-adv-x="177" 
d="M67 624l-78 -3v33l143 17v-374h-65v327z" />
    <glyph glyph-name="two.numr" horiz-adv-x="281" 
d="M13 336q99 84 137.5 131t38.5 92q0 32 -17.5 50t-45.5 18q-47 0 -98 -25v52q58 22 105 22q55 0 88.5 -28t33.5 -77q0 -54 -36.5 -108t-107.5 -115h155v-53h-253v41z" />
    <glyph glyph-name="three.numr" horiz-adv-x="263" 
d="M7 307v59q47 -24 96 -24q36 0 58 15t22 45q0 28 -23 48t-71 22h-4v47h4q37 0 57 17t20 39q0 24 -17.5 35.5t-45.5 11.5q-45 0 -93 -23v54q49 23 101 23q58 0 88 -26t30 -61q0 -33 -19 -58.5t-49 -32.5q40 -7 63.5 -35t23.5 -64q0 -48 -36.5 -79t-104.5 -31q-46 0 -100 18
z" />
    <glyph glyph-name="four.numr" horiz-adv-x="300" 
d="M198 385h-188v27l116 257h63l-109 -240h118v130l62 17v-282h-62v91z" />
    <glyph glyph-name="five.numr" horiz-adv-x="279" 
d="M24 309v54q49 -21 90 -21t63 21t22 54t-20.5 51.5t-59.5 18.5q-27 0 -72 -16l-23 29l22 169h202v-50l-153 1l-12 -91q24 8 47 8q59 0 94.5 -33.5t35.5 -83.5q0 -57 -39.5 -93.5t-101.5 -36.5q-47 0 -95 19z" />
    <glyph glyph-name="six.numr" horiz-adv-x="311" 
d="M61.5 333q-34.5 44 -34.5 113q0 60 24 111t71 84t113 41v-52q-38 -3 -69 -22.5t-50 -46.5t-24 -50q22 33 78 33q51 0 83.5 -35.5t32.5 -91.5q0 -32 -14.5 -61.5t-42.5 -48t-66 -18.5q-67 0 -101.5 44zM210.5 359q16.5 23 16.5 56q0 35 -17 59.5t-49 24.5q-33 0 -53 -24.5
t-20 -59.5q0 -33 19.5 -56t55.5 -23q31 0 47.5 23z" />
    <glyph glyph-name="seven.numr" horiz-adv-x="228" 
d="M160 618h-168l2 51h234v-22l-139 -350h-78z" />
    <glyph glyph-name="eight.numr" horiz-adv-x="294" 
d="M55 314q-40 28 -40 77q0 38 25 65.5t67 41.5q-32 15 -52 38.5t-20 49.5q0 43 34 67.5t83 24.5t81 -25t32 -69q0 -30 -20 -51t-57 -36q41 -16 66 -41t25 -67q0 -49 -38.5 -76t-91.5 -27q-54 0 -94 28zM195 551q13 14 13 35q0 24 -14.5 38t-41.5 14t-41.5 -13.5
t-14.5 -38.5q0 -20 15.5 -35t43.5 -24q27 10 40 24zM194.5 352q16.5 18 16.5 46q0 25 -20 42t-50 27q-26 -8 -43 -26t-17 -42q0 -29 19.5 -47t49.5 -18q28 0 44.5 18z" />
    <glyph glyph-name="nine.numr" horiz-adv-x="308" 
d="M79 334q105 9 136 117q-11 -19 -26.5 -23.5t-46.5 -4.5q-52 0 -84.5 36t-32.5 92q0 51 33 88t91 37q67 0 99.5 -43.5t32.5 -111.5q0 -61 -21.5 -114.5t-66.5 -88.5t-114 -40v56zM200 491q18 24 18 58t-16.5 58t-48.5 24q-31 0 -49 -25t-18 -56q0 -34 17 -58.5t50 -24.5
q29 0 47 24z" />
    <glyph glyph-name="period.case" horiz-adv-x="192" 
d="M63.5 4q-13.5 14 -13.5 33t13.5 32.5t32.5 13.5t32.5 -13.5t13.5 -32.5t-13.5 -33t-32.5 -14t-32.5 14z" />
    <glyph glyph-name="periodcentered.case" horiz-adv-x="204" 
d="M65 276.5q-15 15.5 -15 38.5t15 39t37 16q21 0 36.5 -16t15.5 -39q0 -22 -15.5 -38t-36.5 -16q-22 0 -37 15.5z" />
    <glyph glyph-name="bullet.case" horiz-adv-x="300" 
d="M82.5 265q-27.5 29 -27.5 70t27.5 69.5t67.5 28.5q39 0 67 -28.5t28 -69.5t-28 -70t-67 -29q-40 0 -67.5 29z" />
    <glyph glyph-name="parenleft.case" horiz-adv-x="238" 
d="M134 -49.5q-33 59.5 -63 159t-30 217.5t30 217.5t63 159t55 87.5l24 -14q-72 -106 -105 -217t-33 -233q0 -121 33 -232.5t105 -217.5l-24 -14q-22 28 -55 87.5z" />
    <glyph glyph-name="parenright.case" horiz-adv-x="238" 
d="M104 705.5q33 -59.5 63 -159t30 -217.5t-30 -217.5t-63 -159t-55 -87.5l-24 14q72 106 105 217t33 233q0 121 -33 232.5t-105 217.5l24 14q22 -28 55 -87.5z" />
    <glyph glyph-name="braceleft.case" horiz-adv-x="244" 
d="M135 -95q-31 30 -31 98v207q0 49 -18 76t-53 27v31q35 0 53 27t18 76v208q0 67 31 97t80 30h25v-31h-25q-35 0 -57.5 -22.5t-22.5 -73.5v-208q0 -43 -13 -73.5t-36 -44.5q23 -15 36 -46t13 -73v-207q0 -52 22.5 -74.5t57.5 -22.5h25v-31h-25q-49 0 -80 30z" />
    <glyph glyph-name="braceright.case" horiz-adv-x="244" 
d="M4 -94h25q35 0 57.5 22.5t22.5 74.5v207q0 42 13 73t36 46q-23 14 -36 44.5t-13 73.5v208q0 51 -22.5 73.5t-57.5 22.5h-25v31h25q49 0 80 -30t31 -97v-208q0 -49 18 -76t53 -27v-31q-35 0 -53 -27t-18 -76v-207q0 -68 -31 -98t-80 -30h-25v31z" />
    <glyph glyph-name="bracketleft.case" horiz-adv-x="260" 
d="M105 782h125v-26h-94v-856h94v-26h-125v908z" />
    <glyph glyph-name="bracketright.case" horiz-adv-x="260" 
d="M30 -100h93v856h-93v26h125v-908h-125v26z" />
    <glyph glyph-name="hyphen.case" horiz-adv-x="301" 
d="M45 347h211v-63h-211v63z" />
    <glyph glyph-name="endash.case" horiz-adv-x="431" 
d="M45 341h341v-48h-341v48z" />
    <glyph glyph-name="emdash.case" horiz-adv-x="586" 
d="M45 341h496v-48h-496v48z" />
    <glyph glyph-name="guillemotleft.case" horiz-adv-x="382" 
d="M19 315l148 191l25 -19l-134 -172l145 -176l-26 -19zM142 315l148 191l25 -19l-135 -172l146 -176l-26 -19z" />
    <glyph glyph-name="guillemotright.case" horiz-adv-x="382" 
d="M56 139l145 176l-134 172l25 19l148 -191l-158 -195zM179 139l145 176l-135 172l25 19l149 -191l-159 -195z" />
    <glyph glyph-name="guilsinglleft.case" horiz-adv-x="259" 
d="M19 295l148 191l25 -19l-135 -172l146 -176l-26 -19z" />
    <glyph glyph-name="guilsinglright.case" horiz-adv-x="259" 
d="M56 139l145 176l-134 172l25 19l148 -191l-158 -195z" />
    <glyph glyph-name="ampersand.case" horiz-adv-x="617" 
d="M608 367q-5 -30 -20.5 -47.5t-39.5 -28.5q-31 -13 -64 -20q16 -32 16 -83q0 -100 -64.5 -149.5t-163.5 -49.5q-57 0 -109.5 22.5t-85 67.5t-32.5 108q0 65 37.5 115.5t102.5 63.5q-47 15 -78.5 59t-31.5 96q0 67 48 113t144 46q87 0 167 -40v-59q-78 41 -157 41
q-62 0 -95 -27t-33 -68q0 -55 38 -92.5t94 -38.5v-62q-48 0 -84.5 -22t-55.5 -57.5t-19 -74.5q0 -35 19 -65t55 -48t86 -18q62 0 105.5 36.5t43.5 111.5q0 37 -16 63q-42 -11 -74 -30q-48 -30 -61 -66l-32 60q7 15 26 33t38 30q27 17 50.5 23t57.5 10q29 3 50 7.5t45 15.5
q49 23 60 80z" />
    <glyph glyph-name="uni0337.case" horiz-adv-x="0" 
d="M-307 218l262 267v-43l-261 -267z" />
    <glyph glyph-name="uni0338.case" horiz-adv-x="0" 
d="M-615 25l570 657v-43l-570 -657v43z" />
    <glyph glyph-name="acute.case" horiz-adv-x="264" 
d="M219 886v-88l-125 -85h-49z" />
    <glyph glyph-name="breve.case" horiz-adv-x="368" 
d="M88 760.5q-34 37.5 -43 77.5l31 14q15 -33 43 -55.5t65 -22.5t65.5 22.5t44.5 55.5l29 -14q-9 -40 -43 -77.5t-96 -37.5t-96 37.5z" />
    <glyph glyph-name="caron.alt" horiz-adv-x="161" 
d="M52 669h64l-37 -217h-34z" />
    <glyph glyph-name="caron.case" horiz-adv-x="377" 
d="M45 859h49l95 -85l94 85h49l-124 -146h-39z" />
    <glyph glyph-name="cedilla.case" horiz-adv-x="245" 
 />
    <glyph glyph-name="circumflex.case" horiz-adv-x="377" 
d="M169 859h39l124 -146h-49l-94 85l-95 -85h-49z" />
    <glyph glyph-name="dieresis.case" horiz-adv-x="343" 
d="M59 774.5q-14 14.5 -14 34.5t14 34.5t33 14.5t33 -14.5t14 -34.5t-14 -34.5t-33 -14.5t-33 14.5zM218 774.5q-14 14.5 -14 34.5t14 34.5t33 14.5t33 -14.5t14 -34.5t-14 -34.5t-33 -14.5t-33 14.5z" />
    <glyph glyph-name="dotaccent.case" horiz-adv-x="190" 
d="M60 762q-15 15 -15 37t15 36.5t35 14.5q21 0 35.5 -14.5t14.5 -36.5t-15 -37t-35 -15t-35 15z" />
    <glyph glyph-name="grave.case" horiz-adv-x="264" 
d="M45 798v88l174 -173h-49z" />
    <glyph glyph-name="hungarumlaut.case" horiz-adv-x="407" 
d="M218 886v-88l-124 -85h-49zM362 886v-88l-125 -85h-49z" />
    <glyph glyph-name="macron.case" horiz-adv-x="341" 
d="M56 844h240l-11 -53h-240z" />
    <glyph glyph-name="ogonek.case" horiz-adv-x="209" 
d="M63.5 -151.5q-18.5 22.5 -18.5 52.5q0 35 23.5 61t60.5 38h35q-38 -10 -56.5 -27t-18.5 -45q0 -20 12 -36t32 -20l-23 -52q-28 6 -46.5 28.5z" />
    <glyph glyph-name="ring.case" horiz-adv-x="274" 
d="M72 743.5q-27 25.5 -27 62.5q0 36 27 62t65 26t65 -26t27 -62q0 -37 -27 -62.5t-65 -25.5t-65 25.5zM168.5 767q12.5 16 12.5 39t-12.5 39t-31.5 16t-31.5 -16t-12.5 -39t12.5 -39t31.5 -16t31.5 16z" />
    <glyph glyph-name="tilde.case" horiz-adv-x="389" 
d="M45 769q14 33 38.5 53.5t58.5 20.5q19 0 35.5 -6.5t41.5 -19.5q18 -11 31 -16.5t27 -5.5q19 0 33 12.5t20 31.5l14 -31q-32 -66 -94 -66q-18 0 -33.5 5.5t-28 12t-16.5 8.5q-36 21 -57 21q-20 0 -34 -13t-20 -34z" />
    <glyph glyph-name="croat" horiz-adv-x="600" 
 />
    </font>
</defs>
</svg>
