<?xml version="1.0" standalone="no"?>
<!DOCTYPE svg PUBLIC "-//W3C//DTD SVG 1.1//EN" "http://www.w3.org/Graphics/SVG/1.1/DTD/svg11.dtd" >
<svg xmlns="http://www.w3.org/2000/svg" xmlns:xlink="http://www.w3.org/1999/xlink" version="1.1">
<metadata>
Created by FontForge 20170731 at Wed Sep 28 16:36:01 2022
 By Aleksey,,,
Copyright (c) 2018 by Antonio Pace/RML Types. All rights reserved.
</metadata>
<defs>
<font id="LuissSerif-Regular" horiz-adv-x="1273" >
  <font-face 
    font-family="Luiss Serif"
    font-weight="400"
    font-stretch="normal"
    units-per-em="2048"
    panose-1="0 0 0 0 0 0 0 0 0 0"
    ascent="1516"
    descent="-532"
    x-height="868"
    cap-height="1370"
    bbox="-369 -499 1936 1830"
    underline-thickness="51"
    underline-position="-255"
    unicode-range="U+0020-FB02"
  />
<missing-glyph horiz-adv-x="1325" 
d="M1008 104l-345 508l-347 -508h692zM316 1266l347 -508l346 508h-693zM713 685l355 -523v1045zM257 1209v-1046l355 522zM1078 0h-831q-39 0 -66 27.5t-27 65.5v1184q0 38 27 65.5t66 27.5h831q39 0 66 -27.5t27 -65.5v-1184q0 -38 -27 -65.5t-66 -27.5z" />
    <glyph glyph-name="f_f" unicode="ff" horiz-adv-x="1101" 
d="M882 868h159v-40h-159v-714q0 -78 83 -78h70v-36h-415v36h25q83 0 83 78v631q0 44 -24 63.5t-80 19.5v40h104v214q0 84 20.5 144.5t57 92.5t77.5 46t91 14q38 0 83.5 -15.5t69.5 -34.5v-180h-61v23q0 162 -92 162t-92 -162v-304zM339 868h160v-40h-160v-714q0 -78 83 -78
h71v-36h-416v36h25q83 0 83 78v631q0 88 -83 88h-25v35h108v214q0 84 20.5 144.5t57 92.5t77.5 46t91 14q38 0 84.5 -15.5t69.5 -34.5v-180h-62v23q0 162 -92 162t-92 -162v-304z" />
    <glyph glyph-name="fi" unicode="fi" horiz-adv-x="1077" 
d="M631 868v-35h25q53 0 68 -17.5t15 -70.5v-622q0 -52 -15 -69.5t-69 -17.5h-24v-36h369v36h-25q-49 0 -65.5 16t-16.5 71v745h-262zM804 1149q37 0 65 29.5t28 68.5q0 42 -28 73.5t-65 31.5q-39 0 -67 -31.5t-28 -73.5q0 -39 28 -68.5t67 -29.5zM339 868h160v-40h-160
v-714q0 -78 83 -78h71v-36h-416v36h25q83 0 83 78v631q0 88 -83 88h-25v35h108v214q0 84 20.5 144.5t57 92.5t77.5 46t91 14q38 0 84.5 -15.5t69.5 -34.5v-180h-62v23q0 162 -92 162t-92 -162v-304z" />
    <glyph glyph-name="fl" unicode="fl" horiz-adv-x="1073" 
d="M979 -27v42q-40 3 -65.5 46.5t-25.5 123.5v1185h-263v-36h25q54 0 69 -17.5t15 -69.5v-993q0 -150 55.5 -215.5t163.5 -65.5h26zM339 868h160v-40h-160v-714q0 -78 83 -78h71v-36h-416v36h25q83 0 83 78v631q0 88 -83 88h-25v35h108v214q0 84 20.5 144.5t57 92.5t77.5 46
t91 14q38 0 84.5 -15.5t69.5 -34.5v-180h-62v23q0 162 -92 162t-92 -162v-304z" />
    <glyph glyph-name="f_t" unicode="ft" horiz-adv-x="1103" 
d="M1083 106q-20 -68 -70 -105t-118 -37q-93 0 -146.5 57t-53.5 148v664h-163v35h163v300h154v-300h218v-35h-218v-691q0 -47 20.5 -81t61.5 -34q35 0 61.5 22.5t38.5 56.5h52zM339 868h160v-40h-160v-714q0 -78 83 -78h71v-36h-416v36h25q83 0 83 78v631q0 88 -83 88h-25
v35h108v214q0 84 20.5 144.5t57 92.5t77.5 46t91 14q38 0 84.5 -15.5t69.5 -34.5v-180h-62v23q0 162 -92 162t-92 -162v-304z" />
    <glyph glyph-name="t_t" unicode="tt" horiz-adv-x="1098" 
d="M1078 106q-20 -68 -70 -105t-118 -37q-93 0 -146.5 57t-53.5 148v664h-353v-691q0 -47 20.5 -81t61.5 -34q35 0 61.5 22.5t38.5 56.5h52q-20 -68 -70 -105t-118 -37q-93 0 -146.5 57t-53.5 148v664h-163v35h163v300h154v-300h353v300h154v-300h218v-35h-218v-691
q0 -47 20.5 -81t61.5 -34q35 0 61.5 22.5t38.5 56.5h52z" />
    <glyph glyph-name=".notdef" horiz-adv-x="1325" 
d="M1008 104l-345 508l-347 -508h692zM316 1266l347 -508l346 508h-693zM713 685l355 -523v1045zM257 1209v-1046l355 522zM1078 0h-831q-39 0 -66 27.5t-27 65.5v1184q0 38 27 65.5t66 27.5h831q39 0 66 -27.5t27 -65.5v-1184q0 -38 -27 -65.5t-66 -27.5z" />
    <glyph glyph-name=".null" horiz-adv-x="0" 
 />
    <glyph glyph-name="nonmarkingreturn" horiz-adv-x="682" 
 />
    <glyph glyph-name="space" unicode=" " horiz-adv-x="327" 
 />
    <glyph glyph-name="exclam" unicode="!" horiz-adv-x="460" 
d="M260 396h-62q-5 192 -26.5 384.5t-40.5 315.5t-19 158q0 55 30.5 96t85.5 41t86.5 -41t31.5 -96q0 -35 -19 -158t-40.5 -315.5t-26.5 -384.5zM327 75q0 -39 -29 -67t-68 -28t-67 28t-28 67t28 67.5t67 28.5q38 0 67.5 -29t29.5 -67z" />
    <glyph glyph-name="quotedbl" unicode="&#x22;" horiz-adv-x="601" 
d="M115 843h-49q5 74 5 165q0 74 -5 166t-5 109q0 44 25 76t71 32q36 0 55.5 -21t19.5 -51q0 -27 -47.5 -183.5t-69.5 -292.5zM422 843h-49q5 74 5 165q0 74 -4.5 166t-4.5 109q0 44 24.5 76t70.5 32q36 0 56 -21t20 -51q0 -27 -48 -183t-70 -293z" />
    <glyph glyph-name="numbersign" unicode="#" horiz-adv-x="1100" 
d="M116 877l9 63h257l55 371h70l-55 -371h290l56 371h69l-55 -371h238l-10 -63h-238l-57 -377h240l-9 -64h-240l-55 -370h-70l56 370h-291l-55 -370h-70l55 370h-255l9 64h255l57 377h-256zM441 877l-56 -377h291l56 377h-291z" />
    <glyph glyph-name="dollar" unicode="$" horiz-adv-x="1094" 
d="M477 1361h100v33q156 -11 308 -105v-314h-59q0 180 -79.5 270t-220.5 90q-108 0 -182 -77t-74 -188q0 -78 43 -136.5t121 -89.5l199 -78q80 -31 137.5 -64t107 -78.5t74.5 -106.5t25 -137q0 -184 -110.5 -288t-289.5 -116v41h-100v-41q-178 12 -351 122v381h54
q0 -437 362 -437q119 0 191.5 76t72.5 197q0 99 -51 163t-166 108l-213 83q-120 46 -189 133t-69 204q0 160 102.5 264.5t256.5 122.5v-32zM477 1393v348l100 -97v-250q-30 2 -46 2q-29 0 -54 -3zM577 -289h-100v265q32 -2 52 -2q18 0 48 2v-265z" />
    <glyph glyph-name="percent" unicode="%" horiz-adv-x="1363" 
d="M199 -91h-72l1015 1532h71zM1192 378q0 135 -14.5 211.5t-43 106.5t-76.5 30q-72 0 -102.5 -74.5t-30.5 -273.5t30.5 -273.5t102.5 -74.5q48 0 76.5 29.5t43 106t14.5 212.5zM1058 769q81 0 140 -55t87 -142t28 -194q0 -167 -67 -279.5t-188 -112.5q-81 0 -140 55
t-86.5 142t-27.5 195q0 165 67 278t187 113zM439 999q0 135 -14.5 212t-43 107t-76.5 30t-76 -30t-42.5 -107t-14.5 -212q0 -199 30.5 -273.5t102.5 -74.5q48 0 76.5 29.5t43 106t14.5 212.5zM305 1391q81 0 140 -55.5t87 -142.5t28 -194q0 -167 -67 -279.5t-188 -112.5
q-81 0 -140 55t-86.5 142t-27.5 195q0 107 27.5 194t86.5 142.5t140 55.5z" />
    <glyph glyph-name="ampersand" unicode="&#x26;" horiz-adv-x="1170" 
d="M1100 851l52 -53q0 -43 -15.5 -88t-45.5 -85.5t-83.5 -66.5t-121.5 -26h-30q69 -92 69 -214q0 -143 -101.5 -242.5t-291.5 -99.5q-203 0 -329.5 96.5t-126.5 281.5q0 144 100.5 243.5t251.5 112.5q-122 11 -203 83.5t-81 197.5q0 76 31 134t84.5 92t119 50.5t141.5 16.5
q74 0 157.5 -30.5t131.5 -68.5v-277h-51q0 61 -10 114t-34 102.5t-71 78.5t-114 29q-97 0 -161 -65t-64 -165q0 -118 72.5 -193t194.5 -75v-47q-147 0 -235 -91t-88 -229q0 -83 35.5 -159t105 -126.5t157.5 -50.5q82 0 146 26t101 68.5t55.5 92.5t18.5 104q0 91 -47.5 152.5
t-136.5 61.5q-45 0 -87.5 -13t-79.5 -44t-47 -76l-28 41q18 56 64.5 95t105.5 59t126.5 34t131.5 28t116 34.5t83.5 59.5t31.5 97z" />
    <glyph glyph-name="quotesingle" unicode="'" horiz-adv-x="293" 
d="M115 843h-49q5 74 5 165q0 74 -5 166t-5 109q0 44 25 76t71 32q36 0 55.5 -21t19.5 -51q0 -27 -47.5 -183.5t-69.5 -292.5z" />
    <glyph glyph-name="parenleft" unicode="(" horiz-adv-x="508" 
d="M451 -457l-51 -27q-19 24 -45.5 64t-75.5 134t-86.5 197t-66.5 252.5t-29 301.5t29 302t66.5 252t86.5 197t75 133.5t46 64.5l51 -29q-284 -413 -284 -920q0 -509 284 -922z" />
    <glyph glyph-name="parenright" unicode=")" horiz-adv-x="508" 
d="M76 -484l-50 27q283 412 283 922q0 508 -283 920l50 29q20 -26 46 -64.5t75 -133.5t86.5 -197t66.5 -252t29 -302t-29 -301.5t-66.5 -252.5t-86.5 -197t-75.5 -134t-45.5 -64z" />
    <glyph glyph-name="asterisk" unicode="*" horiz-adv-x="718" 
d="M41 1153q0 36 25 62.5t62 26.5q29 0 49 -9.5t34.5 -26t29 -34t40.5 -37t61 -32.5q-4 53 -22 91t-33 65.5t-15 59.5q0 34 22 62.5t65 28.5t65 -28.5t22 -62.5q0 -32 -15.5 -59.5t-33.5 -65t-22 -90.5q36 12 63 31t42 37t29.5 34t34 26t46.5 10q36 0 62 -26t26 -63
t-32.5 -63t-72.5 -26q-16 0 -52.5 8t-63.5 8q-28 0 -70 -9q35 -40 71 -60.5t64.5 -34t47.5 -38.5q19 -27 19 -57q0 -33 -25.5 -59t-59.5 -26q-45 0 -74 40q-19 26 -23 57t-12 72t-36 87q-28 -46 -36 -87t-11.5 -72.5t-21.5 -56.5q-31 -39 -74 -39q-34 0 -60 24.5t-26 59.5
q0 31 18 58q19 25 47.5 38.5t65 33.5t71.5 60q-42 9 -71 9q-27 0 -64 -7.5t-53 -7.5q-39 0 -71 24.5t-32 63.5z" />
    <glyph glyph-name="plus" unicode="+" horiz-adv-x="1081" 
d="M102 429v80h400v398h81v-399h396v-81h-398v-396h-81v398h-398z" />
    <glyph glyph-name="comma" unicode="," horiz-adv-x="453" 
d="M367 -14q0 -112 -75.5 -210t-175.5 -140l-22 39q97 45 160.5 131t63.5 186q0 52 -25 90q0 -48 -26.5 -74t-63.5 -26q-39 0 -69.5 26.5t-30.5 73.5q0 43 33 74t77 31q69 0 111.5 -57.5t42.5 -143.5z" />
    <glyph glyph-name="hyphen" unicode="-" horiz-adv-x="688" 
d="M128 415v130h432v-130h-432z" />
    <glyph glyph-name="period" unicode="." horiz-adv-x="433" 
d="M326 91q0 -45 -32 -78t-75 -33q-44 0 -75.5 32.5t-31.5 78.5t31.5 79t75.5 33q43 0 75 -33t32 -79z" />
    <glyph glyph-name="slash" unicode="/" horiz-adv-x="815" 
d="M154 -91h-72l580 1532h71z" />
    <glyph glyph-name="zero" unicode="0" horiz-adv-x="1026" 
d="M751 630q0 233 -26 365t-76 183t-136 51t-136.5 -51t-77 -183t-26.5 -365t26.5 -364.5t77 -182t136.5 -50.5t136 50.5t76 182t26 364.5zM513 1284q133 0 229.5 -92t142.5 -237.5t46 -324.5q0 -178 -46 -324t-142.5 -238t-229.5 -92t-230 92t-143 238t-46 324
q0 179 46 324.5t143 237.5t230 92z" />
    <glyph glyph-name="one" unicode="1" horiz-adv-x="676" 
d="M131 0v42h23q72 1 101.5 16.5t29.5 65.5v1036q0 30 -30 30h-183v42q72 4 167 11t154 13l59 5v-1137q0 -49 27 -65.5t90 -16.5h36v-42h-474z" />
    <glyph glyph-name="two" unicode="2" horiz-adv-x="912" 
d="M141 897v289q82 49 152.5 73.5t160.5 24.5q163 0 271 -89t108 -253q0 -77 -24 -151.5t-68.5 -143.5t-93 -125.5t-113.5 -119.5q-51 -50 -103.5 -95.5t-124 -103.5t-75.5 -61h535l46 229h48l-36 -371h-739l27 119q14 14 85 84t100 100t79.5 85.5t88.5 104.5
q184 240 184 479q0 71 -17.5 126.5t-66.5 94.5t-126 39q-242 0 -246 -335h-52z" />
    <glyph glyph-name="three" unicode="3" horiz-adv-x="985" 
d="M285 663v45q99 2 164 15q103 22 159 93t56 179q0 100 -58 168.5t-159 68.5q-69 0 -119 -27.5t-78 -76.5t-41 -106t-15 -126h-52v289q166 98 325 98q71 0 133.5 -15.5t116.5 -47.5t85.5 -89.5t31.5 -134.5q0 -136 -91.5 -216t-235.5 -91q79 -5 145 -28t118.5 -64.5
t82 -107.5t29.5 -150q0 -180 -117.5 -271.5t-305.5 -91.5q-189 0 -345 98v288h50q0 -149 73.5 -239.5t211.5 -90.5q123 0 188.5 91t65.5 223q0 129 -61.5 210.5t-192.5 98.5q-59 8 -164 8z" />
    <glyph glyph-name="four" unicode="4" horiz-adv-x="965" 
d="M624 892l157 52v-820q0 -51 29 -66.5t101 -15.5v-42h-440v42h23q73 0 101.5 15.5t28.5 66.5v215q0 13 -7.5 20.5t-19.5 7.5h-540v92l437 802h61l-394 -752h463v383z" />
    <glyph glyph-name="five" unicode="5" horiz-adv-x="955" 
d="M104 362h51q0 -148 72 -239.5t208 -91.5q69 0 119 27t77.5 75.5t40 105.5t12.5 126q0 66 -12 126.5t-39 118.5t-81 93t-128 35q-139 0 -262 -125l-53 35l68 613h635l-12 -143h-570l-51 -418q52 50 129.5 77.5t162.5 27.5q181 0 280.5 -108t99.5 -297q0 -196 -108.5 -310
t-308.5 -114q-172 0 -330 98v288z" />
    <glyph glyph-name="six" unicode="6" horiz-adv-x="955" 
d="M500 30q51 0 90.5 26.5t62 66t36.5 93t19 100.5t5 95q0 44 -4.5 86.5t-18.5 91.5t-36.5 85t-62 60t-90.5 24q-48 0 -87.5 -22t-64.5 -56.5t-42.5 -80t-24.5 -90.5t-7 -90q0 -40 6.5 -87t23 -102t41 -98.5t64.5 -72.5t90 -29zM535 824q106 0 186 -60.5t119.5 -155
t39.5 -206.5q0 -184 -106 -305t-288 -121q-86 0 -153 30.5t-109.5 80.5t-70 120t-38.5 143t-11 156q0 150 48 283.5t133 233.5t199 172t247 107l14 -46q-216 -65 -336 -215t-134 -377q31 73 103 116.5t157 43.5z" />
    <glyph glyph-name="seven" unicode="7" horiz-adv-x="770" 
d="M237 1h-157l536 1117h-597l34 143h699v-33z" />
    <glyph glyph-name="eight" unicode="8" horiz-adv-x="1018" 
d="M753 288q0 61 -24 113.5t-68.5 92.5t-89.5 68t-103 54q-23 9 -35 9q-20 0 -41 -16q-125 -101 -125 -276q0 -121 69 -211.5t191 -90.5q96 0 161 79.5t65 177.5zM710 972q0 109 -55 185.5t-152 76.5q-85 0 -139 -58t-54 -145q0 -170 203 -301q41 -27 64 -27q31 0 74 62
q59 85 59 207zM920 322q0 -84 -34 -151t-92 -107.5t-129.5 -61.5t-150.5 -21q-77 0 -148 19.5t-132 58.5t-98 107t-37 156q0 123 80.5 205.5t207.5 125.5q-102 47 -165.5 133t-63.5 197q0 133 103.5 217t246.5 84q156 0 258 -80t102 -210q0 -104 -60.5 -186t-181.5 -125
q129 -47 211.5 -140.5t82.5 -220.5z" />
    <glyph glyph-name="nine" unicode="9" horiz-adv-x="955" 
d="M456 1231q-51 0 -90.5 -26.5t-62 -66t-36.5 -93t-19 -100.5t-5 -95q0 -44 4.5 -86.5t18.5 -91.5t36.5 -85t62 -60t90.5 -24q60 0 105.5 32.5t70.5 85t37 108.5t12 113q0 52 -11 113t-35 126t-70.5 107.5t-107.5 42.5zM421 436q-106 0 -186.5 60.5t-119.5 155t-39 206.5
q0 184 105.5 305t287.5 121q86 0 153 -30.5t109.5 -80.5t70 -119.5t38.5 -142.5t11 -156q0 -150 -48.5 -283.5t-133.5 -233.5t-199 -172t-247 -107l-13 45q216 65 335.5 215.5t134.5 377.5q-32 -73 -103.5 -117t-155.5 -44z" />
    <glyph glyph-name="colon" unicode=":" horiz-adv-x="429" 
d="M322 745q0 -45 -32 -78t-75 -33q-44 0 -75.5 32.5t-31.5 78.5t31.5 79t75.5 33q43 0 75 -33t32 -79zM322 91q0 -45 -32 -78t-75 -33q-44 0 -75.5 32.5t-31.5 78.5t31.5 79t75.5 33q43 0 75 -33t32 -79z" />
    <glyph glyph-name="semicolon" unicode=";" horiz-adv-x="453" 
d="M367 -14q0 86 -42.5 143.5t-111.5 57.5q-44 0 -77 -31t-33 -74q0 -47 30.5 -73.5t69.5 -26.5q37 0 63.5 26t26.5 74q25 -37 25 -90q0 -100 -63.5 -186t-160.5 -131l22 -39q100 42 175.5 140t75.5 210zM319 745q0 -46 -31.5 -78.5t-74.5 -32.5q-44 0 -76 32.5t-32 78.5
t32 79t76 33q43 0 74.5 -33t31.5 -79z" />
    <glyph glyph-name="less" unicode="&#x3c;" horiz-adv-x="816" 
d="M694 7l-591 414q-31 22 -31 50q0 29 31 49l594 411l47 -68l-568 -392l565 -396z" />
    <glyph glyph-name="equal" unicode="=" horiz-adv-x="1040" 
d="M102 552v82l836 -3v-82zM102 306v82l836 -3v-82z" />
    <glyph glyph-name="greater" unicode="&#x3e;" horiz-adv-x="816" 
d="M713 421l-591 -414l-47 68q425 298 565 396l-568 392l47 68l594 -411q31 -20 31 -49q0 -28 -31 -50z" />
    <glyph glyph-name="question" unicode="?" horiz-adv-x="814" 
d="M429 75q0 -39 -28.5 -67t-67.5 -28t-67 28t-28 67t28 67.5t67 28.5q38 0 67 -29t29 -67zM87 967v313q182 116 332 116q140 0 224 -90.5t84 -233.5q0 -78 -33 -155t-97 -137l-141 -132q-73 -68 -91.5 -113t-18.5 -139h-63q0 19 -1.5 65.5t-1.5 68.5q0 192 118 305l160 153
q75 73 75 142q0 87 -64 147t-152 60q-150 0 -214.5 -96t-64.5 -274h-51z" />
    <glyph glyph-name="at" unicode="@" horiz-adv-x="1588" 
d="M940 731q-150 0 -237.5 -62.5t-87.5 -169.5q0 -76 38 -128.5t111 -52.5q76 0 126 60t50 135v218zM1124 159l46 -64q-170 -121 -376 -121q-137 0 -261 56t-214 150.5t-143 225.5t-53 274t53 273.5t143 225t214 150.5t261 56t261 -56t214 -150.5t143 -225t53 -273.5
q0 -70 -11.5 -134t-37.5 -122.5t-65 -101t-96.5 -67.5t-128.5 -25q-66 0 -118 33t-68 95q-31 -56 -95 -84t-134 -28q-111 0 -186 62.5t-75 167.5q0 59 23 107.5t63 80.5t88.5 55t106 35.5t108 18t101.5 6.5v187q0 68 -33 98.5t-108 30.5q-112 0 -184.5 -71t-72.5 -176h-40
v198q64 48 156.5 81t180.5 33q253 0 253 -204v-548q0 -49 22 -74.5t60 -25.5q57 0 101.5 37.5t68.5 96t36 119.5t12 119q0 129 -47.5 246t-127.5 201.5t-190.5 134.5t-232.5 50q-162 0 -299.5 -84.5t-217.5 -230t-80 -317.5t80 -317.5t217.5 -230t299.5 -84.5q180 0 330 111
z" />
    <glyph glyph-name="A" unicode="A" horiz-adv-x="1246" 
d="M775 449h-441l-87 -287q-9 -27 -9 -45q0 -32 22 -51.5t65 -19.5h44v-46h-354v46h41q39 0 80 37t59 95l359 1192h131l352 -1183q23 -78 65.5 -108t98.5 -32l30 -1v-46h-499v46l59 1q34 1 54.5 20t20.5 52q0 19 -10 51zM560 1195l-212 -695h412z" />
    <glyph glyph-name="B" unicode="B" horiz-adv-x="1177" 
d="M395 56h126q81 0 142 15.5t110 51t74.5 100.5t25.5 157q0 93 -24.5 156.5t-73.5 98.5t-111 49.5t-147 14.5h-122v-643zM395 749h102q165 0 241 72t76 233q0 145 -75 203t-215 58h-129v-566zM83 1370h403q70 0 124 -3.5t118.5 -14t110.5 -32t86 -55t61 -86.5t21 -122
q0 -134 -80 -216t-211 -106v-8q162 -2 258 -97t96 -259q0 -89 -26.5 -155.5t-70.5 -107t-110 -65.5t-136 -34t-157 -9h-487v46q79 0 110 17t31 71v1102q0 54 -31 71t-110 17v46z" />
    <glyph glyph-name="C" unicode="C" horiz-adv-x="1152" 
d="M1044 975h-55q0 185 -75 272.5t-229 87.5q-71 0 -126.5 -16.5t-105.5 -60.5t-83 -116t-52.5 -187.5t-19.5 -269.5q0 -63 2.5 -116.5t12.5 -122.5t25.5 -124t44.5 -110t68 -92.5t97 -60.5t130 -23q84 0 145 26t96 75.5t51.5 112.5t18.5 145h55v-314q-162 -107 -366 -107
q-123 0 -220 35t-162 97t-108 152t-61.5 195t-18.5 232q0 122 19 225.5t62 194.5t109 154.5t165 100t225 36.5q100 0 182.5 -27.5t173.5 -79.5v-314z" />
    <glyph glyph-name="D" unicode="D" horiz-adv-x="1301" 
d="M995 685q0 323 -115.5 476.5t-387.5 153.5h-97v-1260h140q131 0 221.5 41t142 124.5t74 195.5t22.5 269zM588 0h-505v46q79 0 110 17t31 71v1102q0 54 -31 71t-110 17v46h480q296 0 458.5 -172t162.5 -493q0 -165 -34 -292.5t-104.5 -221t-185.5 -142.5t-272 -49z" />
    <glyph glyph-name="E" unicode="E" horiz-adv-x="1115" 
d="M954 1370l30 -245h-54q-14 107 -46.5 149t-102.5 42h-386v-566h157q79 0 101.5 36t22.5 154h56v-432h-56q0 118 -22.5 154t-101.5 36h-157v-642h386q82 0 119 61.5t59 222.5h59l-40 -340h-895v46q79 0 110 17t31 71v1102q0 54 -31 71t-110 17v46h871z" />
    <glyph glyph-name="F" unicode="F" horiz-adv-x="1010" 
d="M580 46v-46h-497v46q79 0 110 17t31 71v1102q0 54 -31 71t-110 17v46h871l30 -245h-54q-14 107 -46.5 149t-102.5 42h-386v-566h157q79 0 101.5 36t22.5 154h56v-432h-56q0 118 -22.5 154t-101.5 36h-157v-564q0 -54 31.5 -71t110.5 -17h43z" />
    <glyph glyph-name="G" unicode="G" horiz-adv-x="1288" 
d="M1043 1290v-314h-55q0 185 -75.5 272.5t-230.5 87.5q-71 0 -126.5 -17t-105.5 -61t-83 -116t-52 -187.5t-19 -269.5q0 -119 11.5 -215t31 -163t49.5 -116.5t62.5 -78.5t74.5 -46.5t80 -23.5t85 -6q67 0 120 21.5t82.5 54.5t45 67t15.5 64v270q0 52 -13 69t-63 17h-61v54
h308v-478q-101 -97 -217 -149t-227 -52q-263 0 -417.5 186t-154.5 525q0 354 149.5 532.5t429.5 178.5q178 0 356 -106z" />
    <glyph glyph-name="H" unicode="H" horiz-adv-x="1388" 
d="M1306 0h-454v46q79 0 110 17t31 71v564h-598v-564q0 -54 31.5 -71t110.5 -17v-46h-454v46q79 0 110 17t31 71v1102q0 54 -31 71t-110 17v46h454v-46q-79 0 -110.5 -17t-31.5 -71v-486h598v486q0 54 -31 71t-110 17v46h454v-46q-79 0 -110.5 -17t-31.5 -71v-1102
q0 -54 31.5 -71t110.5 -17v-46z" />
    <glyph glyph-name="I" unicode="I" horiz-adv-x="619" 
d="M537 0h-454v46q79 0 110 17t31 71v1102q0 54 -31 71t-110 17v46h454v-46q-79 0 -110.5 -17t-31.5 -71v-1102q0 -54 31.5 -71t110.5 -17v-46z" />
    <glyph glyph-name="J" unicode="J" horiz-adv-x="762" 
d="M219 38q67 0 108 41.5t41 119.5v1037q0 54 -31.5 71t-110.5 17v46h454v-46q-79 0 -110 -17t-31 -71v-944q0 -157 -78.5 -237.5t-205.5 -80.5q-134 0 -270 84v242h56q0 -50 8 -93t27 -83t55.5 -63t87.5 -23z" />
    <glyph glyph-name="K" unicode="K" horiz-adv-x="1274" 
d="M537 0h-454v46q79 0 110 17t31 71v1102q0 54 -31 71t-110 17v46h454v-46q-79 0 -110.5 -17t-31.5 -71v-493l506 581h-139v46h358v-46h-149l-408 -466l517 -713q72 -99 150 -99h35v-46h-491v46h53q59 0 59 39q0 15 -26 55l-414 584l-51 -58v-532q0 -54 31.5 -71t110.5 -17
v-46z" />
    <glyph glyph-name="L" unicode="L" horiz-adv-x="1007" 
d="M62 0v46q79 0 110.5 17t31.5 71v1102q0 54 -31.5 71t-110.5 17v46h518v-46h-64q-79 0 -110 -17t-31 -71v-1166h341q85 0 133 69.5t70 225.5h58l-40 -365h-875z" />
    <glyph glyph-name="M" unicode="M" horiz-adv-x="1557" 
d="M415 1370l373 -1033l368 1033h319v-46q-79 0 -110.5 -17t-31.5 -71v-1102q0 -54 31.5 -71t110.5 -17v-46h-454v46q79 0 110 17t31 71v1087l-413 -1179h-32l-438 1187v-1095q0 -54 31 -71t110 -17v-46h-337v46q79 0 110 17t31 71v1102q0 54 -31 71t-110 17v46h332z" />
    <glyph glyph-name="N" unicode="N" horiz-adv-x="1359" 
d="M1075 318v918q0 56 -33 72t-121 16v46h361v-46q-88 0 -120 -15.5t-32 -72.5v-1254h-58l-781 1245v-1093q0 -56 33 -72t121 -16v-46h-362v46q88 0 120.5 15.5t32.5 72.5v1101q0 54 -30.5 71.5t-107.5 17.5v46h321z" />
    <glyph glyph-name="O" unicode="O" horiz-adv-x="1294" 
d="M1192 685q0 -343 -144 -527t-401 -184t-401 184t-144 527t144 527t401 184t401 -184t144 -527zM1001 685q0 352 -83.5 501t-270.5 149t-270.5 -149t-83.5 -501q0 -237 38 -380t114.5 -206t201.5 -63t201.5 63t114.5 206t38 380z" />
    <glyph glyph-name="P" unicode="P" horiz-adv-x="1086" 
d="M83 0v46q79 0 110 17t31 71v1102q0 54 -31 71t-110 17v46h520q120 0 206 -29t132.5 -81.5t67.5 -115t21 -140.5q0 -182 -104.5 -290.5t-311.5 -108.5h-219v-471q0 -55 25.5 -71.5t101.5 -16.5h75v-46h-514zM395 658h107q165 0 253 85t88 247q0 326 -286 326h-162v-658z
" />
    <glyph glyph-name="Q" unicode="Q" 
d="M598 -106v-100h450l97 100h-547zM1182 685q0 -343 -144 -527t-401 -184t-401 184t-144 527t144 527t401 184t401 -184t144 -527zM991 685q0 352 -83.5 501t-270.5 149t-270.5 -149t-83.5 -501q0 -237 38 -380t114.5 -206t201.5 -63t201.5 63t114.5 206t38 380z" />
    <glyph glyph-name="R" unicode="R" horiz-adv-x="1227" 
d="M375 1314v-586h141q292 0 292 297q0 162 -69.5 225.5t-229.5 63.5h-134zM62 1370h454q481 0 481 -347q0 -140 -78.5 -219.5t-223.5 -117.5l409 -640h103v-46h-287l-417 668h-128v-534q0 -54 31 -71t110 -17h28v-46h-482v46q79 0 110.5 17t31.5 71v1102q0 54 -31.5 71
t-110.5 17v46z" />
    <glyph glyph-name="S" unicode="S" horiz-adv-x="1094" 
d="M885 1289v-314h-59q0 180 -79.5 270t-220.5 90q-108 0 -182 -77t-74 -188q0 -78 43 -136.5t121 -89.5l199 -78q80 -31 137.5 -64t107 -78.5t74.5 -106.5t25 -137q0 -195 -125 -300.5t-323 -105.5q-115 0 -210.5 31.5t-192.5 92.5v381h54q0 -437 362 -437q119 0 191.5 76
t72.5 197q0 99 -51 163t-166 108l-213 83q-120 46 -189 133t-69 204t57.5 207.5t151 136.5t204.5 46q185 0 354 -107z" />
    <glyph glyph-name="T" unicode="T" horiz-adv-x="1046" 
d="M45 1370h956l40 -324h-58q-21 155 -63 212.5t-127 57.5h-184v-1182q0 -54 31.5 -71t110.5 -17h43v-46h-540v46h43q79 0 110 17t31 71v1182h-184q-85 0 -127.5 -58t-63.5 -212h-58z" />
    <glyph glyph-name="U" unicode="U" horiz-adv-x="1317" 
d="M537 1370v-46q-79 0 -110.5 -17t-31.5 -71v-785q0 -77 15 -144.5t48 -129t95 -97.5t148 -36q156 0 242 112t86 275v805q0 53 -37.5 70.5t-119.5 17.5v46h363v-46q-79 0 -111 -17t-32 -71v-801q0 -205 -112 -333t-309 -128q-96 0 -171.5 25t-127 69t-85 107.5t-48.5 136.5
t-15 160v764q0 54 -31 71t-110 17v46h454z" />
    <glyph glyph-name="V" unicode="V" horiz-adv-x="1291" 
d="M913 1324v46h353v-46h-41q-97 0 -138 -132l-361 -1192h-128l-379 1183q-45 141 -165 141h-28v46h496v-46h-58q-35 0 -56 -19t-21 -52q0 -19 10 -52l324 -1024l309 1021q12 39 12 56q0 32 -21 51t-65 19h-43z" />
    <glyph glyph-name="W" unicode="W" horiz-adv-x="1961" 
d="M1392 177l346 1147h-178v46h376v-46h-137l-402 -1324h-129l-268 840l-274 -840h-128l-379 1188q-25 78 -67 107t-98 29h-28v46h496v-46h-58q-37 0 -56.5 -20.5t-19.5 -51.5q0 -13 10 -50l323 -1025l249 758l-81 255q-25 78 -66 106t-98 28h-29v46h522v-46h-84
q-36 0 -56 -20.5t-20 -51.5q0 -21 11 -51z" />
    <glyph glyph-name="X" unicode="X" horiz-adv-x="1321" 
d="M694 822l340 502h-179v46h378v-46h-136l-374 -552l334 -585q50 -87 90 -114t115 -27h29v-46h-539v46h75q31 0 47 16t16 41q0 21 -20 58l-257 448l-382 -563h177v-46h-377v46h136l417 614l-301 527q-50 86 -89.5 111.5t-116.5 25.5h-29v46h540v-46h-76q-31 0 -46 -15
t-15 -38q0 -24 18 -54z" />
    <glyph glyph-name="Y" unicode="Y" horiz-adv-x="1216" 
d="M662 584l330 740h-178v46h377v-46h-137l-356 -793v-397q0 -54 31.5 -71t110.5 -17v-46h-454v46q79 0 110 17t31 71v345l-299 708q-33 79 -71 108t-102 29h-29v46h492v-46h-76q-59 0 -59 -39q0 -28 20 -79z" />
    <glyph glyph-name="Z" unicode="Z" horiz-adv-x="1164" 
d="M1048 0h-976v46l785 1270h-476q-172 0 -215 -310h-58l39 364h920v-46l-778 -1269h525q172 0 215 310h58z" />
    <glyph glyph-name="bracketleft" unicode="[" horiz-adv-x="491" 
d="M425 1396v-54h-192v-1751h192v-53h-256v1858h256z" />
    <glyph glyph-name="backslash" unicode="\" horiz-adv-x="815" 
d="M733 -91h-71l-580 1532h72z" />
    <glyph glyph-name="bracketright" unicode="]" horiz-adv-x="491" 
d="M36 1342v54h256v-1858h-256v53h191v1751h-191z" />
    <glyph glyph-name="asciicircum" unicode="^" horiz-adv-x="1325" 
d="M1008 104l-345 508l-347 -508h692zM316 1266l347 -508l346 508h-693zM713 685l355 -523v1045zM257 1209v-1046l355 522zM1078 0h-831q-39 0 -66 27.5t-27 65.5v1184q0 38 27 65.5t66 27.5h831q39 0 66 -27.5t27 -65.5v-1184q0 -38 -27 -65.5t-66 -27.5z" />
    <glyph glyph-name="underscore" unicode="_" horiz-adv-x="1126" 
d="M103 -203v71h921v-71h-921z" />
    <glyph glyph-name="grave" unicode="`" horiz-adv-x="590" 
d="M473 1051h-100l-255 174v179z" />
    <glyph glyph-name="a" unicode="a" horiz-adv-x="930" 
d="M589 467q-153 0 -243 -65t-90 -174q0 -77 39.5 -130.5t113.5 -53.5q78 0 129 61t51 139v223zM864 3q-51 -35 -124 -35q-130 0 -151 117q-32 -58 -98.5 -87t-137.5 -29q-114 0 -190 64t-76 173q0 61 23.5 110t64.5 81.5t90.5 56.5t108.5 36.5t111 18t104 6.5v191
q0 69 -35 100.5t-111 31.5q-114 0 -188 -73t-74 -180h-41v202q66 49 160 83t184 34q258 0 258 -208v-576q0 -51 14 -72t42 -21q22 0 66 12v-36z" />
    <glyph glyph-name="b" unicode="b" horiz-adv-x="1019" 
d="M740 434q0 43 -0.5 68.5t-4 73.5t-10 78.5t-19.5 69t-32 61t-48.5 38.5t-67.5 16q-60 0 -105 -31.5t-68.5 -83.5t-34.5 -105.5t-11 -108.5v-152q0 -56 11.5 -110.5t34.5 -105t66 -81.5t100 -31q31 0 56.5 10t43.5 25.5t32.5 41.5t24 49.5t16 58t9.5 58.5t5 60t2 53.5
v47.5zM339 1370v-631q29 73 97 119t147 46q69 0 126.5 -25.5t104 -79t72.5 -146.5t26 -219q0 -229 -89 -349.5t-240 -120.5q-90 0 -159 50t-85 115v-129h-262v36h25q83 0 83 87v1124q0 87 -83 87h-25v36h262z" />
    <glyph glyph-name="c" unicode="c" horiz-adv-x="855" 
d="M737 821v-246h-45q0 135 -57 207t-155 72q-52 0 -92 -20.5t-63.5 -58.5t-39 -77.5t-21.5 -93.5t-8 -89.5t-2 -80.5q0 -103 14 -179.5t36.5 -121t55.5 -71.5t65.5 -35.5t73.5 -8.5q81 0 138 61t81 143h50q-25 -111 -103 -184.5t-190 -73.5q-67 0 -123.5 14t-107 47.5
t-86 86t-56 134.5t-20.5 188q0 222 105.5 346t272.5 124q145 0 277 -83z" />
    <glyph glyph-name="d" unicode="d" horiz-adv-x="1003" 
d="M259 434q0 -39 0.5 -62.5t4 -71t10 -78.5t20.5 -71t33 -63.5t49.5 -40.5t69.5 -17q59 0 102.5 31t66.5 81.5t34 104.5t11 111v152q0 53 -10.5 106.5t-33.5 105.5t-67 84.5t-102 32.5q-39 0 -69.5 -15.5t-50 -37t-33 -59.5t-20.5 -68t-10.5 -78t-4 -75t-0.5 -72zM660 739
v523q0 42 -16 57t-66 15h-26v36h262v-1247q0 -52 15 -69.5t69 -17.5h25v-36h-263v129q-16 -65 -84.5 -115t-158.5 -50q-151 0 -240.5 120.5t-89.5 349.5q0 126 26 219t73 146.5t104.5 79t126.5 25.5q79 0 146.5 -46t96.5 -119z" />
    <glyph glyph-name="e" unicode="e" horiz-adv-x="875" 
d="M431 857q-85 0 -129.5 -83.5t-44.5 -236.5v-42h342v21q0 98 -15.5 171.5t-54.5 121.5t-98 48zM257 454v-198q0 -107 59.5 -170.5t145.5 -63.5q79 0 148.5 49.5t105.5 156.5h51q-30 -123 -124 -193.5t-209 -70.5q-69 0 -132 27t-115.5 80.5t-83.5 144t-31 206.5
q0 132 44.5 241.5t127.5 175t187 65.5q74 0 134.5 -27.5t100 -72.5t66.5 -104.5t39 -121t12 -124.5h-526z" />
    <glyph glyph-name="f" unicode="f" horiz-adv-x="559" 
d="M339 868h160v-40h-160v-714q0 -78 83 -78h71v-36h-416v36h25q83 0 83 78v631q0 88 -83 88h-25v35h108v214q0 84 20.5 144.5t57 92.5t77.5 46t91 14q38 0 84.5 -15.5t69.5 -34.5v-180h-62v23q0 162 -92 162t-92 -162v-304z" />
    <glyph glyph-name="g" unicode="g" horiz-adv-x="1020" 
d="M670 433q0 80 -11.5 149t-35 127.5t-66.5 92.5t-100 34q-51 0 -87.5 -21t-58.5 -55t-34.5 -88.5t-16.5 -109.5t-4 -129q0 -79 4 -135t16.5 -109t34.5 -84.5t58.5 -50t87.5 -18.5q213 0 213 397zM934 867v-36h-25q-54 0 -69 -17.5t-15 -69.5v-879q0 -166 -89 -246
t-271 -80q-85 0 -167.5 21.5t-132.5 60.5v219h61q0 -52 11 -93.5t35.5 -76t67 -53.5t101.5 -19q231 0 231 300v245q-70 -174 -238 -174q-175 0 -263.5 123.5t-88.5 340.5q0 97 21.5 180t64 147.5t111 101.5t155.5 37q79 0 143 -46.5t95 -123.5v138h262z" />
    <glyph glyph-name="h" unicode="h" horiz-adv-x="1077" 
d="M77 1370h262v-663q39 92 112.5 144.5t171.5 52.5q116 0 188.5 -68.5t72.5 -199.5v-513q0 -55 15.5 -71t65.5 -16h25v-36h-374v36h29q52 0 66 17t14 70v514q0 201 -151 201q-89 0 -162 -99t-73 -244v-372q0 -55 16.5 -71t66.5 -16h25v-36h-370v36h25q44 0 63.5 21.5
t19.5 65.5v1124q0 87 -83 87h-25v36z" />
    <glyph glyph-name="i" unicode="i" horiz-adv-x="533" 
d="M77 833v35h262v-745q0 -55 16.5 -71t65.5 -16h25v-36h-369v36h24q54 0 69 17.5t15 69.5v622q0 53 -15 70.5t-68 17.5h-25zM250 1149q-39 0 -67 29.5t-28 68.5q0 42 28 73.5t67 31.5q37 0 65 -31.5t28 -73.5q0 -39 -28 -68.5t-65 -29.5z" />
    <glyph glyph-name="j" unicode="j" horiz-adv-x="533" 
d="M77 833v35h262v-1069q0 -149 -56.5 -214.5t-164.5 -65.5q-69 0 -114 16t-88 48v180h41v-14q0 -97 29.5 -143t92.5 -46q44 0 75 45t31 126v1014q0 53 -15.5 70.5t-68.5 17.5h-24zM252 1149h-3h-12l-8 2q-3 0 -4 1q-14 4 -20 8q-9 4 -19 14l-8 7l-9 12l-4 6l-3 7
q-9 16 -9 37v4q0 29 12 51q9 16 18 25l10 8q9 7 12 8q8 6 10 6q7 4 14 5q6 0 8 1q2 0 6 0.5t6 0.5h3q6 0 14 -2q22 -6 42 -24l2 -3q6 -5 11 -11q3 -6 4 -7l4 -7q5 -12 8 -22q1 -2 1 -4l2 -8q0 -2 0.5 -6.5t0.5 -6.5v-4q0 -13 -3 -23l-3 -11l-6 -14q-11 -16 -21 -25
q-1 -1 -2 -2.5t-2 -2.5t-2 -1q-6 -6 -18 -11l-6 -3q-11 -4 -19 -5h-7z" />
    <glyph glyph-name="k" unicode="k" horiz-adv-x="1040" 
d="M679 127l-291 340l-49 -44v-300q0 -55 16.5 -71t66.5 -16h25v-36h-370v36h24q54 0 69 17.5t15 69.5v1124q0 53 -15 70t-68 17h-25v36h262v-886l385 349h-136v35h321v-35h-114l-295 -266l364 -432q83 -99 150 -99h26v-36h-423v36h54q16 0 25.5 12t9.5 27q0 20 -27 52z" />
    <glyph glyph-name="l" unicode="l" horiz-adv-x="504" 
d="M411 15v-42h-26q-108 0 -163.5 65.5t-55.5 215.5v993q0 52 -15 69.5t-69 17.5h-26v36h263v-1185q0 -80 26 -123.5t66 -46.5z" />
    <glyph glyph-name="m" unicode="m" horiz-adv-x="1567" 
d="M185 123v622q0 88 -83 88h-25v35h262v-161q84 197 271 197q100 0 164.5 -52t79.5 -153q87 205 274 205q115 0 182 -68t67 -200v-513q0 -55 15.5 -71t65.5 -16h28v-36h-376v36h29q52 0 66 17t14 70v514q0 105 -34 153t-105 48q-82 0 -151.5 -94t-69.5 -226v-395
q0 -55 15.5 -71t65.5 -16h28v-36h-376v36h29q52 0 65.5 17t13.5 70v514q0 105 -33.5 153t-104.5 48q-88 0 -155.5 -98.5t-67.5 -244.5v-372q0 -55 16.5 -71t66.5 -16h25v-36h-370v36h25q83 0 83 87z" />
    <glyph glyph-name="n" unicode="n" horiz-adv-x="1077" 
d="M77 868h262v-161q39 92 112.5 144.5t171.5 52.5q116 0 188.5 -68.5t72.5 -199.5v-513q0 -55 15.5 -71t65.5 -16h25v-36h-374v36h29q52 0 66 17t14 70v514q0 201 -151 201q-89 0 -162 -99t-73 -244v-372q0 -55 16.5 -71t66.5 -16h25v-36h-370v36h25q44 0 63.5 21.5
t19.5 65.5v622q0 88 -83 88h-25v35z" />
    <glyph glyph-name="o" unicode="o" horiz-adv-x="927" 
d="M836 434q0 -226 -105 -348t-277 -122t-277 122t-105 348t105 348t277 122t277 -122t105 -348zM250 549v-230q0 -147 51 -230t153 -83q101 0 152 83t51 230v230q0 147 -51 230t-152 83q-102 0 -153 -83t-51 -230z" />
    <glyph glyph-name="p" unicode="p" horiz-adv-x="1009" 
d="M740 434q0 43 -0.5 68.5t-4 73.5t-10 78.5t-19.5 69t-32 61t-48.5 38.5t-67.5 16q-60 0 -105.5 -32t-69 -83.5t-34.5 -105t-11 -108.5v-152q0 -56 11.5 -110.5t35 -105t66.5 -81.5t100 -31q31 0 56.5 10t43.5 25.5t32.5 41.5t24 49.5t16 58t9.5 58.5t5 60t2 53.5v47.5z
M77 868h262v-128q29 73 97 118.5t147 45.5q69 0 126.5 -25.5t104 -79t72.5 -146.5t26 -219q0 -229 -89 -349.5t-240 -120.5q-90 0 -159 50t-85 115v-454q0 -42 16.5 -57t66.5 -15h25v-35h-370v36h25q83 0 83 87v1054q0 53 -15.5 70.5t-68.5 17.5h-24v35z" />
    <glyph glyph-name="q" unicode="q" horiz-adv-x="999" 
d="M249 434v-47.5t2 -53.5t5 -60t9.5 -58.5t16 -58t24 -49.5t32.5 -41.5t43.5 -25.5t56.5 -10q57 0 100 31t66.5 81.5t35 105t11.5 110.5v152q0 55 -11 108.5t-34.5 105t-69 83.5t-105.5 32q-38 0 -67.5 -16t-48.5 -38.5t-32 -61t-19.5 -69t-10 -78.5t-4 -73.5t-0.5 -68.5z
M650 868h262v-35h-24q-53 0 -68.5 -17.5t-15.5 -70.5v-1054q0 -87 83 -87h25v-36h-370v35h25q50 0 66.5 15t16.5 57v454q-16 -65 -84.5 -115t-158.5 -50q-151 0 -240.5 120.5t-89.5 349.5q0 126 26 219t73 146.5t104.5 79t126.5 25.5q79 0 146.5 -45.5t96.5 -118.5v128z" />
    <glyph glyph-name="r" unicode="r" horiz-adv-x="735" 
d="M422 36h49v-36h-394v36h25q83 0 83 87v622q0 88 -83 88h-25v35h262v-158q18 88 87.5 140.5t157.5 52.5q51 0 115 -16v-214h-41q0 69 -31.5 103t-85.5 34q-90 0 -146 -77t-56 -224v-386q0 -87 83 -87z" />
    <glyph glyph-name="s" unicode="s" horiz-adv-x="788" 
d="M642 833v-204h-41q0 118 -55 174.5t-154 56.5q-72 0 -125.5 -45t-53.5 -114q0 -58 37 -92.5t100 -60.5l149 -61q102 -41 155 -95t53 -145q0 -132 -91 -207.5t-222 -75.5q-77 0 -140.5 23.5t-140.5 67.5v250h41q0 -290 248 -290q79 0 132.5 38t53.5 112q0 112 -153 170
l-131 49q-92 34 -144 102t-52 162q0 116 85.5 186t200.5 70q129 0 248 -71z" />
    <glyph glyph-name="t" unicode="t" horiz-adv-x="591" 
d="M571 106q-20 -68 -70 -105t-118 -37q-93 0 -146.5 57t-53.5 148v664h-163v35h163v300h154v-300h218v-35h-218v-691q0 -47 20.5 -81t61.5 -34q35 0 61.5 22.5t38.5 56.5h52z" />
    <glyph glyph-name="u" unicode="u" horiz-adv-x="1045" 
d="M72 868h262v-632q0 -105 30 -150.5t100 -45.5q85 0 158.5 93.5t73.5 239.5v372q0 88 -83 88h-25v35h262v-745q0 -87 83 -87h25v-36h-262v163q-26 -80 -104.5 -134.5t-163.5 -54.5q-117 0 -182.5 61.5t-65.5 190.5v519q0 88 -83 88h-25v35z" />
    <glyph glyph-name="v" unicode="v" horiz-adv-x="962" 
d="M626 833v35h321v-35h-120l-279 -833h-148l-255 762q-24 71 -95 71h-35v35h393v-35h-44q-29 0 -43 -15.5t-14 -39.5q0 -16 11 -49l208 -627l241 731h-141z" />
    <glyph glyph-name="w" unicode="w" horiz-adv-x="1431" 
d="M904 833h-44q-29 0 -42.5 -15.5t-13.5 -39.5q0 -16 11 -49l191 -627l230 731h-141v35h321v-35h-120l-269 -833h-147l-160 511l-172 -511h-148l-255 762q-24 71 -95 71h-35v35h393v-35h-44q-29 0 -43 -15.5t-14 -39.5q0 -16 11 -49l208 -627l165 501l-49 159
q-22 71 -95 71h-25v35h382v-35z" />
    <glyph glyph-name="x" unicode="x" horiz-adv-x="940" 
d="M346 0h-315v36h116l265 368l-201 330q-32 52 -63 75.5t-87 23.5h-20v35h406v-35h-48q-40 0 -40 -39q0 -16 19 -44l130 -212l212 295h-135v35h315v-35h-115l-247 -345l216 -353q32 -53 62.5 -76t86.5 -23h17v-36h-407v36h52q40 0 40 39q0 15 -18 44l-146 236l-230 -319
h135v-36z" />
    <glyph glyph-name="y" unicode="y" horiz-adv-x="942" 
d="M481 0h-81l-255 762q-24 71 -95 71h-35v35h393v-35h-44q-29 0 -43 -15.5t-14 -39.5q0 -16 11 -49l199 -612l229 716h-142v34h323v-34h-124l-340 -1059q-34 -106 -94 -170.5t-146 -64.5q-78 0 -138 36v204h61q1 -70 30.5 -108.5t70.5 -38.5q46 0 91 43.5t71 118.5z" />
    <glyph glyph-name="z" unicode="z" horiz-adv-x="877" 
d="M770 278l-10 -278h-678v36l492 787h-133q-132 0 -198 -56t-92 -182h-38l12 283h630v-35l-487 -780h187q126 0 195.5 52t85.5 173h34z" />
    <glyph glyph-name="braceleft" unicode="{" horiz-adv-x="568" 
d="M77 436v64q71 0 108.5 55t37.5 156v425q0 138 64 199.5t164 61.5h51v-64h-51q-73 0 -118.5 -46t-45.5 -151v-425q0 -86 -27 -149t-74 -94q47 -31 74 -94t27 -149v-425q0 -105 45.5 -151t118.5 -46h51v-64h-51q-100 0 -164 61.5t-64 199.5v425q0 101 -37.5 156t-108.5 55z
" />
    <glyph glyph-name="bar" unicode="|" horiz-adv-x="481" 
d="M276 -461h-71v1830h71v-1830z" />
    <glyph glyph-name="braceright" unicode="}" horiz-adv-x="568" 
d="M461 500v-64q-71 0 -109 -55t-38 -156v-425q0 -138 -63.5 -199.5t-163.5 -61.5h-51v64h51q73 0 118.5 46t45.5 151v425q0 87 26.5 150t73.5 93q-47 30 -73.5 93t-26.5 150v425q0 105 -45.5 151t-118.5 46h-51v64h51q100 0 163.5 -61.5t63.5 -199.5v-425q0 -101 38 -156
t109 -55z" />
    <glyph glyph-name="asciitilde" unicode="~" horiz-adv-x="1325" 
d="M1008 104l-345 508l-347 -508h692zM316 1266l347 -508l346 508h-693zM713 685l355 -523v1045zM257 1209v-1046l355 522zM1078 0h-831q-39 0 -66 27.5t-27 65.5v1184q0 38 27 65.5t66 27.5h831q39 0 66 -27.5t27 -65.5v-1184q0 -38 -27 -65.5t-66 -27.5z" />
    <glyph glyph-name="exclamdown" unicode="&#xa1;" horiz-adv-x="460" 
d="M198 974h62q5 -192 26.5 -384.5t40.5 -315.5t19 -158q0 -55 -31.5 -95.5t-86.5 -40.5t-85.5 40.5t-30.5 95.5q0 35 19 158t40.5 315.5t26.5 384.5zM327 1295q0 -38 -29.5 -67t-67.5 -29q-39 0 -67 28.5t-28 67.5t28 67.5t67 28.5t68 -28.5t29 -67.5z" />
    <glyph glyph-name="cent" unicode="&#xa2;" horiz-adv-x="855" 
d="M512 -289h-99v258q-321 43 -321 465q0 205 91 327t239 140v336l99 -97v-239q118 -13 227 -80v-246h-46q0 135 -57 207t-155 72q-52 0 -92 -20.5t-63.5 -58.5t-39 -77.5t-21.5 -93.5t-8 -89.5t-2 -80.5q0 -103 14 -179.5t36.5 -121t55.5 -71.5t65.5 -35.5t73.5 -8.5
q81 0 138 61t81 143h50q-24 -104 -94 -175.5t-172 -80.5v-255z" />
    <glyph glyph-name="sterling" unicode="&#xa3;" horiz-adv-x="1007" 
d="M13 698v100h191v438q0 54 -31.5 71t-110.5 17v46h518v-46h-64q-79 0 -110 -17t-31 -71v-438h404l-97 -100h-307v-628h341q85 0 133 69.5t70 225.5h58l-40 -365h-875v46q79 0 110.5 17t31.5 71v564h-191z" />
    <glyph glyph-name="yen" unicode="&#xa5;" horiz-adv-x="1216" 
d="M662 584l330 740h-178v46h377v-46h-137l-355 -790h289l-98 -100h-192v-300q0 -54 31.5 -71t110.5 -17v-46h-454v46q79 0 110 17t31 71v300h-257v100h235l-277 653q-33 79 -71 108t-102 29h-29v46h492v-46h-76q-59 0 -59 -39q0 -28 20 -79z" />
    <glyph glyph-name="brokenbar" unicode="&#xa6;" horiz-adv-x="489" 
d="M276 510h-71v859h71v-859zM205 398h71v-859h-71v859z" />
    <glyph glyph-name="section" unicode="&#xa7;" horiz-adv-x="1012" 
d="M102 426q0 76 54.5 176t143.5 182q-72 41 -112.5 115.5t-40.5 157.5q0 144 105 241.5t264 97.5q171 0 319 -104v-300h-56q0 185 -66 270t-178 85q-108 0 -182.5 -62t-74.5 -162q0 -72 37.5 -114.5t152.5 -106.5l219 -121q124 -69 173.5 -124.5t49.5 -143.5
q0 -77 -54.5 -177.5t-143.5 -182.5q71 -41 112 -115t41 -158q0 -143 -106.5 -241t-266.5 -98q-159 0 -318 105v300h55q0 -184 66.5 -269.5t178.5 -85.5q108 0 184 62t76 162q0 72 -37 114.5t-153 106.5l-218 121q-124 69 -174 125t-50 144zM231 521q0 -92 101 -150l338 -194
q111 131 111 241q0 91 -100 149l-339 193q-111 -131 -111 -239z" />
    <glyph glyph-name="dieresis" unicode="&#xa8;" horiz-adv-x="775" 
d="M322 1246q0 -41 -29 -70.5t-68 -29.5q-40 0 -68.5 29.5t-28.5 70.5q0 42 28.5 71.5t68.5 29.5q39 0 68 -29.5t29 -71.5zM647 1246q0 -41 -28.5 -70.5t-67.5 -29.5q-40 0 -68.5 29.5t-28.5 70.5q0 42 28.5 71.5t68.5 29.5q39 0 67.5 -29.5t28.5 -71.5z" />
    <glyph glyph-name="copyright" unicode="&#xa9;" horiz-adv-x="1656" 
d="M123 685q0 143 56 274t150.5 225.5t225 150.5t273.5 56t274 -56t225.5 -150.5t150.5 -225.5t56 -274t-56 -273.5t-150.5 -225t-225.5 -150.5t-274 -56q-191 0 -353.5 94.5t-257 257t-94.5 353.5zM188 685q0 -130 51 -248.5t136.5 -204t204 -136.5t248.5 -51t248.5 51
t204 136.5t136.5 204t51 248.5q0 173 -86 320.5t-233.5 233.5t-320.5 86q-130 0 -248.5 -51t-204 -136.5t-136.5 -204t-51 -248.5zM1116 887h-60q0 132 -50 194t-155 62q-61 0 -105.5 -19.5t-81 -68.5t-55 -141t-18.5 -228q0 -53 2.5 -96t10.5 -99.5t26 -99t45 -81t71 -59
t101 -20.5q110 0 158.5 67t50.5 188h60v-233q-120 -78 -269 -78q-112 0 -193.5 37.5t-129 107.5t-70 160.5t-22.5 205.5q0 88 13.5 162.5t45 140t79.5 111t120 72t163 26.5q126 0 263 -82v-229z" />
    <glyph glyph-name="ordfeminine" unicode="&#xaa;" horiz-adv-x="656" 
d="M615 750q-40 -30 -94 -30q-87 0 -107 68q-51 -67 -161 -67q-82 0 -137 45.5t-55 123.5q0 50 23.5 89.5t59.5 63t85 39t92.5 21.5t88.5 7v127q0 45 -22.5 65.5t-72.5 20.5q-76 0 -125.5 -50.5t-49.5 -124.5h-42v148q47 35 114.5 59.5t131.5 24.5q186 0 186 -149v-401
q0 -60 32 -60q11 0 53 10v-30zM292 782q52 0 85 40.5t33 92.5v151q-100 -1 -158.5 -45t-58.5 -116q0 -51 25.5 -87t73.5 -36z" />
    <glyph glyph-name="guillemotleft" unicode="&#xab;" horiz-adv-x="802" 
d="M632 41l-324 399l303 391l52 -38l-276 -353l298 -360zM381 41l-325 399l304 391l52 -38l-276 -353l297 -360z" />
    <glyph glyph-name="logicalnot" unicode="&#xac;" horiz-adv-x="1073" 
d="M82 685v82h909v-338h-80v256h-829z" />
    <glyph glyph-name="registered" unicode="&#xae;" horiz-adv-x="1656" 
d="M123 685q0 143 56 274t150.5 225.5t225 150.5t273.5 56t274 -56t225.5 -150.5t150.5 -225.5t56 -274t-56 -273.5t-150.5 -225t-225.5 -150.5t-274 -56q-191 0 -353.5 94.5t-257 257t-94.5 353.5zM188 685q0 -130 51 -248.5t136.5 -204t204 -136.5t248.5 -51t248.5 51
t204 136.5t136.5 204t51 248.5q0 173 -86 320.5t-233.5 233.5t-320.5 86q-130 0 -248.5 -51t-204 -136.5t-136.5 -204t-51 -248.5zM449 1168h317q334 0 334 -241q0 -174 -202 -233l271 -423h72v-44h-209l-281 452h-73v-353q0 -33 20 -44t68 -11h27v-44h-344v44q52 0 73 11
t21 44v746q0 32 -21 42t-73 10v44zM678 1117v-384h88q185 0 185 196q0 106 -43.5 147t-146.5 41h-83z" />
    <glyph glyph-name="macron" unicode="&#xaf;" horiz-adv-x="672" 
d="M102 1174l19 99h449l-18 -99h-450z" />
    <glyph glyph-name="degree" unicode="&#xb0;" horiz-adv-x="723" 
d="M82 1116q0 116 81.5 198t198.5 82q116 0 198 -82t82 -198q0 -117 -82 -198.5t-198 -81.5q-117 0 -198.5 81.5t-81.5 198.5zM164 1116q0 -84 57 -141t141 -57q83 0 140.5 57t57.5 141q0 83 -57.5 140.5t-140.5 57.5q-84 0 -141 -57.5t-57 -140.5z" />
    <glyph glyph-name="plusminus" unicode="&#xb1;" horiz-adv-x="1040" 
d="M102 668v82l378 -2l1 377h82l-1 -377l376 -2v-81l-377 1l-1 -376h-82l1 376zM102 116v82l836 -3v-82z" />
    <glyph glyph-name="twosuperior" unicode="&#xb2;" horiz-adv-x="593" 
d="M90 1152v177q52 31 94.5 46.5t97.5 15.5q99 0 164.5 -54t65.5 -153q0 -148 -179 -323q-57 -56 -137 -120l-31 -25h294l27 135h42l-20 -229h-453l17 76l43 43q108 104 167 181q107 138 107 278q0 65 -27 107.5t-89 42.5q-136 0 -140 -198h-43z" />
    <glyph glyph-name="threesuperior" unicode="&#xb3;" horiz-adv-x="611" 
d="M174 1013v37q71 2 104 9q56 13 87.5 53.5t31.5 101.5q0 57 -31.5 96.5t-87.5 39.5q-75 0 -108.5 -56t-35.5 -143h-44v178q106 61 199 61q59 0 106.5 -15.5t82 -56.5t34.5 -103q0 -73 -43 -119.5t-116 -61.5q85 -14 137 -66t52 -141q0 -109 -71.5 -164.5t-185.5 -55.5
q-115 0 -212 61v178h45q0 -88 41 -141.5t120 -53.5q69 0 106 52.5t37 127.5q0 74 -35.5 122t-108.5 57q-23 3 -104 3z" />
    <glyph glyph-name="acute" unicode="&#xb4;" horiz-adv-x="590" 
d="M218 1051h-100l355 353v-179z" />
    <glyph glyph-name="mu" unicode="&#xb5;" horiz-adv-x="1030" 
d="M696 69q-33 -45 -80.5 -70t-98.5 -25q-57 0 -107.5 23.5t-76.5 71.5v-305q0 -87 83 -87h25v-35h-261v1103q0 88 -83 88h-25v35h262v-575q0 -135 52 -193.5t132 -58.5q81 0 129.5 55.5t48.5 196.5v452q0 88 -83 88h-25v35h262v-739q0 -96 55 -96q23 0 67 12v-36
q-22 -15 -60 -25t-71 -10q-57 0 -96.5 26t-48.5 69z" />
    <glyph glyph-name="paragraph" unicode="&#xb6;" horiz-adv-x="1316" 
d="M1214 1370v-59q-113 0 -151 -21.5t-38 -95.5v-1077q0 -71 -2.5 -119t-11.5 -105t-27.5 -98t-48.5 -82t-77 -73t-110 -57q-104 -42 -246 -42q-104 0 -179 26t-170 81v327h57q0 -59 11 -117t36 -115.5t73 -93.5t114 -36q54 0 96.5 26.5t66.5 67t39.5 95.5t21 103.5
t5.5 98.5v455h-41q-78 0 -150.5 17.5t-136.5 54.5t-111.5 90t-75.5 128.5t-28 164.5t27.5 165t75.5 128.5t112 90t136.5 55t150.5 17.5h582zM556 -410v-4q124 2 225 76.5t121 195.5q14 84 14 456v765q0 95 8.5 151.5t34.5 80.5h-145q-22 -21 -33 -70t-13 -87t-2 -100v-1035
q0 -182 -53 -292q-23 -50 -64.5 -86.5t-92.5 -50.5z" />
    <glyph glyph-name="periodcentered" unicode="&#xb7;" horiz-adv-x="437" 
d="M326 444q0 -45 -32 -78t-75 -33q-44 0 -75.5 32.5t-31.5 78.5t31.5 79t75.5 33q43 0 75 -33t32 -79z" />
    <glyph glyph-name="cedilla" unicode="&#xb8;" horiz-adv-x="522" 
d="M273 0h65l-107 -110q26 6 45 6q17 0 38.5 -6.5t47 -21.5t42 -47.5t16.5 -76.5q0 -71 -53 -118.5t-127 -47.5q-70 0 -138 52l27 38q58 -40 102 -40q42 0 66.5 33.5t24.5 78.5q0 42 -21 74t-62 32q-25 0 -61 -18l-34 36z" />
    <glyph glyph-name="onesuperior" unicode="&#xb9;" horiz-adv-x="442" 
d="M83 622v35h20q39 0 54.5 8t15.5 34v613q0 13 -10 13h-115v35l239 17v-678q0 -25 14 -33.5t47 -8.5h29v-35h-294z" />
    <glyph glyph-name="ordmasculine" unicode="&#xba;" horiz-adv-x="647" 
d="M606 1048q0 -160 -74.5 -245.5t-197.5 -85.5t-198 86t-75 245q0 160 75 245.5t198 85.5t197.5 -85.5t74.5 -245.5zM200 1127v-158q0 -101 33.5 -157.5t100.5 -56.5t100.5 57t33.5 157v158q0 100 -33.5 156.5t-100.5 56.5t-100.5 -56t-33.5 -157z" />
    <glyph glyph-name="guillemotright" unicode="&#xbb;" horiz-adv-x="802" 
d="M464 440l-324 -399l-53 39l298 360l-275 353l51 38zM716 440l-325 -399l-52 39l297 360l-276 353l52 38z" />
    <glyph glyph-name="onequarter" unicode="&#xbc;" horiz-adv-x="1250" 
d="M103 622v35h21q39 0 54.5 8t15.5 34v613q0 13 -11 13h-114v35l238 17v-678q0 -25 14.5 -33.5t47.5 -8.5h28v-35h-294zM123 -91h-72l1015 1532h72zM1005 536l107 34v-492q0 -26 17 -34t60 -8v-36h-274v36h20q40 0 55 8t15 34v128q0 11 -9 11h-326v59l261 479h51l-234 -445
h257v226z" />
    <glyph glyph-name="onehalf" unicode="&#xbd;" horiz-adv-x="1312" 
d="M103 622v35h21q39 0 54.5 8t15.5 34v613q0 13 -11 13h-114v35l238 17v-678q0 -25 14.5 -33.5t47.5 -8.5h28v-35h-294zM123 -91h-72l1015 1532h72zM803 530v178q51 31 93 46t98 15q99 0 165 -54t66 -153q0 -147 -179 -322q-52 -51 -138 -120l-30 -26h293l28 135h42
l-20 -229h-453l16 77l43 43q117 115 167 180q108 139 108 279q0 65 -27 107t-89 42q-136 0 -140 -198h-43z" />
    <glyph glyph-name="threequarters" unicode="&#xbe;" horiz-adv-x="1366" 
d="M163 1013v37q70 2 103 9q57 13 88.5 53.5t31.5 101.5q0 57 -32 96.5t-88 39.5q-139 0 -143 -199h-44v178q106 61 199 61q59 0 106.5 -15.5t82 -56.5t34.5 -103q0 -73 -43 -119.5t-116 -61.5q85 -14 136.5 -66t51.5 -141q0 -109 -71.5 -164.5t-185.5 -55.5q-115 0 -212 61
v178h45q0 -88 41 -141.5t120 -53.5q69 0 106.5 52.5t37.5 127.5q0 74 -36 122t-109 57q-23 3 -103 3zM249 -91h-72l1015 1532h72zM1120 536l108 34v-492q0 -26 17 -34t60 -8v-36h-274v36h20q39 0 54 8t15 34v128q0 11 -8 11h-327v59l262 479h51l-235 -445h257v226z" />
    <glyph glyph-name="questiondown" unicode="&#xbf;" horiz-adv-x="814" 
d="M429 1300q0 -38 -29 -67t-67 -29q-39 0 -67 28.5t-28 67.5t28 67.5t67 28.5q38 0 67 -28.5t29 -67.5zM87 95v314h51q0 -178 64.5 -274.5t214.5 -96.5q88 0 152 60t64 147q0 69 -75 142l-160 154q-118 113 -118 304q0 22 1.5 68.5t1.5 65.5h63q0 -94 18.5 -139t91.5 -113
l141 -132q64 -60 97 -137t33 -155q0 -143 -84 -233t-224 -90q-152 0 -332 115z" />
    <glyph glyph-name="Agrave" unicode="&#xc0;" horiz-adv-x="1246" 
d="M775 449h-441l-87 -287q-9 -27 -9 -45q0 -32 22 -51.5t65 -19.5h44v-46h-354v46h41q39 0 80 37t59 95l359 1192h131l352 -1183q23 -78 65.5 -108t98.5 -32l30 -1v-46h-499v46l59 1q34 1 54.5 20t20.5 52q0 19 -10 51zM560 1195l-212 -695h412zM699 1460h-100l-255 174
v180z" />
    <glyph glyph-name="Aacute" unicode="&#xc1;" horiz-adv-x="1246" 
d="M775 449h-441l-87 -287q-9 -27 -9 -45q0 -32 22 -51.5t65 -19.5h44v-46h-354v46h41q39 0 80 37t59 95l359 1192h131l352 -1183q23 -78 65.5 -108t98.5 -32l30 -1v-46h-499v46l59 1q34 1 54.5 20t20.5 52q0 19 -10 51zM560 1195l-212 -695h412zM626 1460h-101l356 354
v-180z" />
    <glyph glyph-name="Acircumflex" unicode="&#xc2;" horiz-adv-x="1246" 
d="M775 449h-441l-87 -287q-9 -27 -9 -45q0 -32 22 -51.5t65 -19.5h44v-46h-354v46h41q39 0 80 37t59 95l359 1192h131l352 -1183q23 -78 65.5 -108t98.5 -32l30 -1v-46h-499v46l59 1q34 1 54.5 20t20.5 52q0 19 -10 51zM560 1195l-212 -695h412zM423 1460h-100l254 298h78
l255 -298h-100l-194 174z" />
    <glyph glyph-name="Atilde" unicode="&#xc3;" horiz-adv-x="1246" 
d="M775 449h-441l-87 -287q-9 -27 -9 -45q0 -32 22 -51.5t65 -19.5h44v-46h-354v46h41q39 0 80 37t59 95l359 1192h131l352 -1183q23 -78 65.5 -108t98.5 -32l30 -1v-46h-499v46l59 1q34 1 54.5 20t20.5 52q0 19 -10 51zM560 1195l-212 -695h412zM900 1718l29 -63
q-66 -136 -193 -136q-48 0 -99.5 24t-97 48.5t-80.5 24.5q-40 0 -69.5 -27.5t-41.5 -69.5l-32 56q64 150 198 150q38 0 79 -15t70.5 -33.5t65 -33.5t63.5 -15q38 0 66 25.5t42 64.5z" />
    <glyph glyph-name="Adieresis" unicode="&#xc4;" horiz-adv-x="1246" 
d="M775 449h-441l-87 -287q-9 -27 -9 -45q0 -32 22 -51.5t65 -19.5h44v-46h-354v46h41q39 0 80 37t59 95l359 1192h131l352 -1183q23 -78 65.5 -108t98.5 -32l30 -1v-46h-499v46l59 1q34 1 54.5 20t20.5 52q0 19 -10 51zM560 1195l-212 -695h412zM556 1656q0 -41 -29 -71
t-67 -30q-40 0 -69 30t-29 71q0 42 29 71t69 29q39 0 67.5 -29t28.5 -71zM882 1656q0 -41 -29 -71t-68 -30q-40 0 -68.5 30t-28.5 71q0 42 28.5 71t68.5 29q39 0 68 -29.5t29 -70.5z" />
    <glyph glyph-name="Aring" unicode="&#xc5;" horiz-adv-x="1246" 
d="M775 449h-441l-87 -287q-9 -27 -9 -45q0 -32 22 -51.5t65 -19.5h44v-46h-354v46h41q39 0 80 37t59 95l359 1192h131l352 -1183q23 -78 65.5 -108t98.5 -32l30 -1v-46h-499v46l59 1q34 1 54.5 20t20.5 52q0 19 -10 51zM560 1195l-212 -695h412zM622 1793q-29 0 -48 -11.5
t-28 -33.5t-12 -44t-3 -54q0 -77 22.5 -110t68.5 -33t68 32.5t22 110.5q0 32 -3 54t-11.5 44t-27.5 33.5t-48 11.5zM433 1650q0 74 55.5 127t133.5 53t133.5 -53t55.5 -127t-55.5 -127t-133.5 -53t-133.5 53t-55.5 127z" />
    <glyph glyph-name="AE" unicode="&#xc6;" horiz-adv-x="1703" 
d="M1543 1370l30 -245h-54q-14 107 -46.5 149t-102.5 42h-365v-566h136q79 0 101.5 36t22.5 154h56v-432h-56q0 118 -22.5 154t-101.5 36h-136v-642h365q82 0 119 61.5t59 222.5h59l-40 -340h-875v46q79 0 110.5 17t31.5 71v315h-414l-149 -287q-17 -34 -17 -61
q0 -55 75 -55h44v-46h-358v46h41q39 0 85 37t76 95l536 1045q20 40 20 56q0 45 -76 45h-57v46h903zM834 1248l-388 -748h388v748z" />
    <glyph glyph-name="Ccedilla" unicode="&#xc7;" horiz-adv-x="1152" 
d="M1044 975h-55q0 185 -75 272.5t-229 87.5q-71 0 -126.5 -16.5t-105.5 -60.5t-83 -116t-52.5 -187.5t-19.5 -269.5q0 -63 2.5 -116.5t12.5 -122.5t25.5 -124t44.5 -110t68 -92.5t97 -60.5t130 -23q84 0 145 26t96 75.5t51.5 112.5t18.5 145h55v-314q-151 -100 -342 -106
l-81 -85q26 6 45 6q17 0 38.5 -6.5t46.5 -21.5t41.5 -47.5t16.5 -76.5q0 -71 -53 -118.5t-127 -47.5q-69 0 -137 52l26 38q58 -40 103 -40q42 0 66 33.5t24 78.5q0 42 -21 74t-62 32q-25 0 -61 -18l-33 36l105 111q-143 7 -247 62t-165.5 151.5t-90 219.5t-28.5 277
q0 122 19 225.5t62 194.5t109 154.5t165 100t225 36.5q100 0 182.5 -27.5t173.5 -79.5v-314z" />
    <glyph glyph-name="Egrave" unicode="&#xc8;" horiz-adv-x="1115" 
d="M954 1370l30 -245h-54q-14 107 -46.5 149t-102.5 42h-386v-566h157q79 0 101.5 36t22.5 154h56v-432h-56q0 118 -22.5 154t-101.5 36h-157v-642h386q82 0 119 61.5t59 222.5h59l-40 -340h-895v46q79 0 110 17t31 71v1102q0 54 -31 71t-110 17v46h871zM770 1460h-100
l-255 174v180z" />
    <glyph glyph-name="Eacute" unicode="&#xc9;" horiz-adv-x="1115" 
d="M954 1370l30 -245h-54q-14 107 -46.5 149t-102.5 42h-386v-566h157q79 0 101.5 36t22.5 154h56v-432h-56q0 118 -22.5 154t-101.5 36h-157v-642h386q82 0 119 61.5t59 222.5h59l-40 -340h-895v46q79 0 110 17t31 71v1102q0 54 -31 71t-110 17v46h871zM525 1460h-100
l355 354v-180z" />
    <glyph glyph-name="Ecircumflex" unicode="&#xca;" horiz-adv-x="1115" 
d="M954 1370l30 -245h-54q-14 107 -46.5 149t-102.5 42h-386v-566h157q79 0 101.5 36t22.5 154h56v-432h-56q0 118 -22.5 154t-101.5 36h-157v-642h386q82 0 119 61.5t59 222.5h59l-40 -340h-895v46q79 0 110 17t31 71v1102q0 54 -31 71t-110 17v46h871zM392 1460h-100
l254 298h79l255 -298h-101l-193 174z" />
    <glyph glyph-name="Edieresis" unicode="&#xcb;" horiz-adv-x="1115" 
d="M954 1370l30 -245h-54q-14 107 -46.5 149t-102.5 42h-386v-566h157q79 0 101.5 36t22.5 154h56v-432h-56q0 118 -22.5 154t-101.5 36h-157v-642h386q82 0 119 61.5t59 222.5h59l-40 -340h-895v46q79 0 110 17t31 71v1102q0 54 -31 71t-110 17v46h871zM506 1656
q0 -41 -29 -71t-67 -30q-40 0 -69 30t-29 71q0 42 29 71t69 29q39 0 67.5 -29t28.5 -71zM831 1656q0 -41 -29 -71t-67 -30q-40 0 -68.5 30t-28.5 71q0 42 28.5 71t68.5 29q39 0 67.5 -29t28.5 -71z" />
    <glyph glyph-name="Igrave" unicode="&#xcc;" horiz-adv-x="619" 
d="M537 0h-454v46q79 0 110 17t31 71v1102q0 54 -31 71t-110 17v46h454v-46q-79 0 -110.5 -17t-31.5 -71v-1102q0 -54 31.5 -71t110.5 -17v-46zM438 1460h-100l-255 174v180z" />
    <glyph glyph-name="Iacute" unicode="&#xcd;" horiz-adv-x="619" 
d="M537 0h-454v46q79 0 110 17t31 71v1102q0 54 -31 71t-110 17v46h454v-46q-79 0 -110.5 -17t-31.5 -71v-1102q0 -54 31.5 -71t110.5 -17v-46zM281 1460h-101l356 354v-180z" />
    <glyph glyph-name="Icircumflex" unicode="&#xce;" horiz-adv-x="619" 
d="M537 0h-454v46q79 0 110 17t31 71v1102q0 54 -31 71t-110 17v46h454v-46q-79 0 -110.5 -17t-31.5 -71v-1102q0 -54 31.5 -71t110.5 -17v-46zM117 1460h-101l254 298h79l255 -298h-100l-194 174z" />
    <glyph glyph-name="Idieresis" unicode="&#xcf;" horiz-adv-x="619" 
d="M537 0h-454v46q79 0 110 17t31 71v1102q0 54 -31 71t-110 17v46h454v-46q-79 0 -110.5 -17t-31.5 -71v-1102q0 -54 31.5 -71t110.5 -17v-46zM243 1656q0 -41 -29 -71t-68 -30q-40 0 -68.5 30t-28.5 71q0 42 28.5 71t68.5 29q39 0 68 -29.5t29 -70.5zM568 1656
q0 -41 -29 -71t-67 -30q-40 0 -68.5 30t-28.5 71q0 42 28.5 71t68.5 29q39 0 67.5 -29t28.5 -71z" />
    <glyph glyph-name="Eth" unicode="&#xd0;" horiz-adv-x="1325" 
d="M1008 104l-345 508l-347 -508h692zM316 1266l347 -508l346 508h-693zM713 685l355 -523v1045zM257 1209v-1046l355 522zM1078 0h-831q-39 0 -66 27.5t-27 65.5v1184q0 38 27 65.5t66 27.5h831q39 0 66 -27.5t27 -65.5v-1184q0 -38 -27 -65.5t-66 -27.5z" />
    <glyph glyph-name="Ntilde" unicode="&#xd1;" horiz-adv-x="1359" 
d="M1075 318v918q0 56 -33 72t-121 16v46h361v-46q-88 0 -120 -15.5t-32 -72.5v-1254h-58l-781 1245v-1093q0 -56 33 -72t121 -16v-46h-362v46q88 0 120.5 15.5t32.5 72.5v1101q0 54 -30.5 71.5t-107.5 17.5v46h321zM998 1718l29 -63q-66 -136 -192 -136q-48 0 -99.5 24
t-97.5 48.5t-81 24.5q-40 0 -69.5 -27.5t-41.5 -69.5l-31 56q64 150 197 150q38 0 79 -15t70.5 -33.5t65 -33.5t63.5 -15q38 0 66 25.5t42 64.5z" />
    <glyph glyph-name="Ograve" unicode="&#xd2;" 
d="M1182 685q0 -343 -144 -527t-401 -184t-401 184t-144 527t144 527t401 184t401 -184t144 -527zM991 685q0 352 -83.5 501t-270.5 149t-270.5 -149t-83.5 -501q0 -237 38 -380t114.5 -206t201.5 -63t201.5 63t114.5 206t38 380zM785 1460h-100l-255 174v180z" />
    <glyph glyph-name="Oacute" unicode="&#xd3;" 
d="M1182 685q0 -343 -144 -527t-401 -184t-401 184t-144 527t144 527t401 184t401 -184t144 -527zM991 685q0 352 -83.5 501t-270.5 149t-270.5 -149t-83.5 -501q0 -237 38 -380t114.5 -206t201.5 -63t201.5 63t114.5 206t38 380zM592 1460h-100l355 354v-180z" />
    <glyph glyph-name="Ocircumflex" unicode="&#xd4;" 
d="M1182 685q0 -343 -144 -527t-401 -184t-401 184t-144 527t144 527t401 184t401 -184t144 -527zM991 685q0 352 -83.5 501t-270.5 149t-270.5 -149t-83.5 -501q0 -237 38 -380t114.5 -206t201.5 -63t201.5 63t114.5 206t38 380zM443 1460h-100l254 298h79l255 -298h-101
l-193 174z" />
    <glyph glyph-name="Otilde" unicode="&#xd5;" 
d="M1182 685q0 -343 -144 -527t-401 -184t-401 184t-144 527t144 527t401 184t401 -184t144 -527zM991 685q0 352 -83.5 501t-270.5 149t-270.5 -149t-83.5 -501q0 -237 38 -380t114.5 -206t201.5 -63t201.5 63t114.5 206t38 380zM914 1718l29 -63q-66 -136 -192 -136
q-48 0 -99.5 24t-97.5 48.5t-81 24.5q-40 0 -69.5 -27.5t-41.5 -69.5l-31 56q64 150 197 150q38 0 79 -15t70.5 -33.5t65 -33.5t63.5 -15q38 0 66 25.5t42 64.5z" />
    <glyph glyph-name="Odieresis" unicode="&#xd6;" 
d="M1182 685q0 -343 -144 -527t-401 -184t-401 184t-144 527t144 527t401 184t401 -184t144 -527zM991 685q0 352 -83.5 501t-270.5 149t-270.5 -149t-83.5 -501q0 -237 38 -380t114.5 -206t201.5 -63t201.5 63t114.5 206t38 380zM569 1656q0 -41 -29 -71t-67 -30
q-40 0 -68.5 30t-28.5 71q0 42 28.5 71t68.5 29q39 0 67.5 -29t28.5 -71zM895 1656q0 -41 -29 -71t-67 -30q-40 0 -69 30t-29 71q0 42 29 71t69 29q39 0 67.5 -29t28.5 -71z" />
    <glyph glyph-name="multiply" unicode="&#xd7;" horiz-adv-x="867" 
d="M74 773l58 58l302 -304l303 301l59 -58l-304 -301l301 -303l-58 -58l-302 303l-303 -301l-58 57l304 302z" />
    <glyph glyph-name="Oslash" unicode="&#xd8;" 
d="M55 -37l-1 97l141 160q-103 180 -103 465q0 343 144 527t401 184q268 0 411 -198l172 198v-98l-137 -156q99 -181 99 -457q0 -343 -144 -527t-401 -184q-264 0 -406 191zM283 685q0 -204 26 -333l639 732q-38 131 -114 191t-197 60q-187 0 -270.5 -149t-83.5 -501z
M991 685q0 193 -24 323l-639 -733q39 -125 114.5 -182t194.5 -57q125 0 201.5 63t114.5 206t38 380z" />
    <glyph glyph-name="Ugrave" unicode="&#xd9;" horiz-adv-x="1317" 
d="M537 1370v-46q-79 0 -110.5 -17t-31.5 -71v-785q0 -77 15 -144.5t48 -129t95 -97.5t148 -36q156 0 242 112t86 275v805q0 53 -37.5 70.5t-119.5 17.5v46h363v-46q-79 0 -111 -17t-32 -71v-801q0 -205 -112 -333t-309 -128q-96 0 -171.5 25t-127 69t-85 107.5t-48.5 136.5
t-15 160v764q0 54 -31 71t-110 17v46h454zM842 1460h-101l-255 174v180z" />
    <glyph glyph-name="Uacute" unicode="&#xda;" horiz-adv-x="1317" 
d="M537 1370v-46q-79 0 -110.5 -17t-31.5 -71v-785q0 -77 15 -144.5t48 -129t95 -97.5t148 -36q156 0 242 112t86 275v805q0 53 -37.5 70.5t-119.5 17.5v46h363v-46q-79 0 -111 -17t-32 -71v-801q0 -205 -112 -333t-309 -128q-96 0 -171.5 25t-127 69t-85 107.5t-48.5 136.5
t-15 160v764q0 54 -31 71t-110 17v46h454zM651 1460h-100l355 354v-180z" />
    <glyph glyph-name="Ucircumflex" unicode="&#xdb;" horiz-adv-x="1317" 
d="M537 1370v-46q-79 0 -110.5 -17t-31.5 -71v-785q0 -77 15 -144.5t48 -129t95 -97.5t148 -36q156 0 242 112t86 275v805q0 53 -37.5 70.5t-119.5 17.5v46h363v-46q-79 0 -111 -17t-32 -71v-801q0 -205 -112 -333t-309 -128q-96 0 -171.5 25t-127 69t-85 107.5t-48.5 136.5
t-15 160v764q0 54 -31 71t-110 17v46h454zM516 1460h-100l254 298h79l255 -298h-101l-193 174z" />
    <glyph glyph-name="Udieresis" unicode="&#xdc;" horiz-adv-x="1317" 
d="M537 1370v-46q-79 0 -110.5 -17t-31.5 -71v-785q0 -77 15 -144.5t48 -129t95 -97.5t148 -36q156 0 242 112t86 275v805q0 53 -37.5 70.5t-119.5 17.5v46h363v-46q-79 0 -111 -17t-32 -71v-801q0 -205 -112 -333t-309 -128q-96 0 -171.5 25t-127 69t-85 107.5t-48.5 136.5
t-15 160v764q0 54 -31 71t-110 17v46h454zM643 1656q0 -41 -29 -71t-67 -30q-40 0 -68.5 30t-28.5 71q0 42 28.5 71t68.5 29q39 0 67.5 -29t28.5 -71zM969 1656q0 -41 -29 -71t-68 -30q-40 0 -68.5 30t-28.5 71q0 42 28.5 71t68.5 29q39 0 68 -29.5t29 -70.5z" />
    <glyph glyph-name="Yacute" unicode="&#xdd;" horiz-adv-x="1216" 
d="M662 584l330 740h-178v46h377v-46h-137l-356 -793v-397q0 -54 31.5 -71t110.5 -17v-46h-454v46q79 0 110 17t31 71v345l-299 708q-33 79 -71 108t-102 29h-29v46h492v-46h-76q-59 0 -59 -39q0 -28 20 -79zM638 1460h-100l355 354v-180z" />
    <glyph glyph-name="Thorn" unicode="&#xde;" horiz-adv-x="1325" 
d="M1008 104l-345 508l-347 -508h692zM316 1266l347 -508l346 508h-693zM713 685l355 -523v1045zM257 1209v-1046l355 522zM1078 0h-831q-39 0 -66 27.5t-27 65.5v1184q0 38 27 65.5t66 27.5h831q39 0 66 -27.5t27 -65.5v-1184q0 -38 -27 -65.5t-66 -27.5z" />
    <glyph glyph-name="germandbls" unicode="&#xdf;" horiz-adv-x="1071" 
d="M92 833v35h109v182q0 154 86 241.5t233 87.5q113 0 196 -67.5t83 -176.5q0 -51 -18 -93.5t-45 -68t-58.5 -52t-58.5 -47.5t-45 -53t-18 -69q0 -100 106 -150l152 -70q102 -47 143.5 -122t41.5 -177q0 -104 -71 -181.5t-192 -77.5q-77 0 -129.5 18.5t-126.5 61.5v247h41
q2 -283 207 -283q68 0 109.5 44t41.5 111t-30 117.5t-112 88.5l-110 50q-80 36 -118.5 102t-38.5 149q0 102 56 188q38 59 57 93.5t36 87.5t17 106q0 78 -35 130.5t-103 52.5q-67 0 -105.5 -53t-38.5 -118v-1167h-262v36h26q83 0 83 87v622q0 88 -83 88h-26z" />
    <glyph glyph-name="agrave" unicode="&#xe0;" horiz-adv-x="935" 
d="M589 467q-153 0 -243 -65t-90 -174q0 -77 39.5 -130.5t113.5 -53.5q78 0 129 61t51 139v223zM864 3q-51 -35 -124 -35q-130 0 -151 117q-32 -58 -98.5 -87t-137.5 -29q-114 0 -190 64t-76 173q0 61 23.5 110t64.5 81.5t90.5 56.5t108.5 36.5t111 18t104 6.5v191
q0 69 -35 100.5t-111 31.5q-114 0 -188 -73t-74 -180h-41v202q66 49 160 83t184 34q258 0 258 -208v-576q0 -51 14 -72t42 -21q22 0 66 12v-36zM637 1051h-100l-255 174v179z" />
    <glyph glyph-name="aacute" unicode="&#xe1;" horiz-adv-x="930" 
d="M589 467q-153 0 -243 -65t-90 -174q0 -77 39.5 -130.5t113.5 -53.5q78 0 129 61t51 139v223zM864 3q-51 -35 -124 -35q-130 0 -151 117q-32 -58 -98.5 -87t-137.5 -29q-114 0 -190 64t-76 173q0 61 23.5 110t64.5 81.5t90.5 56.5t108.5 36.5t111 18t104 6.5v191
q0 69 -35 100.5t-111 31.5q-114 0 -188 -73t-74 -180h-41v202q66 49 160 83t184 34q258 0 258 -208v-576q0 -51 14 -72t42 -21q22 0 66 12v-36zM373 1051h-101l356 353v-179z" />
    <glyph glyph-name="acircumflex" unicode="&#xe2;" horiz-adv-x="935" 
d="M589 467q-153 0 -243 -65t-90 -174q0 -77 39.5 -130.5t113.5 -53.5q78 0 129 61t51 139v223zM864 3q-51 -35 -124 -35q-130 0 -151 117q-32 -58 -98.5 -87t-137.5 -29q-114 0 -190 64t-76 173q0 61 23.5 110t64.5 81.5t90.5 56.5t108.5 36.5t111 18t104 6.5v191
q0 69 -35 100.5t-111 31.5q-114 0 -188 -73t-74 -180h-41v202q66 49 160 83t184 34q258 0 258 -208v-576q0 -51 14 -72t42 -21q22 0 66 12v-36zM249 1051h-101l254 298h79l255 -298h-100l-194 174z" />
    <glyph glyph-name="atilde" unicode="&#xe3;" horiz-adv-x="930" 
d="M589 467q-153 0 -243 -65t-90 -174q0 -77 39.5 -130.5t113.5 -53.5q78 0 129 61t51 139v223zM864 3q-51 -35 -124 -35q-130 0 -151 117q-32 -58 -98.5 -87t-137.5 -29q-114 0 -190 64t-76 173q0 61 23.5 110t64.5 81.5t90.5 56.5t108.5 36.5t111 18t104 6.5v191
q0 69 -35 100.5t-111 31.5q-114 0 -188 -73t-74 -180h-41v202q66 49 160 83t184 34q258 0 258 -208v-576q0 -51 14 -72t42 -21q22 0 66 12v-36zM712 1309l28 -64q-66 -136 -192 -136q-48 0 -99.5 24t-97.5 48.5t-81 24.5q-40 0 -69 -27.5t-41 -69.5l-32 56q29 68 78.5 109.5
t119.5 41.5q38 0 79 -15t70 -33.5t64.5 -33.5t63.5 -15q38 0 66.5 25.5t42.5 64.5z" />
    <glyph glyph-name="adieresis" unicode="&#xe4;" horiz-adv-x="935" 
d="M589 467q-153 0 -243 -65t-90 -174q0 -77 39.5 -130.5t113.5 -53.5q78 0 129 61t51 139v223zM864 3q-51 -35 -124 -35q-130 0 -151 117q-32 -58 -98.5 -87t-137.5 -29q-114 0 -190 64t-76 173q0 61 23.5 110t64.5 81.5t90.5 56.5t108.5 36.5t111 18t104 6.5v191
q0 69 -35 100.5t-111 31.5q-114 0 -188 -73t-74 -180h-41v202q66 49 160 83t184 34q258 0 258 -208v-576q0 -51 14 -72t42 -21q22 0 66 12v-36zM386 1246q0 -41 -28.5 -70.5t-67.5 -29.5q-40 0 -68.5 29.5t-28.5 70.5q0 42 28.5 71.5t68.5 29.5q39 0 67.5 -29.5t28.5 -71.5z
M712 1246q0 -41 -29 -70.5t-68 -29.5q-40 0 -68.5 29.5t-28.5 70.5q0 42 28.5 71.5t68.5 29.5q39 0 68 -29.5t29 -71.5z" />
    <glyph glyph-name="aring" unicode="&#xe5;" horiz-adv-x="930" 
d="M589 467q-153 0 -243 -65t-90 -174q0 -77 39.5 -130.5t113.5 -53.5q78 0 129 61t51 139v223zM864 3q-51 -35 -124 -35q-130 0 -151 117q-32 -58 -98.5 -87t-137.5 -29q-114 0 -190 64t-76 173q0 61 23.5 110t64.5 81.5t90.5 56.5t108.5 36.5t111 18t104 6.5v191
q0 69 -35 100.5t-111 31.5q-114 0 -188 -73t-74 -180h-41v202q66 49 160 83t184 34q258 0 258 -208v-576q0 -51 14 -72t42 -21q22 0 66 12v-36zM434 1383q-29 0 -48 -11.5t-27.5 -33.5t-11.5 -44t-3 -54q0 -77 22 -109.5t68 -32.5t68 32.5t22 109.5q0 32 -3 54t-11.5 44
t-27.5 33.5t-48 11.5zM246 1240q0 74 55 127t133 53t134 -53t56 -127t-56 -126.5t-134 -52.5t-133 52.5t-55 126.5z" />
    <glyph glyph-name="ae" unicode="&#xe6;" horiz-adv-x="1366" 
d="M922 857q-85 0 -129.5 -83.5t-44.5 -236.5v-31h342v10q0 98 -15.5 171.5t-54.5 121.5t-98 48zM589 458q-154 0 -243.5 -61t-89.5 -169q0 -77 39.5 -130.5t113.5 -53.5q78 0 129 61t51 139v214zM140 585v202q66 49 160 83t184 34q167 0 226 -87q92 87 212 87
q91 0 161.5 -40.5t110.5 -107.5t60 -142.5t20 -155.5h-526v-202q0 -107 59.5 -170.5t144.5 -63.5q79 0 148.5 49.5t105.5 156.5h51q-29 -117 -123.5 -190.5t-219.5 -73.5q-73 0 -144 25t-117 76q-113 -96 -279 -96q-75 0 -138 24t-106 79t-43 134q0 72 34.5 127.5t86.5 87
t123 51.5t132 26.5t126 7.5v200q0 69 -35 100.5t-111 31.5q-114 0 -188 -73t-74 -180h-41z" />
    <glyph glyph-name="ccedilla" unicode="&#xe7;" horiz-adv-x="855" 
d="M737 821v-246h-45q0 135 -57 207t-155 72q-52 0 -92 -20.5t-63.5 -58.5t-39 -77.5t-21.5 -93.5t-8 -89.5t-2 -80.5q0 -103 14 -179.5t36.5 -121t55.5 -71.5t65.5 -35.5t73.5 -8.5q81 0 138 61t81 143h50q-24 -105 -95.5 -177t-173.5 -80l-73 -75q26 6 45 6
q17 0 38.5 -6.5t46.5 -21.5t41.5 -47.5t16.5 -76.5q0 -71 -53 -118.5t-127 -47.5q-69 0 -137 52l27 38q58 -40 102 -40q42 0 66 33.5t24 78.5q0 42 -21 74t-62 32q-24 0 -60 -18l-34 36l96 102q-353 23 -353 468q0 222 105.5 346t272.5 124q145 0 277 -83z" />
    <glyph glyph-name="egrave" unicode="&#xe8;" horiz-adv-x="875" 
d="M431 857q-85 0 -129.5 -83.5t-44.5 -236.5v-42h342v21q0 98 -15.5 171.5t-54.5 121.5t-98 48zM257 454v-198q0 -107 59.5 -170.5t145.5 -63.5q79 0 148.5 49.5t105.5 156.5h51q-30 -123 -124 -193.5t-209 -70.5q-69 0 -132 27t-115.5 80.5t-83.5 144t-31 206.5
q0 132 44.5 241.5t127.5 175t187 65.5q74 0 134.5 -27.5t100 -72.5t66.5 -104.5t39 -121t12 -124.5h-526zM637 1051h-100l-255 174v179z" />
    <glyph glyph-name="eacute" unicode="&#xe9;" horiz-adv-x="875" 
d="M431 857q-85 0 -129.5 -83.5t-44.5 -236.5v-42h342v21q0 98 -15.5 171.5t-54.5 121.5t-98 48zM257 454v-198q0 -107 59.5 -170.5t145.5 -63.5q79 0 148.5 49.5t105.5 156.5h51q-30 -123 -124 -193.5t-209 -70.5q-69 0 -132 27t-115.5 80.5t-83.5 144t-31 206.5
q0 132 44.5 241.5t127.5 175t187 65.5q74 0 134.5 -27.5t100 -72.5t66.5 -104.5t39 -121t12 -124.5h-526zM382 1051h-100l355 353v-179z" />
    <glyph glyph-name="ecircumflex" unicode="&#xea;" horiz-adv-x="875" 
d="M431 857q-85 0 -129.5 -83.5t-44.5 -236.5v-42h342v21q0 98 -15.5 171.5t-54.5 121.5t-98 48zM257 454v-198q0 -107 59.5 -170.5t145.5 -63.5q79 0 148.5 49.5t105.5 156.5h51q-30 -123 -124 -193.5t-209 -70.5q-69 0 -132 27t-115.5 80.5t-83.5 144t-31 206.5
q0 132 44.5 241.5t127.5 175t187 65.5q74 0 134.5 -27.5t100 -72.5t66.5 -104.5t39 -121t12 -124.5h-526zM249 1051h-101l254 298h79l255 -298h-100l-194 174z" />
    <glyph glyph-name="edieresis" unicode="&#xeb;" horiz-adv-x="875" 
d="M431 857q-85 0 -129.5 -83.5t-44.5 -236.5v-42h342v21q0 98 -15.5 171.5t-54.5 121.5t-98 48zM257 454v-198q0 -107 59.5 -170.5t145.5 -63.5q79 0 148.5 49.5t105.5 156.5h51q-30 -123 -124 -193.5t-209 -70.5q-69 0 -132 27t-115.5 80.5t-83.5 144t-31 206.5
q0 132 44.5 241.5t127.5 175t187 65.5q74 0 134.5 -27.5t100 -72.5t66.5 -104.5t39 -121t12 -124.5h-526zM368 1246q0 -41 -29 -70.5t-68 -29.5q-40 0 -68.5 29.5t-28.5 70.5q0 42 28.5 71.5t68.5 29.5q39 0 68 -29.5t29 -71.5zM693 1246q0 -41 -28.5 -70.5t-67.5 -29.5
q-40 0 -68.5 29.5t-28.5 70.5q0 42 28.5 71.5t68.5 29.5q39 0 67.5 -29.5t28.5 -71.5z" />
    <glyph glyph-name="igrave" unicode="&#xec;" horiz-adv-x="533" 
d="M77 833v35h262v-745q0 -55 16.5 -71t65.5 -16h25v-36h-369v36h24q54 0 69 17.5t15 69.5v622q0 53 -15 70.5t-68 17.5h-25zM362 1051h-100l-255 174v179z" />
    <glyph glyph-name="iacute" unicode="&#xed;" horiz-adv-x="533" 
d="M77 833v35h262v-745q0 -55 16.5 -71t65.5 -16h25v-36h-369v36h24q54 0 69 17.5t15 69.5v622q0 53 -15 70.5t-68 17.5h-25zM218 1051h-100l355 353v-179z" />
    <glyph glyph-name="icircumflex" unicode="&#xee;" horiz-adv-x="533" 
d="M77 833v35h262v-745q0 -55 16.5 -71t65.5 -16h25v-36h-369v36h24q54 0 69 17.5t15 69.5v622q0 53 -15 70.5t-68 17.5h-25zM49 1051h-100l254 298h79l255 -298h-101l-193 174z" />
    <glyph glyph-name="idieresis" unicode="&#xef;" horiz-adv-x="533" 
d="M183 1246q0 -41 -28.5 -70.5t-67.5 -29.5q-40 0 -68.5 29.5t-28.5 70.5q0 42 28.5 71.5t68.5 29.5q39 0 67.5 -29.5t28.5 -71.5zM468 1246q0 -41 -28.5 -70.5t-67.5 -29.5q-40 0 -69 29.5t-29 70.5q0 42 29 71.5t69 29.5q39 0 67.5 -29.5t28.5 -71.5zM77 868v-35h25
q53 0 68 -17.5t15 -70.5v-622q0 -52 -15 -69.5t-69 -17.5h-24v-36h369v36h-25q-49 0 -65.5 16t-16.5 71v745h-262z" />
    <glyph glyph-name="eth" unicode="&#xf0;" horiz-adv-x="1325" 
d="M1008 104l-345 508l-347 -508h692zM316 1266l347 -508l346 508h-693zM713 685l355 -523v1045zM257 1209v-1046l355 522zM1078 0h-831q-39 0 -66 27.5t-27 65.5v1184q0 38 27 65.5t66 27.5h831q39 0 66 -27.5t27 -65.5v-1184q0 -38 -27 -65.5t-66 -27.5z" />
    <glyph glyph-name="ntilde" unicode="&#xf1;" horiz-adv-x="1077" 
d="M339 868h-262v-35h25q83 0 83 -88v-622q0 -44 -19.5 -65.5t-63.5 -21.5h-25v-36h370v36h-25q-50 0 -66.5 16t-16.5 71v372q0 145 73 244t162 99q151 0 151 -201v-514q0 -53 -14 -70t-66 -17h-29v-36h374v36h-25q-50 0 -65.5 16t-15.5 71v513q0 131 -72.5 199.5
t-188.5 68.5q-98 0 -171.5 -52.5t-112.5 -144.5v161zM794 1309l28 -64q-66 -136 -192 -136q-48 0 -99.5 24t-97.5 48.5t-81 24.5q-40 0 -69 -27.5t-41 -69.5l-32 56q29 68 78.5 109.5t119.5 41.5q38 0 79 -15t70 -33.5t64.5 -33.5t63.5 -15q38 0 66.5 25.5t42.5 64.5z" />
    <glyph glyph-name="ograve" unicode="&#xf2;" horiz-adv-x="927" 
d="M836 434q0 -226 -105 -348t-277 -122t-277 122t-105 348t105 348t277 122t277 -122t105 -348zM250 549v-230q0 -147 51 -230t153 -83q101 0 152 83t51 230v230q0 147 -51 230t-152 83q-102 0 -153 -83t-51 -230zM631 1051h-101l-255 174v179z" />
    <glyph glyph-name="oacute" unicode="&#xf3;" horiz-adv-x="927" 
d="M836 434q0 -226 -105 -348t-277 -122t-277 122t-105 348t105 348t277 122t277 -122t105 -348zM250 549v-230q0 -147 51 -230t153 -83q101 0 152 83t51 230v230q0 147 -51 230t-152 83q-102 0 -153 -83t-51 -230zM381 1051h-100l355 353v-179z" />
    <glyph glyph-name="ocircumflex" unicode="&#xf4;" horiz-adv-x="927" 
d="M836 434q0 -226 -105 -348t-277 -122t-277 122t-105 348t105 348t277 122t277 -122t105 -348zM250 549v-230q0 -147 51 -230t153 -83q101 0 152 83t51 230v230q0 147 -51 230t-152 83q-102 0 -153 -83t-51 -230zM261 1051h-100l254 298h79l255 -298h-101l-193 174z" />
    <glyph glyph-name="otilde" unicode="&#xf5;" horiz-adv-x="927" 
d="M836 434q0 -226 -105 -348t-277 -122t-277 122t-105 348t105 348t277 122t277 -122t105 -348zM250 549v-230q0 -147 51 -230t153 -83q101 0 152 83t51 230v230q0 147 -51 230t-152 83q-102 0 -153 -83t-51 -230zM730 1309l29 -64q-66 -136 -193 -136q-48 0 -99.5 24
t-97 48.5t-80.5 24.5q-40 0 -69.5 -27.5t-41.5 -69.5l-32 56q29 68 78.5 109.5t119.5 41.5q38 0 79 -15t70.5 -33.5t65 -33.5t63.5 -15q38 0 66 25.5t42 64.5z" />
    <glyph glyph-name="odieresis" unicode="&#xf6;" horiz-adv-x="927" 
d="M836 434q0 -226 -105 -348t-277 -122t-277 122t-105 348t105 348t277 122t277 -122t105 -348zM250 549v-230q0 -147 51 -230t153 -83q101 0 152 83t51 230v230q0 147 -51 230t-152 83q-102 0 -153 -83t-51 -230zM387 1246q0 -41 -28.5 -70.5t-67.5 -29.5
q-40 0 -68.5 29.5t-28.5 70.5q0 42 28.5 71.5t68.5 29.5q39 0 67.5 -29.5t28.5 -71.5zM713 1246q0 -41 -29 -70.5t-68 -29.5q-40 0 -68.5 29.5t-28.5 70.5q0 42 28.5 71.5t68.5 29.5q39 0 68 -29.5t29 -71.5z" />
    <glyph glyph-name="divide" unicode="&#xf7;" horiz-adv-x="978" 
d="M72 429v82l835 -3v-82zM582 250q0 -38 -28 -65.5t-65 -27.5t-65 27.5t-28 65.5t27.5 65t65.5 27t65.5 -27t27.5 -65zM582 689q0 -38 -28 -65.5t-65 -27.5t-65 27.5t-28 65.5t27.5 65t65.5 27t65.5 -27t27.5 -65z" />
    <glyph glyph-name="oslash" unicode="&#xf8;" horiz-adv-x="927" 
d="M35 -37l-1 87l99 101q-61 116 -61 283q0 226 105 348t277 122q183 0 287 -136l136 137l1 -87l-103 -103q61 -114 61 -281q0 -226 -105 -348t-277 -122q-183 0 -287 133zM250 549v-230q0 -33 1 -49l395 402q-38 190 -192 190q-102 0 -153 -83t-51 -230zM657 549
q0 30 -1 44l-395 -400q40 -187 193 -187q101 0 152 83t51 230v230z" />
    <glyph glyph-name="ugrave" unicode="&#xf9;" horiz-adv-x="1045" 
d="M72 868h262v-632q0 -105 30 -150.5t100 -45.5q85 0 158.5 93.5t73.5 239.5v372q0 88 -83 88h-25v35h262v-745q0 -87 83 -87h25v-36h-262v163q-26 -80 -104.5 -134.5t-163.5 -54.5q-117 0 -182.5 61.5t-65.5 190.5v519q0 88 -83 88h-25v35zM668 1051h-101l-255 174v179z
" />
    <glyph glyph-name="uacute" unicode="&#xfa;" horiz-adv-x="1045" 
d="M72 868h262v-632q0 -105 30 -150.5t100 -45.5q85 0 158.5 93.5t73.5 239.5v372q0 88 -83 88h-25v35h262v-745q0 -87 83 -87h25v-36h-262v163q-26 -80 -104.5 -134.5t-163.5 -54.5q-117 0 -182.5 61.5t-65.5 190.5v519q0 88 -83 88h-25v35zM433 1051h-100l355 353v-179z
" />
    <glyph glyph-name="ucircumflex" unicode="&#xfb;" horiz-adv-x="1045" 
d="M72 868h262v-632q0 -105 30 -150.5t100 -45.5q85 0 158.5 93.5t73.5 239.5v372q0 88 -83 88h-25v35h262v-745q0 -87 83 -87h25v-36h-262v163q-26 -80 -104.5 -134.5t-163.5 -54.5q-117 0 -182.5 61.5t-65.5 190.5v519q0 88 -83 88h-25v35zM314 1051h-100l254 298h79
l255 -298h-101l-193 174z" />
    <glyph glyph-name="udieresis" unicode="&#xfc;" horiz-adv-x="1045" 
d="M72 868h262v-632q0 -105 30 -150.5t100 -45.5q85 0 158.5 93.5t73.5 239.5v372q0 88 -83 88h-25v35h262v-745q0 -87 83 -87h25v-36h-262v163q-26 -80 -104.5 -134.5t-163.5 -54.5q-117 0 -182.5 61.5t-65.5 190.5v519q0 88 -83 88h-25v35zM439 1246q0 -41 -28.5 -70.5
t-67.5 -29.5q-40 0 -68.5 29.5t-28.5 70.5q0 42 28.5 71.5t68.5 29.5q39 0 67.5 -29.5t28.5 -71.5zM765 1246q0 -41 -28.5 -70.5t-67.5 -29.5q-40 0 -69 29.5t-29 70.5q0 42 29 71.5t69 29.5q39 0 67.5 -29.5t28.5 -71.5z" />
    <glyph glyph-name="yacute" unicode="&#xfd;" horiz-adv-x="942" 
d="M481 0h-81l-255 762q-24 71 -95 71h-35v35h393v-35h-44q-29 0 -43 -15.5t-14 -39.5q0 -16 11 -49l199 -612l229 716h-142v34h323v-34h-124l-340 -1059q-34 -106 -94 -170.5t-146 -64.5q-78 0 -138 36v204h61q1 -70 30.5 -108.5t70.5 -38.5q46 0 91 43.5t71 118.5z
M441 1051h-100l355 353v-179z" />
    <glyph glyph-name="thorn" unicode="&#xfe;" horiz-adv-x="1325" 
d="M1008 104l-345 508l-347 -508h692zM316 1266l347 -508l346 508h-693zM713 685l355 -523v1045zM257 1209v-1046l355 522zM1078 0h-831q-39 0 -66 27.5t-27 65.5v1184q0 38 27 65.5t66 27.5h831q39 0 66 -27.5t27 -65.5v-1184q0 -38 -27 -65.5t-66 -27.5z" />
    <glyph glyph-name="ydieresis" unicode="&#xff;" horiz-adv-x="942" 
d="M400 0h81l-72 -206q-26 -75 -71 -118.5t-91 -43.5q-41 0 -70.5 38.5t-30.5 108.5h-61v-204q60 -36 138 -36q86 0 146 64.5t94 170.5l340 1059h124v34h-323v-34h142l-229 -716l-199 612q-11 33 -11 49q0 24 14 39.5t43 15.5h44v35h-393v-35h35q71 0 95 -71zM419 1246
q0 -41 -28.5 -70.5t-67.5 -29.5q-40 0 -69 29.5t-29 70.5q0 42 29 71.5t69 29.5q39 0 67.5 -29.5t28.5 -71.5zM744 1246q0 -41 -28.5 -70.5t-67.5 -29.5q-40 0 -68.5 29.5t-28.5 70.5q0 42 28.5 71.5t68.5 29.5q39 0 67.5 -29.5t28.5 -71.5z" />
    <glyph glyph-name="Amacron" unicode="&#x100;" horiz-adv-x="1246" 
d="M775 449h-441l-87 -287q-9 -27 -9 -45q0 -32 22 -51.5t65 -19.5h44v-46h-354v46h41q39 0 80 37t59 95l359 1192h131l352 -1183q23 -78 65.5 -108t98.5 -32l30 -1v-46h-499v46l59 1q34 1 54.5 20t20.5 52q0 19 -10 51zM560 1195l-212 -695h412zM367 1619l22 110h491
l-23 -110h-490z" />
    <glyph glyph-name="amacron" unicode="&#x101;" horiz-adv-x="930" 
d="M589 467q-153 0 -243 -65t-90 -174q0 -77 39.5 -130.5t113.5 -53.5q78 0 129 61t51 139v223zM864 3q-51 -35 -124 -35q-130 0 -151 117q-32 -58 -98.5 -87t-137.5 -29q-114 0 -190 64t-76 173q0 61 23.5 110t64.5 81.5t90.5 56.5t108.5 36.5t111 18t104 6.5v191
q0 69 -35 100.5t-111 31.5q-114 0 -188 -73t-74 -180h-41v202q66 49 160 83t184 34q258 0 258 -208v-576q0 -51 14 -72t42 -21q22 0 66 12v-36zM220 1174l19 99h449l-18 -99h-450z" />
    <glyph glyph-name="Abreve" unicode="&#x102;" horiz-adv-x="1246" 
d="M775 449h-441l-87 -287q-9 -27 -9 -45q0 -32 22 -51.5t65 -19.5h44v-46h-354v46h41q39 0 80 37t59 95l359 1192h131l352 -1183q23 -78 65.5 -108t98.5 -32l30 -1v-46h-499v46l59 1q34 1 54.5 20t20.5 52q0 19 -10 51zM560 1195l-212 -695h412zM851 1744l58 -28
q-6 -34 -24.5 -70.5t-50.5 -75.5t-86.5 -64t-121.5 -25q-68 0 -123 25t-87 64t-50.5 75.5t-24.5 70.5l63 28q3 -7 8 -17.5t25 -38t43.5 -48.5t62.5 -38.5t83 -17.5t83 16.5t64 40t43.5 47t26.5 40.5z" />
    <glyph glyph-name="abreve" unicode="&#x103;" horiz-adv-x="930" 
d="M589 467q-153 0 -243 -65t-90 -174q0 -77 39.5 -130.5t113.5 -53.5q78 0 129 61t51 139v223zM864 3q-51 -35 -124 -35q-130 0 -151 117q-32 -58 -98.5 -87t-137.5 -29q-114 0 -190 64t-76 173q0 61 23.5 110t64.5 81.5t90.5 56.5t108.5 36.5t111 18t104 6.5v191
q0 69 -35 100.5t-111 31.5q-114 0 -188 -73t-74 -180h-41v202q66 49 160 83t184 34q258 0 258 -208v-576q0 -51 14 -72t42 -21q22 0 66 12v-36zM691 1334l59 -27q-5 -26 -16.5 -54.5t-35 -62t-54 -59t-77.5 -43t-101 -17.5q-68 0 -123 25t-87 64.5t-50 76t-25 70.5l64 27
q3 -6 8 -17t25 -38.5t43 -48.5t62 -38t83 -17t83 16.5t64 39.5t43.5 46.5t26.5 40.5z" />
    <glyph glyph-name="Aogonek" unicode="&#x104;" horiz-adv-x="1246" 
d="M1159 0h-427v46l59 1q34 1 54.5 20t20.5 52q0 19 -10 51l-81 279h-441l-87 -287q-9 -27 -9 -45q0 -32 22 -51.5t65 -19.5h44v-46h-354v46h41q39 0 80 37t59 95l359 1192h131l352 -1183q23 -78 65.5 -108t98.5 -32l30 -1v-46q-78 -21 -116 -55t-38 -91q0 -42 24.5 -75.5
t66.5 -39.5l-48 -107q-58 12 -95.5 58.5t-37.5 107.5q0 71 49 124.5t123 77.5zM560 1195l-212 -695h412z" />
    <glyph glyph-name="aogonek" unicode="&#x105;" horiz-adv-x="930" 
d="M864 3q-47 -32 -116 -35q-70 -40 -70 -114q0 -42 24.5 -75.5t66.5 -39.5l-48 -107q-58 12 -95.5 58.5t-37.5 107.5q0 110 109 174q-91 18 -108 113q-32 -58 -98.5 -87t-137.5 -29q-114 0 -190 64t-76 173q0 61 23.5 110t64.5 81.5t90.5 56.5t108.5 36.5t111 18t104 6.5
v191q0 69 -35 100.5t-111 31.5q-114 0 -188 -73t-74 -180h-41v202q66 49 160 83t184 34q258 0 258 -208v-576q0 -51 14 -72t42 -21q22 0 66 12v-36zM589 467q-153 0 -243 -65t-90 -174q0 -77 39.5 -130.5t113.5 -53.5q78 0 129 61t51 139v223z" />
    <glyph glyph-name="Cacute" unicode="&#x106;" horiz-adv-x="1152" 
d="M1044 975h-55q0 185 -75 272.5t-229 87.5q-71 0 -126.5 -16.5t-105.5 -60.5t-83 -116t-52.5 -187.5t-19.5 -269.5q0 -63 2.5 -116.5t12.5 -122.5t25.5 -124t44.5 -110t68 -92.5t97 -60.5t130 -23q84 0 145 26t96 75.5t51.5 112.5t18.5 145h55v-314q-162 -107 -366 -107
q-123 0 -220 35t-162 97t-108 152t-61.5 195t-18.5 232q0 122 19 225.5t62 194.5t109 154.5t165 100t225 36.5q100 0 182.5 -27.5t173.5 -79.5v-314zM611 1460h-100l355 354v-180z" />
    <glyph glyph-name="cacute" unicode="&#x107;" horiz-adv-x="855" 
d="M737 821v-246h-45q0 135 -57 207t-155 72q-52 0 -92 -20.5t-63.5 -58.5t-39 -77.5t-21.5 -93.5t-8 -89.5t-2 -80.5q0 -103 14 -179.5t36.5 -121t55.5 -71.5t65.5 -35.5t73.5 -8.5q81 0 138 61t81 143h50q-25 -111 -103 -184.5t-190 -73.5q-67 0 -123.5 14t-107 47.5
t-86 86t-56 134.5t-20.5 188q0 222 105.5 346t272.5 124q145 0 277 -83zM382 1051h-100l355 353v-179z" />
    <glyph glyph-name="Ccircumflex" unicode="&#x108;" horiz-adv-x="1152" 
d="M1044 975h-55q0 185 -75 272.5t-229 87.5q-71 0 -126.5 -16.5t-105.5 -60.5t-83 -116t-52.5 -187.5t-19.5 -269.5q0 -63 2.5 -116.5t12.5 -122.5t25.5 -124t44.5 -110t68 -92.5t97 -60.5t130 -23q84 0 145 26t96 75.5t51.5 112.5t18.5 145h55v-314q-162 -107 -366 -107
q-123 0 -220 35t-162 97t-108 152t-61.5 195t-18.5 232q0 122 19 225.5t62 194.5t109 154.5t165 100t225 36.5q100 0 182.5 -27.5t173.5 -79.5v-314zM464 1460h-100l253 298h79l255 -298h-100l-194 174z" />
    <glyph glyph-name="ccircumflex" unicode="&#x109;" horiz-adv-x="855" 
d="M737 821v-246h-45q0 135 -57 207t-155 72q-52 0 -92 -20.5t-63.5 -58.5t-39 -77.5t-21.5 -93.5t-8 -89.5t-2 -80.5q0 -103 14 -179.5t36.5 -121t55.5 -71.5t65.5 -35.5t73.5 -8.5q81 0 138 61t81 143h50q-25 -111 -103 -184.5t-190 -73.5q-67 0 -123.5 14t-107 47.5
t-86 86t-56 134.5t-20.5 188q0 222 105.5 346t272.5 124q145 0 277 -83zM280 1051h-101l254 298h79l255 -298h-100l-194 174z" />
    <glyph glyph-name="Cdotaccent" unicode="&#x10a;" horiz-adv-x="1152" 
d="M1044 975h-55q0 185 -75 272.5t-229 87.5q-71 0 -126.5 -16.5t-105.5 -60.5t-83 -116t-52.5 -187.5t-19.5 -269.5q0 -63 2.5 -116.5t12.5 -122.5t25.5 -124t44.5 -110t68 -92.5t97 -60.5t130 -23q84 0 145 26t96 75.5t51.5 112.5t18.5 145h55v-314q-162 -107 -366 -107
q-123 0 -220 35t-162 97t-108 152t-61.5 195t-18.5 232q0 122 19 225.5t62 194.5t109 154.5t165 100t225 36.5q100 0 182.5 -27.5t173.5 -79.5v-314zM741 1635q0 -43 -30 -74t-71 -31q-42 0 -72 31t-30 74q0 44 30 75t72 31q41 0 71 -31t30 -75z" />
    <glyph glyph-name="cdotaccent" unicode="&#x10b;" horiz-adv-x="855" 
d="M737 821v-246h-45q0 135 -57 207t-155 72q-52 0 -92 -20.5t-63.5 -58.5t-39 -77.5t-21.5 -93.5t-8 -89.5t-2 -80.5q0 -103 14 -179.5t36.5 -121t55.5 -71.5t65.5 -35.5t73.5 -8.5q81 0 138 61t81 143h50q-25 -111 -103 -184.5t-190 -73.5q-67 0 -123.5 14t-107 47.5
t-86 86t-56 134.5t-20.5 188q0 222 105.5 346t272.5 124q145 0 277 -83zM562 1226q0 -41 -29 -71t-67 -30q-40 0 -68.5 30t-28.5 71q0 42 28.5 71t68.5 29q39 0 67.5 -29t28.5 -71z" />
    <glyph glyph-name="Ccaron" unicode="&#x10c;" horiz-adv-x="1152" 
d="M1044 975h-55q0 185 -75 272.5t-229 87.5q-71 0 -126.5 -16.5t-105.5 -60.5t-83 -116t-52.5 -187.5t-19.5 -269.5q0 -63 2.5 -116.5t12.5 -122.5t25.5 -124t44.5 -110t68 -92.5t97 -60.5t130 -23q84 0 145 26t96 75.5t51.5 112.5t18.5 145h55v-314q-162 -107 -366 -107
q-123 0 -220 35t-162 97t-108 152t-61.5 195t-18.5 232q0 122 19 225.5t62 194.5t109 154.5t165 100t225 36.5q100 0 182.5 -27.5t173.5 -79.5v-314zM364 1758h100l193 -174l194 174h100l-255 -298h-79z" />
    <glyph glyph-name="ccaron" unicode="&#x10d;" horiz-adv-x="855" 
d="M737 821v-246h-45q0 135 -57 207t-155 72q-52 0 -92 -20.5t-63.5 -58.5t-39 -77.5t-21.5 -93.5t-8 -89.5t-2 -80.5q0 -103 14 -179.5t36.5 -121t55.5 -71.5t65.5 -35.5t73.5 -8.5q81 0 138 61t81 143h50q-25 -111 -103 -184.5t-190 -73.5q-67 0 -123.5 14t-107 47.5
t-86 86t-56 134.5t-20.5 188q0 222 105.5 346t272.5 124q145 0 277 -83zM179 1349h101l193 -174l194 174h100l-255 -298h-79z" />
    <glyph glyph-name="Dcaron" unicode="&#x10e;" horiz-adv-x="1291" 
d="M995 685q0 323 -115.5 476.5t-387.5 153.5h-97v-1260h140q131 0 221.5 41t142 124.5t74 195.5t22.5 269zM588 0h-505v46q79 0 110 17t31 71v1102q0 54 -31 71t-110 17v46h480q296 0 458.5 -172t162.5 -493q0 -165 -34 -292.5t-104.5 -221t-185.5 -142.5t-272 -49z
M353 1758h101l193 -174l194 174h100l-255 -298h-79z" />
    <glyph glyph-name="dcaron" unicode="&#x10f;" horiz-adv-x="1009" 
d="M259 434q0 -39 0.5 -62.5t4 -71t10 -78.5t20.5 -71t33 -63.5t49.5 -40.5t69.5 -17q59 0 102.5 31t66.5 81.5t34 104.5t11 111v152q0 53 -10.5 106.5t-33.5 105.5t-67 84.5t-102 32.5q-39 0 -69.5 -15.5t-50 -37t-33 -59.5t-20.5 -68t-10.5 -78t-4 -75t-0.5 -72zM660 739
v523q0 42 -16 57t-66 15h-26v36h262v-1247q0 -52 15 -69.5t69 -17.5h25v-36h-263v129q-16 -65 -84.5 -115t-158.5 -50q-151 0 -240.5 120.5t-89.5 349.5q0 126 26 219t73 146.5t104.5 79t126.5 25.5q79 0 146.5 -46t96.5 -119zM944 843h-49q5 74 5 165q0 74 -4.5 166
t-4.5 109q0 44 24.5 76t70.5 32q36 0 56 -21t20 -51q0 -27 -48 -183t-70 -293z" />
    <glyph glyph-name="Dcroat" unicode="&#x110;" horiz-adv-x="1291" 
d="M85 633l18 99h121v504q0 54 -31 71t-110 17v46h480q296 0 458.5 -172t162.5 -493q0 -165 -34 -292.5t-104.5 -221t-185.5 -142.5t-272 -49h-505v46q79 0 110 17t31 71v499h-139zM995 685q0 323 -115.5 476.5t-387.5 153.5h-97v-583h307l-18 -99h-289v-578h140
q131 0 221.5 41t142 124.5t74 195.5t22.5 269z" />
    <glyph glyph-name="dcroat" unicode="&#x111;" horiz-adv-x="1009" 
d="M411 1093v63h249v106q0 42 -16 57t-66 15h-26v36h262v-214h129l-63 -63h-66v-970q0 -52 15 -69.5t69 -17.5h25v-36h-263v129q-16 -65 -84.5 -115t-158.5 -50q-151 0 -240.5 120.5t-89.5 349.5q0 126 26 219t73 146.5t104.5 79t126.5 25.5q79 0 146.5 -46t96.5 -119v354
h-249zM259 434q0 -39 0.5 -62.5t4 -71t10 -78.5t20.5 -71t33 -63.5t49.5 -40.5t69.5 -17q59 0 102.5 31t66.5 81.5t34 104.5t11 111v152q0 53 -10.5 106.5t-33.5 105.5t-67 84.5t-102 32.5q-39 0 -69.5 -15.5t-50 -37t-33 -59.5t-20.5 -68t-10.5 -78t-4 -75t-0.5 -72z" />
    <glyph glyph-name="Emacron" unicode="&#x112;" horiz-adv-x="1115" 
d="M954 1370l30 -245h-54q-14 107 -46.5 149t-102.5 42h-386v-566h157q79 0 101.5 36t22.5 154h56v-432h-56q0 118 -22.5 154t-101.5 36h-157v-642h386q82 0 119 61.5t59 222.5h59l-40 -340h-895v46q79 0 110 17t31 71v1102q0 54 -31 71t-110 17v46h871zM303 1619l23 110
h490l-22 -110h-491z" />
    <glyph glyph-name="emacron" unicode="&#x113;" horiz-adv-x="875" 
d="M431 857q-85 0 -129.5 -83.5t-44.5 -236.5v-42h342v21q0 98 -15.5 171.5t-54.5 121.5t-98 48zM257 454v-198q0 -107 59.5 -170.5t145.5 -63.5q79 0 148.5 49.5t105.5 156.5h51q-30 -123 -124 -193.5t-209 -70.5q-69 0 -132 27t-115.5 80.5t-83.5 144t-31 206.5
q0 132 44.5 241.5t127.5 175t187 65.5q74 0 134.5 -27.5t100 -72.5t66.5 -104.5t39 -121t12 -124.5h-526zM223 1174l19 99h449l-18 -99h-450z" />
    <glyph glyph-name="Ebreve" unicode="&#x114;" horiz-adv-x="1115" 
d="M954 1370l30 -245h-54q-14 107 -46.5 149t-102.5 42h-386v-566h157q79 0 101.5 36t22.5 154h56v-432h-56q0 118 -22.5 154t-101.5 36h-157v-642h386q82 0 119 61.5t59 222.5h59l-40 -340h-895v46q79 0 110 17t31 71v1102q0 54 -31 71t-110 17v46h871zM782 1744l59 -28
q-5 -26 -16.5 -54.5t-35 -61.5t-54 -59t-77.5 -43t-101 -17q-68 0 -123 25t-87 64t-50.5 75.5t-24.5 70.5l64 28q3 -7 8 -17.5t25 -38t43 -48.5t62 -38.5t83 -17.5t83 16.5t64 40t43.5 47t26.5 40.5z" />
    <glyph glyph-name="ebreve" unicode="&#x115;" horiz-adv-x="875" 
d="M431 857q-85 0 -129.5 -83.5t-44.5 -236.5v-42h342v21q0 98 -15.5 171.5t-54.5 121.5t-98 48zM257 454v-198q0 -107 59.5 -170.5t145.5 -63.5q79 0 148.5 49.5t105.5 156.5h51q-30 -123 -124 -193.5t-209 -70.5q-69 0 -132 27t-115.5 80.5t-83.5 144t-31 206.5
q0 132 44.5 241.5t127.5 175t187 65.5q74 0 134.5 -27.5t100 -72.5t66.5 -104.5t39 -121t12 -124.5h-526zM686 1334l58 -27q-6 -34 -24.5 -70.5t-50.5 -76t-86.5 -64.5t-121.5 -25q-68 0 -123 25t-87 64.5t-50 76t-25 70.5l64 27q3 -6 8 -17t25 -38.5t43 -48.5t62 -38
t83 -17t83 16.5t64 39.5t43.5 46.5t26.5 40.5z" />
    <glyph glyph-name="Edotaccent" unicode="&#x116;" horiz-adv-x="1115" 
d="M954 1370l30 -245h-54q-14 107 -46.5 149t-102.5 42h-386v-566h157q79 0 101.5 36t22.5 154h56v-432h-56q0 118 -22.5 154t-101.5 36h-157v-642h386q82 0 119 61.5t59 222.5h59l-40 -340h-895v46q79 0 110 17t31 71v1102q0 54 -31 71t-110 17v46h871zM660 1635
q0 -43 -30 -74t-71 -31q-42 0 -72 31t-30 74q0 44 30 75t72 31q41 0 71 -31t30 -75z" />
    <glyph glyph-name="edotaccent" unicode="&#x117;" horiz-adv-x="875" 
d="M431 857q-85 0 -129.5 -83.5t-44.5 -236.5v-42h342v21q0 98 -15.5 171.5t-54.5 121.5t-98 48zM257 454v-198q0 -107 59.5 -170.5t145.5 -63.5q79 0 148.5 49.5t105.5 156.5h51q-30 -123 -124 -193.5t-209 -70.5q-69 0 -132 27t-115.5 80.5t-83.5 144t-31 206.5
q0 132 44.5 241.5t127.5 175t187 65.5q74 0 134.5 -27.5t100 -72.5t66.5 -104.5t39 -121t12 -124.5h-526zM562 1226q0 -41 -29 -71t-67 -30q-40 0 -68.5 30t-28.5 71q0 42 28.5 71t68.5 29q39 0 67.5 -29t28.5 -71z" />
    <glyph glyph-name="Eogonek" unicode="&#x118;" horiz-adv-x="1115" 
d="M906 0h-823v46q79 0 110 17t31 71v1102q0 54 -31 71t-110 17v46h871l30 -245h-54q-14 107 -46.5 149t-102.5 42h-386v-566h157q79 0 101.5 36t22.5 154h56v-432h-56q0 118 -22.5 154t-101.5 36h-157v-642h386q82 0 119 61.5t59 222.5h59l-40 -340q-78 -21 -116 -55
t-38 -91q0 -42 24.5 -75.5t66.5 -39.5l-48 -107q-58 12 -95.5 58.5t-37.5 107.5q0 71 49 124.5t123 77.5z" />
    <glyph glyph-name="eogonek" unicode="&#x119;" horiz-adv-x="875" 
d="M257 454v-198q0 -107 59.5 -170.5t145.5 -63.5q79 0 148.5 49.5t105.5 156.5h51q-25 -101 -93.5 -167t-159.5 -88q-80 -39 -80 -119q0 -42 24.5 -75.5t66.5 -39.5l-48 -107q-58 12 -95.5 58.5t-37.5 107.5q0 101 96 166h-6q-69 0 -132 27t-115.5 80.5t-83.5 144
t-31 206.5q0 132 44.5 241.5t127.5 175t187 65.5q74 0 134.5 -27.5t100 -72.5t66.5 -104.5t39 -121t12 -124.5h-526zM431 857q-85 0 -129.5 -83.5t-44.5 -236.5v-42h342v21q0 98 -15.5 171.5t-54.5 121.5t-98 48z" />
    <glyph glyph-name="Ecaron" unicode="&#x11a;" horiz-adv-x="1115" 
d="M954 1370l30 -245h-54q-14 107 -46.5 149t-102.5 42h-386v-566h157q79 0 101.5 36t22.5 154h56v-432h-56q0 118 -22.5 154t-101.5 36h-157v-642h386q82 0 119 61.5t59 222.5h59l-40 -340h-895v46q79 0 110 17t31 71v1102q0 54 -31 71t-110 17v46h871zM271 1758h101
l193 -174l194 174h100l-255 -298h-79z" />
    <glyph glyph-name="ecaron" unicode="&#x11b;" horiz-adv-x="875" 
d="M431 857q-85 0 -129.5 -83.5t-44.5 -236.5v-42h342v21q0 98 -15.5 171.5t-54.5 121.5t-98 48zM257 454v-198q0 -107 59.5 -170.5t145.5 -63.5q79 0 148.5 49.5t105.5 156.5h51q-30 -123 -124 -193.5t-209 -70.5q-69 0 -132 27t-115.5 80.5t-83.5 144t-31 206.5
q0 132 44.5 241.5t127.5 175t187 65.5q74 0 134.5 -27.5t100 -72.5t66.5 -104.5t39 -121t12 -124.5h-526zM159 1349h100l194 -174l193 174h100l-254 -298h-79z" />
    <glyph glyph-name="Gcircumflex" unicode="&#x11c;" horiz-adv-x="1288" 
d="M1043 1290v-314h-55q0 185 -75.5 272.5t-230.5 87.5q-71 0 -126.5 -17t-105.5 -61t-83 -116t-52 -187.5t-19 -269.5q0 -119 11.5 -215t31 -163t49.5 -116.5t62.5 -78.5t74.5 -46.5t80 -23.5t85 -6q67 0 120 21.5t82.5 54.5t45 67t15.5 64v270q0 52 -13 69t-63 17h-61v54
h308v-478q-101 -97 -217 -149t-227 -52q-263 0 -417.5 186t-154.5 525q0 354 149.5 532.5t429.5 178.5q178 0 356 -106zM454 1460h-101l254 298h79l255 -298h-100l-194 174z" />
    <glyph glyph-name="gcircumflex" unicode="&#x11d;" horiz-adv-x="1010" 
d="M659 433q0 80 -11.5 149t-35 127.5t-66.5 92.5t-100 34q-51 0 -87.5 -21t-58 -55t-34 -88.5t-16.5 -109.5t-4 -129q0 -80 4 -135.5t16.5 -108.5t34 -84t58 -50t87.5 -19q213 0 213 397zM924 867v-36h-25q-54 0 -69 -17.5t-15 -69.5v-879q0 -166 -89 -246t-271 -80
q-85 0 -167.5 21.5t-132.5 60.5v219h61q0 -52 11 -93.5t35.5 -76t67 -53.5t101.5 -19q231 0 231 300v245q-70 -174 -238 -174q-175 0 -263.5 123.5t-88.5 340.5q0 97 21.5 180t64 147.5t111 101.5t155.5 37q79 0 143 -46.5t95 -123.5v138h262zM314 1051h-100l254 298h79
l255 -298h-101l-193 174z" />
    <glyph glyph-name="Gbreve" unicode="&#x11e;" horiz-adv-x="1288" 
d="M1043 1290v-314h-55q0 185 -75.5 272.5t-230.5 87.5q-71 0 -126.5 -17t-105.5 -61t-83 -116t-52 -187.5t-19 -269.5q0 -119 11.5 -215t31 -163t49.5 -116.5t62.5 -78.5t74.5 -46.5t80 -23.5t85 -6q67 0 120 21.5t82.5 54.5t45 67t15.5 64v270q0 52 -13 69t-63 17h-61v54
h308v-478q-101 -97 -217 -149t-227 -52q-263 0 -417.5 186t-154.5 525q0 354 149.5 532.5t429.5 178.5q178 0 356 -106zM885 1744l58 -28q-5 -26 -16.5 -54.5t-35 -61.5t-54 -59t-77.5 -43t-101 -17q-55 0 -102 17t-77.5 43t-53.5 59t-34.5 61.5t-16.5 54.5l63 28
q3 -7 8 -17.5t25 -38t43 -48.5t62 -38.5t83 -17.5t83 16.5t64 40t44 47t27 40.5z" />
    <glyph glyph-name="gbreve" unicode="&#x11f;" horiz-adv-x="1010" 
d="M659 433q0 80 -11.5 149t-35 127.5t-66.5 92.5t-100 34q-51 0 -87.5 -21t-58 -55t-34 -88.5t-16.5 -109.5t-4 -129q0 -80 4 -135.5t16.5 -108.5t34 -84t58 -50t87.5 -19q213 0 213 397zM924 867v-36h-25q-54 0 -69 -17.5t-15 -69.5v-879q0 -166 -89 -246t-271 -80
q-85 0 -167.5 21.5t-132.5 60.5v219h61q0 -52 11 -93.5t35.5 -76t67 -53.5t101.5 -19q231 0 231 300v245q-70 -174 -238 -174q-175 0 -263.5 123.5t-88.5 340.5q0 97 21.5 180t64 147.5t111 101.5t155.5 37q79 0 143 -46.5t95 -123.5v138h262zM776 1334l59 -27
q-5 -26 -16.5 -54.5t-35 -62t-54 -59t-77.5 -43t-101 -17.5q-68 0 -123 25t-87 64.5t-50 76t-25 70.5l64 27q3 -6 8 -17t25 -38.5t43 -48.5t62 -38t83 -17t83 16.5t64 39.5t43.5 46.5t26.5 40.5z" />
    <glyph glyph-name="Gdotaccent" unicode="&#x120;" horiz-adv-x="1288" 
d="M1043 1290q-178 106 -356 106q-280 0 -429.5 -178.5t-149.5 -532.5q0 -339 154.5 -525t417.5 -186q111 0 227 52t217 149v478h-308v-54h61q50 0 63 -17t13 -69v-270q0 -30 -15.5 -64t-45 -67t-82.5 -54.5t-120 -21.5q-47 0 -85 6t-80 23.5t-74.5 46.5t-62.5 78.5
t-49.5 116.5t-31 163t-11.5 215q0 154 19 269.5t52 187.5t83 116t105.5 61t126.5 17q155 0 230.5 -87.5t75.5 -272.5h55v314zM741 1635q0 -43 -30 -74t-71 -31q-42 0 -72 31t-30 74q0 44 30 75t72 31q41 0 71 -31t30 -75z" />
    <glyph glyph-name="gdotaccent" unicode="&#x121;" horiz-adv-x="1010" 
d="M659 433q0 80 -11.5 149t-35 127.5t-66.5 92.5t-100 34q-51 0 -87.5 -21t-58 -55t-34 -88.5t-16.5 -109.5t-4 -129q0 -80 4 -135.5t16.5 -108.5t34 -84t58 -50t87.5 -19q213 0 213 397zM924 867v-36h-25q-54 0 -69 -17.5t-15 -69.5v-879q0 -166 -89 -246t-271 -80
q-85 0 -167.5 21.5t-132.5 60.5v219h61q0 -52 11 -93.5t35.5 -76t67 -53.5t101.5 -19q231 0 231 300v245q-70 -174 -238 -174q-175 0 -263.5 123.5t-88.5 340.5q0 97 21.5 180t64 147.5t111 101.5t155.5 37q79 0 143 -46.5t95 -123.5v138h262zM587 1226q0 -41 -29 -71
t-68 -30q-40 0 -68.5 30t-28.5 71q0 42 28.5 71t68.5 29q39 0 68 -29.5t29 -70.5z" />
    <glyph glyph-name="Gcommaaccent" unicode="&#x122;" horiz-adv-x="1288" 
d="M1043 1290v-314h-55q0 185 -75.5 272.5t-230.5 87.5q-71 0 -126.5 -17t-105.5 -61t-83 -116t-52 -187.5t-19 -269.5q0 -119 11.5 -215t31 -163t49.5 -116.5t62.5 -78.5t74.5 -46.5t80 -23.5t85 -6q67 0 120 21.5t82.5 54.5t45 67t15.5 64v270q0 52 -13 69t-63 17h-61v54
h308v-478q-101 -97 -217 -149t-227 -52q-263 0 -417.5 186t-154.5 525q0 354 149.5 532.5t429.5 178.5q178 0 356 -106zM746 -240q0 14 -3 27q-24 -62 -83 -62q-38 0 -64.5 29.5t-26.5 64.5q0 41 31.5 69t70.5 28q59 0 92 -43.5t33 -102.5q0 -88 -57 -159t-141 -110l-24 40
q72 37 122 94.5t50 124.5z" />
    <glyph glyph-name="gcommaaccent" unicode="&#x123;" horiz-adv-x="1010" 
d="M659 433q0 80 -11.5 149t-35 127.5t-66.5 92.5t-100 34q-51 0 -87.5 -21t-58 -55t-34 -88.5t-16.5 -109.5t-4 -129q0 -80 4 -135.5t16.5 -108.5t34 -84t58 -50t87.5 -19q213 0 213 397zM924 867v-36h-25q-54 0 -69 -17.5t-15 -69.5v-879q0 -166 -89 -246t-271 -80
q-85 0 -167.5 21.5t-132.5 60.5v219h61q0 -52 11 -93.5t35.5 -76t67 -53.5t101.5 -19q231 0 231 300v245q-70 -174 -238 -174q-175 0 -263.5 123.5t-88.5 340.5q0 97 21.5 180t64 147.5t111 101.5t155.5 37q79 0 143 -46.5t95 -123.5v138h262zM400 1142q0 -14 3 -27
q12 31 34.5 47t48.5 16q38 0 65 -30t27 -65q0 -41 -31.5 -69t-70.5 -28q-59 0 -92 44t-33 103q0 87 57 158t141 110l23 -40q-72 -37 -122 -94.5t-50 -124.5z" />
    <glyph glyph-name="Itilde" unicode="&#x128;" horiz-adv-x="619" 
d="M537 0h-454v46q79 0 110 17t31 71v1102q0 54 -31 71t-110 17v46h454v-46q-79 0 -110.5 -17t-31.5 -71v-1102q0 -54 31.5 -71t110.5 -17v-46zM587 1718l28 -63q-66 -136 -192 -136q-48 0 -99.5 24t-97.5 48.5t-81 24.5q-40 0 -69 -27.5t-41 -69.5l-32 56q64 150 198 150
q38 0 79 -15t70 -33.5t64.5 -33.5t63.5 -15q38 0 66.5 25.5t42.5 64.5z" />
    <glyph glyph-name="itilde" unicode="&#x129;" horiz-adv-x="533" 
d="M77 868v-35h25q53 0 68 -17.5t15 -70.5v-622q0 -52 -15 -69.5t-69 -17.5h-24v-36h369v36h-25q-49 0 -65.5 16t-16.5 71v745h-262zM513 1309l29 -64q-66 -136 -193 -136q-48 0 -99.5 24t-97 48.5t-80.5 24.5q-40 0 -69.5 -27.5t-41.5 -69.5l-32 56q29 68 78.5 109.5
t119.5 41.5q38 0 79 -15t70 -33.5t64.5 -33.5t63.5 -15q38 0 66.5 25.5t42.5 64.5z" />
    <glyph glyph-name="Imacron" unicode="&#x12a;" horiz-adv-x="619" 
d="M537 0h-454v46q79 0 110 17t31 71v1102q0 54 -31 71t-110 17v46h454v-46q-79 0 -110.5 -17t-31.5 -71v-1102q0 -54 31.5 -71t110.5 -17v-46zM59 1619l23 110h490l-22 -110h-491z" />
    <glyph glyph-name="imacron" unicode="&#x12b;" horiz-adv-x="533" 
d="M77 868v-35h25q53 0 68 -17.5t15 -70.5v-622q0 -52 -15 -69.5t-69 -17.5h-24v-36h369v36h-25q-49 0 -65.5 16t-16.5 71v745h-262zM13 1174l19 99h449l-18 -99h-450z" />
    <glyph glyph-name="Ibreve" unicode="&#x12c;" horiz-adv-x="619" 
d="M537 0h-454v46q79 0 110 17t31 71v1102q0 54 -31 71t-110 17v46h454v-46q-79 0 -110.5 -17t-31.5 -71v-1102q0 -54 31.5 -71t110.5 -17v-46zM537 1744l58 -28q-5 -26 -16.5 -54.5t-35 -61.5t-54 -59t-77.5 -43t-101 -17q-55 0 -102 17t-77.5 43t-53.5 59t-34.5 61.5
t-16.5 54.5l63 28q3 -7 8 -17.5t25 -38t43 -48.5t62 -38.5t83 -17.5t83 16.5t64 40t44 47t27 40.5z" />
    <glyph glyph-name="ibreve" unicode="&#x12d;" horiz-adv-x="533" 
d="M77 833v35h262v-745q0 -55 16.5 -71t65.5 -16h25v-36h-369v36h24q54 0 69 17.5t15 69.5v622q0 53 -15 70.5t-68 17.5h-25zM474 1334l58 -27q-6 -34 -24.5 -70.5t-50.5 -76t-86.5 -64.5t-121.5 -25q-68 0 -123 25t-87 64.5t-50 76t-25 70.5l64 27q3 -6 8 -17t25 -38.5
t43 -48.5t62 -38t83 -17t83 16.5t64 39.5t43.5 46.5t26.5 40.5z" />
    <glyph glyph-name="Iogonek" unicode="&#x12e;" horiz-adv-x="619" 
d="M465 0h-382v46q79 0 110 17t31 71v1102q0 54 -31 71t-110 17v46h454v-46q-79 0 -110.5 -17t-31.5 -71v-1102q0 -54 31.5 -71t110.5 -17v-46q-78 -21 -116 -55t-38 -91q0 -42 24.5 -75.5t66.5 -39.5l-48 -107q-58 12 -95.5 58.5t-37.5 107.5q0 71 49 124.5t123 77.5z" />
    <glyph glyph-name="iogonek" unicode="&#x12f;" horiz-adv-x="533" 
d="M375 0h71q-78 -21 -115.5 -55t-37.5 -91q0 -42 24.5 -75.5t66.5 -39.5l-48 -107q-58 12 -95.5 58.5t-37.5 107.5q0 71 49 124.5t123 77.5zM77 833v35h262v-745q0 -55 16.5 -71t65.5 -16h25v-36h-369v36h24q54 0 69 17.5t15 69.5v622q0 53 -15 70.5t-68 17.5h-25z
M250 1149q-39 0 -67 29.5t-28 68.5q0 42 28 73.5t67 31.5q37 0 65 -31.5t28 -73.5q0 -39 -28 -68.5t-65 -29.5z" />
    <glyph glyph-name="uni0130" unicode="&#x130;" horiz-adv-x="619" 
d="M537 0h-454v46q79 0 110 17t31 71v1102q0 54 -31 71t-110 17v46h454v-46q-79 0 -110.5 -17t-31.5 -71v-1102q0 -54 31.5 -71t110.5 -17v-46zM412 1635q0 -43 -30.5 -74t-71.5 -31q-42 0 -72 31t-30 74q0 44 30 75t72 31q41 0 71.5 -31t30.5 -75z" />
    <glyph glyph-name="dotlessi" unicode="&#x131;" horiz-adv-x="533" 
d="M77 833v35h262v-745q0 -55 16.5 -71t65.5 -16h25v-36h-369v36h24q54 0 69 17.5t15 69.5v622q0 53 -15 70.5t-68 17.5h-25z" />
    <glyph glyph-name="IJ" unicode="&#x132;" horiz-adv-x="1382" 
d="M537 0h-454v46q79 0 110 17t31 71v1102q0 54 -31 71t-110 17v46h454v-46q-79 0 -110.5 -17t-31.5 -71v-1102q0 -54 31.5 -71t110.5 -17v-46zM839 38q66 0 107 41.5t41 119.5v1037q0 54 -31 71t-110 17v46h453v-46q-79 0 -110 -17t-31 -71v-944q0 -157 -78.5 -237.5
t-205.5 -80.5q-134 0 -270 84v242h56q0 -39 4.5 -74t17.5 -70.5t32.5 -60.5t51.5 -41t73 -16z" />
    <glyph glyph-name="ij" unicode="&#x133;" horiz-adv-x="1047" 
d="M600 833v35h262v-1069q0 -149 -56.5 -214.5t-164.5 -65.5q-69 0 -114 16t-88 48v180h41v-14q0 -97 29.5 -143t92.5 -46q44 0 75.5 45t31.5 126v1014q0 53 -15.5 70.5t-68.5 17.5h-25zM77 833v35h262v-745q0 -55 16.5 -71t65.5 -16h25v-36h-369v36h24q54 0 69 17.5
t15 69.5v622q0 53 -15 70.5t-68 17.5h-25zM250 1149q-39 0 -67 29.5t-28 68.5q0 42 28 73.5t67 31.5q37 0 65 -31.5t28 -73.5q0 -39 -28 -68.5t-65 -29.5zM772 1149h-4q-10 0 -19 3q-21 5 -33 16q-5 3 -15 13q-10 11 -15 22v1l-1 2l-3 7q-6 15 -6 34q0 17 4 29q2 9 6 18
q2 2 2 4l4 7q4 7 15 18l3 3q2 1 6 5q17 12 22 14q1 1 11 4q3 0 4 1q12 2 19 2q8 0 18 -2q3 -1 14 -5q5 -2 15 -10l12 -9l3 -3q1 -1 2.5 -2t3 -3t2.5 -3l2 -3q3 -6 4 -7q10 -17 13 -33l2 -8v-4q1 -4 1 -13q0 -10 -1 -15l-2 -8l-3 -11l-6 -14q-8 -12 -13 -18l-8 -7
q-1 -1 -2 -2.5t-2 -2.5t-2 -1q-4 -4 -12 -8l-6 -3q-16 -8 -35 -8z" />
    <glyph glyph-name="Kcommaaccent" unicode="&#x136;" horiz-adv-x="1274" 
d="M537 0h-454v46q79 0 110 17t31 71v1102q0 54 -31 71t-110 17v46h454v-46q-79 0 -110.5 -17t-31.5 -71v-493l506 581h-139v46h358v-46h-149l-408 -466l517 -713q72 -99 150 -99h35v-46h-491v46h53q59 0 59 39q0 15 -26 55l-414 584l-51 -58v-532q0 -54 31.5 -71t110.5 -17
v-46zM701 -240q0 -67 -50 -124.5t-122 -94.5l24 -40q84 39 141 110t57 159q0 59 -33 102.5t-92 43.5q-39 0 -70.5 -28t-31.5 -69q0 -35 26.5 -64.5t64.5 -29.5q59 0 83 62q3 -13 3 -27z" />
    <glyph glyph-name="kcommaaccent" unicode="&#x137;" horiz-adv-x="1035" 
d="M674 127l-291 340l-49 -44v-300q0 -55 16.5 -71t66.5 -16h25v-36h-370v36h24q54 0 69 17.5t15 69.5v1124q0 53 -15 70t-68 17h-25v36h262v-886l385 349h-136v35h321v-35h-114l-295 -266l364 -432q83 -99 150 -99h26v-36h-423v36h54q16 0 25 11.5t9 27.5q0 21 -26 52z
M598 -240q0 -67 -50 -124.5t-122 -94.5l24 -40q84 39 140.5 110t56.5 159q0 59 -33 102.5t-92 43.5q-39 0 -70 -28t-31 -69q0 -35 26.5 -64.5t64.5 -29.5q59 0 83 62q3 -13 3 -27z" />
    <glyph glyph-name="Lacute" unicode="&#x139;" horiz-adv-x="1007" 
d="M62 0v46q79 0 110.5 17t31.5 71v1102q0 54 -31.5 71t-110.5 17v46h518v-46h-64q-79 0 -110 -17t-31 -71v-1166h341q85 0 133 69.5t70 225.5h58l-40 -365h-875zM357 1460h-100l355 354v-180z" />
    <glyph glyph-name="lacute" unicode="&#x13a;" horiz-adv-x="504" 
d="M411 15v-42h-26q-108 0 -163.5 65.5t-55.5 215.5v993q0 52 -15 69.5t-69 17.5h-26v36h263v-1185q0 -80 26 -123.5t66 -46.5zM218 1460h-100l355 354v-180z" />
    <glyph glyph-name="Lcommaaccent" unicode="&#x13b;" horiz-adv-x="1007" 
d="M62 0v46q79 0 110.5 17t31.5 71v1102q0 54 -31.5 71t-110.5 17v46h518v-46h-64q-79 0 -110 -17t-31 -71v-1166h341q85 0 133 69.5t70 225.5h58l-40 -365h-875zM593 -240q0 -67 -50 -124.5t-122 -94.5l23 -40q84 39 141 110t57 159q0 59 -33 102.5t-92 43.5q-39 0 -70 -28
t-31 -69q0 -35 26.5 -64.5t64.5 -29.5q59 0 83 62q3 -13 3 -27z" />
    <glyph glyph-name="lcommaaccent" unicode="&#x13c;" horiz-adv-x="504" 
d="M411 15v-42h-26q-108 0 -163.5 65.5t-55.5 215.5v993q0 52 -15 69.5t-69 17.5h-26v36h263v-1185q0 -80 26 -123.5t66 -46.5zM347 -240q0 -67 -50 -124.5t-122 -94.5l24 -40q84 39 140.5 110t56.5 159q0 59 -33 102.5t-92 43.5q-39 0 -70 -28t-31 -69q0 -35 26.5 -64.5
t64.5 -29.5q59 0 83 62q3 -13 3 -27z" />
    <glyph glyph-name="Ldot" unicode="&#x13f;" horiz-adv-x="1007" 
d="M62 0v46q79 0 110.5 17t31.5 71v1102q0 54 -31.5 71t-110.5 17v46h518v-46h-64q-79 0 -110 -17t-31 -71v-1166h341q85 0 133 69.5t70 225.5h58l-40 -365h-875zM889 690q0 -45 -32 -78t-75 -33q-44 0 -75.5 32.5t-31.5 78.5t31.5 79t75.5 33q43 0 75 -33t32 -79z" />
    <glyph glyph-name="ldot" unicode="&#x140;" horiz-adv-x="678" 
d="M411 15v-42h-26q-108 0 -163.5 65.5t-55.5 215.5v993q0 52 -15 69.5t-69 17.5h-26v36h263v-1185q0 -80 26 -123.5t66 -46.5zM684 578q0 -46 -31.5 -79t-74.5 -33q-44 0 -76 33t-32 79t32 78.5t76 32.5q43 0 74.5 -32.5t31.5 -78.5z" />
    <glyph glyph-name="Lslash" unicode="&#x141;" horiz-adv-x="1007" 
d="M22 356l-2 93l184 186v601q0 54 -31.5 71t-110.5 17v46h518v-46h-64q-79 0 -110 -17t-31 -71v-427l181 184l1 -92l-182 -185v-646h341q85 0 133 69.5t70 225.5h58l-40 -365h-875v46q79 0 110.5 17t31.5 71v408z" />
    <glyph glyph-name="lslash" unicode="&#x142;" horiz-adv-x="504" 
d="M22 361l-2 88l146 146v652q0 52 -15 69.5t-69 17.5h-26v36h263v-619l150 151v-87l-150 -151v-479q0 -80 26 -123.5t66 -46.5v-42h-26q-108 0 -163.5 65.5t-55.5 215.5v254z" />
    <glyph glyph-name="Nacute" unicode="&#x143;" horiz-adv-x="1359" 
d="M1075 318v918q0 56 -33 72t-121 16v46h361v-46q-88 0 -120 -15.5t-32 -72.5v-1254h-58l-781 1245v-1093q0 -56 33 -72t121 -16v-46h-362v46q88 0 120.5 15.5t32.5 72.5v1101q0 54 -30.5 71.5t-107.5 17.5v46h321zM644 1460h-100l355 354v-180z" />
    <glyph glyph-name="nacute" unicode="&#x144;" horiz-adv-x="1077" 
d="M77 868h262v-161q39 92 112.5 144.5t171.5 52.5q116 0 188.5 -68.5t72.5 -199.5v-513q0 -55 15.5 -71t65.5 -16h25v-36h-374v36h29q52 0 66 17t14 70v514q0 201 -151 201q-89 0 -162 -99t-73 -244v-372q0 -55 16.5 -71t66.5 -16h25v-36h-370v36h25q44 0 63.5 21.5
t19.5 65.5v622q0 88 -83 88h-25v35zM464 1051h-100l355 353v-179z" />
    <glyph glyph-name="Ncommaaccent" unicode="&#x145;" horiz-adv-x="1359" 
d="M1075 318v918q0 56 -33 72t-121 16v46h361v-46q-88 0 -120 -15.5t-32 -72.5v-1254h-58l-781 1245v-1093q0 -56 33 -72t121 -16v-46h-362v46q88 0 120.5 15.5t32.5 72.5v1101q0 54 -30.5 71.5t-107.5 17.5v46h321zM767 -240q0 -67 -50 -124.5t-122 -94.5l23 -40
q84 39 141 110t57 159q0 59 -33 102.5t-92 43.5q-39 0 -70 -28t-31 -69q0 -35 26.5 -64.5t64.5 -29.5q59 0 83 62q3 -13 3 -27z" />
    <glyph glyph-name="ncommaaccent" unicode="&#x146;" horiz-adv-x="1077" 
d="M77 868h262v-161q39 92 112.5 144.5t171.5 52.5q116 0 188.5 -68.5t72.5 -199.5v-513q0 -55 15.5 -71t65.5 -16h25v-36h-374v36h29q52 0 66 17t14 70v514q0 201 -151 201q-89 0 -162 -99t-73 -244v-372q0 -55 16.5 -71t66.5 -16h25v-36h-370v36h25q44 0 63.5 21.5
t19.5 65.5v622q0 88 -83 88h-25v35zM600 -240q0 14 -3 27q-24 -62 -83 -62q-38 0 -64.5 29.5t-26.5 64.5q0 41 31 69t70 28q59 0 92 -43.5t33 -102.5q0 -88 -56.5 -159t-140.5 -110l-24 40q72 37 122 94.5t50 124.5z" />
    <glyph glyph-name="Ncaron" unicode="&#x147;" horiz-adv-x="1359" 
d="M1075 318v918q0 56 -33 72t-121 16v46h361v-46q-88 0 -120 -15.5t-32 -72.5v-1254h-58l-781 1245v-1093q0 -56 33 -72t121 -16v-46h-362v46q88 0 120.5 15.5t32.5 72.5v1101q0 54 -30.5 71.5t-107.5 17.5v46h321zM389 1758h100l194 -174l194 174h100l-255 -298h-79z" />
    <glyph glyph-name="ncaron" unicode="&#x148;" horiz-adv-x="1077" 
d="M77 868h262v-161q39 92 112.5 144.5t171.5 52.5q116 0 188.5 -68.5t72.5 -199.5v-513q0 -55 15.5 -71t65.5 -16h25v-36h-374v36h29q52 0 66 17t14 70v514q0 201 -151 201q-89 0 -162 -99t-73 -244v-372q0 -55 16.5 -71t66.5 -16h25v-36h-370v36h25q44 0 63.5 21.5
t19.5 65.5v622q0 88 -83 88h-25v35zM240 1349h100l194 -174l193 174h100l-255 -298h-78z" />
    <glyph glyph-name="Omacron" unicode="&#x14c;" 
d="M1182 685q0 -343 -144 -527t-401 -184t-401 184t-144 527t144 527t401 184t401 -184t144 -527zM991 685q0 352 -83.5 501t-270.5 149t-270.5 -149t-83.5 -501q0 -237 38 -380t114.5 -206t201.5 -63t201.5 63t114.5 206t38 380zM382 1619l22 110h491l-23 -110h-490z" />
    <glyph glyph-name="omacron" unicode="&#x14d;" horiz-adv-x="927" 
d="M836 434q0 -226 -105 -348t-277 -122t-277 122t-105 348t105 348t277 122t277 -122t105 -348zM250 549v-230q0 -147 51 -230t153 -83q101 0 152 83t51 230v230q0 147 -51 230t-152 83q-102 0 -153 -83t-51 -230zM225 1174l19 99h449l-18 -99h-450z" />
    <glyph glyph-name="Obreve" unicode="&#x14e;" 
d="M1182 685q0 -343 -144 -527t-401 -184t-401 184t-144 527t144 527t401 184t401 -184t144 -527zM991 685q0 352 -83.5 501t-270.5 149t-270.5 -149t-83.5 -501q0 -237 38 -380t114.5 -206t201.5 -63t201.5 63t114.5 206t38 380zM863 1744l59 -28q-5 -26 -16.5 -54.5
t-35 -61.5t-54 -59t-77.5 -43t-101 -17q-68 0 -123 25t-87 64t-50.5 75.5t-24.5 70.5l64 28q3 -7 8 -17.5t25 -38t43 -48.5t62 -38.5t83 -17.5t83 16.5t64 40t43.5 47t26.5 40.5z" />
    <glyph glyph-name="obreve" unicode="&#x14f;" horiz-adv-x="927" 
d="M836 434q0 -226 -105 -348t-277 -122t-277 122t-105 348t105 348t277 122t277 -122t105 -348zM250 549v-230q0 -147 51 -230t153 -83q101 0 152 83t51 230v230q0 147 -51 230t-152 83q-102 0 -153 -83t-51 -230zM679 1334l58 -27q-6 -34 -24.5 -70.5t-50.5 -76
t-86.5 -64.5t-121.5 -25q-68 0 -123 25t-87 64.5t-50 76t-25 70.5l63 27q3 -6 8 -17t25 -38.5t43.5 -48.5t62.5 -38t83 -17t83 16.5t64 39.5t43.5 46.5t26.5 40.5z" />
    <glyph glyph-name="Ohungarumlaut" unicode="&#x150;" 
d="M1182 685q0 -343 -144 -527t-401 -184t-401 184t-144 527t144 527t401 184t401 -184t144 -527zM991 685q0 352 -83.5 501t-270.5 149t-270.5 -149t-83.5 -501q0 -237 38 -380t114.5 -206t201.5 -63t201.5 63t114.5 206t38 380zM564 1460h-100l355 354v-180zM858 1460
h-100l355 354v-180z" />
    <glyph glyph-name="ohungarumlaut" unicode="&#x151;" horiz-adv-x="927" 
d="M836 434q0 -226 -105 -348t-277 -122t-277 122t-105 348t105 348t277 122t277 -122t105 -348zM250 549v-230q0 -147 51 -230t153 -83q101 0 152 83t51 230v230q0 147 -51 230t-152 83q-102 0 -153 -83t-51 -230zM336 1051h-100l355 353v-179zM630 1051h-101l356 353v-179
z" />
    <glyph glyph-name="OE" unicode="&#x152;" horiz-adv-x="1812" 
d="M922 1370h730l29 -245h-54q-14 108 -46 149.5t-102 41.5h-386v-566h156q79 0 101.5 36t22.5 154h57v-432h-57q0 118 -22.5 154t-101.5 36h-156v-642h386q82 0 119 61.5t59 222.5h58l-40 -340h-753q-125 -26 -247 -26q-292 0 -437.5 181t-145.5 530t145.5 530t437.5 181
q122 0 247 -26zM283 685q0 -130 8.5 -224t32.5 -178.5t65 -136t107 -81.5t158 -30q84 0 155.5 33.5t111.5 105.5v1022q-40 72 -111.5 105.5t-155.5 33.5q-92 0 -158 -30t-107 -81.5t-65 -136t-32.5 -178.5t-8.5 -224z" />
    <glyph glyph-name="oe" unicode="&#x153;" horiz-adv-x="1449" 
d="M250 549v-230q0 -147 51 -230t153 -83q101 0 152 83t51 230v230q0 147 -51 230t-152 83q-102 0 -153 -83t-51 -230zM1006 857q-85 0 -130 -83.5t-45 -236.5v-42h343v21q0 98 -15.5 171.5t-54.5 121.5t-98 48zM454 904q189 0 291 -141q48 67 115.5 104t145.5 37
q74 0 134.5 -27.5t100 -72.5t66.5 -104.5t39 -121t12 -124.5h-527v-198q0 -107 59.5 -170.5t145.5 -63.5q79 0 148.5 49.5t105.5 156.5h51q-30 -123 -123.5 -193.5t-208.5 -70.5q-77 0 -148 33.5t-122 99.5q-104 -133 -285 -133q-172 0 -277 122t-105 348t105 348t277 122z
" />
    <glyph glyph-name="Racute" unicode="&#x154;" horiz-adv-x="1227" 
d="M375 1314v-586h141q292 0 292 297q0 162 -69.5 225.5t-229.5 63.5h-134zM62 1370h454q481 0 481 -347q0 -140 -78.5 -219.5t-223.5 -117.5l409 -640h103v-46h-287l-417 668h-128v-534q0 -54 31 -71t110 -17h28v-46h-482v46q79 0 110.5 17t31.5 71v1102q0 54 -31.5 71
t-110.5 17v46zM511 1460h-100l355 354v-180z" />
    <glyph glyph-name="racute" unicode="&#x155;" horiz-adv-x="735" 
d="M422 36h49v-36h-394v36h25q83 0 83 87v622q0 88 -83 88h-25v35h262v-158q18 88 87.5 140.5t157.5 52.5q51 0 115 -16v-214h-41q0 69 -31.5 103t-85.5 34q-90 0 -146 -77t-56 -224v-386q0 -87 83 -87zM343 1051h-100l355 353v-179z" />
    <glyph glyph-name="Rcommaaccent" unicode="&#x156;" horiz-adv-x="1227" 
d="M375 1314v-586h141q292 0 292 297q0 162 -69.5 225.5t-229.5 63.5h-134zM62 1370h454q481 0 481 -347q0 -140 -78.5 -219.5t-223.5 -117.5l409 -640h103v-46h-287l-417 668h-128v-534q0 -54 31 -71t110 -17h28v-46h-482v46q79 0 110.5 17t31.5 71v1102q0 54 -31.5 71
t-110.5 17v46zM810 -240q0 -67 -50 -124.5t-122 -94.5l24 -40q84 39 140.5 110t56.5 159q0 59 -33 102.5t-92 43.5q-39 0 -70 -28t-31 -69q0 -35 26.5 -64.5t64.5 -29.5q59 0 83 62q3 -13 3 -27z" />
    <glyph glyph-name="rcommaaccent" unicode="&#x157;" horiz-adv-x="735" 
d="M422 36h49v-36h-394v36h25q83 0 83 87v622q0 88 -83 88h-25v35h262v-158q18 88 87.5 140.5t157.5 52.5q51 0 115 -16v-214h-41q0 69 -31.5 103t-85.5 34q-90 0 -146 -77t-56 -224v-386q0 -87 83 -87zM331 -240q0 14 -3 27q-24 -62 -83 -62q-38 0 -64.5 29.5t-26.5 64.5
q0 41 31 69t70 28q59 0 92 -43.5t33 -102.5q0 -88 -57 -159t-141 -110l-23 40q72 37 122 94.5t50 124.5z" />
    <glyph glyph-name="Rcaron" unicode="&#x158;" horiz-adv-x="1227" 
d="M375 1314v-586h141q292 0 292 297q0 162 -69.5 225.5t-229.5 63.5h-134zM62 1370h454q481 0 481 -347q0 -140 -78.5 -219.5t-223.5 -117.5l409 -640h103v-46h-287l-417 668h-128v-534q0 -54 31 -71t110 -17h28v-46h-482v46q79 0 110.5 17t31.5 71v1102q0 54 -31.5 71
t-110.5 17v46zM272 1758h101l193 -174l194 174h100l-255 -298h-79z" />
    <glyph glyph-name="rcaron" unicode="&#x159;" horiz-adv-x="735" 
d="M422 36h49v-36h-394v36h25q83 0 83 87v622q0 88 -83 88h-25v35h262v-158q18 88 87.5 140.5t157.5 52.5q51 0 115 -16v-214h-41q0 69 -31.5 103t-85.5 34q-90 0 -146 -77t-56 -224v-386q0 -87 83 -87zM97 1349h101l193 -174l194 174h100l-255 -298h-79z" />
    <glyph glyph-name="Sacute" unicode="&#x15a;" horiz-adv-x="1094" 
d="M885 1289v-314h-59q0 180 -79.5 270t-220.5 90q-108 0 -182 -77t-74 -188q0 -78 43 -136.5t121 -89.5l199 -78q80 -31 137.5 -64t107 -78.5t74.5 -106.5t25 -137q0 -195 -125 -300.5t-323 -105.5q-115 0 -210.5 31.5t-192.5 92.5v381h54q0 -437 362 -437q119 0 191.5 76
t72.5 197q0 99 -51 163t-166 108l-213 83q-120 46 -189 133t-69 204t57.5 207.5t151 136.5t204.5 46q185 0 354 -107zM493 1460h-101l356 354v-180z" />
    <glyph glyph-name="sacute" unicode="&#x15b;" horiz-adv-x="788" 
d="M642 833v-204h-41q0 118 -55 174.5t-154 56.5q-72 0 -125.5 -45t-53.5 -114q0 -58 37 -92.5t100 -60.5l149 -61q102 -41 155 -95t53 -145q0 -132 -91 -207.5t-222 -75.5q-77 0 -140.5 23.5t-140.5 67.5v250h41q0 -290 248 -290q79 0 132.5 38t53.5 112q0 112 -153 170
l-131 49q-92 34 -144 102t-52 162q0 116 85.5 186t200.5 70q129 0 248 -71zM316 1051h-100l355 353v-179z" />
    <glyph glyph-name="Scedilla" unicode="&#x15e;" horiz-adv-x="1094" 
d="M885 1289v-314h-59q0 180 -79.5 270t-220.5 90q-108 0 -182 -77t-74 -188q0 -78 43 -136.5t121 -89.5l199 -78q80 -31 137.5 -64t107 -78.5t74.5 -106.5t25 -137q0 -176 -102.5 -279t-271.5 -123l-85 -88q26 6 45 6q17 0 38.5 -6.5t47 -21.5t42 -47.5t16.5 -76.5
q0 -71 -53.5 -118.5t-127.5 -47.5q-69 0 -137 52l27 38q58 -40 102 -40q42 0 66 33.5t24 78.5q0 42 -21 74t-62 32q-24 0 -60 -18l-34 36l105 110h-7q-115 0 -210.5 31.5t-192.5 92.5v381h54q0 -437 362 -437q119 0 191.5 76t72.5 197q0 99 -51 163t-166 108l-213 83
q-120 46 -189 133t-69 204t57.5 207.5t151 136.5t204.5 46q185 0 354 -107z" />
    <glyph glyph-name="scedilla" unicode="&#x15f;" horiz-adv-x="788" 
d="M642 833v-204h-41q0 118 -55 174.5t-154 56.5q-72 0 -125.5 -45t-53.5 -114q0 -58 37 -92.5t100 -60.5l149 -61q102 -41 155 -95t53 -145q0 -120 -76.5 -193.5t-192.5 -86.5l-73 -77q26 6 45 6q17 0 38.5 -6.5t46.5 -21.5t41.5 -47.5t16.5 -76.5q0 -71 -53 -118.5
t-127 -47.5q-69 0 -137 52l26 38q58 -40 103 -40q42 0 66 33.5t24 78.5q0 42 -21 74t-62 32q-25 0 -61 -18l-33 36l95 101q-70 3 -129.5 26t-130.5 64v250h41q0 -290 248 -290q79 0 132.5 38t53.5 112q0 112 -153 170l-131 49q-92 34 -144 102t-52 162q0 116 85.5 186
t200.5 70q129 0 248 -71z" />
    <glyph glyph-name="Scaron" unicode="&#x160;" horiz-adv-x="1094" 
d="M885 1289v-314h-59q0 180 -79.5 270t-220.5 90q-108 0 -182 -77t-74 -188q0 -78 43 -136.5t121 -89.5l199 -78q80 -31 137.5 -64t107 -78.5t74.5 -106.5t25 -137q0 -195 -125 -300.5t-323 -105.5q-115 0 -210.5 31.5t-192.5 92.5v381h54q0 -437 362 -437q119 0 191.5 76
t72.5 197q0 99 -51 163t-166 108l-213 83q-120 46 -189 133t-69 204t57.5 207.5t151 136.5t204.5 46q185 0 354 -107zM261 1758h100l194 -174l194 174h100l-255 -298h-79z" />
    <glyph glyph-name="scaron" unicode="&#x161;" horiz-adv-x="788" 
d="M642 833v-204h-41q0 118 -55 174.5t-154 56.5q-72 0 -125.5 -45t-53.5 -114q0 -58 37 -92.5t100 -60.5l149 -61q102 -41 155 -95t53 -145q0 -132 -91 -207.5t-222 -75.5q-77 0 -140.5 23.5t-140.5 67.5v250h41q0 -290 248 -290q79 0 132.5 38t53.5 112q0 112 -153 170
l-131 49q-92 34 -144 102t-52 162q0 116 85.5 186t200.5 70q129 0 248 -71zM118 1349h100l194 -174l193 174h101l-255 -298h-79z" />
    <glyph glyph-name="Tcedilla" unicode="&#x162;" horiz-adv-x="1046" 
d="M538 0h-284v46h43q79 0 110 17t31 71v1182h-184q-85 0 -127.5 -58t-63.5 -212h-58l40 324h956l40 -324h-58q-21 155 -63 212.5t-127 57.5h-184v-1182q0 -54 31.5 -71t110.5 -17h43v-46h-192l-106 -110q26 6 45 6q17 0 38.5 -6.5t46.5 -21.5t41.5 -47.5t16.5 -76.5
q0 -71 -53 -118.5t-127 -47.5q-69 0 -137 52l26 38q58 -40 103 -40q42 0 66 33.5t24 78.5q0 42 -21 74t-62 32q-25 0 -61 -18l-33 36z" />
    <glyph glyph-name="tcedilla" unicode="&#x163;" horiz-adv-x="591" 
d="M571 106q-19 -66 -67 -103t-113 -39l-72 -74q26 6 46 6q17 0 38.5 -6.5t46.5 -21.5t41.5 -47.5t16.5 -76.5q0 -71 -53 -118.5t-127 -47.5q-70 0 -138 52l27 38q58 -40 102 -40q42 0 66.5 33.5t24.5 78.5q0 42 -21 74t-62 32q-25 0 -61 -18l-34 36l100 105
q-70 15 -109.5 69t-39.5 131v664h-163v35h163v300h154v-300h218v-35h-218v-691q0 -47 20.5 -81t61.5 -34q35 0 61.5 22.5t38.5 56.5h52z" />
    <glyph glyph-name="Tcaron" unicode="&#x164;" horiz-adv-x="1046" 
d="M45 1370h956l40 -324h-58q-21 155 -63 212.5t-127 57.5h-184v-1182q0 -54 31.5 -71t110.5 -17h43v-46h-540v46h43q79 0 110 17t31 71v1182h-184q-85 0 -127.5 -58t-63.5 -212h-58zM231 1758h101l193 -174l194 174h100l-255 -298h-79z" />
    <glyph glyph-name="tcaron" unicode="&#x165;" horiz-adv-x="591" 
d="M518 922h-59q1 30 1 86q0 74 -4.5 166t-4.5 109q0 44 24.5 76t70.5 32q36 0 56 -21t20 -51q0 -24 -16.5 -78.5t-43.5 -144t-44 -174.5zM571 106q-20 -68 -70 -105t-118 -37q-93 0 -146.5 57t-53.5 148v664h-163v35h163v300h154v-300h218v-35h-218v-691q0 -47 20.5 -81
t61.5 -34q35 0 61.5 22.5t38.5 56.5h52z" />
    <glyph glyph-name="Utilde" unicode="&#x168;" horiz-adv-x="1317" 
d="M537 1370v-46q-79 0 -110.5 -17t-31.5 -71v-785q0 -77 15 -144.5t48 -129t95 -97.5t148 -36q156 0 242 112t86 275v805q0 53 -37.5 70.5t-119.5 17.5v46h363v-46q-79 0 -111 -17t-32 -71v-801q0 -205 -112 -333t-309 -128q-96 0 -171.5 25t-127 69t-85 107.5t-48.5 136.5
t-15 160v764q0 54 -31 71t-110 17v46h454zM991 1718l29 -63q-66 -136 -193 -136q-48 0 -99.5 24t-97 48.5t-80.5 24.5q-40 0 -69.5 -27.5t-41.5 -69.5l-31 56q64 150 197 150q38 0 79 -15t70.5 -33.5t65 -33.5t63.5 -15q38 0 66 25.5t42 64.5z" />
    <glyph glyph-name="utilde" unicode="&#x169;" horiz-adv-x="1045" 
d="M72 868h262v-632q0 -105 30 -150.5t100 -45.5q85 0 158.5 93.5t73.5 239.5v372q0 88 -83 88h-25v35h262v-745q0 -87 83 -87h25v-36h-262v163q-26 -80 -104.5 -134.5t-163.5 -54.5q-117 0 -182.5 61.5t-65.5 190.5v519q0 88 -83 88h-25v35zM773 1309l29 -64
q-66 -136 -193 -136q-48 0 -99.5 24t-97 48.5t-80.5 24.5q-40 0 -69.5 -27.5t-41.5 -69.5l-32 56q29 68 78.5 109.5t119.5 41.5q38 0 79 -15t70.5 -33.5t65 -33.5t63.5 -15q38 0 66 25.5t42 64.5z" />
    <glyph glyph-name="Umacron" unicode="&#x16a;" horiz-adv-x="1317" 
d="M537 1370v-46q-79 0 -110.5 -17t-31.5 -71v-785q0 -77 15 -144.5t48 -129t95 -97.5t148 -36q156 0 242 112t86 275v805q0 53 -37.5 70.5t-119.5 17.5v46h363v-46q-79 0 -111 -17t-32 -71v-801q0 -205 -112 -333t-309 -128q-96 0 -171.5 25t-127 69t-85 107.5t-48.5 136.5
t-15 160v764q0 54 -31 71t-110 17v46h454zM444 1619l23 110h490l-22 -110h-491z" />
    <glyph glyph-name="umacron" unicode="&#x16b;" horiz-adv-x="1045" 
d="M72 868h262v-632q0 -105 30 -150.5t100 -45.5q85 0 158.5 93.5t73.5 239.5v372q0 88 -83 88h-25v35h262v-745q0 -87 83 -87h25v-36h-262v163q-26 -80 -104.5 -134.5t-163.5 -54.5q-117 0 -182.5 61.5t-65.5 190.5v519q0 88 -83 88h-25v35zM256 1174l18 99h450l-18 -99
h-450z" />
    <glyph glyph-name="Ubreve" unicode="&#x16c;" horiz-adv-x="1317" 
d="M537 1370v-46q-79 0 -110.5 -17t-31.5 -71v-785q0 -77 15 -144.5t48 -129t95 -97.5t148 -36q156 0 242 112t86 275v805q0 53 -37.5 70.5t-119.5 17.5v46h363v-46q-79 0 -111 -17t-32 -71v-801q0 -205 -112 -333t-309 -128q-96 0 -171.5 25t-127 69t-85 107.5t-48.5 136.5
t-15 160v764q0 54 -31 71t-110 17v46h454zM931 1744l58 -28q-6 -34 -24.5 -70.5t-50.5 -75.5t-86.5 -64t-121.5 -25q-68 0 -123 25t-87 64t-50.5 75.5t-24.5 70.5l63 28q3 -7 8 -17.5t25 -38t43.5 -48.5t62.5 -38.5t83 -17.5t83 16.5t64 40t43.5 47t26.5 40.5z" />
    <glyph glyph-name="ubreve" unicode="&#x16d;" horiz-adv-x="1045" 
d="M72 868h262v-632q0 -105 30 -150.5t100 -45.5q85 0 158.5 93.5t73.5 239.5v372q0 88 -83 88h-25v35h262v-745q0 -87 83 -87h25v-36h-262v163q-26 -80 -104.5 -134.5t-163.5 -54.5q-117 0 -182.5 61.5t-65.5 190.5v519q0 88 -83 88h-25v35zM710 1334l58 -27
q-5 -26 -16.5 -54.5t-35 -62t-54 -59t-77.5 -43t-101 -17.5q-55 0 -102 17.5t-77.5 43t-53.5 59t-34.5 62t-16.5 54.5l63 27q3 -6 8 -17t25 -38.5t43 -48.5t62 -38t83 -17t83 16.5t64 39.5t44 46.5t27 40.5z" />
    <glyph glyph-name="Uring" unicode="&#x16e;" horiz-adv-x="1317" 
d="M537 1370v-46q-79 0 -110.5 -17t-31.5 -71v-785q0 -77 15 -144.5t48 -129t95 -97.5t148 -36q156 0 242 112t86 275v805q0 53 -37.5 70.5t-119.5 17.5v46h363v-46q-79 0 -111 -17t-32 -71v-801q0 -205 -112 -333t-309 -128q-96 0 -171.5 25t-127 69t-85 107.5t-48.5 136.5
t-15 160v764q0 54 -31 71t-110 17v46h454zM711 1793q-29 0 -48 -11.5t-27.5 -33.5t-11.5 -44t-3 -54q0 -78 22 -110.5t68 -32.5t68 32.5t22 110.5q0 32 -3 54t-11.5 44t-27.5 33.5t-48 11.5zM522 1650q0 74 55.5 127t133.5 53t133.5 -53t55.5 -127t-55.5 -127t-133.5 -53
t-133.5 53t-55.5 127z" />
    <glyph glyph-name="uring" unicode="&#x16f;" horiz-adv-x="1045" 
d="M72 868h262v-632q0 -105 30 -150.5t100 -45.5q85 0 158.5 93.5t73.5 239.5v372q0 88 -83 88h-25v35h262v-745q0 -87 83 -87h25v-36h-262v163q-26 -80 -104.5 -134.5t-163.5 -54.5q-117 0 -182.5 61.5t-65.5 190.5v519q0 88 -83 88h-25v35zM517 1383q-29 0 -48 -11.5
t-27.5 -33.5t-11.5 -44t-3 -54q0 -77 22 -109.5t68 -32.5t68 32.5t22 109.5q0 32 -3 54t-11.5 44t-27.5 33.5t-48 11.5zM329 1240q0 74 55 127t133 53t134 -53t56 -127t-56 -126.5t-134 -52.5t-133 52.5t-55 126.5z" />
    <glyph glyph-name="Uhungarumlaut" unicode="&#x170;" horiz-adv-x="1317" 
d="M537 1370v-46q-79 0 -110.5 -17t-31.5 -71v-785q0 -77 15 -144.5t48 -129t95 -97.5t148 -36q156 0 242 112t86 275v805q0 53 -37.5 70.5t-119.5 17.5v46h363v-46q-79 0 -111 -17t-32 -71v-801q0 -205 -112 -333t-309 -128q-96 0 -171.5 25t-127 69t-85 107.5t-48.5 136.5
t-15 160v764q0 54 -31 71t-110 17v46h454zM480 1460h-100l355 354v-180zM774 1460h-100l355 354v-180z" />
    <glyph glyph-name="uhungarumlaut" unicode="&#x171;" horiz-adv-x="1045" 
d="M72 868h262v-632q0 -105 30 -150.5t100 -45.5q85 0 158.5 93.5t73.5 239.5v372q0 88 -83 88h-25v35h262v-745q0 -87 83 -87h25v-36h-262v163q-26 -80 -104.5 -134.5t-163.5 -54.5q-117 0 -182.5 61.5t-65.5 190.5v519q0 88 -83 88h-25v35zM366 1051h-101l356 353v-179z
M659 1051h-100l355 353v-179z" />
    <glyph glyph-name="Uogonek" unicode="&#x172;" horiz-adv-x="1317" 
d="M537 1370v-46q-79 0 -110.5 -17t-31.5 -71v-785q0 -77 15 -144.5t48 -129t95 -97.5t148 -36q156 0 242 112t86 275v805q0 53 -37.5 70.5t-119.5 17.5v46h363v-46q-79 0 -111 -17t-32 -71v-801q0 -173 -80.5 -292.5t-226.5 -154.5q-57 -21 -84.5 -52.5t-27.5 -81.5
q0 -42 24.5 -75.5t66.5 -39.5l-48 -107q-58 12 -95.5 58.5t-37.5 107.5q0 114 114 177q-4 0 -12.5 -0.5t-13.5 -0.5q-96 0 -171.5 25t-127 69t-85 107.5t-48.5 136.5t-15 160v764q0 54 -31 71t-110 17v46h454z" />
    <glyph glyph-name="uogonek" unicode="&#x173;" horiz-adv-x="1045" 
d="M887 0h-191v163q-26 -80 -104.5 -134.5t-163.5 -54.5q-117 0 -182.5 61.5t-65.5 190.5v519q0 88 -83 88h-25v35h262v-632q0 -105 30 -150.5t100 -45.5q85 0 158.5 93.5t73.5 239.5v372q0 88 -83 88h-25v35h262v-745q0 -87 83 -87h25v-36q-78 -21 -115.5 -55t-37.5 -91
q0 -42 24.5 -75.5t66.5 -39.5l-48 -107q-58 12 -95.5 58.5t-37.5 107.5q0 71 49 124.5t123 77.5z" />
    <glyph glyph-name="Wcircumflex" unicode="&#x174;" horiz-adv-x="1961" 
d="M1392 177l346 1147h-178v46h376v-46h-137l-402 -1324h-129l-268 840l-274 -840h-128l-379 1188q-25 78 -67 107t-98 29h-28v46h496v-46h-58q-37 0 -56.5 -20.5t-19.5 -51.5q0 -13 10 -50l323 -1025l249 758l-81 255q-25 78 -66 106t-98 28h-29v46h522v-46h-84
q-36 0 -56 -20.5t-20 -51.5q0 -21 11 -51zM755 1460h-101l254 298h79l255 -298h-100l-194 174z" />
    <glyph glyph-name="wcircumflex" unicode="&#x175;" horiz-adv-x="1431" 
d="M904 833h-44q-29 0 -42.5 -15.5t-13.5 -39.5q0 -16 11 -49l191 -627l230 731h-141v35h321v-35h-120l-269 -833h-147l-160 511l-172 -511h-148l-255 762q-24 71 -95 71h-35v35h393v-35h-44q-29 0 -43 -15.5t-14 -39.5q0 -16 11 -49l208 -627l165 501l-49 159
q-22 71 -95 71h-25v35h382v-35zM522 1051h-100l254 298h79l255 -298h-101l-193 174z" />
    <glyph glyph-name="Ycircumflex" unicode="&#x176;" horiz-adv-x="1216" 
d="M662 584l330 740h-178v46h377v-46h-137l-356 -793v-397q0 -54 31.5 -71t110.5 -17v-46h-454v46q79 0 110 17t31 71v345l-299 708q-33 79 -71 108t-102 29h-29v46h492v-46h-76q-59 0 -59 -39q0 -28 20 -79zM468 1460h-100l254 298h78l255 -298h-100l-193 174z" />
    <glyph glyph-name="ycircumflex" unicode="&#x177;" horiz-adv-x="942" 
d="M481 0h-81l-255 762q-24 71 -95 71h-35v35h393v-35h-44q-29 0 -43 -15.5t-14 -39.5q0 -16 11 -49l199 -612l229 716h-142v34h323v-34h-124l-340 -1059q-34 -106 -94 -170.5t-146 -64.5q-78 0 -138 36v204h61q1 -70 30.5 -108.5t70.5 -38.5q46 0 91 43.5t71 118.5z
M278 1051h-101l254 298h79l255 -298h-100l-194 174z" />
    <glyph glyph-name="Ydieresis" unicode="&#x178;" horiz-adv-x="1216" 
d="M662 584l330 740h-178v46h377v-46h-137l-356 -793v-397q0 -54 31.5 -71t110.5 -17v-46h-454v46q79 0 110 17t31 71v345l-299 708q-33 79 -71 108t-102 29h-29v46h492v-46h-76q-59 0 -59 -39q0 -28 20 -79zM923 1656q0 -41 -29 -71t-68 -30q-40 0 -68.5 30t-28.5 71
q0 42 28.5 71t68.5 29q39 0 68 -29.5t29 -70.5zM597 1656q0 -41 -29 -71t-67 -30q-40 0 -69 30t-29 71q0 42 29 71t69 29q39 0 67.5 -29t28.5 -71z" />
    <glyph glyph-name="Zacute" unicode="&#x179;" horiz-adv-x="1164" 
d="M1048 0h-976v46l785 1270h-476q-172 0 -215 -310h-58l39 364h920v-46l-778 -1269h525q172 0 215 310h58zM577 1460h-101l355 354v-180z" />
    <glyph glyph-name="zacute" unicode="&#x17a;" horiz-adv-x="877" 
d="M770 278l-10 -278h-678v36l492 787h-133q-132 0 -198 -56t-92 -182h-38l12 283h630v-35l-487 -780h187q126 0 195.5 52t85.5 173h34zM382 1051h-100l355 353v-179z" />
    <glyph glyph-name="Zdotaccent" unicode="&#x17b;" horiz-adv-x="1164" 
d="M1048 0h-976v46l785 1270h-476q-172 0 -215 -310h-58l39 364h920v-46l-778 -1269h525q172 0 215 310h58zM716 1635q0 -43 -30.5 -74t-71.5 -31q-42 0 -72 31t-30 74q0 44 30 75t72 31q41 0 71.5 -31t30.5 -75z" />
    <glyph glyph-name="zdotaccent" unicode="&#x17c;" horiz-adv-x="877" 
d="M760 0l10 278h-34q-16 -121 -85.5 -173t-195.5 -52h-187l487 780v35h-630l-12 -283h38q26 126 92 182t198 56h133l-492 -787v-36h678zM547 1226q0 -41 -29 -71t-67 -30q-40 0 -69 30t-29 71q0 42 29 71t69 29q39 0 67.5 -29t28.5 -71z" />
    <glyph glyph-name="Zcaron" unicode="&#x17d;" horiz-adv-x="1164" 
d="M1048 0h-976v46l785 1270h-476q-172 0 -215 -310h-58l39 364h920v-46l-778 -1269h525q172 0 215 310h58zM319 1758h101l193 -174l194 174h100l-255 -298h-79z" />
    <glyph glyph-name="zcaron" unicode="&#x17e;" horiz-adv-x="877" 
d="M770 278l-10 -278h-678v36l492 787h-133q-132 0 -198 -56t-92 -182h-38l12 283h630v-35l-487 -780h187q126 0 195.5 52t85.5 173h34zM144 1349h101l193 -174l194 174h100l-255 -298h-79z" />
    <glyph glyph-name="florin" unicode="&#x192;" horiz-adv-x="1325" 
d="M1008 104l-345 508l-347 -508h692zM316 1266l347 -508l346 508h-693zM713 685l355 -523v1045zM257 1209v-1046l355 522zM1078 0h-831q-39 0 -66 27.5t-27 65.5v1184q0 38 27 65.5t66 27.5h831q39 0 66 -27.5t27 -65.5v-1184q0 -38 -27 -65.5t-66 -27.5z" />
    <glyph glyph-name="AEacute" unicode="&#x1fc;" horiz-adv-x="1703" 
d="M1543 1370l30 -245h-54q-14 107 -46.5 149t-102.5 42h-365v-566h136q79 0 101.5 36t22.5 154h56v-432h-56q0 118 -22.5 154t-101.5 36h-136v-642h365q82 0 119 61.5t59 222.5h59l-40 -340h-875v46q79 0 110.5 17t31.5 71v315h-414l-149 -287q-17 -34 -17 -61
q0 -55 75 -55h44v-46h-358v46h41q39 0 85 37t76 95l536 1045q20 40 20 56q0 45 -76 45h-57v46h903zM834 1248l-388 -748h388v748zM1068 1460h-100l355 354v-180z" />
    <glyph glyph-name="aeacute" unicode="&#x1fd;" horiz-adv-x="1366" 
d="M922 857q-85 0 -129.5 -83.5t-44.5 -236.5v-31h342v10q0 98 -15.5 171.5t-54.5 121.5t-98 48zM589 458q-154 0 -243.5 -61t-89.5 -169q0 -77 39.5 -130.5t113.5 -53.5q78 0 129 61t51 139v214zM140 585v202q66 49 160 83t184 34q167 0 226 -87q92 87 212 87
q91 0 161.5 -40.5t110.5 -107.5t60 -142.5t20 -155.5h-526v-202q0 -107 59.5 -170.5t144.5 -63.5q79 0 148.5 49.5t105.5 156.5h51q-29 -117 -123.5 -190.5t-219.5 -73.5q-73 0 -144 25t-117 76q-113 -96 -279 -96q-75 0 -138 24t-106 79t-43 134q0 72 34.5 127.5t86.5 87
t123 51.5t132 26.5t126 7.5v200q0 69 -35 100.5t-111 31.5q-114 0 -188 -73t-74 -180h-41zM635 1051h-100l355 353v-179z" />
    <glyph glyph-name="uni0218" unicode="&#x218;" horiz-adv-x="1094" 
d="M885 1289v-314h-59q0 180 -79.5 270t-220.5 90q-108 0 -182 -77t-74 -188q0 -78 43 -136.5t121 -89.5l199 -78q80 -31 137.5 -64t107 -78.5t74.5 -106.5t25 -137q0 -195 -125 -300.5t-323 -105.5q-115 0 -210.5 31.5t-192.5 92.5v381h54q0 -437 362 -437q119 0 191.5 76
t72.5 197q0 99 -51 163t-166 108l-213 83q-120 46 -189 133t-69 204t57.5 207.5t151 136.5t204.5 46q185 0 354 -107zM629 -240q0 -67 -50 -124.5t-122 -94.5l23 -40q84 39 141 110t57 159q0 59 -33 102.5t-92 43.5q-39 0 -70 -28t-31 -69q0 -35 26.5 -64.5t64.5 -29.5
q59 0 83 62q3 -13 3 -27z" />
    <glyph glyph-name="scommaaccent" unicode="&#x219;" horiz-adv-x="737" 
d="M635 833v-204h-41q0 118 -55 174.5t-154 56.5q-72 0 -125.5 -45t-53.5 -114q0 -58 37 -92.5t100 -60.5l149 -61q102 -41 154.5 -95t52.5 -145q0 -132 -90.5 -207.5t-221.5 -75.5q-77 0 -141.5 23.5t-140.5 67.5v250h41q0 -290 249 -290q79 0 132.5 38t53.5 112
q0 112 -153 170l-131 49q-92 34 -144.5 102t-52.5 162q0 115 86 185.5t201 70.5q129 0 248 -71zM460 -240q0 -67 -50 -124.5t-122 -94.5l23 -40q84 39 141 110t57 159q0 59 -33 102.5t-92 43.5q-39 0 -70 -28t-31 -69q0 -35 26.5 -64.5t64.5 -29.5q59 0 83 62q3 -13 3 -27z
" />
    <glyph glyph-name="uni021A" unicode="&#x21a;" horiz-adv-x="1046" 
d="M45 1370h956l40 -324h-58q-21 155 -63 212.5t-127 57.5h-184v-1182q0 -54 31.5 -71t110.5 -17h43v-46h-540v46h43q79 0 110 17t31 71v1182h-184q-85 0 -127.5 -58t-63.5 -212h-58zM606 -240q0 -67 -50 -124.5t-122 -94.5l24 -40q84 39 140.5 110t56.5 159q0 59 -33 102.5
t-92 43.5q-39 0 -70 -28t-31 -69q0 -35 26.5 -64.5t64.5 -29.5q59 0 83 62q3 -13 3 -27z" />
    <glyph glyph-name="uni021B" unicode="&#x21b;" horiz-adv-x="591" 
d="M571 106q-20 -68 -70 -105t-118 -37q-93 0 -146.5 57t-53.5 148v664h-163v35h163v300h154v-300h218v-35h-218v-691q0 -47 20.5 -81t61.5 -34q35 0 61.5 22.5t38.5 56.5h52zM431 -240q0 -67 -50 -124.5t-122 -94.5l24 -40q84 39 140.5 110t56.5 159q0 59 -33 102.5
t-92 43.5q-39 0 -70 -28t-31 -69q0 -35 26.5 -64.5t64.5 -29.5q59 0 83 62q3 -13 3 -27z" />
    <glyph glyph-name="circumflex" unicode="&#x2c6;" horiz-adv-x="823" 
d="M218 1051h-100l254 298h79l255 -298h-101l-193 174z" />
    <glyph glyph-name="caron" unicode="&#x2c7;" horiz-adv-x="823" 
d="M118 1349h100l194 -174l193 174h101l-255 -298h-79z" />
    <glyph glyph-name="breve" unicode="&#x2d8;" horiz-adv-x="773" 
d="M612 1334l59 -27q-5 -26 -16.5 -54.5t-35 -62t-54 -59t-77.5 -43t-101 -17.5q-68 0 -123 25t-87 64.5t-50 76t-25 70.5l64 27q3 -6 8 -17t25 -38.5t43 -48.5t62 -38t83 -17t83 16.5t64 39.5t43.5 46.5t26.5 40.5z" />
    <glyph glyph-name="dotaccent" unicode="&#x2d9;" horiz-adv-x="398" 
d="M296 1226q0 -41 -29 -71t-67 -30q-40 0 -69 30t-29 71q0 42 29 71t69 29q39 0 67.5 -29t28.5 -71z" />
    <glyph glyph-name="ring" unicode="&#x2da;" horiz-adv-x="582" 
d="M291 1383q-29 0 -48 -11.5t-27.5 -33.5t-11.5 -44t-3 -54q0 -77 22 -109.5t68 -32.5t68 32.5t22 109.5q0 32 -3 54t-11.5 44t-27.5 33.5t-48 11.5zM102 1240q0 74 55.5 127t133.5 53t133.5 -53t55.5 -127t-55.5 -126.5t-133.5 -52.5t-133.5 52.5t-55.5 126.5z" />
    <glyph glyph-name="ogonek" unicode="&#x2db;" horiz-adv-x="425" 
d="M263 0h72q-78 -21 -116 -55t-38 -91q0 -42 24.5 -75.5t66.5 -39.5l-48 -107q-58 12 -95.5 58.5t-37.5 107.5q0 71 49 124.5t123 77.5z" />
    <glyph glyph-name="tilde" unicode="&#x2dc;" horiz-adv-x="847" 
d="M701 1309l29 -64q-66 -136 -192 -136q-48 0 -99.5 24t-97.5 48.5t-81 24.5q-40 0 -69 -27.5t-41 -69.5l-32 56q64 151 197 151q38 0 79 -15t70.5 -33.5t65 -33.5t63.5 -15q38 0 66 25.5t42 64.5z" />
    <glyph glyph-name="hungarumlaut" unicode="&#x2dd;" horiz-adv-x="854" 
d="M203 1051h-101l356 353v-179zM497 1051h-101l356 353v-179z" />
    <glyph glyph-name="uni03A9" unicode="&#x3a9;" 
d="M716 70v189q144 23 209.5 149t65.5 385q0 292 -83.5 416t-270.5 124t-270.5 -124t-83.5 -416q0 -259 65.5 -385t209.5 -149v-189q0 -70 -68 -70h-334l-30 272h55q5 -50 12.5 -85.5t22 -57.5t26.5 -34t37.5 -17.5t42 -6.5t52.5 -1h95q21 0 21 19v116q-193 40 -298 191
t-105 397q0 291 145 447t405 156t405 -156t145 -447q0 -246 -105.5 -397t-298.5 -191v-116q0 -19 22 -19h95q36 0 52.5 1t42 6.5t37.5 17.5t26.5 34t22 57.5t12.5 85.5h55l-30 -272h-335q-67 0 -67 70z" />
    <glyph glyph-name="uni03BC" unicode="&#x3bc;" horiz-adv-x="1030" 
d="M696 69q-33 -45 -80.5 -70t-98.5 -25q-57 0 -107.5 23.5t-76.5 71.5v-305q0 -87 83 -87h25v-35h-261v1103q0 88 -83 88h-25v35h262v-575q0 -135 52 -193.5t132 -58.5q81 0 129.5 55.5t48.5 196.5v452q0 88 -83 88h-25v35h262v-739q0 -96 55 -96q23 0 67 12v-36
q-22 -15 -60 -25t-71 -10q-57 0 -96.5 26t-48.5 69z" />
    <glyph glyph-name="pi" unicode="&#x3c0;" horiz-adv-x="1050" 
d="M359 779v-656q0 -55 16.5 -71t65.5 -16h26v-36h-370v36h25q54 0 69 17.5t15 69.5v656h-50q-87 0 -87 -83v-25h-36v197h794q98 0 98 63q0 13 -5 31h35q25 -36 25 -76q0 -44 -26.5 -75.5t-74.5 -31.5h-27v-650q0 -96 55 -96q23 0 67 12v-36q-22 -15 -60 -25t-71 -10
q-145 0 -145 143v662h-339z" />
    <glyph glyph-name="Wgrave" unicode="&#x1e80;" horiz-adv-x="1961" 
d="M1392 177l346 1147h-178v46h376v-46h-137l-402 -1324h-129l-268 840l-274 -840h-128l-379 1188q-25 78 -67 107t-98 29h-28v46h496v-46h-58q-37 0 -56.5 -20.5t-19.5 -51.5q0 -13 10 -50l323 -1025l249 758l-81 255q-25 78 -66 106t-98 28h-29v46h522v-46h-84
q-36 0 -56 -20.5t-20 -51.5q0 -21 11 -51zM1135 1460h-101l-255 174v180z" />
    <glyph glyph-name="wgrave" unicode="&#x1e81;" horiz-adv-x="1431" 
d="M904 833h-44q-29 0 -42.5 -15.5t-13.5 -39.5q0 -16 11 -49l191 -627l230 731h-141v35h321v-35h-120l-269 -833h-147l-160 511l-172 -511h-148l-255 762q-24 71 -95 71h-35v35h393v-35h-44q-29 0 -43 -15.5t-14 -39.5q0 -16 11 -49l208 -627l165 501l-49 159
q-22 71 -95 71h-25v35h382v-35zM754 1051h-101l-255 174v179z" />
    <glyph glyph-name="Wacute" unicode="&#x1e82;" horiz-adv-x="1961" 
d="M1392 177l346 1147h-178v46h376v-46h-137l-402 -1324h-129l-268 840l-274 -840h-128l-379 1188q-25 78 -67 107t-98 29h-28v46h496v-46h-58q-37 0 -56.5 -20.5t-19.5 -51.5q0 -13 10 -50l323 -1025l249 758l-81 255q-25 78 -66 106t-98 28h-29v46h522v-46h-84
q-36 0 -56 -20.5t-20 -51.5q0 -21 11 -51zM906 1460h-100l355 354v-180z" />
    <glyph glyph-name="wacute" unicode="&#x1e83;" horiz-adv-x="1431" 
d="M904 833h-44q-29 0 -42.5 -15.5t-13.5 -39.5q0 -16 11 -49l191 -627l230 731h-141v35h321v-35h-120l-269 -833h-147l-160 511l-172 -511h-148l-255 762q-24 71 -95 71h-35v35h393v-35h-44q-29 0 -43 -15.5t-14 -39.5q0 -16 11 -49l208 -627l165 501l-49 159
q-22 71 -95 71h-25v35h382v-35zM737 1051h-100l355 353v-179z" />
    <glyph glyph-name="Wdieresis" unicode="&#x1e84;" horiz-adv-x="1961" 
d="M1738 1324l-346 -1147l-323 1024q-11 30 -11 51q0 31 20 51.5t56 20.5h84v46h-522v-46h29q57 0 98 -28t66 -106l81 -255l-249 -758l-323 1025q-10 37 -10 50q0 31 19.5 51.5t56.5 20.5h58v46h-496v-46h28q56 0 98 -29t67 -107l379 -1188h128l274 840l268 -840h129
l402 1324h137v46h-376v-46h178zM905 1656q0 -41 -29 -71t-67 -30q-40 0 -68.5 30t-28.5 71q0 42 28.5 71t68.5 29q39 0 67.5 -29t28.5 -71zM1231 1656q0 -41 -29 -71t-67 -30q-40 0 -69 30t-29 71q0 42 29 71t69 29q39 0 67.5 -29t28.5 -71z" />
    <glyph glyph-name="wdieresis" unicode="&#x1e85;" horiz-adv-x="1431" 
d="M860 833h44v35h-382v-35h25q73 0 95 -71l49 -159l-165 -501l-208 627q-11 33 -11 49q0 24 14 39.5t43 15.5h44v35h-393v-35h35q71 0 95 -71l255 -762h148l172 511l160 -511h147l269 833h120v35h-321v-35h141l-230 -731l-191 627q-11 33 -11 49q0 24 13.5 39.5t42.5 15.5z
M975 1246q0 -41 -28.5 -70.5t-67.5 -29.5q-40 0 -69 29.5t-29 70.5q0 42 29 71.5t69 29.5q39 0 67.5 -29.5t28.5 -71.5zM649 1246q0 -41 -28.5 -70.5t-67.5 -29.5q-40 0 -68.5 29.5t-28.5 70.5q0 42 28.5 71.5t68.5 29.5q39 0 67.5 -29.5t28.5 -71.5z" />
    <glyph glyph-name="uni1E9E" unicode="&#x1e9e;" horiz-adv-x="1293" 
d="M77 0v46q79 0 110 17t31 71v833q0 228 105.5 320t334.5 92q72 0 136.5 -14t120 -42.5t88.5 -79t33 -117.5q0 -42 -14 -77t-37 -60.5t-50.5 -48t-55 -43t-50.5 -41t-37 -47.5t-14 -57q0 -100 106 -150l152 -70q102 -47 144 -122t42 -177q0 -100 -89.5 -179.5t-214.5 -79.5
q-157 0 -297 80v247h51q1 -122 61 -202.5t176 -80.5q71 0 126.5 45.5t55.5 109.5q0 67 -30 117.5t-112 88.5l-110 50q-76 35 -118.5 105t-42.5 151q0 99 71 183q116 137 116 262q0 83 -62 139t-153 56q-119 0 -190 -68.5t-71 -199.5v-923q0 -54 31 -71t110 -17v-46h-453z
" />
    <glyph glyph-name="Ygrave" unicode="&#x1ef2;" horiz-adv-x="1216" 
d="M662 584l330 740h-178v46h377v-46h-137l-356 -793v-397q0 -54 31.5 -71t110.5 -17v-46h-454v46q79 0 110 17t31 71v345l-299 708q-33 79 -71 108t-102 29h-29v46h492v-46h-76q-59 0 -59 -39q0 -28 20 -79zM808 1460h-100l-255 174v180z" />
    <glyph glyph-name="ygrave" unicode="&#x1ef3;" horiz-adv-x="942" 
d="M481 0h-81l-255 762q-24 71 -95 71h-35v35h393v-35h-44q-29 0 -43 -15.5t-14 -39.5q0 -16 11 -49l199 -612l229 716h-142v34h323v-34h-124l-340 -1059q-34 -106 -94 -170.5t-146 -64.5q-78 0 -138 36v204h61q1 -70 30.5 -108.5t70.5 -38.5q46 0 91 43.5t71 118.5z
M623 1051h-101l-255 174v179z" />
    <glyph glyph-name="uni2009" unicode="&#x2009;" horiz-adv-x="153" 
 />
    <glyph glyph-name="endash" unicode="&#x2013;" horiz-adv-x="954" 
d="M128 435v100h698v-100h-698z" />
    <glyph glyph-name="emdash" unicode="&#x2014;" horiz-adv-x="1271" 
d="M128 435v100h1016v-100h-1016z" />
    <glyph glyph-name="quoteleft" unicode="&#x2018;" horiz-adv-x="451" 
d="M94 1053q0 112 75.5 209.5t175.5 139.5l22 -39q-98 -45 -161.5 -131t-63.5 -185q0 -52 26 -91q0 48 26.5 74.5t63.5 26.5q39 0 69 -27t30 -74q0 -43 -32.5 -74t-76.5 -31q-69 0 -111.5 57.5t-42.5 144.5z" />
    <glyph glyph-name="quoteright" unicode="&#x2019;" horiz-adv-x="446" 
d="M367 1194q0 -112 -75.5 -209.5t-175.5 -139.5l-22 39q97 45 160.5 130.5t63.5 185.5q0 52 -25 90q0 -48 -26.5 -74t-63.5 -26q-39 0 -69.5 26.5t-30.5 73.5q0 43 33 74.5t77 31.5q69 0 111.5 -57.5t42.5 -144.5z" />
    <glyph glyph-name="quotesinglbase" unicode="&#x201a;" horiz-adv-x="441" 
d="M367 -14q0 -112 -75.5 -210t-175.5 -140l-22 39q97 45 160.5 131t63.5 186q0 52 -25 90q0 -48 -26.5 -74t-63.5 -26q-39 0 -69.5 26.5t-30.5 73.5q0 43 33 74t77 31q69 0 111.5 -57.5t42.5 -143.5z" />
    <glyph glyph-name="quotedblleft" unicode="&#x201c;" horiz-adv-x="732" 
d="M432 1053q0 112 75.5 209.5t175.5 139.5l22 -39q-98 -45 -161.5 -131t-63.5 -185q0 -52 26 -91q0 48 26.5 74.5t63.5 26.5q39 0 69 -27t30 -74q0 -43 -32.5 -74t-76.5 -31q-69 0 -111.5 57.5t-42.5 144.5zM94 1053q0 112 75.5 209.5t175.5 139.5l22 -39
q-98 -45 -161.5 -131t-63.5 -185q0 -52 26 -91q0 48 26.5 74.5t63.5 26.5q39 0 69 -27t30 -74q0 -43 -32.5 -74t-76.5 -31q-69 0 -111.5 57.5t-42.5 144.5z" />
    <glyph glyph-name="quotedblright" unicode="&#x201d;" horiz-adv-x="791" 
d="M367 1194q0 -112 -75.5 -209.5t-175.5 -139.5l-22 39q97 45 160.5 130.5t63.5 185.5q0 52 -25 90q0 -48 -26.5 -74t-63.5 -26q-39 0 -69.5 26.5t-30.5 73.5q0 43 33 74.5t77 31.5q69 0 111.5 -57.5t42.5 -144.5zM705 1194q0 -112 -75.5 -209.5t-175.5 -139.5l-22 39
q97 45 160.5 130.5t63.5 185.5q0 52 -25 90q0 -48 -26.5 -74t-63.5 -26q-39 0 -69.5 26.5t-30.5 73.5q0 43 33 74.5t77 31.5q69 0 111.5 -57.5t42.5 -144.5z" />
    <glyph glyph-name="quotedblbase" unicode="&#x201e;" horiz-adv-x="791" 
d="M367 -14q0 -112 -75.5 -210t-175.5 -140l-22 39q97 45 160.5 131t63.5 186q0 52 -25 90q0 -48 -26.5 -74t-63.5 -26q-39 0 -69.5 26.5t-30.5 73.5q0 43 33 74t77 31q69 0 111.5 -57.5t42.5 -143.5zM705 -14q0 -112 -75.5 -210t-175.5 -140l-22 39q97 45 160.5 131
t63.5 186q0 52 -25 90q0 -48 -26.5 -74t-63.5 -26q-39 0 -69.5 26.5t-30.5 73.5q0 43 33 74t77 31q69 0 111.5 -57.5t42.5 -143.5z" />
    <glyph glyph-name="dagger" unicode="&#x2020;" horiz-adv-x="917" 
d="M489 766v-169q0 -93 10.5 -183.5t18.5 -126t24 -103.5q17 -68 17 -93q0 -49 -26.5 -85.5t-74.5 -36.5t-74.5 36.5t-26.5 85.5q0 20 18 88q54 199 54 420v167q0 72 -4 121q-82 -9 -191 -32q-47 -11 -70 -11q-36 0 -61.5 19.5t-25.5 54.5q0 34 25.5 52.5t61.5 18.5
q12 0 65 -11q110 -25 191 -33q-11 106 -45 244q-18 70 -18 91q0 49 26.5 85t74.5 36t74.5 -36t26.5 -85q0 -26 -17 -96q-33 -131 -44 -239q93 10 189 33q46 11 68 11q36 0 61 -18.5t25 -52.5q0 -35 -25.5 -54.5t-60.5 -19.5q-13 0 -70 11q-116 24 -192 32q-4 -74 -4 -121z
" />
    <glyph glyph-name="daggerdbl" unicode="&#x2021;" horiz-adv-x="917" 
d="M488 768q0 -59 4 -151q93 9 197 32q49 11 66 11q35 0 60.5 -18.5t25.5 -52.5q0 -35 -26 -54t-60 -19q-24 0 -73 11q-131 26 -187 31q15 -236 72 -404q8 -24 8 -32q0 -20 -46 -86.5t-71 -66.5q-27 0 -71.5 66.5t-44.5 86.5q0 15 10 42q57 165 71 395q-81 -9 -187 -32
q-47 -11 -72 -11q-36 0 -61.5 19t-25.5 54t25.5 53t61.5 18q13 0 64 -11q103 -23 198 -32q3 67 3 148q0 46 -4 122q-84 -9 -192 -32q-47 -11 -69 -11q-36 0 -61.5 19.5t-25.5 54.5q0 34 25.5 52.5t61.5 18.5q12 0 65 -11q108 -24 191 -33q-12 118 -46 244q-18 70 -18 91
q0 49 26.5 85t74.5 36q49 0 75.5 -36t26.5 -85q0 -26 -17 -96q-33 -131 -44 -239q82 8 191 33q53 11 66 11q35 0 60.5 -18.5t25.5 -52.5q0 -35 -26 -54.5t-60 -19.5q-25 0 -72 11q-98 21 -190 31q-5 -60 -5 -118z" />
    <glyph glyph-name="bullet" unicode="&#x2022;" horiz-adv-x="613" 
d="M501 624q0 -83 -58 -143t-136 -60q-81 0 -137.5 59.5t-56.5 143.5q0 85 56 143t138 58q78 0 136 -58.5t58 -142.5z" />
    <glyph glyph-name="ellipsis" unicode="&#x2026;" horiz-adv-x="1246" 
d="M331 91q0 -45 -32 -78t-75 -33q-44 0 -75.5 32.5t-31.5 78.5t31.5 79t75.5 33q43 0 75 -33t32 -79zM730 91q0 -46 -31.5 -78.5t-74.5 -32.5q-44 0 -76 32.5t-32 78.5t32 79t76 33q43 0 74.5 -33t31.5 -79zM1129 91q0 -46 -31.5 -78.5t-74.5 -32.5q-44 0 -76 32.5
t-32 78.5t32 79t76 33q43 0 74.5 -33t31.5 -79z" />
    <glyph glyph-name="perthousand" unicode="&#x2030;" horiz-adv-x="1973" 
d="M199 -91h-72l1015 1532h71zM1192 378q0 135 -14.5 211.5t-43 106.5t-76.5 30q-72 0 -102.5 -74.5t-30.5 -273.5t30.5 -273.5t102.5 -74.5q48 0 76.5 29.5t43 106t14.5 212.5zM1058 769q81 0 140 -55t87 -142t28 -194q0 -167 -67 -279.5t-188 -112.5q-81 0 -140 55
t-86.5 142t-27.5 195q0 165 67 278t187 113zM439 999q0 135 -14.5 212t-43 107t-76.5 30t-76 -30t-42.5 -107t-14.5 -212q0 -199 30.5 -273.5t102.5 -74.5q48 0 76.5 29.5t43 106t14.5 212.5zM305 1391q81 0 140 -55.5t87 -142.5t28 -194q0 -167 -67 -279.5t-188 -112.5
q-81 0 -140 55t-86.5 142t-27.5 195q0 107 27.5 194t86.5 142.5t140 55.5zM1801 378q0 135 -14.5 211.5t-43 106.5t-76.5 30q-72 0 -102.5 -74.5t-30.5 -273.5t30.5 -273.5t102.5 -74.5q48 0 76.5 29.5t43 106t14.5 212.5zM1667 769q81 0 140 -55t87 -142t28 -194
q0 -167 -67 -279.5t-188 -112.5q-81 0 -140 55t-86.5 142t-27.5 195q0 165 67 278t187 113z" />
    <glyph glyph-name="guilsinglleft" unicode="&#x2039;" horiz-adv-x="550" 
d="M380 41l-324 399l303 391l52 -38l-276 -353l298 -360z" />
    <glyph glyph-name="guilsinglright" unicode="&#x203a;" horiz-adv-x="550" 
d="M464 440l-324 -399l-53 39l298 360l-275 353l51 38z" />
    <glyph glyph-name="fraction" unicode="&#x2044;" horiz-adv-x="362" 
d="M-297 -91h-72l1015 1532h72z" />
    <glyph glyph-name="Euro" unicode="&#x20ac;" horiz-adv-x="1152" 
d="M1044 975h-55q0 185 -75 272.5t-229 87.5q-66 0 -118 -14t-100 -50.5t-81.5 -96.5t-56 -154.5t-29.5 -221.5h491l-99 -100h-394v-13q0 -63 2.5 -116.5t12.5 -122.5t25.5 -124t44.5 -110t68 -92.5t97 -60.5t130 -23q84 0 145 26t96 75.5t51.5 112.5t18.5 145h55v-314
q-162 -107 -366 -107q-123 0 -220 35t-162 97t-108 152t-61.5 195t-18.5 232v13h-108v100h112q11 132 48 237.5t104.5 188t175 127.5t248.5 45q100 0 182.5 -27.5t173.5 -79.5v-314z" />
    <glyph glyph-name="trademark" unicode="&#x2122;" horiz-adv-x="1337" 
d="M43 1370h485l22 -175h-42q-10 76 -30 104.5t-59 28.5h-84v-577q0 -22 14 -29.5t48 -7.5h29v-36h-281v36h29q34 0 48.5 7.5t14.5 29.5v577h-84q-40 0 -60 -28.5t-30 -104.5h-43zM770 1370l179 -497q25 70 86 239t91 258h170v-37q-38 0 -53.5 -7.5t-15.5 -29.5v-545
q0 -22 15.5 -29.5t53.5 -7.5v-36h-238v36q38 0 53.5 7.5t15.5 29.5v494q-26 -75 -92 -261.5t-100 -285.5h-26l-204 553v-500q0 -22 15.5 -29.5t54.5 -7.5v-36h-182v36q39 0 55 7.5t16 29.5v545q0 22 -16 29.5t-55 7.5v37h177z" />
    <glyph glyph-name="Omega" unicode="&#x2126;" 
d="M716 70v189q144 23 209.5 149t65.5 385q0 292 -83.5 416t-270.5 124t-270.5 -124t-83.5 -416q0 -259 65.5 -385t209.5 -149v-189q0 -70 -68 -70h-334l-30 272h55q5 -50 12.5 -85.5t22 -57.5t26.5 -34t37.5 -17.5t42 -6.5t52.5 -1h95q21 0 21 19v116q-193 40 -298 191
t-105 397q0 291 145 447t405 156t405 -156t145 -447q0 -246 -105.5 -397t-298.5 -191v-116q0 -19 22 -19h95q36 0 52.5 1t42 6.5t37.5 17.5t26.5 34t22 57.5t12.5 85.5h55l-30 -272h-335q-67 0 -67 70z" />
    <glyph glyph-name="estimated" unicode="&#x212e;" horiz-adv-x="1460" 
d="M1130 658v328q-57 105 -162.5 155.5t-237.5 50.5q-115 0 -203.5 -41.5t-185.5 -140.5v-352h789zM341 592v-371q76 -80 177.5 -126t211.5 -46q124 0 216 47t178 146h138q-30 -66 -94 -118t-141.5 -81.5t-153.5 -45t-143 -15.5q-131 0 -248.5 44t-208 124t-143.5 202
t-53 269q0 195 85 341t232.5 222t335.5 76q138 0 253.5 -40t204.5 -120t140.5 -209.5t54.5 -298.5h-1042z" />
    <glyph glyph-name="arrowleft" unicode="&#x2190;" horiz-adv-x="1216" 
d="M567 215l-49 -47l-467 480l469 485l49 -48l-391 -403h987v-68h-987z" />
    <glyph glyph-name="arrowup" unicode="&#x2191;" horiz-adv-x="1067" 
d="M1016 740l-47 -49l-400 389v-987h-67v987l-404 -391l-47 49l485 469z" />
    <glyph glyph-name="arrowright" unicode="&#x2192;" horiz-adv-x="1216" 
d="M698 168l-49 47l389 399h-987v68h987l-391 403l49 48l469 -485z" />
    <glyph glyph-name="arrowdown" unicode="&#x2193;" horiz-adv-x="1067" 
d="M969 609l47 -49l-480 -467l-485 469l47 49l404 -391v987h67v-987z" />
    <glyph glyph-name="partialdiff" unicode="&#x2202;" horiz-adv-x="1027" 
d="M510 32q54 0 97.5 31.5t70 79t44.5 107.5t25 111t7 95q0 62 -13.5 123t-40.5 117.5t-76.5 91.5t-114.5 35q-56 0 -98.5 -26t-67 -65t-39.5 -92.5t-20 -99.5t-5 -94q0 -53 5 -104t20.5 -109t40 -101t67 -71.5t98.5 -28.5zM472 896q92 0 170 -47.5t112 -127.5
q-16 248 -146 411t-365 234l15 48q145 -39 268.5 -116.5t216 -186.5t145 -253.5t52.5 -307.5q0 -90 -12 -169.5t-42 -155.5t-76 -130.5t-119.5 -87.5t-166.5 -33q-197 0 -312 132t-115 331q0 90 25.5 172.5t71.5 146.5t118.5 102t159.5 38z" />
    <glyph glyph-name="Delta" unicode="&#x2206;" horiz-adv-x="1051" 
d="M1031 0h-1011l467 1370h136zM123 82h595q34 0 55 19.5t21 52.5q0 15 -11 51l-285 990z" />
    <glyph glyph-name="product" unicode="&#x220f;" horiz-adv-x="1314" 
d="M375 1300v-1430q0 -54 31 -71t110 -17v-46h-454v46q79 0 110.5 17t31.5 71v1366q0 54 -31.5 71t-110.5 17v46h1190v-46q-79 0 -110 -17t-31 -71v-1366q0 -54 31 -71t110 -17v-46h-453v46q79 0 110 17t31 71v1430h-565z" />
    <glyph glyph-name="summation" unicode="&#x2211;" horiz-adv-x="1188" 
d="M599 553l-352 684q-28 54 -59 70.5t-105 16.5v46h968l29 -245h-54q-14 108 -46 149.5t-102 41.5h-483l380 -763l-380 -763h483q70 0 102 41.5t46 149.5h54l-29 -245h-968v46q74 0 105 16.5t59 70.5z" />
    <glyph glyph-name="minus" unicode="&#x2212;" horiz-adv-x="1040" 
d="M102 429v82l836 -3v-82z" />
    <glyph glyph-name="radical" unicode="&#x221a;" horiz-adv-x="1191" 
d="M1161 1446l-526 -1748h-96l-271 611l-183 -90l-34 72l258 129l277 -629l487 1655h88z" />
    <glyph glyph-name="infinity" unicode="&#x221e;" horiz-adv-x="1478" 
d="M1073 143q-48 0 -91.5 13.5t-76.5 35t-64.5 54t-54.5 64t-48 72.5q-32 -55 -60 -92.5t-68 -74t-91 -54.5t-113 -18q-134 0 -229 95.5t-95 228.5t95 228.5t229 95.5q63 0 114 -18.5t91 -55.5t68 -74.5t60 -93.5q31 52 61 90.5t71 75.5t92 56.5t110 19.5q133 0 228.5 -95.5
t95.5 -228.5q0 -134 -95 -229t-229 -95zM1073 225q100 0 171 71t71 171t-71 171t-171 71q-53 0 -96 -19t-79 -58t-59 -74t-54 -92q31 -56 54.5 -91.5t59 -74t79 -57t95.5 -18.5zM406 225q42 0 79.5 14.5t64 34.5t54.5 55.5t45.5 63.5t42.5 73q-31 56 -54 91t-58.5 74.5
t-78.5 58.5t-95 19q-100 0 -171 -71t-71 -171t71 -171t171 -71z" />
    <glyph glyph-name="integral" unicode="&#x222b;" horiz-adv-x="819" 
d="M451 -68q0 -63 44.5 -107.5t107.5 -44.5t108 45l57 -57q-70 -70 -165 -70q-97 0 -165.5 68.5t-68.5 165.5v1224q0 63 -45 108t-108 45q-62 0 -107 -45l-58 57q70 70 165 70q97 0 166 -69t69 -166v-1224z" />
    <glyph glyph-name="approxequal" unicode="&#x2248;" horiz-adv-x="1345" 
d="M1182 718l52 -56q-79 -90 -153.5 -128.5t-155.5 -38.5q-79 0 -235 73l-74 35q-132 62 -222 62q-40 0 -68.5 -4.5t-76.5 -30.5t-93 -75l-54 55q106 134 291 134q60 0 116.5 -14.5t171.5 -64.5l83 -37q73 -33 106.5 -43.5t64.5 -10.5q115 0 247 144zM164 255l-52 54
q79 90 153.5 129.5t155.5 39.5q75 0 234 -74l74 -34q137 -64 222 -64q40 0 69 4.5t77 30.5t93 75l53 -54q-107 -136 -291 -136q-60 0 -116.5 15t-170.5 67l-83 38q-71 32 -105 42t-66 10q-116 0 -247 -143z" />
    <glyph glyph-name="notequal" unicode="&#x2260;" horiz-adv-x="1040" 
d="M102 552v82l522 -2l198 196l59 -58l-141 -139h198v-82l-280 1l-164 -164l444 -1v-82l-526 2l-197 -195l-58 57l139 138l-194 1v82l276 -1l164 163z" />
    <glyph glyph-name="lessequal" unicode="&#x2264;" horiz-adv-x="814" 
d="M694 286l-591 362q-31 22 -31 50q0 32 31 50l594 359l45 -72l-566 -337q62 -44 203 -129t251 -149l109 -63zM73 116v82l660 -3v-82z" />
    <glyph glyph-name="greaterequal" unicode="&#x2265;" horiz-adv-x="814" 
d="M711 648l-591 -362l-45 71q423 243 563 341l-566 337l45 72l594 -359q31 -18 31 -50q0 -28 -31 -50zM741 198v-82l-660 -3v82z" />
    <glyph glyph-name="lozenge" unicode="&#x25ca;" horiz-adv-x="1132" 
d="M566 1278l-390 -593q26 -38 182 -278.5t208 -314.5l390 593zM588 -20h-44l-452 682v47l452 682h44l452 -682v-47z" />
    <glyph glyph-name="commaaccent" unicode="&#xf6c3;" horiz-adv-x="450" 
d="M275 -240q0 14 -3 27q-24 -62 -83 -62q-38 0 -64.5 29.5t-26.5 64.5q0 41 31.5 69t70.5 28q59 0 92 -43.5t33 -102.5q0 -88 -57 -159t-141 -110l-24 40q72 37 122 94.5t50 124.5z" />
    <glyph glyph-name="apple" unicode="&#xf8ff;" horiz-adv-x="1458" 
d="M510 876l-20 34q-187 73 -314 73q-21 0 -36 -9.5t-23.5 -21t-14.5 -34t-8 -36t-5 -39.5q-3 -33 -29 -33q-29 0 -29 53q0 77 35 132t107 55q118 0 374 -86q40 7 107 20t236.5 55t293.5 86q-13 7 -34 19.5t-78 43.5t-104 55t-93 43.5t-63 19.5q-21 0 -32.5 -25.5
t-13.5 -55.5q-1 -12 -8.5 -19t-17.5 -7q-11 0 -19.5 8t-8.5 20q0 60 30 101t71 41q33 0 149.5 -57t218 -114t98.5 -57v-58l-11 -9q2 -62 2 -88q0 -60 -12 -104t-36 -73t-48 -46t-59 -33l49 -110q26 -18 40 -30t25.5 -34.5t11.5 -49.5q0 -9 -1.5 -17t-3 -14t-5.5 -13.5
t-6 -11.5t-8.5 -12t-9 -10.5t-11 -12t-10.5 -11.5q63 -65 155 -107q28 -13 50 -35t27 -47q10 -46 10 -74l-2 -78l-38 17l-23 -27q1 11 1 28q0 93 -41 136l-39 13l28 -39l-81 39l22 -77l-89 83l13 -120l-44 56l-25 -59l-30 74l-16 -91l-35 51l-32 -66l-27 81l-44 -79l-8 77
l-54 -74l-8 49l-89 -47l19 68q-12 -2 -29 -27q-24 -32 -42 -112q-9 -43 -12 -87l-30 30l-29 -35q0 68 5 125q10 111 70 145q38 22 51 42t20 65q-71 54 -71 125q0 41 31 72.5t74 31.5q52 0 52 -38q0 -7 -5.5 -14.5t-13.5 -7.5q-4 0 -14.5 8.5t-15.5 8.5q-9 0 -19 -2
t-23.5 -17t-13.5 -41q0 -30 21.5 -56t49.5 -26q12 0 27 6t29 6q12 0 35.5 -13t58.5 -25.5t75 -12.5q27 0 41.5 17.5t27 54.5t22.5 53q3 6 25.5 28t22.5 42q0 17 -8 38t-24 21q-6 0 -13 -5t-7 -11t10 -17t10 -19t-6.5 -14t-14.5 -6q-6 0 -12 6q-12 11 -24.5 48t-29.5 100.5
t-24 85.5q-14 45 -24.5 75t-28 71.5t-35.5 63.5t-35 22q-13 0 -27.5 -26.5t-32 -85t-27 -95t-28.5 -110.5q-91 -46 -184 -46q-36 0 -61.5 25.5t-38 69.5t-17.5 88t-5 95h-9zM866 968q-44 -2 -116.5 -19t-123.5 -33l-51 -17v-61q0 -28 3 -55t11.5 -58t27 -50t45.5 -19
q18 0 37.5 5t43 13.5t37.5 11.5q34 163 86 282zM1214 1059q-38 0 -97.5 -15t-99.5 -30l-40 -15q25 -6 68.5 -71.5t56.5 -145.5q48 26 68.5 45.5t32.5 61.5t12 120q0 32 -1 50z" />
    <glyph glyph-name="NULL" horiz-adv-x="0" 
 />
    <glyph glyph-name="CR" horiz-adv-x="358" 
 />
    <glyph glyph-name="ampersand.001" horiz-adv-x="1274" 
d="M1198 926l56 -58q0 -48 -16.5 -96t-49 -92.5t-91 -72.5t-132.5 -28h-33q75 -97 75 -233q0 -74 -26.5 -140t-77 -118.5t-134 -83t-189.5 -30.5q-108 0 -197.5 25t-157 74.5t-105.5 129t-38 182.5q0 156 109.5 264.5t274.5 122.5q-134 12 -221.5 90t-87.5 215
q0 82 33.5 145.5t92 100t130 55t153.5 18.5q81 0 172.5 -33.5t143.5 -74.5v-302h-57q0 53 -6 99.5t-23 94.5t-43.5 82t-71.5 55.5t-104 21.5q-106 0 -176 -70t-70 -179q0 -129 79.5 -210t211.5 -81v-51q-160 0 -256.5 -99.5t-96.5 -250.5q0 -90 38.5 -172.5t114.5 -137.5
t172 -55q89 0 159 28t110 74.5t60.5 100.5t20.5 113q0 99 -52 166.5t-149 67.5q-77 0 -146.5 -37t-86.5 -108l-30 45q20 61 70.5 103.5t114.5 64t138 37t143.5 30.5t126 37.5t91 65t34.5 105.5z" />
    <glyph glyph-name="zero.001" horiz-adv-x="1114" 
d="M815 685q0 254 -28 396.5t-82.5 198t-147.5 55.5t-148 -55t-83.5 -198.5t-28.5 -396.5t28.5 -396t83 -198t148.5 -55q93 0 147.5 55t82.5 197.5t28 396.5zM557 1396q145 0 250 -100t155 -258.5t50 -352.5t-50 -352.5t-155 -258.5t-250 -100t-250 100t-155 258.5
t-50 352.5t50 352.5t155 258.5t250 100z" />
    <glyph glyph-name="one.001" horiz-adv-x="735" 
d="M142 0v46h25q78 1 110 17.5t32 70.5v1127q0 17 -7.5 24.5t-25.5 7.5h-198v46q78 4 181 11.5t167 13.5l64 6v-1236q0 -52 29.5 -70t98.5 -18h39v-46h-515z" />
    <glyph glyph-name="two.001" horiz-adv-x="1037" 
d="M154 975v314q91 53 166.5 80t172.5 27q178 0 294.5 -96.5t116.5 -275.5q0 -83 -26 -164.5t-74.5 -156t-101 -136t-122.5 -130.5q-55 -54 -116 -106t-128.5 -107t-84.5 -69h582l50 248h52l-39 -403h-804l29 129q20 20 93.5 92.5t107 106.5t88 94.5t95.5 113.5
q201 262 201 520q0 57 -11.5 105t-36.5 89.5t-71.5 65t-109.5 23.5q-264 0 -268 -364h-55z" />
    <glyph glyph-name="three.001" horiz-adv-x="1070" 
d="M309 720v49q109 2 178 16q111 24 172.5 101.5t61.5 195.5q0 108 -62.5 182.5t-172.5 74.5q-75 0 -130 -30t-85.5 -83t-44.5 -115t-16 -137h-55v314q88 52 171 79.5t181 27.5q61 0 116.5 -10t107.5 -33.5t90 -58.5t61 -89t23 -121q0 -148 -98.5 -234.5t-255.5 -99.5
q178 -10 292 -106t114 -274q0 -132 -62 -223t-163 -131.5t-233 -40.5q-207 0 -376 106v314h55q0 -163 79 -261t230 -98q133 0 205 99.5t72 241.5q0 140 -67.5 229.5t-209.5 107.5q-57 7 -178 7z" />
    <glyph glyph-name="four.001" horiz-adv-x="1049" 
d="M678 970l171 56v-892q0 -54 31 -71t110 -17v-46h-478v46h25q79 0 110 17t31 71v235q0 29 -30 29h-587v101l476 871h66l-429 -817h504v417z" />
    <glyph glyph-name="five.001" horiz-adv-x="1037" 
d="M113 394h55q0 -161 78 -260.5t226 -99.5q75 0 130 29.5t84.5 82t43 114t13.5 136.5q0 46 -5.5 90t-17.5 91.5t-33.5 87t-51.5 71t-74.5 49.5t-99.5 18q-150 0 -286 -136l-57 38l75 665h690l-15 -155h-618l-55 -454q56 54 140 83.5t177 29.5q196 0 304.5 -117.5
t108.5 -321.5q0 -214 -118 -337.5t-336 -123.5q-187 0 -358 106v314z" />
    <glyph glyph-name="six.001" horiz-adv-x="1037" 
d="M543 32q56 0 98.5 28.5t67 71.5t40 101t20.5 109t5 104q0 48 -5 94t-20 99.5t-39.5 92.5t-67 65t-98.5 26q-65 0 -114.5 -35t-76.5 -91.5t-40.5 -117.5t-13.5 -123q0 -44 7 -95t25 -111t44.5 -107.5t70 -79t97.5 -31.5zM581 896q116 0 202.5 -65.5t129 -168.5t42.5 -225
q0 -199 -115 -331t-312 -132q-93 0 -166.5 33t-119 87.5t-75.5 130.5t-42 155.5t-12 169.5q0 163 52.5 307.5t145 253.5t216 186.5t268.5 116.5l15 -48q-235 -71 -365 -234t-146 -411q34 80 112 127.5t170 47.5z" />
    <glyph glyph-name="seven.001" horiz-adv-x="836" 
d="M257 1h-171l584 1214h-650l37 155h759v-36z" />
    <glyph glyph-name="eight.001" horiz-adv-x="1106" 
d="M817 312q0 54 -18.5 102.5t-47 84.5t-71 69.5t-83 56t-89.5 45.5q-21 9 -38 9q-23 0 -44 -16q-136 -109 -136 -302q0 -84 30.5 -156.5t96.5 -121.5t155 -49q104 0 174.5 86t70.5 192zM771 1057q0 118 -59.5 201t-165.5 83q-91 0 -150 -63t-59 -157q0 -185 220 -327
q45 -29 69 -29q36 0 82 66q63 91 63 226zM999 349q0 -92 -37 -164.5t-100 -116.5t-140.5 -67t-163.5 -23q-83 0 -160 21.5t-143.5 64t-106.5 116.5t-40 169q0 69 25 128.5t70 103.5t98.5 76t118.5 54q-110 52 -179.5 145t-69.5 213q0 96 54 172t140 115.5t187 39.5
q169 0 280 -87.5t111 -228.5q0 -113 -65.5 -202t-197.5 -136q140 -51 229.5 -152.5t89.5 -240.5z" />
    <glyph glyph-name="nine.001" horiz-adv-x="1037" 
d="M495 1338q-56 0 -98.5 -28.5t-67 -71.5t-40.5 -101t-21 -109t-5 -104q0 -62 9.5 -120t32.5 -120t71.5 -99.5t117.5 -37.5q65 0 114.5 35t76.5 91.5t40 117.5t13 123q0 57 -12 123.5t-38 137t-76.5 117t-116.5 46.5zM457 474q-87 0 -159.5 38t-118.5 102t-71.5 146.5
t-25.5 172.5q0 199 115 331t312 132q93 0 166.5 -33t119.5 -87.5t76 -130.5t42 -155.5t12 -169.5q0 -163 -52.5 -307.5t-145 -253.5t-216 -186.5t-268.5 -116.5l-16 48q235 71 365 234t146 411q-34 -81 -111.5 -128t-169.5 -47z" />
    <glyph glyph-name="cedilla.001" horiz-adv-x="522" 
d="M273 0h65l-107 -110q26 6 45 6q17 0 38.5 -6.5t47 -21.5t42 -47.5t16.5 -76.5q0 -71 -53 -118.5t-127 -47.5q-70 0 -138 52l27 38q58 -40 102 -40q42 0 66.5 33.5t24.5 78.5q0 42 -21 74t-62 32q-25 0 -61 -18l-34 36z" />
    <glyph glyph-name="grave.001" horiz-adv-x="590" 
d="M473 1460h-100l-255 174v180z" />
    <glyph glyph-name="acute.001" horiz-adv-x="590" 
d="M218 1460h-100l355 354v-180z" />
    <glyph glyph-name="circumflex.001" horiz-adv-x="823" 
d="M218 1460h-100l254 298h79l255 -298h-101l-193 174z" />
    <glyph glyph-name="dieresis.001" horiz-adv-x="775" 
d="M322 1656q0 -41 -29 -71t-68 -30q-40 0 -68.5 30t-28.5 71q0 42 28.5 71t68.5 29q39 0 68 -29.5t29 -70.5zM647 1656q0 -41 -29 -71t-67 -30q-40 0 -68.5 30t-28.5 71q0 42 28.5 71t68.5 29q39 0 67.5 -29t28.5 -71z" />
    <glyph glyph-name="tilde.001" horiz-adv-x="847" 
d="M701 1718l29 -63q-66 -136 -192 -136q-48 0 -99.5 24t-97.5 48.5t-81 24.5q-40 0 -69 -27.5t-41 -69.5l-32 56q64 150 197 150q38 0 79 -15t70.5 -33.5t65 -33.5t63.5 -15q38 0 66 25.5t42 64.5z" />
    <glyph glyph-name="caron.001" horiz-adv-x="823" 
d="M118 1758h100l194 -174l193 174h101l-255 -298h-79z" />
    <glyph glyph-name="dotaccent.001" horiz-adv-x="398" 
d="M301 1635q0 -43 -30 -74t-71 -31q-42 0 -72.5 31t-30.5 74q0 44 30.5 75t72.5 31q41 0 71 -31t30 -75z" />
    <glyph glyph-name="ring.001" horiz-adv-x="582" 
d="M291 1793q-29 0 -48 -11.5t-27.5 -33.5t-11.5 -44t-3 -54q0 -78 22 -110.5t68 -32.5t68 32.5t22 110.5q0 32 -3 54t-11.5 44t-27.5 33.5t-48 11.5zM102 1650q0 74 55.5 127t133.5 53t133.5 -53t55.5 -127t-55.5 -127t-133.5 -53t-133.5 53t-55.5 127z" />
    <glyph glyph-name="macron.001" horiz-adv-x="672" 
d="M80 1619l22 110h491l-23 -110h-490z" />
    <glyph glyph-name="hungarumlaut.001" horiz-adv-x="854" 
d="M203 1460h-101l356 354v-180zM497 1460h-101l356 354v-180z" />
    <glyph glyph-name="breve.001" horiz-adv-x="773" 
d="M612 1744l59 -28q-5 -26 -16.5 -54.5t-35 -61.5t-54 -59t-77.5 -43t-101 -17q-68 0 -123 25t-87 64t-50.5 75.5t-24.5 70.5l64 28q3 -7 8 -17.5t25 -38t43 -48.5t62 -38.5t83 -17.5t83 16.5t64 40t43.5 47t26.5 40.5z" />
    <glyph glyph-name="ogonek.001" horiz-adv-x="425" 
d="M263 0h72q-78 -21 -116 -55t-38 -91q0 -42 24.5 -75.5t66.5 -39.5l-48 -107q-58 12 -95.5 58.5t-37.5 107.5q0 71 49 124.5t123 77.5z" />
    <glyph glyph-name="zero.002" horiz-adv-x="635" 
d="M450 378q0 135 -15 211.5t-43.5 106.5t-76.5 30q-72 0 -102.5 -74.5t-30.5 -273.5t30.5 -273.5t102.5 -74.5q49 0 77 29.5t43 106t15 212.5zM315 769q81 0 140 -55t87 -142t28 -194q0 -167 -67 -279.5t-188 -112.5q-81 0 -140 55t-86.5 142t-27.5 195q0 165 67 278
t187 113z" />
    <glyph glyph-name="one.002" horiz-adv-x="427" 
d="M83 0v36h20q39 0 54.5 8t15.5 34v612q0 13 -10 13h-115v35l239 18v-678q0 -25 14 -33.5t47 -8.5h29v-36h-294z" />
    <glyph glyph-name="two.002" horiz-adv-x="593" 
d="M90 530v178q51 31 93.5 46t98.5 15q99 0 164.5 -54t65.5 -153q0 -147 -179 -322q-57 -56 -137 -120l-31 -26h294l27 135h42l-20 -229h-453l17 77l43 43q117 115 167 180q107 138 107 279q0 65 -27 107t-89 42q-136 0 -140 -198h-43z" />
    <glyph glyph-name="three.002" horiz-adv-x="611" 
d="M174 391v37q71 2 104 9q56 13 87.5 54t31.5 102q0 57 -31.5 96t-87.5 39q-75 0 -108.5 -56t-35.5 -143h-44v179q104 60 199 60q43 0 81 -9t71 -28.5t52 -54.5t19 -82q0 -73 -43 -119.5t-116 -61.5q85 -14 137 -66t52 -141q0 -109 -71.5 -164.5t-185.5 -55.5
q-117 0 -212 60v178h45q0 -88 41 -141t120 -53q69 0 106 52.5t37 127.5q0 74 -35.5 121.5t-108.5 56.5q-23 3 -104 3z" />
    <glyph glyph-name="four.002" horiz-adv-x="623" 
d="M374 536l107 34v-492q0 -26 17 -34t60 -8v-36h-273v36h19q40 0 55 8t15 34v128q0 11 -8 11h-327v59l261 479h51l-234 -445h257v226z" />
    <glyph glyph-name="five.002" horiz-adv-x="593" 
d="M68 224h44q0 -88 40.5 -141.5t117.5 -53.5q75 0 108 54t33 137q0 52 -11.5 97.5t-46.5 82t-89 36.5q-77 0 -153 -76l-40 26l41 369h388l-7 -95h-337q-5 -40 -15 -113t-14 -113q63 51 164 51q110 0 171 -65t61 -178q0 -119 -66 -187.5t-188 -68.5q-103 0 -201 60v178z" />
    <glyph glyph-name="six.002" horiz-adv-x="593" 
d="M308 28q35 0 60 22t37 58t17 70t5 70q0 33 -5 63.5t-16.5 63t-37 52.5t-60.5 20q-44 0 -73.5 -33t-40.5 -74.5t-11 -86.5q0 -30 6 -65.5t19 -73t39.5 -62t60.5 -24.5zM329 497q97 0 154 -74.5t57 -179.5q0 -111 -64.5 -184t-175.5 -73q-65 0 -112 27t-72 74t-36.5 100.5
t-11.5 116.5q0 179 107.5 306t275.5 171l11 -37q-247 -74 -276 -317q23 32 62 51t81 19z" />
    <glyph glyph-name="seven.002" horiz-adv-x="483" 
d="M158 1h-108l318 659h-353l23 95h426v-24z" />
    <glyph glyph-name="eight.002" horiz-adv-x="631" 
d="M451 175q0 113 -163 190q-13 5 -19 5q-5 0 -20 -9q-71 -58 -71 -159q0 -69 39 -121t108 -52q54 0 90 44.5t36 101.5zM425 580q0 62 -31 106t-85 44q-46 0 -75.5 -33.5t-29.5 -82.5q0 -97 115 -174q22 -14 34 -14q11 0 25 15q28 35 38 69q9 34 9 70zM563 196
q0 -100 -72.5 -154t-174.5 -54q-63 0 -117.5 19.5t-94 68.5t-39.5 120t44.5 120t116.5 76q-57 29 -92 79.5t-35 114.5q0 81 63 132t151 51q96 0 158.5 -48.5t62.5 -128.5q0 -59 -34.5 -107t-102.5 -76q74 -30 120 -85t46 -128z" />
    <glyph glyph-name="nine.002" horiz-adv-x="593" 
d="M282 728q-35 0 -59.5 -22t-36.5 -58t-17 -70.5t-5 -70.5q0 -33 5 -64t16.5 -63.5t36.5 -52.5t60 -20q63 0 94.5 61t31.5 134q0 30 -6.5 65.5t-19.5 73t-39.5 62.5t-60.5 25zM262 258q-97 0 -154.5 75t-57.5 179q0 110 64.5 183.5t175.5 73.5q64 0 111.5 -27t73 -73.5
t37 -100.5t11.5 -116q0 -179 -107.5 -306.5t-275.5 -172.5l-13 37q246 73 277 318q-25 -32 -63 -51t-79 -19z" />
    <glyph glyph-name="zero.003" horiz-adv-x="635" 
d="M450 999q0 135 -15 212t-43.5 107t-76.5 30t-76 -30t-42.5 -107t-14.5 -212q0 -199 30.5 -273.5t102.5 -74.5q49 0 77 29.5t43 106t15 212.5zM315 1391q81 0 140 -55.5t87 -142.5t28 -194q0 -167 -67 -279.5t-188 -112.5q-81 0 -140 55t-86.5 142t-27.5 195
q0 107 27.5 194t86.5 142.5t140 55.5z" />
    <glyph glyph-name="one.003" horiz-adv-x="442" 
d="M83 622v35h20q39 0 54.5 8t15.5 34v613q0 13 -10 13h-115v35l239 17v-678q0 -25 14 -33.5t47 -8.5h29v-35h-294z" />
    <glyph glyph-name="two.003" horiz-adv-x="593" 
d="M90 1152v177q52 31 94.5 46.5t97.5 15.5q99 0 164.5 -54t65.5 -153q0 -148 -179 -323q-57 -56 -137 -120l-31 -25h294l27 135h42l-20 -229h-453l17 76l43 43q108 104 167 181q107 138 107 278q0 65 -27 107.5t-89 42.5q-136 0 -140 -198h-43z" />
    <glyph glyph-name="three.003" horiz-adv-x="611" 
d="M174 1013v37q71 2 104 9q56 13 87.5 53.5t31.5 101.5q0 57 -31.5 96.5t-87.5 39.5q-75 0 -108.5 -56t-35.5 -143h-44v178q106 61 199 61q59 0 106.5 -15.5t82 -56.5t34.5 -103q0 -73 -43 -119.5t-116 -61.5q85 -14 137 -66t52 -141q0 -109 -71.5 -164.5t-185.5 -55.5
q-115 0 -212 61v178h45q0 -88 41 -141.5t120 -53.5q69 0 106 52.5t37 127.5q0 74 -35.5 122t-108.5 57q-23 3 -104 3z" />
    <glyph glyph-name="four.003" horiz-adv-x="621" 
d="M374 1157l107 35v-493q0 -26 17 -34t60 -8v-35h-273v35h19q40 0 55 8t15 34v128q0 12 -8 12h-327v59l261 478h51l-234 -444h257v225z" />
    <glyph glyph-name="five.003" horiz-adv-x="593" 
d="M68 846h44q0 -88 40.5 -142t117.5 -54q75 0 108 54.5t33 137.5q0 52 -11.5 97.5t-46.5 82t-89 36.5q-77 0 -153 -76l-40 26l41 368h388l-7 -94h-337q-5 -40 -15 -113t-14 -113q63 51 164 51q110 0 171 -65t61 -179q0 -119 -66 -187.5t-188 -68.5q-101 0 -201 61v178z" />
    <glyph glyph-name="six.003" horiz-adv-x="593" 
d="M308 649q35 0 60 22t37 58t17 70t5 70q0 33 -5 64t-16.5 63.5t-37 52.5t-60.5 20q-44 0 -73.5 -33t-40.5 -75t-11 -87q0 -30 6 -65t19 -73t39.5 -62.5t60.5 -24.5zM329 1118q97 0 154 -74.5t57 -179.5q0 -111 -64.5 -184t-175.5 -73q-65 0 -112 27t-72 74.5t-36.5 101
t-11.5 116.5q0 179 107.5 306t275.5 171l11 -37q-247 -74 -276 -317q23 32 62 50.5t81 18.5z" />
    <glyph glyph-name="seven.003" horiz-adv-x="483" 
d="M158 623h-108l318 659h-353l23 94h426v-23z" />
    <glyph glyph-name="eight.003" horiz-adv-x="631" 
d="M451 797q0 114 -163 189q-10 5 -19 5q-7 0 -20 -8q-71 -58 -71 -160q0 -69 39 -121t108 -52q54 0 90 45t36 102zM425 1201q0 62 -31 106.5t-85 44.5q-46 0 -75.5 -33.5t-29.5 -82.5q0 -97 115 -174q22 -14 34 -14q13 0 26 16q27 35 37 70q9 33 9 67zM563 817
q0 -100 -72.5 -154t-174.5 -54q-63 0 -117.5 19.5t-94 68.5t-39.5 120t44.5 120.5t116.5 76.5q-58 29 -92.5 79t-34.5 114q0 81 63 132.5t151 51.5q95 0 158 -49t63 -129q0 -59 -34.5 -107t-102.5 -76q74 -30 120 -85t46 -128z" />
    <glyph glyph-name="nine.003" horiz-adv-x="589" 
d="M280 1350q-35 0 -59.5 -22t-36.5 -58.5t-17 -71t-5 -70.5q0 -33 5 -63.5t16.5 -63t36.5 -52.5t60 -20q63 0 94.5 60.5t31.5 133.5q0 30 -6.5 65.5t-19.5 73.5t-39.5 63t-60.5 25zM260 880q-97 0 -154.5 75t-57.5 179q0 110 64.5 183.5t175.5 73.5q52 0 93 -18.5
t66.5 -48.5t42.5 -72t24 -86t7 -93q0 -179 -107 -306t-276 -172l-13 37q121 36 191.5 116.5t85.5 200.5q-25 -32 -63 -50.5t-79 -18.5z" />
    <glyph glyph-name="zero.004" horiz-adv-x="972" 
d="M714 630q0 236 -23.5 366t-71.5 181.5t-133 51.5q-86 0 -134 -51.5t-71.5 -182t-23.5 -365.5t23.5 -365t71.5 -181t134 -51t133.5 51t71 180.5t23.5 365.5zM486 1284q100 0 179 -52.5t128.5 -144t75 -208t25.5 -249.5t-25.5 -249.5t-74.5 -207.5t-128.5 -144t-179.5 -53
t-179.5 53t-128.5 144t-74.5 207.5t-25.5 249.5t25.5 249.5t74.5 208t128.5 144t179.5 52.5z" />
    <glyph glyph-name="one.004" horiz-adv-x="972" 
d="M279 0v42h22q72 1 101.5 16.5t29.5 65.5v1036q0 30 -30 30h-183v42q72 4 167 11t154 13l59 5v-1137q0 -49 27.5 -65.5t90.5 -16.5h36v-42h-474z" />
    <glyph glyph-name="two.004" horiz-adv-x="972" 
d="M155 897v289q82 49 152 73.5t160 24.5q163 0 271 -89t108 -253q0 -77 -24 -151.5t-68.5 -143.5t-93 -125.5t-113.5 -119.5q-40 -39 -87 -80.5t-78.5 -67.5t-77 -63t-59.5 -49h534l46 229h48l-35 -371h-740l27 119q14 14 85 84t100 100t79.5 85.5t88.5 104.5
q185 241 185 479q0 71 -17.5 126.5t-66.5 94.5t-126 39q-243 0 -247 -335h-51z" />
    <glyph glyph-name="three.004" horiz-adv-x="972" 
d="M273 663v45q99 2 164 15q103 22 159 93t56 179q0 100 -57.5 168.5t-158.5 68.5q-56 0 -99.5 -18.5t-71.5 -50t-46.5 -75.5t-27 -91t-9.5 -101h-51v289q166 98 325 98q71 0 133 -15.5t116 -47.5t85.5 -89.5t31.5 -134.5q0 -136 -91 -216t-235 -91q164 -10 269 -98
t105 -252q0 -180 -117.5 -271.5t-305.5 -91.5q-189 0 -345 98v288h51q0 -149 73 -239.5t211 -90.5q123 0 189 91t66 223q0 129 -62 210.5t-193 98.5q-59 8 -164 8z" />
    <glyph glyph-name="four.004" horiz-adv-x="972" 
d="M626 892l157 52v-820q0 -51 29 -66.5t101 -15.5v-42h-440v42h23q73 0 101.5 15.5t28.5 66.5v215q0 13 -7.5 20.5t-19.5 7.5h-540v92l437 802h61l-394 -752h463v383z" />
    <glyph glyph-name="five.004" horiz-adv-x="972" 
d="M113 362h50q0 -148 72 -239.5t208 -91.5q69 0 119 27t77.5 75.5t40 105.5t12.5 126q0 66 -12 126.5t-39 118.5t-81 93t-128 35q-139 0 -262 -125l-53 35l68 613h635l-12 -143h-569l-52 -418q52 50 129.5 77.5t162.5 27.5q181 0 280.5 -108t99.5 -297q0 -196 -108.5 -310
t-308.5 -114q-171 0 -329 98v288z" />
    <glyph glyph-name="six.004" horiz-adv-x="972" 
d="M481 30q52 0 93 25.5t67 65.5t43 93t23.5 104.5t6.5 104.5q0 46 -5.5 89t-21 89t-39 79.5t-64 55.5t-92.5 22q-78 0 -136 -54.5t-84 -131.5t-26 -162q0 -58 12.5 -119.5t38 -122t73.5 -99.5t111 -39zM525 822q162 0 262.5 -119t100.5 -296q0 -182 -110.5 -306.5
t-304.5 -124.5q-109 0 -189 40.5t-125.5 112.5t-66.5 160t-21 194q0 306 187.5 522t505.5 287l13 -46q-232 -56 -364.5 -201.5t-157.5 -372.5q34 70 108 110t162 40z" />
    <glyph glyph-name="seven.004" horiz-adv-x="972" 
d="M347 1h-177l567 1117h-638l34 143h739v-33z" />
    <glyph glyph-name="eight.004" horiz-adv-x="972" 
d="M729 288q0 61 -24 113.5t-68.5 92.5t-89.5 68t-103 54q-23 9 -34 9q-20 0 -41 -16q-125 -101 -125 -276q0 -121 69 -211.5t191 -90.5q96 0 160.5 79t64.5 178zM686 972q0 109 -55 185.5t-152 76.5q-85 0 -138.5 -58t-53.5 -145q0 -171 202 -301q41 -27 64 -27q32 0 75 62
q58 84 58 207zM896 322q0 -84 -34 -151t-92 -107.5t-129.5 -61.5t-150.5 -21q-60 0 -118 11.5t-112 38t-94.5 65t-65 97t-24.5 129.5q0 123 80.5 205.5t207.5 125.5q-102 47 -166 133.5t-64 196.5q0 133 103.5 217t246.5 84q156 0 258.5 -80t102.5 -210q0 -104 -60.5 -186
t-182.5 -125q129 -47 211.5 -140.5t82.5 -220.5z" />
    <glyph glyph-name="nine.004" horiz-adv-x="972" 
d="M477 1231q-64 0 -111.5 -37.5t-72.5 -98.5t-36.5 -125.5t-11.5 -131.5q0 -46 5.5 -89t21 -89t39 -79.5t64 -55.5t92.5 -22q78 0 136 54.5t84 131.5t26 162q0 57 -12.5 119t-38.5 122.5t-74 99.5t-111 39zM433 438q-162 0 -262 119.5t-100 296.5q0 182 110 306t304 124
q88 0 157.5 -27t115 -73.5t75 -112t42.5 -138t13 -156.5q0 -306 -187.5 -522t-505.5 -287l-14 46q232 56 364.5 202t157.5 373q-34 -70 -108 -110.5t-162 -40.5z" />
    <glyph glyph-name="zero.005" horiz-adv-x="746" 
d="M529 5q0 161 -17 251.5t-50 126t-91 35.5q-57 0 -91 -35t-51.5 -126t-17.5 -252t17.5 -251.5t51.5 -125.5t91 -35q58 0 91 35t50 125.5t17 251.5zM371 467q96 0 165.5 -65t102 -168t32.5 -229q0 -127 -32.5 -229.5t-102 -167.5t-165.5 -65q-95 0 -164.5 65t-102 167.5
t-32.5 229.5q0 126 32.5 229t102 168t164.5 65z" />
    <glyph glyph-name="one.005" horiz-adv-x="499" 
d="M96 -440v40h24q46 1 65 10.5t19 40.5v724q0 16 -15 16h-134v39q51 2 121 7.5t114 10.5l45 4v-801q0 -30 17.5 -40.5t57.5 -10.5h31v-40h-345z" />
    <glyph glyph-name="two.005" horiz-adv-x="696" 
d="M104 186v208q60 37 110.5 55t114.5 18q119 0 195.5 -63t76.5 -182q0 -71 -32 -143t-73.5 -124t-104.5 -113q-55 -53 -172 -149q-7 -6 -15.5 -12.5t-14.5 -11.5h353l31 160h48l-26 -269h-532l20 90l61 59q135 133 187 203q129 168 129 331q0 76 -33 126.5t-108 50.5
q-161 0 -165 -234h-50z" />
    <glyph glyph-name="three.005" horiz-adv-x="717" 
d="M205 23v40q75 2 119 11q69 15 107 63.5t38 122.5q0 67 -38.5 113.5t-105.5 46.5q-61 0 -100 -35t-53.5 -84.5t-16.5 -115.5h-50v209q123 72 233 72q51 0 95.5 -11t83.5 -34t61.5 -64t22.5 -96q0 -88 -51.5 -142.5t-139.5 -72.5q98 -19 161.5 -81.5t63.5 -163.5
q0 -128 -83.5 -193t-218.5 -65t-248 71v209h50q0 -104 49 -167.5t142 -63.5q83 0 127 62t44 152q0 191 -172 212q-43 5 -120 5z" />
    <glyph glyph-name="four.005" horiz-adv-x="729" 
d="M441 191l125 40v-580q0 -31 20 -41t70 -10v-40h-321v40h22q47 0 65.5 10t18.5 41v150q0 15 -12 15h-383v69l307 566h58l-276 -526h306v266z" />
    <glyph glyph-name="five.005" horiz-adv-x="696" 
d="M78 -177h50q0 -103 48.5 -167.5t138.5 -64.5t129.5 64t39.5 165q0 45 -8 86.5t-26.5 81.5t-55 64t-85.5 24q-93 0 -182 -91l-46 30l49 436h457l-9 -110h-398q-5 -48 -16.5 -135.5t-17.5 -135.5q73 61 196 61q129 0 200.5 -76.5t71.5 -210.5q0 -139 -77.5 -220t-221.5 -81
q-120 0 -237 71v209z" />
    <glyph glyph-name="six.005" horiz-adv-x="696" 
d="M361 -410q42 0 72 26t44 69t20 83.5t6 83.5q0 39 -5.5 76t-19.5 75.5t-44 62t-72 23.5q-40 0 -70.5 -22t-47 -57.5t-24 -74t-7.5 -77.5q0 -36 7 -77.5t22.5 -86.5t46.5 -74.5t72 -29.5zM386 145q114 0 181 -88t67 -211q0 -131 -76 -217t-206 -86q-76 0 -131.5 32
t-85.5 87.5t-43.5 118.5t-13.5 137q0 210 126 359.5t324 202.5l14 -41q-138 -42 -222 -141t-104 -238q28 38 74.5 61.5t95.5 23.5z" />
    <glyph glyph-name="seven.005" horiz-adv-x="566" 
d="M183 -439h-125l376 780h-416l25 110h501v-29z" />
    <glyph glyph-name="eight.005" horiz-adv-x="741" 
d="M530 -234q0 134 -194 224q-16 6 -21 6q-8 0 -24 -9q-84 -72 -84 -191q0 -82 46 -143.5t128 -61.5q64 0 106.5 54t42.5 121zM501 244q0 73 -36.5 125t-100.5 52q-56 0 -91.5 -38.5t-35.5 -96.5q0 -116 138 -207q28 -18 40 -18q13 0 31 21q55 55 55 162zM663 -211
q0 -117 -85.5 -180.5t-205.5 -63.5q-54 0 -105 14t-95 42t-70.5 76.5t-26.5 111.5q0 84 53.5 142t139.5 91q-68 34 -110 94t-42 136q0 95 74.5 155t177.5 60q111 0 184.5 -57.5t73.5 -150.5q0 -71 -40.5 -128t-120.5 -89q87 -36 142.5 -101t55.5 -152z" />
    <glyph glyph-name="nine.005" horiz-adv-x="696" 
d="M331 420q-42 0 -71.5 -26t-44 -69t-20.5 -83.5t-6 -83.5q0 -39 6 -75.5t20 -75.5t43.5 -62.5t71.5 -23.5q53 0 88.5 39t48.5 88.5t13 103.5q0 36 -7.5 78t-23 86.5t-46.5 74t-72 29.5zM306 -135q-114 0 -181 88t-67 211q0 130 76 216.5t206 86.5q76 0 131.5 -32
t85.5 -87.5t43.5 -118.5t13.5 -137q0 -210 -126 -359.5t-324 -203.5l-13 42q141 41 224 138.5t102 240.5q-29 -39 -75 -62t-96 -23z" />
    <glyph glyph-name="hyphen.001" horiz-adv-x="688" 
d="M128 579v130h432v-130h-432z" />
    <glyph glyph-name="endash.001" horiz-adv-x="954" 
d="M128 599v99h698v-99h-698z" />
    <glyph glyph-name="emdash.001" horiz-adv-x="1271" 
d="M128 599v99h1016v-99h-1016z" />
    <glyph glyph-name="periodcentered.001" horiz-adv-x="437" 
d="M326 645q0 -45 -32 -78t-75 -33q-44 0 -75.5 32.5t-31.5 78.5t31.5 79t75.5 33q43 0 75 -33t32 -79z" />
    <glyph glyph-name="bullet.001" horiz-adv-x="613" 
d="M501 583q0 -83 -58 -143t-136 -60q-81 0 -137.5 59.5t-56.5 143.5q0 85 56 143t138 58q78 0 136 -58.5t58 -142.5z" />
    <glyph glyph-name="guilsinglleft.001" horiz-adv-x="550" 
d="M380 204l-324 399l303 391l52 -39l-276 -352l298 -360z" />
    <glyph glyph-name="guilsinglright.001" horiz-adv-x="550" 
d="M464 644l-324 -399l-53 39l298 360l-275 352l51 39z" />
    <glyph glyph-name="guillemotleft.001" horiz-adv-x="802" 
d="M632 204l-324 399l303 391l52 -39l-276 -352l298 -360zM381 204l-325 399l304 391l52 -39l-276 -352l297 -360z" />
    <glyph glyph-name="guillemotright.001" horiz-adv-x="802" 
d="M464 644l-324 -399l-53 39l298 360l-275 352l51 39zM716 644l-325 -399l-52 39l297 360l-276 352l52 39z" />
    <glyph glyph-name="parenleft.001" horiz-adv-x="508" 
d="M451 -252l-51 -28q-19 24 -45.5 64t-75 134t-86.5 197t-67 253t-29 302t29 302t66.5 252t86.5 197t75 133.5t46 64.5l51 -29q-284 -413 -284 -920q0 -509 284 -922z" />
    <glyph glyph-name="parenright.001" horiz-adv-x="508" 
d="M76 -280l-50 28q283 412 283 922q0 508 -283 920l50 29q20 -26 46 -64.5t75 -133.5t86.5 -197t66.5 -252t29 -302t-29 -302t-67 -253t-86.5 -197t-75 -134t-45.5 -64z" />
    <glyph glyph-name="bracketleft.001" horiz-adv-x="491" 
d="M425 1601v-54h-192v-1751h192v-53h-256v1858h256z" />
    <glyph glyph-name="bracketright.001" horiz-adv-x="491" 
d="M36 1547v54h256v-1858h-256v53h191v1751h-191z" />
    <glyph glyph-name="braceleft.001" horiz-adv-x="568" 
d="M77 641v64q71 0 108.5 54.5t37.5 155.5v425q0 138 64 200t164 62h51v-64h-51q-73 0 -118.5 -46.5t-45.5 -151.5v-425q0 -86 -27 -148.5t-74 -93.5q47 -31 74 -94t27 -149v-425q0 -105 45.5 -151.5t118.5 -46.5h51v-63h-51q-100 0 -164 61.5t-64 199.5v425
q0 101 -37.5 156t-108.5 55z" />
    <glyph glyph-name="braceright.001" horiz-adv-x="568" 
d="M461 705v-64q-71 0 -109 -55t-38 -156v-425q0 -138 -63.5 -199.5t-163.5 -61.5h-51v63h51q73 0 118.5 46.5t45.5 151.5v425q0 87 26.5 150t73.5 93q-100 65 -100 242v425q0 105 -45.5 151.5t-118.5 46.5h-51v64h51q100 0 163.5 -62t63.5 -200v-425q0 -101 38 -155.5
t109 -54.5z" />
    <glyph glyph-name="period.001" horiz-adv-x="433" 
d="M326 91q0 -45 -32 -78t-75 -33q-44 0 -75.5 32.5t-31.5 78.5t31.5 79t75.5 33q43 0 75 -33t32 -79z" />
    </font>
</defs>
</svg>
